<?xml version="1.0" encoding="UTF-8" standalone="no"?>
<svg
   version="1.1"
   id="svg5"
   x="0px"
   y="0px"
   viewBox="0 0 2666.3 460.1"
   style="enable-background:new 0 0 2666.3 460.1;"
   xml:space="preserve"
   xmlns="http://www.w3.org/2000/svg"
   xmlns:svg="http://www.w3.org/2000/svg"
   xmlns:rdf="http://www.w3.org/1999/02/22-rdf-syntax-ns#"
   xmlns:cc="http://creativecommons.org/ns#"
   xmlns:dc="http://purl.org/dc/elements/1.1/"><title
   id="title1529">PIT</title><defs
   id="defs118"><linearGradient
     id="linearGradient1117"><stop
       style="stop-color:#000000;stop-opacity:1;"
       offset="0"
       id="stop1115" /></linearGradient></defs>
<style
   type="text/css"
   id="style2">
	.st0{fill:#AE6D20;}
	.st1{fill:#FBAD0B;}
	.st2{fill:#FAC028;}
	.st3{fill:#FCDD86;}
	.st4{fill:#FEFEFE;}
	.st5{fill:#432407;}
	.st6{enable-background:new    ;}
</style>

<g
   id="layer1"
   transform="translate(720.79485,-36.366105)"><path
   id="path62"
   d="m 309.19531,43.634766 c -5.3,0 -10.90078,2.499609 -16.80078,7.599609 -23.5,-0.3 -45.60039,0.298828 -66.40039,1.798828 -20.8,1.5 -40.29844,3.8 -58.39844,7 -46.7,8.5 -79.101168,21.601172 -97.201169,39.201172 -9.6,9.100005 -14.40039,18.399995 -14.40039,28.000005 0,8.3 3.7,14.99921 11,20.19921 7.3,5.2 17.501562,7.80079 30.601562,7.80079 8.499997,0 17.699607,-1.1004 27.599607,-3.4004 9.9,-2.3 19.29922,-5.69921 28.19922,-10.19921 8.9,-4.5 16.20078,-10.10079 21.80078,-16.80079 1.3,-2.1 0.89883,-3.19921 -1.20117,-3.19921 -1.1,0 -2.89961,1.09921 -5.59961,3.19921 -3.7,3.5 -9.20039,6.60039 -16.40039,9.4004 -7.2,2.8 -14.69844,4.9996 -22.39844,6.5996 -7.7,1.6 -14.4,2.4004 -20,2.4004 -9.599997,0 -17.500778,-1.8004 -23.800778,-5.4004 -6.3,-3.6 -9.400391,-8.20078 -9.400391,-13.80078 0,-6.4 4,-12.49843 12,-18.39843 18.699999,-14.700005 47.299999,-26.100395 85.999999,-34.400395 36.3,-8 73.6,-11.701172 112,-11.201172 -10.9,26.400001 -21.29922,49.801167 -31.19922,70.201177 -9.9,20.4 -19.30039,37.79921 -28.40039,52.19921 l -34.80078,62.80079 c -13.9,24.5 -27.59922,43.19999 -41.19922,56 -11.5,10.7 -24.5,18.8996 -39,24.5996 -14.499998,5.7 -29.700389,8.59961 -45.400389,8.59961 -15.5,0 -27.90039,-3.80039 -37.40039,-11.40039 -9.500001,-7.6 -14.199219,-18.69843 -14.199219,-33.39843 0,-10.7 2.300781,-21.50039 6.800781,-32.40039 4.5,-10.90001 10.798828,-20.9 18.798828,-30 8,-9.10001 17.100391,-16.30079 27.400391,-21.80079 10.3,-5.5 20.999218,-8.19921 32.199219,-8.19921 10.099999,-10e-6 18.301559,2.89882 24.601559,8.79882 6.3,5.9 9.39844,13.70157 9.39844,23.60157 0,10.9 -4.29883,22.69921 -12.79883,35.19921 -0.8,1.1 -1.20117,2.09922 -1.20117,3.19922 0,4.3 5.20156,10e-4 15.60156,-12.79882 10.4,-12.80001 15.59961,-23.20118 15.59961,-31.20118 0,-10.9 -4.10117,-19.6 -12.20117,-26 -8.1,-6.4 -19.29844,-9.59961 -33.39844,-9.59961 -13.899997,0 -27.100778,2.7 -39.800778,8 -12.7,5.3 -23.900781,12.7 -33.800781,22 -9.900001,9.3 -17.698438,19.90078 -23.3984379,31.80079 -5.7000001,11.9 -8.60156248,24.49882 -8.60156248,37.79882 0,18.4 6.10039048,32.50117 18.40039038,42.20118 12.3,9.7 28.799609,14.5996 49.59961,14.5996 39.999999,0 74.401169,-14.39921 103.201169,-43.19921 5.9,-5.9 14.2,-16.30118 25,-31.20118 10.8,-14.9 24.29961,-34.3 40.59961,-58 8,3.5 16.89961,5.99961 26.59961,7.59961 9.7,1.6 19.89961,2.40039 30.59961,2.40039 14.1,0 28.5,-1.3 43,-4 14.5,-2.7 28.2,-6.29882 41,-10.79882 13.9,-5.1 27.10078,-11.90039 39.80078,-20.40039 12.7,-8.50001 23.09922,-18.3004 31.19922,-29.4004 8.1,-11.1 12.20117,-22.7 12.20117,-35 0,-11.5 -4.40117,-21.40078 -13.20117,-29.800777 -8.8,-8.4 -20.29961,-15.499219 -34.59961,-21.199219 -14.3,-5.7 -29.99922,-10.20039 -47.19922,-13.40039 -17.2,-3.2 -34.2,-5.300391 -51,-6.400391 1.3,-5.6 -0.7,-8.398437 -6,-8.398437 z m 1108.79879,8 c -13.9,0 -28.2984,1.499609 -43.3984,4.599609 -15.1,3.1 -29.4,7.499219 -43,13.199219 -13.6,5.7 -25.5016,12.7 -35.6016,21 -20,15.999996 -30,31.999996 -30,47.999996 0,10.4 4.3,19.70078 13,27.80079 8.7,8.1 20.2016,13.79999 34.6016,17 l 70.3984,16 c 22.1,6.9 33.2012,16.69921 33.2012,29.19921 0,8.8 -3.5004,17.90118 -10.4004,27.20118 -6.9,9.3 -15.7004,17.8996 -26.4004,25.59961 -10.7,7.7 -21.5988,13.99882 -32.7988,18.79882 -26.4,10.9 -54.0008,16.40039 -82.8008,16.40039 -13.1,0 -25.2004,-1.19961 -36.4004,-3.59961 -9.6,-9.1 -16.4004,-20.09921 -20.4004,-33.19921 -0.8,-2.7 -1.8,-8.3 -3,-17 -1.2,-8.7 -2.6996,-20.3 -4.5996,-35 -1.6,-15.7 -7.1004,-23.60157 -16.4004,-23.60157 -12.3,0 -22.3984,7.10117 -30.3984,21.20118 -3.5,5.9 -5.2012,12.49999 -5.2012,20 0,9.9 2.8004,20.09882 8.4004,30.79882 5.6,10.7 12.0996,19.20157 19.5996,25.60157 5.3,4.3 12.1012,7.9 20.2012,11 8.1,3.1 17.8984,5.49843 29.3984,7.39843 16.3,13.1 29.9008,19.60157 40.8008,19.60157 5.6,0 8.4004,-1.20157 8.4004,-3.60157 0,-0.8 -0.4012,-1.29961 -1.2012,-1.59961 -7.5,-1.9 -14.0988,-3.9 -19.7988,-6 -5.7,-2.1 -10.5012,-4.30039 -14.2012,-6.40039 4.8,0.5 9.7008,0.90117 14.8008,1.20118 5.1,0.3 10.0992,0.40039 15.1992,0.40039 40.3,0 75.2008,-6.50157 104.8008,-19.60157 13.1,-5.6 24.7,-12.6 35,-21 10.3,-8.4 18.4996,-17.89961 24.5996,-28.59961 6.1,-10.7 9.2012,-22.10039 9.2012,-34.40039 0,-13.9 -5.6008,-24.2 -16.8008,-31 -11.2,-6.8 -25.9,-11.89843 -44,-15.39843 l -47.1992,-8.80079 c -15.5,-2.9 -27.0016,-7.40039 -34.6016,-13.40039 -7.6,-6 -11.3984,-12.89961 -11.3984,-20.59961 0,-10.1 6.8988,-21.60039 20.7988,-34.400386 8,-7.5 17.7012,-13.69961 29.2012,-18.59961 11.5,-4.9 23.5984,-8.699218 36.3984,-11.199218 12.8,-2.5 25.2012,-3.800782 37.2012,-3.800782 33.1,0 53.7,7.600781 62,22.800782 2.9,5.9 4.4004,11.498828 4.4004,16.798824 0,10.4 -5.1012,18.29961 -15.2012,23.59961 -1.3,0.5 -3.5004,1.10157 -6.4004,1.60157 -2.9,0.5 -6.6992,0.89921 -11.1992,1.19921 -7.5,0.3 -11.1992,1.29922 -11.1992,3.19922 0,0.8 0.2988,1.5 0.7988,2 2.4,1.6 5.7,2.40039 10,2.40039 6.9,0 15.3012,-2 25.2012,-6 16.3,-6.4 24.3984,-17.7 24.3984,-33.999996 0,-3.2 -0.3992,-6.098828 -1.1992,-8.798828 -3.5,-11.700001 -12.1992,-20.700782 -26.1992,-26.800782 -14,-6.1 -30.9016,-9.199218 -50.6016,-9.199218 z M 312.39453,60.833984 c 14.1,0.8 28.8,2.5 44,5 15.2,2.5 29.30039,6.09961 42.40039,10.59961 13.1,4.5 23.59961,10.30039 31.59961,17.40039 8,7.099996 12,15.399996 12,24.999996 0,8.5 -2.89883,17.00039 -8.79883,25.4004 -5.9,8.4 -13.60117,16.2996 -23.20117,23.5996 -9.6,7.3 -20.09961,13.89961 -31.59961,19.59961 -11.5,5.7 -22.8,10.50118 -34,14.20118 -11.2,3.5 -21.70039,6.19921 -31.40039,8.19921 -9.7,2 -19.50039,3 -29.40039,3 -4.8,0 -9.59844,-0.1996 -14.39844,-0.5996 -4.8,-0.40001 -9.70078,-1.10118 -14.80078,-2.20118 -2.7,-0.5 -5.10039,-1.09882 -7.40039,-1.79882 -2.3,-0.70001 -4.29922,-1.49961 -6.19922,-2.59961 l 8.79883,-13.60157 c 12,-18.9 22.10039,-35.99922 30.40039,-51.19922 8.3,-15.2 14.70117,-28.5 19.20117,-40 z M 1952.7949,102.0332 c -2.9,0 -5.1004,0.40117 -6.4004,1.20118 -12.8,9.1 -36.1,38.8996 -70,89.5996 -10.8093,16.1985 -19.7448,30.19151 -27.2129,42.4629 -1.0117,0.14623 -2.1774,0.79307 -3.5859,1.9375 -1.6,1.3 -3.1004,2.80039 -4.4004,4.40039 -13.6,16.3 -27.3012,28.99921 -41.2012,38.19921 -13.9,9.2 -25.0996,13.80079 -33.5996,13.80079 -4.8,0 -8.1,-1.30079 -10,-3.80079 -1.9,-2.5 -2.7988,-5.3996 -2.7988,-8.5996 0,-6.90001 1.4996,-13.79961 4.5996,-20.59961 3.1,-6.8 6.5996,-13.40079 10.5996,-19.80079 4,-6.4 7.6008,-12.09921 10.8008,-17.19921 6.4,-9.9 13.9988,-21.00039 22.7988,-33.40039 8.8,-12.40001 18.6996,-25.89961 29.5996,-40.59961 l 28,-37.60157 c -0.3,-2.4 -1.7996,-4.59961 -4.5996,-6.59961 -2.8,-2 -5.4992,-3 -8.1992,-3 -13.1,0 -35.2004,25.3 -66.4004,76 -11.5,18.7 -21.6996,36.7 -30.5996,54 -0.6367,1.23769 -1.2013,2.43633 -1.793,3.65039 -30.7705,36.75114 -52.3674,55.1504 -64.8066,55.1504 -4.5,0 -7.5008,-3.10118 -8.8008,-9.20118 -1.6,-9.1 6.2996,-26.29961 23.5996,-51.59961 17.3,-25.9 25.8996,-39.09961 25.5996,-39.59961 -0.3,-1.9 -1.6,-4.00039 -4,-6.40039 -2.4,-2.4 -5.1984,-3.59961 -8.3984,-3.59961 -1.1,0 -2.0008,0.19961 -2.8008,0.59961 -0.8,0.4 -1.7008,0.59961 -2.8008,0.59961 -0.5,0 -1.2992,-1.59882 -2.1992,-4.79882 -0.9,-3.20001 -2.2992,-5.69961 -4.1992,-7.59961 -3.5,-2.9 -8.3004,-4.40039 -14.4004,-4.40039 -22.7,0 -48.1004,14.10039 -76.4004,42.40039 -9.951,9.88119 -17.9695,19.27479 -24.1328,28.20507 -0.4837,0.45537 -0.9374,0.8652 -1.4668,1.39454 -8.3,9.1 -16.6,17.09921 -25,24.19921 -8.4,7.1 -16.1,12.7 -23,17 -2.7,1.6 -7,3.79961 -13,6.59961 -6,2.8 -12.3,5.30039 -19,7.40039 -6.7,2.1 -12.4012,3.20118 -17.2012,3.20118 -7.2,0 -12.3996,-1.40118 -15.5996,-4.20118 -3.2,-2.8 -4.7988,-6.29961 -4.7988,-10.59961 0,-4.8 1.7984,-11.49921 5.3984,-20.19921 3.6,-8.7 8.1004,-17.80039 13.4004,-27.40039 5.3,-9.60001 10.7,-18.3 16,-26 5.3,-7.70001 9.8996,-13.2004 13.5996,-16.4004 0.8,-0.3 5.9004,-1.10039 15.4004,-2.40039 9.5,-1.3 23.1,-3.19961 41,-5.59961 31.5,-4 47.2012,-7.1996 47.2012,-9.5996 0,-0.50001 -0.4012,-0.90118 -1.2012,-1.20118 -0.5,0 -3.2,0.10117 -8,0.20118 -4.8,0.1 -10.5,0.30039 -17,0.40039 -6.5,0.1 -12.7988,0.19921 -18.7988,0.19921 h -13.8008 -16.8008 c -4.5,0 -7.9984,-0.10039 -10.3984,-0.40039 12.8,-14.4 19.1992,-23.29882 19.1992,-26.79882 0,-2.4 -2.1004,-4.80118 -6.4004,-7.20118 -3.5,-1.9 -6.1,-2.79882 -8,-2.79882 h -1.1992 c -4.3,1.6 -10.0012,6.9 -17.2012,16 -5.1,6.9 -9.9988,13.4996 -14.7988,19.59961 h -23.2012 c -1.1,0.3 -2.2996,0.40039 -3.5996,0.40039 -1.9,0.3 -3.8992,1.19882 -6.1992,2.79882 -2.3,1.6 -3.4004,3.90078 -3.4004,6.80079 0,6.1 4,9.19921 12,9.19921 2.7,0 5.6992,-0.39921 9.1992,-1.19921 -5.6,10.7 -11.1988,21.50039 -16.7988,32.40039 -5.6,10.9 -10.3,21.0996 -14,30.59961 -3.7,9.5 -5.5996,17.30039 -5.5996,23.40039 0,10.7 2.4984,18.09921 7.3984,22.19921 4.9,4.1 11.7012,6.19922 20.2012,6.19922 8.5,0 17.7988,-1.49843 27.7988,-4.39843 10,-2.9 20.5004,-7.70039 31.4004,-14.40039 9.6,-5.90001 18.3012,-12.3004 26.2012,-19.4004 2.9109,-2.61608 5.6764,-5.28682 8.375,-7.98437 -2.8973,8.13638 -3.9222,15.80473 -2.9766,22.98437 0.8,6.1 4.4008,11.5 10.8008,16 6.4,4.5 12.7992,6.80079 19.1992,6.80079 3.7,0 8.6016,-1.60079 14.6016,-4.80079 6,-3.2 12.6992,-8.5 20.1992,-16 l 24.8008,-24 c -1.1,4.5 -1.6016,9.09961 -1.6016,13.59961 0,13.1 5.9016,21.90039 17.6016,26.40039 2.1,0.8 4.3988,1.19922 6.7988,1.19922 14.2643,0 33.4579,-14.22387 57.5352,-42.54492 -2.0675,7.13974 -3.1348,13.73891 -3.1348,19.7461 0,9.1 3.3,15.50039 10,19.40039 6.7,3.9 13.8996,5.79882 21.5996,5.79882 8.2,0 16.3996,-2.39921 24.5996,-7.19921 8.1,-4.80001 15.9012,-10.69961 23.2012,-17.59961 7.3,-6.9 13.7,-13.30118 19,-19.20118 l 1.4414,-1.62109 c -8.4061,15.42814 -12.6426,25.98128 -12.6426,31.62109 0,6.4 4.8004,11.50118 14.4004,15.20118 l 12.4004,-24.80079 c 2.7,-5.1 5,-9.49921 7,-13.19921 2,-3.7 3.9008,-6.80118 5.8008,-9.20118 3.5,7.7 7.6996,15.50118 12.5996,23.20118 4.9,7.7 10.7996,14.09921 17.5996,19.19921 6.8,5.1 14.6004,7.59961 23.4004,7.59961 10.1,0 20.5996,-3.39921 31.5996,-10.19921 10.6592,-6.64975 21.0279,-14.85456 31.1133,-24.56446 -0.187,1.74025 -0.3125,3.46734 -0.3125,5.16406 0,9.1 3.4984,16.30079 10.3984,21.80079 6.9,5.5 14.7012,8.19921 23.2012,8.19921 14.1,0 31.4,-7.50039 52,-22.40039 9.9,-6.9 19.0996,-14.49882 27.5996,-22.79882 4.4516,-4.34684 8.7583,-8.89866 12.9356,-13.65821 4.7638,-5.1352 10.9707,-12.69674 18.664,-22.74218 l 29.5996,-38.4004 c 4.3,9.1 9.6,13.59961 16,13.59961 h 2.4004 c 0.8,0 1.7008,-0.10039 2.8008,-0.40039 -3.2,4.3 -6.3012,8.90078 -9.2012,13.80078 -2.9,4.9 -5.6984,10.49961 -8.3984,16.59961 -6.9,15.5 -10.4004,28.8 -10.4004,40 0,10.1 2.1004,18.20118 6.4004,24.20118 4.3,6 12.0996,9 23.5996,9 7.7,0 16.2988,-2.30079 25.7988,-6.80079 9.5,-4.5 18.7016,-10.30039 27.6016,-17.40039 8.9,-7.1 16.4996,-14.1 22.5996,-21 l 12.7988,-14.40039 c 1.3,-1.6 2.3008,-3.09843 2.8008,-4.39843 0.5,-1.3 0.8008,-2.30079 0.8008,-2.80079 0,-1.9 -0.9008,-2.80078 -2.8008,-2.80078 -0.5,0 -1.2,0.40117 -2,1.20118 l -2,2 -9.5996,11.19921 c -5.9,6.7 -13.1008,13.49961 -21.8008,20.59961 -8.7,7.1 -17.5988,13.00078 -26.7988,17.80078 -9.2,4.8 -17.8008,7.19922 -25.8008,7.19922 -11.7,0 -17.5996,-6 -17.5996,-18 0,-13.3 8.4996,-30.89882 25.5996,-52.79882 l 27.5996,-34.80079 c 0.8,-2.1 -4e-4,-4.49921 -2.4004,-7.19921 -2.4,-2.70001 -5.1984,-4 -8.3984,-4 -1.1,0 -1.9004,0.10039 -2.4004,0.40039 l -10.4004,6.39843 c -5.9,3.5 -11.2,5.20118 -16,5.20118 -8.3,0 -12.4004,-2.8004 -12.4004,-8.4004 0,-0.3 3.1996,-4.50078 9.5996,-12.80078 6.7,-8.3 10,-14.9 10,-20 0,-5.6 -3.0992,-8.39843 -9.1992,-8.39843 -9.3,0 -17.0992,11.59882 -23.1992,34.79882 -5.6,10.9 -12.7012,22.09961 -21.2012,33.59961 -8.3667,11.31974 -17.6131,22.73844 -27.5332,34.25196 -9.1925,10.18961 -19.5748,19.95396 -31.2656,29.34961 -21.1,17.9 -38.3016,26.79882 -51.6016,26.79882 -13.1,0 -19.5996,-6.89882 -19.5996,-20.79882 0,-8 2,-15.60079 6,-22.80079 1.6,0.5 3.4996,0.80079 5.5996,0.80079 14.4,0 32.1012,-6.40118 53.2012,-19.20118 23.7,-14.4 35.5996,-29.1 35.5996,-44 0,-4.8 -1.9008,-8.89921 -5.8008,-12.19921 -3.9,-3.30001 -8.9,-5 -15,-5 -18.7,0 -39.8996,12.29882 -63.5996,36.79882 -15.9515,16.70788 -26.4185,32.13989 -31.4023,46.29492 -8.6671,8.5394 -17.0659,15.67726 -25.1973,21.30665 -14.3,9.9 -25.6992,14.79882 -34.1992,14.79882 -17.3,0 -29.7012,-16.49961 -37.2012,-49.59961 -0.5,-1.9 -0.3004,-3.29921 0.5996,-4.19921 0.9,-0.9 2.2008,-1.3 3.8008,-1 5.3,3.5 14.9008,5.19921 28.8008,5.19921 12.8,0 26.8984,-4.10039 42.3984,-12.40039 19.2,-9.9 29.9,-22.39961 32,-37.59961 0.5,-4.3 -0.4992,-8.69921 -3.1992,-13.19921 -2.7,-4.5 -6.3,-8.40157 -11,-11.60157 -4.7,-3.2 -9.8004,-4.79882 -15.4004,-4.79882 -14.4,0 -33.7,6.29882 -58,18.79882 0.5,-1.3 2.9012,-4.59882 7.2012,-9.79882 4.3,-5.20001 9.3,-11.3004 15,-18.4004 5.7,-7.1 11.4,-14.1 17,-21 5.6,-6.9 10.3,-12.90078 14,-17.80078 3.7,-4.9 5.5996,-7.79961 5.5996,-8.59961 0,-4.3 -4.1004,-6.40039 -12.4004,-6.40039 z m -1437.99998,0.40039 c -13.1,0 -35.20039,25.3 -66.40039,76 -11.5,18.7 -21.69961,36.7 -30.59961,54 -8.9,17.3 -13.40039,32.30078 -13.40039,44.80079 0,9.1 3.3,15.50039 10,19.40039 6.7,3.9 13.89961,5.79882 21.59961,5.79882 8.3,0 16.50156,-2.39921 24.60156,-7.19921 8.1,-4.80001 15.89922,-10.69961 23.19922,-17.59961 6.99959,-6.61605 13.14412,-12.76038 18.3125,-18.45704 -2.5415,7.64327 -3.40575,14.86821 -2.51172,21.65625 0.8,6.1 4.39883,11.5 10.79883,16 6.4,4.5 12.80117,6.80079 19.20117,6.80079 3.7,0 8.59961,-1.60079 14.59961,-4.80079 6,-3.2 12.69922,-8.5 20.19922,-16 l 24.80078,-24 c -1.1,4.5 -1.59961,9.09961 -1.59961,13.59961 0,13.1 5.89961,21.90039 17.59961,26.40039 2.1,0.8 4.39883,1.19922 6.79883,1.19922 12.62247,0 29.09975,-11.12214 49.40625,-33.29882 -1.72032,4.66271 -2.60547,8.70731 -2.60547,12.0996 0,4.5 1.69922,8.89922 5.19922,13.19922 3.5,4.3 8.1,6.40039 14,6.40039 10.9,0 25.50156,-7.09921 43.60156,-21.19921 l 58.79883,-46 -15.19922,36.79882 c -5.9,13.9 -12.09961,26.50078 -18.59961,37.80078 -6.5,11.3 -12.9,21.30079 -19,29.80079 -17.6,24.3 -34.00117,36.39843 -49.20117,36.39843 -6.7,0 -13.50039,-3.3 -20.40039,-10 -5.3,-5.3 -9.59883,-10 -12.79883,-14 -0.3,9.1 2.79922,17.30078 9.19922,24.80078 6.4,7.2 13.90039,10.80079 22.40039,10.80079 25.9,0 51.69961,-20.80039 77.59961,-62.40039 17.1,-30.70001 29.7,-54 38,-70 0.5,-1.30001 2.5,-4.5004 6,-9.4004 3.5,-4.9 8.1,-11.9 14,-21 11.2,-16.5 16.80078,-25.30039 16.80078,-26.40039 0,-5.9 -3.60078,-8.79882 -10.80078,-8.79882 -5.1,0 -10.09922,2.89882 -15.19922,8.79882 -1.9,2.7 -3.9,5.30078 -6,7.80079 -2.1,2.5 -4.30039,5.09882 -6.40039,7.79882 -6.1,6.1 -13.70078,13.10078 -22.80078,20.80078 -9.1,7.7 -19.49922,16.29961 -31.19922,25.59961 -28.5,22.1 -47.09961,33.20118 -55.59961,33.20118 -4.5,0 -6.80078,-1.70118 -6.80078,-5.20118 0,-8.8 11.70117,-25.69882 35.20117,-50.79882 23.7,-25.3 35.59961,-39.20157 35.59961,-41.60157 0,-6.1 -4.10039,-9.19922 -12.40039,-9.19922 -9.9,0 -24.70039,13.19961 -44.40039,39.59961 -2.53935,3.36432 -4.90176,6.59702 -7.11523,9.71875 -32.52558,39.38852 -55.20659,59.08204 -68.08399,59.08204 -4.5,0 -7.50078,-3.10118 -8.80078,-9.20118 -1.6,-9.1 6.29961,-26.29961 23.59961,-51.59961 17.3,-25.9 25.90156,-39.09961 25.60156,-39.59961 -0.3,-1.9 -1.6,-4.00039 -4,-6.40039 -2.4,-2.4 -5.20039,-3.59961 -8.40039,-3.59961 -1.1,0 -2.00078,0.19961 -2.80078,0.59961 -0.8,0.4 -1.69883,0.59961 -2.79883,0.59961 -0.5,0 -1.30117,-1.59882 -2.20117,-4.79882 -0.9,-3.20001 -2.29922,-5.69961 -4.19922,-7.59961 -3.5,-2.9 -8.30039,-4.40039 -14.40039,-4.40039 -22.7,0 -48.10039,14.10039 -76.40039,42.40039 -10.41018,10.33712 -18.72783,20.14692 -24.99219,29.44335 -0.0712,0.0564 -0.1346,0.0974 -0.20703,0.15626 -1.6,1.3 -3.10039,2.80039 -4.40039,4.40039 -13.6,16.3 -27.29922,28.99921 -41.19922,38.19921 -13.9,9.2 -25.10156,13.80079 -33.60156,13.80079 -4.8,0 -8.1,-1.30079 -10,-3.80079 -1.9,-2.5 -2.79883,-5.3996 -2.79883,-8.5996 0,-6.90001 1.49961,-13.79961 4.59961,-20.59961 3.1,-6.8 6.59961,-13.40079 10.59961,-19.80079 4,-6.4 7.60078,-12.09921 10.80078,-17.19921 6.4,-9.9 13.99883,-21.00039 22.79883,-33.40039 8.8,-12.40001 18.70156,-25.89961 29.60156,-40.59961 l 28,-37.60157 c -0.3,-2.4 -1.80156,-4.59961 -4.60156,-6.59961 -2.8,-2 -5.49922,-3 -8.19922,-3 z m 480.80078,37.20118 c -9.3,0 -17.10117,11.59882 -23.20117,34.79882 -5.6,10.9 -12.69922,22.09961 -21.19922,33.59961 -8.36545,11.31797 -17.61103,22.73442 -27.52929,34.2461 -9.1937,10.19157 -19.57865,19.95815 -31.27149,29.35547 -21.1,17.9 -38.29961,26.79882 -51.59961,26.79882 -13.1,0 -19.59961,-6.89882 -19.59961,-20.79882 0,-8 2,-15.60079 6,-22.80079 1.6,0.5 3.49961,0.80079 5.59961,0.80079 14.4,0 32.09922,-6.40118 53.19922,-19.20118 23.7,-14.4 35.60156,-29.1 35.60156,-44 0,-4.8 -1.90078,-8.89921 -5.80078,-12.19921 -3.9,-3.30001 -8.9,-5 -15,-5 -18.7,0 -39.89961,12.29882 -63.59961,36.79882 -23.2,24.3 -34.80078,45.90078 -34.80078,64.80078 0,9.1 3.50039,16.30079 10.40039,21.80079 6.9,5.5 14.69922,8.19921 23.19922,8.19921 14.1,0 31.5,-7.50039 52,-22.40039 9.9,-6.9 19.10156,-14.49882 27.60156,-22.79882 4.45257,-4.3478 8.75934,-8.90141 12.9375,-13.66211 4.76352,-5.13517 10.97022,-12.69474 18.66211,-22.73828 l 29.59961,-38.4004 c 4.3,9.1 9.6,13.59961 16,13.59961 h 2.40039 c 0.8,0 1.69883,-0.10039 2.79883,-0.40039 -3.2,4.3 -6.29922,8.90078 -9.19922,13.80078 -2.9,4.9 -5.70039,10.49961 -8.40039,16.59961 -6.9,15.5 -10.40039,28.8 -10.40039,40 0,10.1 2.10039,18.20118 6.40039,24.20118 4.3,6 12.09961,9 23.59961,9 7.69996,0 16.30076,-2.30079 25.80076,-6.80079 9.5,-4.5 18.6996,-10.30039 27.5996,-17.40039 8.9,-7.1 16.4996,-14.1 22.5996,-21 l 12.8008,-14.40039 c 1.3,-1.6 2.3008,-3.09843 2.8008,-4.39843 0.5,-1.3 0.7988,-2.30079 0.7988,-2.80079 0,-1.9 -0.8988,-2.80078 -2.7988,-2.80078 -0.5,0 -1.2,0.40117 -2,1.20118 l -2,2 -9.6016,11.19921 c -5.9,6.7 -13.0988,13.49961 -21.7988,20.59961 -8.7,7.1 -17.6008,13.00078 -26.8008,17.80078 -9.2,4.8 -17.7988,7.19922 -25.7988,7.19922 -11.7,0 -17.60156,-6 -17.60156,-18 0,-13.3 8.50156,-30.89882 25.60156,-52.79882 l 27.5996,-34.80079 c 0.8,-2.1 -4e-4,-4.49921 -2.4004,-7.19921 -2.4,-2.70001 -5.2004,-4 -8.4004,-4 -1.1,0 -1.9004,0.10039 -2.4004,0.40039 l -10.3984,6.39843 c -5.9,3.5 -11.2,5.20118 -16,5.20118 -8.3,0 -12.40039,-2.8004 -12.40039,-8.4004 0,-0.3 3.19961,-4.50078 9.59961,-12.80078 6.69998,-8.3 9.99998,-14.9 9.99998,-20 0,-5.6 -3.0992,-8.39843 -9.1992,-8.39843 z m 968,34.79882 c 2.7,0 5.1996,1.10118 7.5996,3.20118 2.4,2.1 3.5996,4.29843 3.5996,6.39843 0,12.5 -11.1996,24.40157 -33.5996,35.60157 -19.5,9.9 -35.2012,14.79882 -47.2012,14.79882 -0.6,0 -3.1988,-0.19961 -7.7988,-0.59961 -4.7,-0.4 -8.5004,-0.5996 -11.4004,-0.5996 4.5,-15.20001 17.3004,-29.2 38.4004,-42 19.2,-11.20001 36.0004,-16.80079 50.4004,-16.80079 z M 621.19531,180.0332 c 4.8,0 8.30039,1.90157 10.40039,5.60157 l -42.40039,58.39843 c -26.7,33.9 -47.70117,50.80078 -63.20117,50.80078 -5.1,0 -8.29961,-3.1996 -9.59961,-9.5996 -2.9,-17.30001 10.00078,-39.3 38.80078,-66 27.7,-26.10001 49.7,-39.20118 66,-39.20118 z m 1070.40039,0 c 4.8,0 8.2984,1.90157 10.3984,5.60157 l -42.3984,58.39843 c -26.7,33.9 -47.7012,50.80078 -63.2012,50.80078 -5.1,0 -8.2996,-3.1996 -9.5996,-9.5996 -2.9,-17.30001 10.0008,-39.3 38.8008,-66 27.7,-26.10001 49.7,-39.20118 66,-39.20118 z m -788.40039,6.80078 c 5.6,0 8.40039,1.69922 8.40039,5.19922 0,3.7 -1.7,8.00078 -5,12.80078 -3.3,4.8 -7.60078,9.49922 -12.80078,14.19922 -5.2,4.7 -10.50078,8.90157 -15.80078,12.60157 -16.3,10.1 -29.49961,15.19921 -39.59961,15.19921 -1.9,0 -3.59922,-0.30078 -5.19922,-0.80078 4.5,-7.7 10.00039,-15.1 16.40039,-22 6.4,-6.9 13.1,-13.29922 20,-19.19922 14.4,-12 25.59961,-18 33.59961,-18 z m 1177.19919,0 c 5.6,0 8.4004,1.69922 8.4004,5.19922 0,3.7 -1.7,8.00078 -5,12.80078 -3.3,4.8 -7.6008,9.49922 -12.8008,14.19922 -5.2,4.7 -10.4988,8.90157 -15.7988,12.60157 -16.3,10.1 -29.4996,15.19921 -39.5996,15.19921 -1.9,0 -3.6012,-0.30078 -5.2012,-0.80078 4.5,-7.7 10.0004,-15.1 16.4004,-22 6.4,-6.9 13.1,-13.29922 20,-19.19922 14.4,-12 25.5996,-18 33.5996,-18 z m -903.1992,26.80079 c 2.4,0 4.6988,7.09921 6.7988,21.19921 2.9,19.5 7.3012,35.89922 13.2012,49.19922 4,8.5 9.5988,16.80078 16.7988,24.80078 -12.3,-4 -21.9992,-9.69921 -29.1992,-17.19921 -14.4,-14.9 -21.5996,-32.50079 -21.5996,-52.80079 0,-10.4 1.8004,-17.20039 5.4004,-20.40039 3.6,-3.2 6.4996,-4.79882 8.5996,-4.79882 z"
   transform="translate(-720.79485,36.366105)"
   style="fill:#e94774;fill-opacity:1;fill-rule:evenodd" />
	<path
   id="path451"
   class="st0"
   d="m 1676,297.1 -39.3,53.4 -10.5,11.5 31.4,8.4 0.5,21.5 -39.3,29.8 -14.7,14.1 0.5,40.8 3.7,4.7 15.2,4.2 2.6,7.3 2.1,3.1 h 24 l 3.2,-4.2 29.8,-13.1 67.5,-53.4 26.7,-50.3 z" />
	<g
   id="g182"
   transform="matrix(0.2405303,0,0,0.2405303,-71.526417,-23.333518)"
   style="display:inline">
		<circle
   id="circle11"
   class="st0"
   cx="7632.8999"
   cy="1000.9"
   r="752.70001" />
		<path
   id="path13"
   class="st0"
   d="m 7042.7,618.6 c 8.7,-19.6 22.8,-35.5 35.9,-52.1 9.4,-11.8 18.7,-23.7 28.4,-35.2 0.9,-2.2 2.5,-3.1 4.7,-2.8 h -0.3 c 2.5,0 3.4,-0.9 3.1,-3.4 2.5,0.3 3.4,-0.9 3.1,-3.4 l -0.3,0.3 c 2.5,0 3.4,-0.9 3.1,-3.4 l -0.3,0.3 c 2.2,0 3.4,-0.9 3.4,-3.4 l -0.3,0.3 c 4.1,-0.3 6.2,-2.5 6.5,-6.5 l -0.3,0.3 c 8.4,-4.1 15,-10.3 19,-19 l -0.3,0.3 c 2.2,0 3.4,-0.9 3.4,-3.4 l -0.3,0.3 c 2.5,0.3 3.4,-0.9 3.4,-3.1 h -0.3 c 2.5,0.3 3.4,-0.6 3.4,-3.1 v 0.3 c 3.1,0 3.4,-2.5 3.4,-4.7 21.5,-17.1 42.7,-34.3 64.2,-51.4 4.7,0.3 7.2,-2.2 8.4,-6.2 h 0.3 c 5,0 9,-1.9 11.2,-6.5 l -0.3,0.3 c 4.4,-0.3 7.8,-2.5 9.7,-6.5 l -0.3,0.3 3.4,-3.4 -0.3,0.3 c 2.5,-0.6 5.3,-0.6 6.5,-3.4 l -0.3,0.3 c 4.4,-0.3 7.8,-2.5 9.7,-6.5 l -0.3,0.3 c 2.2,-1.2 4.4,-2.2 6.5,-3.4 l -0.3,0.3 c 3.1,0 5.6,-1.2 6.2,-4.7 10.6,-0.6 15,-12.8 25.6,-13.7 2.2,2.5 4.4,1.2 6.9,0 29.3,-14 59.2,-26.2 90.1,-37.1 3.4,-1.2 5.3,-2.8 5.9,-6.2 0.6,-0.9 1.6,-0.9 2.5,-0.3 2.5,3.4 5.3,1.9 8.4,0.9 44.3,-13.1 89.2,-23.4 135,-27.4 33.1,-3.1 66.4,-6.5 100.1,-2.2 -9,0.3 -18.4,0.9 -27.4,1.2 29.3,3.4 58.6,-4.1 87.9,1.9 10,2.2 20.3,5.3 30.9,3.4 6.9,-3.1 11.8,2.8 17.8,3.4 8.4,5.6 20,2.2 28.4,9 -2.2,0.3 -4.1,0.6 -7.2,0.9 3.7,2.2 5.6,0.9 7.2,-0.9 9.7,-0.9 18.4,5.6 28.4,3.1 h -0.3 c 0.9,4.7 5.3,4.7 8.4,5.6 30.6,8.1 59.2,20.9 88.6,32.7 18.1,7.2 33.7,19.6 53,24 h -0.3 c 0.6,4.1 3.1,4.1 6.2,3.4 7.5,8.7 15.9,15.6 28.1,15.6 -1.6,5.6 2.8,5.3 5.9,6.2 32.7,19 62.4,41.8 89.2,68.6 0.9,1.9 2.5,3.4 5,3.1 -0.3,2.5 0.9,3.4 3.4,3.1 h -0.3 c -0.3,2.5 0.9,3.4 3.4,3.1 l -0.3,-0.3 c 0,2.5 0.9,3.4 3.4,3.4 l -0.3,-0.3 c 0.3,4.1 2.5,6.2 6.5,6.5 l -0.3,-0.3 c 2.2,6.5 6.2,10.6 12.8,12.8 l -0.3,-0.3 c 0.3,4.1 2.5,6.2 6.5,6.5 l -0.3,-0.3 c 0,2.2 0.9,3.4 3.4,3.4 l -0.3,-0.3 c -0.3,2.5 0.9,3.4 3.1,3.4 l -0.3,-0.3 c -0.3,2.5 0.6,3.4 3.1,3.4 -0.3,2.5 1.2,3.7 3.1,5 22.1,20.6 41.2,43.3 56.1,69.8 -0.3,3.1 1.6,5 4.4,6.2 0.6,0.9 1.2,2.2 1.9,3.1 0,3.4 1.9,5.3 4.7,6.2 0.6,0.9 1.2,1.9 1.6,3.1 0.9,3.1 0.6,7.8 6.2,6.2 1.2,14.3 9.4,24.6 19,34.3 0.3,2.5 0.3,5.3 1.2,7.2 18.7,35.2 34.6,71.4 47.4,109.1 1.2,3.4 2.8,5.3 6.2,5.9 0.9,0.6 0.9,1.6 0.3,2.5 -5.3,5 -0.6,10 0.6,14.3 23.7,81.7 34,164.6 28.1,250.1 -5.6,79.8 -24,156.2 -55.2,229.8 -9,21.8 -22.8,41.5 -29,64.5 -8.1,5 -11.5,12.8 -12.5,21.8 -6.5,1.9 -7.8,6.5 -6.5,12.5 -3.4,0 -3.1,2.5 -3.1,4.7 -20.9,32.4 -45.2,62.4 -69.8,92 -2.2,0.3 -4.7,0.3 -4.7,3.4 h 0.3 c -2.5,-0.3 -3.4,0.9 -3.1,3.4 v -0.3 c -2.5,-0.3 -3.4,0.9 -3.1,3.4 l 0.3,-0.3 c -2.2,0 -3.4,0.9 -3.4,3.4 l 0.3,-0.3 c -10.6,5.9 -19,14.3 -25.3,25.3 l 0.3,-0.3 c -2.2,0 -3.4,0.9 -3.4,3.4 l 0.3,-0.3 c -2.5,-0.3 -3.4,0.9 -3.4,3.1 h 0.3 c -2.5,-0.3 -3.4,0.6 -3.4,3.1 v -0.3 c -3.1,0 -3.4,2.5 -3.4,4.7 -7.2,5.6 -14.7,11.5 -21.8,17.1 -5,1.2 -10.3,2.2 -9.4,9.4 -3.1,-0.6 -5.6,-0.6 -6.2,3.4 h 0.3 c -6.2,0.3 -10.6,3.4 -12.5,9.7 h 0.3 c -6.5,0 -10.3,3.7 -12.8,9.4 l 0.3,-0.3 c -4.4,0 -7.2,0.9 -6.5,6.2 -7.8,-1.2 -12.5,3.1 -15.6,9.7 h 0.3 c -5.9,0.9 -11.8,1.6 -12.8,9.4 -14.3,0.9 -24.3,10 -34.3,19 h 0.3 c -18.7,7.5 -38.4,13.4 -53.3,28.1 -6.5,-2.2 -12.2,1.6 -17.8,3.7 -73.6,30.6 -150.3,49 -230.1,52.7 -10,0.6 -20.6,-0.3 -29.6,5.6 0.6,40.8 -9,79.8 -19.3,119.1 -10.3,39.6 -35.9,63.3 -70.5,79.5 -21.5,10.3 -41.2,24 -62.4,34.9 -39,20 -68.6,51.8 -102.6,78.3 -28.7,22.1 -52.1,50.5 -84.5,68.3 -2.2,1.2 -4.1,3.4 -6.2,4.4 -49.9,22.8 -98.2,49 -151.2,63.6 -20.9,5.6 -43.3,4.7 -65.2,3.4 -13.7,-0.9 -26.5,-6.5 -33.1,-18.1 -11.2,-19 -29,-25.3 -47.7,-27.8 -41.2,-5.3 -54.9,-32.7 -45.5,-70.5 1.2,-5.3 0.6,-10.3 -1.2,-15.3 -12.2,-34 -9.7,-68.3 -4.4,-103.2 2.8,-18.4 15.9,-29.6 27.4,-42.1 37.7,-40.2 84.8,-68 130,-98.5 34.9,-24 63.9,-53.9 78.6,-95.4 4.1,-11.8 -1.2,-13.4 -11.2,-12.5 -36.5,2.8 -71.4,-1.2 -103.2,-21.5 -23.7,-15 -36.8,-50.8 -27.4,-79.5 8.1,-25.9 39.3,-47.4 65.8,-46.5 23.1,0.9 44.6,6.5 65.2,18.4 4.7,-15.3 -11.2,-13.7 -14,-21.8 -0.3,-2.2 -0.6,-4.7 -3.4,-4.7 l 0.3,0.3 c 0,-2.2 -1.2,-3.4 -3.4,-3.4 l 0.3,0.3 c 0,-2.2 -1.2,-3.4 -3.4,-3.4 l 0.3,0.3 c -4.4,-7.5 -8.7,-15 -18.7,-15.9 0.6,-7.2 -4.1,-10.3 -10,-12.5 l 0.3,0.3 c 0,-2.2 -0.9,-3.4 -3.4,-3.4 l 0.3,0.3 c 0.3,-2.5 -0.9,-3.4 -3.1,-3.4 v 0.3 c 0.3,-2.5 -0.6,-3.4 -3.1,-3.4 h 0.3 c 0,-3.1 -2.5,-3.4 -4.7,-3.4 -18.4,-23.7 -41.2,-44.3 -54.6,-71.7 -0.3,-3.4 -1.9,-5.6 -5.6,-5.9 -0.3,-1.2 -0.6,-2.5 -0.9,-3.4 0,-3.4 -1.9,-5.6 -5.3,-6.2 -0.3,-0.9 -0.6,-1.9 -0.6,-2.8 -1.2,-3.1 -0.3,-7.8 -6.2,-6.2 -1.6,-14 -9.4,-24.6 -19,-34.3 v 0.3 c 1.2,-4.1 -1.2,-7.2 -2.8,-10.3 -59.9,-112.3 -85.7,-232.3 -83.9,-358.9 0,-8.4 5,-17.5 -1.6,-25.6 l 1.9,-20.6 c 5.9,-0.9 5,-5.3 5.6,-9.4 7.5,-67.7 25.6,-132.8 52.4,-195.5 9,-21.2 22.5,-40.5 28.4,-63.3 9.7,-8.4 15.6,-19 18.7,-31.5 v 0.3 c 3.9,-1.9 4.2,-6 5.2,-10.4 z m -49.9,1275 -3.1,3.1 c -5.9,0.6 -9,3.7 -9,9.7 v -0.3 c -3.4,1.2 -5.3,3.4 -5.6,7.2 0,0.6 -0.3,1.2 -0.6,1.9 -5.3,4.7 -7.8,10.9 -9.4,17.1 -2.8,11.5 -8.4,23.4 2.2,34 -0.3,0.9 0,1.6 0.3,2.2 0.3,15.3 9.7,25.3 21.5,31.8 25.3,14.3 50.8,10.6 75.8,-1.2 10.6,-5.6 22.8,-10.3 21.2,-25.3 -2.8,-34 8.7,-64.2 24.6,-92.9 29.9,-54.3 73.3,-97.6 117.6,-139.7 15.6,-15 30.9,-30.9 48.6,-43.3 23.7,-16.2 41.5,-38.4 61.1,-58.6 4.4,-4.7 6.9,-11.2 -2.5,-14.7 -13.7,-4.7 -22.8,-15.9 -33.7,-24.6 -10.3,-14 -20.9,-28.4 -24.3,-46.1 -1.6,-8.4 -5.6,-10 -12.8,-5.9 -12.8,7.2 -27.4,9 -41.2,12.8 -5.6,1.6 -12.8,0.9 -10,10.9 0.6,2.8 -1.6,7.2 -5.3,8.4 -3.7,1.2 -5.3,-2.2 -7.2,-4.4 -15.6,-18.4 -35.5,-30.9 -58.3,-36.2 -37.4,-8.4 -69.8,-1.2 -88.9,37.1 -6.5,13.1 -9,28.4 1.9,41.8 6.2,10.6 12.2,21.5 24.9,26.2 l 18.7,11.2 c 9,6.5 19.3,9.4 30.2,9.7 24.6,0.6 48.6,-0.9 68.6,-18.1 2.8,-2.2 7.2,-5.3 11.2,-0.9 3.1,3.1 2.8,7.8 0,9.7 -11.5,7.5 -10,19.3 -11.8,30.2 -3.4,19.6 -11.8,37.1 -24.3,53 -27.1,34.3 -61.1,59.9 -97.9,82.6 -18.4,11.2 -37.1,22.1 -50.8,39.6 -10.6,3.7 -18.4,10.6 -22.1,21.5 -4.4,-0.3 -6.2,1.9 -6.5,5.9 -1.3,2.4 -2.2,3.4 -3.1,4.6 z m 261.9,-155.9 c -4.4,0.3 -7.2,2.5 -8.7,6.9 -0.6,0.6 -0.9,1.2 -1.2,1.9 -2.5,0.6 -4.4,1.6 -5,4.1 -0.9,0.9 -2.2,1.9 -3.1,3.1 l -3.1,3.1 c -0.9,0.9 -2.2,1.9 -3.1,2.8 -18.4,15 -34.6,32.1 -49.9,50.2 -3.7,1.6 -6.2,4.7 -6.9,8.7 -19.6,15.9 -32.4,37.4 -44.9,58.6 -17.1,28.4 -31.5,58.6 -29.3,93.5 2.2,34 23.7,48.6 50.2,46.8 25.6,-1.9 46.8,-17.8 62.7,-38.7 4.1,-3.7 8.7,-7.5 12.2,-11.8 30.6,-35.2 62.7,-69.2 99.8,-97.9 12.8,-9.7 26.8,-17.5 41.5,-23.7 4.7,-1.9 10.6,-4.1 13.4,2.5 2.5,6.2 -1.9,9 -7.2,11.5 -45.2,20.6 -80.1,54.3 -112.6,90.7 -26.5,29.9 -50.8,62.7 -90.4,78 -4.1,-0.3 -8.1,-0.9 -10.6,3.1 h 0.3 c -1.9,0.6 -4.4,0.6 -5.6,2.2 -9,12.2 -9.7,39.9 -1.6,51.8 11.5,16.2 39,27.8 55.2,24.6 34,-6.5 56.7,-30.2 79.2,-53.3 8.1,-8.4 17.5,-16.2 22.1,-27.4 8.4,-8.7 18.1,-16.5 26.5,-25.3 28.7,-29.9 55.8,-61.4 91.4,-83.9 18.4,-11.5 37.7,-21.5 58,-29.9 6.2,-2.5 14.3,-6.5 17.8,1.6 3.4,8.1 -6.2,8.7 -11.5,10.9 -10,4.7 -20,8.7 -29.6,13.4 -53,25.3 -89.8,68.9 -128.2,111.3 -18.4,15 -32.7,33.4 -47.1,52.4 29.9,-9.4 51.8,-29.9 72.7,-51.8 59.6,-52.1 123.8,-97.9 189.9,-141.3 33.7,-22.1 59.2,-52.7 65.8,-95.1 7.2,-4.4 7.2,-12.2 8.4,-19 5.3,-27.8 5.6,-55.8 0,-83.3 -9,-44 -24.6,-84.8 -61.1,-113.8 -34.9,-27.8 -76.4,-38 -119.7,-41.5 -6.9,-0.6 -5.6,4.4 -6.2,8.4 -1.2,9 0.3,19 -9.4,24.9 -0.9,-0.3 -1.9,-0.3 -2.5,-0.3 -1.2,-0.9 -2.2,-2.2 -3.4,-3.1 0.6,-6.5 1.6,-13.4 1.9,-20 0.9,-31.5 4.7,-63 -5.9,-93.9 -13.7,-40.2 -54.9,-53 -89.5,-27.8 -31.5,23.1 -48.3,90.7 -37.4,120 0.3,2.2 0.3,4.1 0.6,6.2 0.6,1.2 1.6,2.5 2.2,3.7 13.7,49.3 42.7,68.3 93.9,62.1 4.7,-0.6 11.5,-2.5 13.1,4.4 1.2,5.6 -4.1,7.2 -8.7,8.7 -29.3,10.9 -30.2,11.8 -52.4,35.2 -7.2,7.5 -14.3,14.7 -21.8,21.8 -10,9.7 -20.3,19 -30.6,28.4 v 0.3 c -5.6,1.2 -10.9,2.8 -12.5,9.4 -6.2,0.9 -9.7,5 -12.5,10 -0.9,0.9 -1.9,1.6 -2.8,2.5 -0.6,0.9 -1.9,2.2 -2.8,3.1 z m -237.6,361.4 c 15.9,11.8 33.7,5 50.5,5.6 9.7,-2.2 19.6,-2.8 28.4,-6.5 20.3,-9 42.1,-17.8 37.4,-47.1 -0.3,-2.5 0.3,-5.3 1.6,-7.5 5.3,-9.4 2.5,-13.4 -7.5,-16.5 -12.2,-3.7 -24.3,-9 -31.2,-21.5 -3.4,-6.5 -8.1,-5.6 -14,-1.6 -13.7,9.7 -28.7,15.9 -45.5,17.8 -12.5,0.6 -25.9,-1.6 -37.4,2.2 -15.3,5 -25.6,29.9 -22.1,45.5 3.4,15.6 20.6,28.4 39,29.3 z m 113.2,43.7 c 6.9,0 13.1,-0.9 18.4,-5.9 1.2,-0.9 2.2,-1.9 3.4,-2.8 17.8,-13.7 17.8,-13.7 1.9,-27.8 -2.8,-2.5 -5.6,-4.7 -7.5,-7.5 -6.2,-9.4 -12.5,-7.2 -20.3,-1.9 -16.2,11.2 -34,19.3 -53.6,21.5 -11.2,1.2 -11.8,6.5 -6.2,14.3 3.4,5 7.2,10.3 14.3,10.3 16.2,5.7 32.7,5.1 49.6,-0.2 z m 587.4,-541.7 c -5.6,-0.6 -10.6,0.6 -15.3,3.7 -1.6,0.6 -2.8,1.2 -4.4,1.9 -18.4,3.1 -37.1,5.6 -54.6,12.8 -2.2,0.3 -4.4,0.3 -6.5,0.6 -4.1,-0.3 -8.4,-0.6 -12.5,-0.6 -7.2,0 -9.4,3.1 -6.5,9.7 6.9,15.6 11.8,32.1 16.2,48.6 0.9,3.7 1.2,8.4 7.2,8.4 28.1,-0.9 55.8,-2.2 83.6,-5.9 10.3,-1.2 9.7,-6.5 5.3,-13.7 -3.7,-6.2 -7.5,-12.5 -10.6,-19 -1.9,-3.7 -1.2,-8.4 3.4,-10.6 4.4,-1.9 6.5,1.6 8.4,4.7 5,8.1 11.2,15.6 14.3,24 3.7,10 9.4,11.2 18.1,9 47.4,-10.9 94.2,-24.3 138.8,-44.3 66.7,-29.9 126.9,-69.2 181.5,-118.2 63.9,-57.7 116,-123.8 155.9,-199.9 41.5,-79.2 64.9,-164 70.5,-252.6 5.6,-88.2 0,-175.5 -26.5,-261.3 -29.3,-95.4 -77.6,-179.6 -144.4,-252.9 -66.1,-73 -142.8,-131.9 -233.5,-172.4 -79.2,-35.2 -162.1,-52.7 -248.2,-56.7 -63.3,-3.1 -126,3.7 -188,17.5 -70.5,15.9 -136.3,42.4 -197.7,80.4 -79.2,49.3 -145.3,112.9 -201.1,187.4 -48.3,64.5 -82.9,135.9 -103.8,213.9 -20.6,77 -29.3,155.3 -22.5,235.4 4.7,54.3 12.5,107.9 29,160 18.1,57.7 44.3,111.3 77.3,162.1 40.5,62.1 91.4,115.4 147.2,163.4 16.2,14 32.7,12.2 49.6,1.9 10.3,-5 25.6,-4.4 24.9,-22.1 -0.9,-23.7 5.6,-45.8 14.7,-67.4 20.6,-49 68.3,-67.4 115.4,-44.6 16.5,15 24.6,33.7 29.3,54.9 3.4,16.2 2.2,32.1 2.5,48 0.3,8.4 2.2,11.5 11.2,12.2 33.4,2.2 65.8,8.7 94.8,25.9 14.3,8.4 24.9,5.9 37.1,-0.9 l 12.2,-6.5 c 50.5,-24.9 94.5,-58.9 134.4,-98.8 41.8,-42.1 76.7,-89.5 106,-140.6 19.6,-34.6 38.4,-69.8 47.7,-109.1 26.2,-72.7 24,-143.7 -10.6,-216.4 -16.2,24.9 -21.8,50.2 -27.1,75.8 -0.9,5 -0.6,11.8 -7.5,11.5 -9,-0.6 -5.6,-8.7 -5.3,-13.4 1.6,-21.8 8.4,-42.7 17.5,-62.7 20.6,-46.1 67.4,-69.5 116.6,-58 8.4,1.9 24.6,0 22.8,9 -3.1,13.7 -17.8,4.7 -26.8,3.1 -24.9,-4.4 -47.4,0 -68.6,13.1 -9.4,5.6 -11.8,12.2 -5.9,23.1 12.5,22.5 17.8,47.1 22.8,72.3 3.1,14.7 -1.6,30.2 7.8,44 31.5,47.1 41.8,100.7 44.6,156.2 1.6,28.7 -1.9,57.1 -4.1,85.4 -8.4,26.8 -14.3,54.6 -26.8,80.1 -41.5,86.1 -103.8,149.7 -195.2,182.7 -5.3,1.2 -11.2,1.2 -15,6.2 z m -26.2,-108.5 c -10.3,0.3 -15.3,9.7 -22.5,15 -30.2,21.8 -62.7,39.6 -96,56.1 34.3,44.3 34.3,45.2 85.4,36.5 27.1,-4.7 54.9,-9.7 79.2,-24.6 5,-0.3 9.7,-0.9 12.5,-5.6 5.6,1.2 10,-2.2 14.3,-4.4 52.4,-26.8 93.2,-66.4 126,-114.4 l 12.2,-21.5 c 17.8,-33.1 29.3,-67.4 35.9,-104.8 5.9,-34.3 5.9,-68 4.7,-102 -1.6,-37.7 -12.2,-73.9 -33.1,-111 -4.7,43.7 -13.7,82 -29.6,118.5 -11.5,26.5 -24.6,52.4 -37.1,78.3 -4.1,5.9 -7.8,11.8 -11.8,17.8 -35.5,57.1 -77.6,108.5 -127.8,153.4 -4.1,4 -8.2,8.4 -12.3,12.7 z" />
		<path
   id="path15"
   class="st1"
   d="m 7248.8,1538.8 c -16.8,10 -33.4,12.2 -49.6,-1.9 -56.1,-48.3 -106.6,-101.3 -147.2,-163.4 -33.1,-50.5 -59.2,-104.5 -77.3,-162.1 -16.2,-52.1 -24.3,-105.7 -29,-160 -6.9,-79.8 1.6,-158.4 22.5,-235.4 20.9,-77.6 55.5,-149.4 103.8,-213.9 55.8,-74.5 121.6,-138.4 201.1,-187.4 61.1,-38 126.9,-64.5 197.7,-80.4 62.1,-14 124.7,-20.6 188,-17.5 85.7,4.1 169,21.5 248.2,56.7 90.7,40.2 167.4,99.5 233.5,172.4 66.7,73.3 115.1,157.8 144.4,252.9 26.5,85.4 32.1,173.1 26.5,261.3 -5.6,88.6 -28.7,173.4 -70.5,252.6 -39.9,76.1 -92,142.2 -155.9,199.9 -54.6,49 -114.7,88.2 -181.5,118.2 -44.6,20 -91.4,33.4 -138.8,44.3 -8.4,1.9 -14.3,0.6 -18.1,-9 -3.1,-8.7 -9.4,-16.2 -14.3,-24 -1.9,-3.1 -4.1,-6.5 -8.4,-4.7 -4.7,2.2 -5,6.9 -3.4,10.6 2.8,6.5 6.5,12.8 10.6,19 4.7,7.2 5,12.5 -5.3,13.7 -27.8,3.7 -55.8,4.7 -83.6,5.9 -5.9,0.3 -6.2,-4.4 -7.2,-8.4 -4.7,-16.5 -9.4,-33.1 -16.2,-48.6 -2.8,-6.5 -0.6,-10 6.5,-9.7 4.1,0 8.4,0.3 12.5,0.6 -0.9,6.2 3.7,4.4 6.9,5.3 20,5.3 40.2,1.9 60.2,0.3 32.4,-2.5 64.2,-9 93.2,-24.9 4.4,0 8.7,0 9.4,-5.9 l 0.3,-0.3 c 3.7,0 6.9,-1.2 10.3,-3.1 14,-7.5 24.9,-18.4 36.5,-29 15.9,-15 30.6,-30.9 49.6,-43 15.3,-10 15,-31.2 21.5,-47.4 l 9.4,-21.5 c 14,2.8 0.6,18.4 13.4,24.9 -4.7,-18.7 5.6,-28.4 17.5,-38.7 17.8,-15 31.8,-33.1 25.9,-59.6 -2.5,-12.2 5.3,-23.1 14.3,-29 21.2,-14 28.4,-37.7 42.7,-56.4 5.3,-6.9 14,-13.1 13.7,-22.1 -0.9,-19.3 11.5,-29.9 22.8,-42.1 3.1,-3.4 7.8,-6.9 5,-11.8 -10.9,-19.6 5,-34.9 10.9,-50.2 3.7,-9.7 9,-18.7 9,-29.6 V 1085 c 0,-5.3 -0.3,-10.3 2.2,-15.3 13.1,-24.6 7.2,-51.4 6.5,-77 -0.3,-17.8 -4.4,-35.9 -9.4,-53 -3.7,-12.5 5.6,-24.9 -1.9,-36.5 -9.7,-14.7 -11.5,-31.2 -13.1,-48 -0.3,-2.5 -1.2,-5.6 -3.1,-6.9 -16.5,-11.2 -21.5,-28.1 -24.6,-46.1 -0.6,-3.4 -2.8,-6.9 -5.3,-9 -8.7,-7.5 -13.1,-17.1 -16.2,-27.8 -1.2,-4.7 -2.8,-8.7 -6.5,-12.2 -24.6,-21.8 -40.8,-50.5 -63.9,-74.2 -20.3,-20.6 -40.8,-40.8 -62.7,-58.6 -30.9,-24.9 -65.8,-44.3 -104.5,-55.5 -2.8,-0.6 -5.6,-3.4 -6.9,-5.9 -5.9,-11.2 -15.6,-12.5 -26.5,-11.8 -8.4,0.6 -17.5,0.3 -23.1,-6.2 -7.5,-8.7 -16.2,-10 -26.5,-9.4 -10.9,0.6 -21.8,-0.3 -29,-10.9 -1.6,-2.2 -5.6,-4.7 -7.8,-4.1 -18.1,3.7 -38.4,-1.6 -54.3,13.4 -10.6,10 -27.4,6.5 -35.5,-5.6 -6.2,-9.4 -14.3,-10.6 -27.4,-4.4 2.5,4.1 6.5,2.2 9.7,2.5 3.4,0.6 7.5,-0.6 9.4,3.7 0.9,2.5 0.9,5.3 -1.6,7.2 -3.1,2.2 -8.1,2.8 -10.3,0.3 -8.1,-9 -14.7,-1.9 -21.8,1.2 -1.9,-0.3 -4.1,-0.3 -5.9,-0.6 -10,-16.2 -25.9,-11.2 -40.5,-12.2 -22.8,-9 -47.1,-10.6 -71.1,-11.8 -34.6,-1.9 -69.8,-3.4 -104.5,5.3 -17.8,4.4 -35.9,6.9 -53.3,12.8 -9.7,-0.9 -19,-2.2 -29.3,-3.4 1.9,5.3 0.3,10.6 -1.2,15.9 -5,0.6 -10.9,-1.6 -12.5,6.2 -1.9,1.2 -3.4,2.5 -5.3,3.4 -73.6,35.5 -127.5,92.3 -168.4,161.2 -38.7,65.2 -60.5,137.2 -74.2,211.1 -11.2,58.6 -9.4,118.5 -6.5,178 0,2.5 -0.3,5 -0.3,7.8 -1.6,33.1 -2.5,66.1 3.1,98.8 1.6,8.7 3.1,20.3 15.6,7.5 7.5,15.6 7.2,33.7 16.2,47.1 25.3,-17.1 51.8,-33.1 49,-68.9 0,-1.9 1.6,-3.7 2.2,-5.9 1.6,-5.3 -0.3,-8.4 -5,-11.2 -22.1,-14 -30.6,-13.4 -49,4.7 -1.9,1.6 -4.4,2.5 -6.5,3.7 -1.9,-6.2 0.3,-12.2 1.9,-18.4 5.3,-21.8 6.5,-22.8 28.7,-16.8 15,4.1 29.6,10 44.6,12.5 12.8,2.2 13.1,6.5 7.5,16.2 -14.3,23.4 -14,48 -5.6,73.3 7.8,22.5 21.2,41.5 37.1,58.9 30.6,34 68,51.4 114.4,47.7 47.7,-3.7 87.3,-49 81.7,-94.2 -2.8,-24.6 -2.8,-24.6 21.2,-31.8 2.5,9.4 -6.2,12.2 -10.3,17.5 -3.1,4.1 -8.4,6.9 -6.2,13.1 4.1,11.2 2.2,22.8 2.2,34 -0.6,54.9 -38.4,87.3 -90.4,85.7 -36.2,-1.2 -70.5,-10.9 -100.1,-33.1 -5.6,-4.1 -10.9,-5.3 -18.4,-5.3 -15.6,0 -31.8,-1.9 -46.8,-7.5 -5.6,-2.2 -12.8,-8.4 -16.5,-4.4 -5.6,5.6 2.8,11.8 5,17.8 0.6,1.9 2.8,3.1 3.7,5 21.5,34.6 47.7,65.5 77,93.5 28.1,27.1 55.8,55.2 91.7,73.6 4.5,3.7 13.8,8 17.6,17.1 z m 1003.4,-281 c 9.4,-18.1 13.1,-38 18.4,-57.4 22.8,-84.2 29,-170.2 24.3,-256.6 -1.9,-33.4 -9,-66.1 -16.2,-99.2 -4.1,-18.7 -12.2,-35.9 -16.2,-54.6 3.7,-3.7 0.3,-6.9 -1.2,-9.7 -12.8,-21.8 -17.8,-46.8 -28.4,-69.2 -8.4,-17.5 -13.4,-37.7 -30.9,-51.1 -5.6,7.5 -5.9,15 -5.9,22.8 0,32.7 0.9,65.5 -0.3,98.2 -0.9,30.9 1.2,60.5 7.8,91.4 5.3,24.9 13.4,50.2 11.8,77 -1.9,34.6 0,69.5 -0.6,104.5 -0.3,15 -1.9,29.9 -3.4,44.9 -5,48 -9.7,96.3 -15.3,144.4 -2.2,18.7 2.5,37.1 0,55.5 -1.9,13.1 -3.1,25.6 0.3,38.4 0.9,3.4 0.3,7.5 5.3,8.1 3.4,0.3 5.3,-1.2 7.2,-4.4 16.8,-26.8 36.1,-51.8 43.3,-83 z m -646.1,-738 c 6.9,1.2 14.3,5 22.8,-1.6 -9.1,-3.1 -15.9,-3.1 -22.8,1.6 z m -56.1,-2.5 c -0.3,0.9 -0.6,1.9 -1.2,2.5 0.9,0.3 1.9,1.2 2.5,0.9 0.6,-0.3 0.9,-1.6 1.2,-2.5 -0.6,-0.3 -1.6,-0.6 -2.5,-0.9 z" />
		<path
   id="path17"
   class="st2"
   d="m 7554,534.4 c 7.2,-2.8 13.7,-10.3 21.8,-1.2 2.2,2.5 6.9,1.9 10.3,-0.3 2.5,-1.6 2.5,-4.4 1.6,-7.2 -1.6,-4.7 -5.9,-3.4 -9.4,-3.7 -3.4,-0.3 -7.2,1.2 -9.7,-2.5 13.1,-6.2 21.2,-4.7 27.4,4.4 8.1,12.2 25.3,15.6 35.5,5.6 15.9,-15 36.2,-9.7 54.3,-13.4 2.2,-0.3 6.2,1.9 7.8,4.1 7.2,10.6 17.8,11.5 29,10.9 10.3,-0.6 19,0.6 26.5,9.4 5.9,6.9 14.7,6.9 23.1,6.2 10.9,-0.6 20.6,0.6 26.5,11.8 1.2,2.5 4.4,5 6.9,5.9 38.7,11.2 73.9,30.6 104.5,55.5 22.1,17.8 42.7,38.4 62.7,58.6 23.1,23.4 39.3,52.4 63.9,74.2 3.7,3.4 5.3,7.5 6.5,12.2 3.1,10.6 7.2,20.3 16.2,27.8 2.5,2.2 5,5.9 5.3,9 3.1,18.1 8.1,35.2 24.6,46.1 1.9,1.2 2.8,4.4 3.1,6.9 1.6,16.8 3.4,33.4 13.1,48 7.5,11.2 -1.6,24 1.9,36.5 5,17.1 9,35.2 9.4,53 0.6,25.6 6.5,52.4 -6.5,77 -2.5,5 -2.2,10 -2.2,15.3 v 51.4 c 0,10.9 -5.3,20 -9,29.6 -5.9,15.3 -21.5,30.6 -10.9,50.2 2.8,5 -1.9,8.4 -5,11.8 -11.2,12.2 -23.7,22.8 -22.8,42.1 0.3,9 -8.4,15.3 -13.7,22.1 -14.3,18.4 -21.5,42.4 -42.7,56.4 -9,5.9 -16.8,16.8 -14.3,29 5.9,26.5 -8.4,44.3 -25.9,59.6 -11.8,10.3 -22.1,19.6 -17.5,38.7 -12.8,-6.2 0.6,-22.1 -13.4,-24.6 10.3,-28.7 20.9,-57.1 23.7,-87.6 0.9,-10.6 5,-21.2 -2.5,-31.2 2.2,-28.4 5.6,-56.7 4.1,-85.4 -2.8,-55.5 -13.1,-108.8 -44.6,-156.2 -9.4,-13.7 -4.7,-29.3 -7.8,-44 -5.3,-24.9 -10.3,-49.9 -22.8,-72.3 -5.9,-10.9 -3.4,-17.1 5.9,-23.1 21.2,-13.1 43.7,-17.8 68.6,-13.1 9,1.6 23.7,10.6 26.8,-3.1 1.9,-9 -14.3,-7.2 -22.8,-9 -49,-11.5 -96,11.8 -116.6,58 -8.7,20 -15.6,40.5 -17.5,62.7 -0.3,5 -3.7,13.1 5.3,13.4 6.9,0.3 6.2,-6.5 7.5,-11.5 5.3,-25.3 10.9,-50.5 27.1,-75.8 34.6,72.7 36.8,143.7 10.6,216.4 -10.3,-2.5 -7.2,-9.4 -5,-15.9 0.9,-2.5 5.3,-5 1.6,-7.8 -3.7,-3.1 -6.5,0.6 -9.7,2.5 -5.3,2.8 -6.9,7.2 -6.5,12.8 0.3,6.5 -5.3,13.4 -9,12.5 -21.5,-5.9 -35.2,21.2 -56.8,12.5 -11.5,16.8 -8.4,-11.2 -18.4,-6.2 -3.1,1.6 -0.6,-8.7 0.6,-12.8 9.4,-27.4 14.7,-56.1 14.7,-85.1 0,-40.8 -5.9,-81.4 -24.6,-118.8 -2.2,-4.7 -5,-9.7 -1.2,-14.7 5.3,-7.2 8.4,1.9 13.1,2.2 4.7,0.3 9,2.2 13.4,3.1 1.9,5.6 -4.7,8.7 -4.4,13.4 2.8,2.2 5.3,1.6 7.8,0.6 24.3,-9.4 43.7,-26.5 62.7,-43 18.4,-16.2 40.8,-23.7 61.1,-35.2 7.2,-4.1 10.3,-14.3 20.3,-14 6.2,0.3 12.2,-2.2 10.3,-9.7 -1.6,-6.9 -1.2,-15.6 -13.4,-15 -17.1,0.9 -34.3,-0.3 -51.4,-0.6 6.9,-6.2 15.3,-6.2 23.4,-5.3 12.5,1.6 15.3,-4.7 14,-15.6 -3.1,-26.2 -21.5,-42.1 -51.1,-47.1 -19,-3.1 -36.8,4.4 -55.2,5.9 9.4,-7.8 21.8,-14.3 15.3,-29.6 -4.4,-10.3 -9,-20.6 -15,-29.9 -10,-16.5 -23.1,-30.9 -34.3,-46.1 -17.1,-23.7 -37.7,-43.7 -59.2,-62.7 -11.5,-10.3 -20.6,-24.3 -36.2,-29.3 -17.8,-5.9 -25.3,-28.4 -46.5,-27.8 -6.2,-14.3 -21.2,-14.7 -32.4,-20.6 -16,-8.5 -36.3,-13.8 -51.9,-27.3 z" />
		<path
   id="path19"
   class="st1"
   d="m 7815.6,808.8 c 18.4,-1.9 36.2,-9 55.2,-5.9 29.6,4.7 48,20.6 51.1,47.1 1.2,10.9 -1.6,16.8 -14,15.6 -8.1,-0.9 -16.8,-0.9 -23.4,5.3 -6.9,6.5 -16.5,0.9 -23.7,5 -32.7,18.7 -60.2,41.8 -64.5,82.6 -7.2,2.5 -4.7,8.1 -4.7,13.1 0,0.9 0,1.9 -0.3,2.8 -4.4,-1.2 -9,-2.8 -13.4,-3.1 -4.4,-0.3 -7.8,-9.7 -13.1,-2.2 -3.7,5 -0.9,10 1.2,14.7 18.7,37.4 24.6,77.6 24.6,118.8 0,28.7 -5.3,57.4 -14.7,85.1 -1.6,4.1 -3.7,14.7 -0.6,12.8 10,-5 7.2,23.1 18.4,6.2 21.5,8.7 35.2,-18.4 56.7,-12.5 4.1,0.9 9.4,-5.9 9,-12.5 -0.3,-5.6 1.6,-10 6.5,-12.8 3.1,-1.9 5.9,-5.6 9.7,-2.5 3.4,2.8 -0.6,5.3 -1.6,7.8 -2.5,6.5 -5.3,13.1 5,15.9 -9.4,39.3 -28.1,74.5 -47.7,109.1 -29.3,51.4 -64.2,98.5 -106,140.6 -39.6,39.9 -83.9,73.6 -134.4,98.8 -4.1,2.2 -8.4,4.4 -12.2,6.5 -12.2,6.9 -22.8,9.4 -37.1,0.9 -28.7,-16.8 -61.4,-23.7 -94.8,-25.9 -9,-0.6 -11.2,-4.1 -11.2,-12.2 -0.3,-15.9 1.2,-31.8 -2.5,-48 -4.7,-21.5 -13.1,-40.2 -29.3,-54.9 3.7,-2.2 4.4,-5.6 3.1,-9.4 -1.2,-3.7 -7.8,-7.2 0,-10.9 5,-2.5 8.7,-1.6 12.2,2.5 8.7,10 15.3,3.4 19,-4.4 4.7,-9.4 11.2,-13.7 20.6,-16.8 11.5,-4.1 22.5,-10.9 34,-14.7 34.6,-11.2 62.1,-41.2 102.3,-39 -32.7,-12.5 -57.4,-34.3 -77.6,-60.5 -15.6,-20.3 -28.1,-42.7 -30.9,-69.2 6.5,10.9 13.1,22.5 20.3,33.1 56.4,84.8 159.6,88.2 219.5,6.2 52.7,-72.3 57.1,-152.2 30.2,-235.7 -6.9,-21.5 -21.2,-38.7 -30.6,-58.9 5,-0.6 8.4,-1.2 6.5,-8.4 -2.2,-9 -0.9,-18.1 2.5,-27.1 12.8,-34.6 37.1,-58.6 68.3,-76.7 4.7,0.6 9.4,0.9 10,-5.6 0.6,-0.7 1.5,-0.7 2.4,-0.7 z" />
		<path
   id="path21"
   class="st2"
   d="m 7423.4,1566.5 c 0.9,0 1.9,0 2.5,0.3 1.6,6.9 -3.4,16.8 5,19.6 17.8,6.2 34.3,14.3 49.3,25.3 2.5,1.9 6.2,2.2 8.7,0 3.4,-2.8 0.6,-5.9 -0.6,-8.1 -5.9,-10.9 0,-19.3 7.8,-23.7 10.9,-5.9 23.1,-11.2 36.2,-4.1 -8.4,7.8 -7.8,14.3 -2.2,24.9 11.8,21.5 24,42.7 30.6,67 6.2,23.7 20,44.9 29.3,67.4 5,12.2 16.2,21.5 14.3,37.1 -0.9,7.5 5,3.7 8.7,2.8 -0.6,5.6 -4.4,10.9 0.6,16.2 -6.5,42.4 -32.1,73 -65.8,95.1 -66.1,43.3 -130,89.5 -189.9,141.3 -8.4,-9.4 -17.1,4.7 -25.6,-0.6 38,-42.4 75.1,-85.7 128.2,-111.3 9.7,-4.7 19.6,-9 29.6,-13.4 5.3,-2.5 14.7,-2.8 11.5,-10.9 -3.4,-8.1 -11.5,-4.1 -17.8,-1.6 -20,8.4 -39.3,18.1 -58,29.9 -35.5,22.5 -62.7,53.9 -91.4,83.9 -8.4,9 -18.1,16.5 -26.5,25.3 -0.6,-8.4 -12.5,-18.7 -15,-14 -9,18.1 -29.9,21.2 -42.1,34.9 -3.1,3.7 -0.9,10.9 -6.9,11.2 -21.2,1.6 -30.2,23.7 -50.5,29.3 -10,2.8 -17.8,7.5 -25.9,0.9 -8.7,-6.9 -20.3,-14 -14.3,-29 8.7,-1.9 5.6,8.7 10.6,10.6 4.7,-6.5 10.3,-10.9 23.7,-17.8 0.9,-0.3 2.2,-0.9 2.5,-1.6 10.6,-18.7 32.1,-24.6 44.9,-41.5 17.1,-22.8 47.4,-29.6 65.2,-53.9 12.5,-17.1 39,-21.8 49,-43.7 0.6,-1.2 3.7,-1.2 5.6,-2.2 13.7,-7.8 27.8,-19.3 28.7,-33.4 1.2,-21.2 11.8,-35.2 23.7,-49.9 19,-24.3 7.8,-78 -20,-91.4 -17.8,-8.4 -37.4,-11.5 -57.1,-10.6 -8.4,0.3 -11.5,-1.6 -13.4,-8.1 -2.2,-8.7 -7.5,-10.6 -15.3,-7.8 -5.6,1.9 -11.2,1.9 -16.8,1.2 10.3,-9.4 20.6,-18.7 30.6,-28.4 7.5,-7.2 15,-14.3 21.8,-21.8 21.8,-23.7 23.1,-24.6 52.4,-35.2 4.7,-1.6 10,-3.1 8.7,-8.7 -1.6,-6.9 -8.1,-5 -13.1,-4.4 -51.1,6.2 -80.1,-12.8 -93.9,-62.1 -0.6,-1.2 -1.6,-2.5 -2.2,-3.7 -0.3,-2.2 -0.3,-4.1 -0.6,-6.2 6.5,-7.8 -5,-17.5 3.1,-25.3 1.2,2.2 2.5,4.4 3.4,6.9 2.8,7.5 6.2,11.5 11.5,1.9 5,-8.7 18.7,-11.8 16.8,-25.3 -0.3,-2.8 2.2,-5 5,-4.7 8.4,0.3 10,-4.7 10.6,-11.5 0.6,-7.5 5.6,-12.8 10,-18.4 9.7,-12.8 20.6,-25.3 23.7,-41.8 5,0 9.4,2.2 12.8,5.3 7.2,6.9 16.5,20.3 10.6,24.6 -10.9,7.8 -10.9,20.3 -18.4,28.4 -20,22.1 -32.7,48.6 -47.4,73.9 -2.2,3.7 -7.2,9.7 -2.2,12.2 5.6,2.8 10.6,10.6 19.3,6.5 17.1,-8.1 33.7,-6.2 50.2,2.5 6.9,3.7 15,5 13.7,-7.5 -0.6,-7.2 4.4,-5.3 8.1,-5.9 2.2,1 3.1,2.2 4.4,3.1 z" />
		<path
   id="path23"
   class="st2"
   d="m 7486.7,1182.4 c 3.1,26.2 15.3,49 30.9,69.2 20.3,26.2 44.9,48 77.6,60.5 -40.5,-1.9 -68,27.8 -102.3,39 -11.8,3.7 -22.5,10.9 -34,14.7 -9.4,3.1 -16.2,7.8 -20.6,16.8 -3.7,7.8 -10.3,14.3 -19,4.4 -3.7,-4.1 -7.2,-5 -12.2,-2.5 -7.8,3.7 -1.2,7.2 0,10.9 1.2,3.7 0.6,7.2 -3.1,9.4 -47.1,-23.1 -94.8,-4.4 -115.7,44.6 -9,21.8 -15.6,43.7 -14.7,67.4 0.9,17.8 -14.7,17.1 -24.9,22.1 -3.7,-9.4 -13.1,-13.4 -20.3,-17.1 -35.9,-18.4 -63.3,-46.1 -91.7,-73.6 -29.3,-28.1 -55.5,-58.9 -77,-93.5 -0.9,-1.9 -3.1,-3.1 -3.7,-5 -1.9,-5.9 -10.6,-12.2 -5,-17.8 3.7,-3.7 10.9,2.5 16.5,4.4 15,5.6 31.2,7.5 46.8,7.5 7.5,0 12.8,1.2 18.4,5.3 29.6,22.1 63.9,31.8 100.1,33.1 52.1,1.6 89.8,-30.9 90.4,-85.7 0,-11.2 1.9,-22.8 -2.2,-34 -2.2,-6.2 3.1,-9 6.2,-13.1 4.1,-5.3 12.8,-8.1 10.3,-17.5 10.9,-15 11.8,-31.2 5.6,-48.3 l -20.6,-55.2 c 5.3,-2.5 2.8,-13.7 9.7,-11.5 4.1,1.2 6.2,9.4 9,14.7 1.6,3.1 0.3,11.5 4.4,8.7 7.8,-5.6 8.4,3.7 12.8,4.1 4.7,-6.2 -0.6,-9.7 -2.5,-14 -2.2,-4.7 -3.1,-10.6 1.2,-14.3 4.7,-3.7 8.4,-0.3 11.5,4.1 2.8,3.7 6.9,3.7 11.2,4.1 0,1.9 0,3.4 0.3,5.3 -1.9,0.9 -3.4,2.5 -2.2,4.4 2.2,3.1 3.7,0.6 5.3,-1.2 5.9,13.1 11.2,26.5 17.8,39.3 18.1,35.5 30.6,38 61.1,14.3 8.1,-1.2 16.2,-2.8 24.3,-4.1 v 0.1 z" />
		<path
   id="path25"
   class="st3"
   d="m 7285.6,1712.5 c 5.6,0.6 11.2,0.6 16.8,-1.2 7.8,-2.8 13.1,-0.6 15.3,7.8 1.9,6.5 5,8.4 13.4,8.1 19.3,-0.9 39.3,2.2 57.1,10.6 27.8,13.4 39,67 20,91.4 -11.5,15 -22.1,28.7 -23.7,49.9 -0.9,14 -15,25.6 -28.7,33.4 -1.6,0.9 -5,0.9 -5.6,2.2 -10.3,21.8 -36.5,26.5 -49,43.7 -17.8,24.3 -48,31.2 -65.2,53.9 -12.8,16.5 -34.3,22.8 -44.9,41.5 -0.3,0.9 -1.6,1.2 -2.5,1.6 -13.4,6.9 -19.3,11.2 -23.7,17.8 -5.3,-1.9 -2.2,-12.5 -10.6,-10.6 1.6,-10.6 0.9,-21.2 4.7,-31.2 h -0.3 c 4.1,0.9 7.8,-0.3 10.6,-3.1 39.3,-15.3 63.6,-48 90.4,-78 32.4,-36.5 67.4,-70.2 112.6,-90.7 5.3,-2.5 9.7,-5.3 7.2,-11.5 -2.8,-6.5 -8.7,-4.4 -13.4,-2.5 -14.7,6.2 -28.7,14 -41.5,23.7 -9,-3.7 -7.8,-15.3 -15.9,-20 -24.3,-14.7 -24.9,-38 -21.5,-62.4 0.6,-3.4 4.4,-7.2 -0.3,-9.4 -4.1,-1.9 -6.2,2.8 -8.7,5 -16.5,15.3 -26.8,34.9 -40.5,52.1 -32.4,39.3 -62.1,80.4 -92,121.3 -2.8,3.7 -5.3,8.7 -9.4,10.3 -11.2,4.4 -14.3,11.2 -10.6,22.5 2.2,6.5 -4.7,5 -8.1,6.2 -19,-27.4 -9.7,-55.8 -0.6,-82.6 11.5,-33.4 35.9,-59.6 56.4,-87.6 4.7,0.6 5.9,-1.6 5,-5.6 l 0.9,-0.9 c 2.8,0.6 4.7,-0.3 6.2,-2.8 10.3,-15.9 23.4,-29.3 36.8,-42.4 3.7,-3.4 7.8,-6.9 7.2,-12.8 0.9,-0.9 2.2,-1.9 3.1,-2.8 l 3.1,-3.1 c 0.9,-0.9 2.2,-1.9 3.1,-3.1 2.5,-0.3 4.7,-1.2 5,-4.1 0.3,-0.6 0.9,-1.2 1.2,-1.9 4.4,-0.3 8.7,-0.9 8.7,-6.9 l 3.4,-3.4 c 0.9,-0.9 1.9,-1.6 2.8,-2.5 6.5,-0.3 13.7,0.3 12.5,-10 6.6,-1.5 12.9,-1.5 13.2,-9.9 z" />
		<path
   id="path27"
   class="st2"
   d="m 7024.3,1862.8 c 13.7,-17.5 32.4,-28.4 50.8,-39.6 36.8,-22.8 70.8,-48.3 97.9,-82.6 12.5,-15.9 20.6,-33.4 24.3,-53 1.9,-10.9 0.3,-22.8 11.8,-30.2 3.1,-1.9 3.1,-6.5 0,-9.7 -4.1,-4.4 -8.4,-1.6 -11.2,0.9 -20,17.1 -44,18.7 -68.6,18.1 -10.9,-0.3 -21.2,-3.1 -30.2,-9.7 10.9,-0.3 22.1,1.9 34.9,-1.2 -23.7,-18.4 -47.7,-31.8 -66.7,-52.1 -5.9,-6.5 -8.4,1.9 -12.5,3.7 -0.9,-2.2 -2.5,-4.7 -2.8,-6.9 0,-9 0.3,-18.4 9.7,-22.8 9,-4.1 15.3,-1.6 21.5,7.5 3.4,5 9.4,11.5 15,14 22.8,10.3 39.3,29.6 60.5,42.1 20.9,12.5 27.8,11.2 37.4,-13.4 1.6,-3.7 2.8,-9 8.1,-7.8 18.1,4.4 32.1,-10.6 50.2,-8.7 16.5,1.6 34.6,-8.4 49,7.5 0.3,0.3 1.6,-0.6 3.1,-1.6 0,-5.9 -11.8,-9 -4.7,-16.8 10.9,8.7 19.6,20 33.7,24.6 9.4,3.1 6.9,10 2.5,14.7 -19.6,20.3 -37.4,42.1 -61.1,58.6 -17.8,12.2 -32.7,28.4 -48.6,43.3 -44.3,42.1 -87.6,85.4 -117.6,139.7 -15.9,28.7 -27.4,58.9 -24.6,92.9 1.2,15 -10.9,19.6 -21.2,25.3 -1.6,-8.7 4.7,-11.5 14,-15 -18.7,-6.2 -10.3,-13.1 -0.6,-20.9 -17.5,0.3 -20.9,-8.4 -19.6,-21.2 0.6,-7.2 0,-14.3 -2.8,-21.5 -0.9,-2.8 0,-7.2 -4.4,-6.9 -2.2,0 -5.3,2.5 -5.9,4.4 -7.2,18.4 -24.6,29.9 -32.1,48.6 -6.5,16.5 -25.3,18.7 -38.7,7.2 -2.2,-2.2 -5,-3.7 -7.5,-5.6 -0.3,-0.6 -0.6,-1.6 -0.3,-2.2 0.3,-1.6 0.6,-2.8 0.9,-4.4 9.4,6.5 15.6,5.3 18.7,-6.5 0.6,-2.2 2.5,-4.4 3.7,-6.5 18.1,-26.5 39,-51.4 54.6,-79.5 2.2,-3.7 5.3,-7.2 2.5,-10.9 -3.4,-4.7 -7.2,-1.2 -10.6,1.2 -3.5,3.2 -7.9,3.2 -12.5,2.9 z" />
		<path
   id="path29"
   class="st4"
   d="m 7704,1479.5 c 50.2,-44.6 92.3,-96.3 127.8,-153.4 8.1,-2.5 9.4,5 11.8,9 14.7,23.7 24.9,49.6 34.9,75.5 5,12.8 11.8,25.3 11.8,39.9 -33.1,48 -73.6,87.9 -126,114.4 -4.7,2.2 -8.7,5.6 -14.3,4.4 -5,-7.8 -10.6,-15.3 -15.3,-23.4 -12.3,-20.8 -26.6,-41.4 -30.7,-66.4 z m 139.7,-171.1 c 12.5,-26.2 25.6,-51.8 37.1,-78.3 15.9,-36.5 25.3,-74.8 29.6,-118.5 20.9,37.1 31.5,73.3 33.1,111 1.2,34 0.9,68 -4.7,102 -6.2,37.4 -18.1,71.7 -35.9,104.8 -4.7,-4.1 -5.3,-10 -7.5,-15.3 -14.3,-36.8 -28.6,-73.3 -51.7,-105.7 z" />
		<path
   id="path31"
   class="st2"
   d="m 7117.5,1994.3 c 3.4,-1.2 10.3,0.3 8.1,-6.2 -3.7,-11.5 -0.9,-18.1 10.6,-22.5 3.7,-1.6 6.5,-6.5 9.4,-10.3 29.9,-40.8 59.9,-82 92,-121.3 14,-16.8 24.3,-36.8 40.5,-52.1 2.5,-2.2 4.7,-6.9 8.7,-5 4.7,2.2 0.9,6.2 0.3,9.4 -3.7,24.6 -3.1,47.7 21.5,62.4 8.1,5 6.9,16.5 15.9,20 -37.4,28.4 -69.2,62.4 -99.8,97.9 -3.7,4.4 -8.1,7.8 -12.2,11.8 -16.5,-14.7 -16.2,-14.7 -33.1,2.2 -7.5,7.5 -15.6,14.7 -24,20.9 -16.7,11.9 -31,8.7 -37.9,-7.2 z" />
		<path
   id="path33"
   class="st1"
   d="m 7301.8,1600.8 c -6.9,7.8 5,10.6 4.7,16.8 -1.2,0.6 -2.8,1.6 -3.1,1.6 -14.3,-15.9 -32.4,-5.6 -49,-7.5 -17.8,-1.9 -32.1,13.1 -50.2,8.7 -5.3,-1.2 -6.5,4.1 -8.1,7.8 -9.7,24.6 -16.2,25.9 -37.4,13.4 -21.2,-12.8 -37.4,-31.8 -60.5,-42.1 -5.6,-2.5 -11.5,-9 -15,-14 -6.2,-9.4 -12.5,-11.8 -21.5,-7.5 -9.4,4.4 -10,13.7 -9.7,22.8 0,2.2 1.9,4.7 2.8,6.9 l 0.9,5.6 c 0,2.2 -0.3,4.4 -0.3,6.5 -11.2,-13.4 -8.4,-28.7 -1.9,-41.8 19,-38.4 51.4,-45.5 88.9,-37.1 22.8,5 43,17.8 58.3,36.2 1.9,2.2 3.1,5.9 7.2,4.4 4.1,-1.2 6.2,-5.9 5.3,-8.4 -2.8,-10 4.7,-9.4 10,-10.9 14,-3.7 28.4,-5.6 41.2,-12.8 7.5,-4.1 11.2,-2.8 12.8,5.9 3.7,17.2 14.3,31.2 24.6,45.5 z" />
		<path
   id="path35"
   class="st4"
   d="m 7737.4,1575.6 c -24.3,15 -51.8,20 -79.2,24.6 -51.1,8.7 -51.1,7.8 -85.4,-36.5 33.4,-16.5 65.8,-34.3 96,-56.1 7.2,-5.3 12.2,-14.3 22.5,-15 11.8,29.7 27.1,57.4 46.1,83 z" />
		<path
   id="path37"
   class="st1"
   d="m 7292.1,1516.6 c -7.8,7.5 3.4,17.5 -3.1,25.3 -10.9,-29.3 5.9,-97 37.4,-120 34.6,-25.3 75.5,-12.5 89.5,27.8 10.6,30.9 6.9,62.4 5.9,93.9 -0.3,6.5 -1.2,13.4 -1.9,20 -3.7,0.6 -8.7,-1.2 -8.1,5.9 0.9,12.2 -6.9,11.2 -13.7,7.5 -16.5,-9 -33.1,-10.6 -50.2,-2.5 -8.7,4.1 -13.4,-3.7 -19.3,-6.5 -5,-2.5 0,-8.4 2.2,-12.2 14.7,-25.6 27.1,-52.1 47.4,-73.9 7.5,-8.1 7.5,-20.3 18.4,-28.4 5.9,-4.4 -3.4,-17.8 -10.6,-24.6 -3.1,-3.1 -7.8,-5.3 -12.8,-5.3 l -15,-2.8 c -3.4,-0.3 -7.2,-0.9 -9.7,2.2 -17.5,9.7 -31.2,22.8 -41.2,39.9 -8.4,15 -10.9,31.8 -15.6,47.7 -0.3,0.3 -1.2,0.6 -0.9,0.9 0.3,0.9 0.6,1.6 1.2,2.2 0.1,0.8 0.4,1.7 0.1,2.9 z" />
		<path
   id="path39"
   class="st3"
   d="m 7955.3,1332.1 c 7.5,10 3.4,20.6 2.5,31.2 -2.8,30.6 -13.7,58.9 -23.7,87.6 l -9.4,21.5 c -11.5,6.2 -17.5,18.7 -24,28.4 -5.6,8.4 -16.2,5.3 -19.3,13.4 -5.9,15 -21.5,20.3 -31.2,31.2 -14.3,16.5 -32.7,29.3 -43,49.3 l -0.3,0.3 c -5,-0.9 -9,-0.3 -9.4,5.9 -29,15.9 -60.5,22.1 -93.2,24.9 -20,1.6 -40.2,5 -60.2,-0.3 -3.1,-0.9 -8.1,0.9 -6.9,-5.3 2.2,-0.3 4.4,-0.3 6.5,-0.6 7.2,0 14.7,1.6 21.2,-0.6 11.2,-3.4 24.9,-1.6 33.4,-12.5 1.6,-0.6 2.8,-1.2 4.4,-1.9 6.5,4.7 11.2,1.6 15.3,-3.7 h 0.9 c 5.9,-0.3 12.2,1.2 15,-6.2 91,-33.1 153.4,-96.7 195.2,-182.7 11.9,-25.4 17.5,-53.1 26.2,-79.9 z" />
		<path
   id="path41"
   class="st1"
   d="m 7532.2,1575.9 c -13.1,-7.5 -25.3,-1.9 -36.2,4.1 -7.8,4.4 -14,12.8 -7.8,23.7 1.2,2.5 4.1,5.6 0.6,8.1 -2.8,2.2 -6.2,1.9 -8.7,0 -15,-11.2 -31.5,-19 -49.3,-25.3 -8.4,-2.8 -3.4,-13.1 -5,-19.6 9.7,-5.9 8.1,-15.9 9.4,-24.9 0.6,-3.7 -0.6,-9 6.2,-8.4 43.3,3.7 84.8,13.7 119.7,41.5 36.5,29 52.1,69.8 61.1,113.8 5.6,27.8 5.3,55.5 0,83.3 -1.2,6.9 -1.6,14.7 -8.4,19.3 -4.7,-5.3 -0.9,-10.9 -0.6,-16.2 0.6,-1.2 2.2,-2.5 2.2,-4.1 0.6,-36.2 5.9,-72.3 -5.9,-107.6 -11.2,-34 -28.7,-63.9 -61.7,-82 -0.9,-6.5 -5.3,-5.9 -10,-5.6 -1.8,0.2 -3.7,-0.1 -5.6,-0.1 z m -515.7,523.2 c -18.4,-0.9 -35.5,-13.7 -39,-29.3 -3.4,-15.3 6.9,-40.5 22.1,-45.5 11.5,-3.7 24.9,-1.6 37.4,-2.2 1.2,0.9 2.5,2.5 3.7,2.2 13.1,-0.3 26.2,-0.9 29.6,16.5 0.3,1.9 4.1,4.7 5.9,4.7 14.3,-1.9 23.7,10.6 35.5,12.2 -5.9,21.2 -23.1,16.8 -38,16.8 h -54.6 c -5.6,0 -11.5,0 -16.8,-0.9 -3.7,-0.6 -6.2,-7.8 -10.3,-3.4 -4.1,4.1 1.2,8.4 3.1,12.5 2.8,5.6 5.9,11.2 13.7,10.6 4.2,-0.1 6.1,2.4 7.7,5.8 z" />
		<path
   id="path43"
   class="st2"
   d="m 7009,2092.9 c -7.8,0.6 -10.9,-4.7 -13.7,-10.6 -1.9,-3.7 -7.2,-8.1 -3.1,-12.5 4.1,-4.4 6.5,3.1 10.3,3.4 5.6,0.6 11.2,0.9 16.8,0.9 h 54.6 c 15,0 32.1,4.4 38,-16.8 -11.8,-1.6 -21.2,-14 -35.5,-12.2 -1.9,0.3 -5.3,-2.8 -5.9,-4.7 -3.4,-17.5 -16.5,-16.8 -29.6,-16.5 -1.2,0 -2.5,-1.6 -3.7,-2.2 16.8,-1.9 32.1,-8.1 45.5,-17.8 5.9,-4.1 10.3,-5 14,1.6 6.9,12.5 18.7,17.8 31.2,21.5 10,3.1 12.8,7.2 7.5,16.5 -1.2,2.2 -1.9,5 -1.6,7.5 4.7,29.3 -16.8,38.4 -37.4,47.1 -8.7,3.7 -19,4.4 -28.4,6.5 -2.2,-0.9 -4.4,-1.6 -6.5,-2.5 2.2,-2.8 5.3,-2.8 8.4,-3.1 5.6,-0.3 13.4,0.6 12.8,-7.2 -0.6,-8.1 -9,-4.4 -14,-4.7 -12.8,-0.9 -26.8,2.2 -38,-2.2 -12.7,-4.8 -17,-1.1 -21.7,8 z" />
		<path
   id="path45"
   class="st1"
   d="m 6967.5,1968.8 c 2.5,1.9 5,3.4 7.5,5.6 13.1,11.5 32.1,9.4 38.7,-7.2 7.5,-18.7 24.9,-30.2 32.1,-48.6 0.6,-1.9 3.7,-4.4 5.9,-4.4 4.4,0 3.1,4.4 4.4,6.9 2.8,6.9 3.1,14 2.8,21.5 -0.9,12.5 2.5,21.5 19.6,21.2 -9.4,7.8 -17.8,15 0.6,20.9 -9.7,3.4 -15.6,6.5 -14,15 -24.9,11.8 -50.5,15.6 -75.8,1.2 -12.1,-6.9 -21.5,-16.8 -21.8,-32.1 z m 191.2,62.6 c -3.7,10 -3.1,20.9 -4.7,31.2 -5.9,15 5.6,21.8 14.3,29 8.1,6.5 15.9,1.9 25.9,-0.9 20.3,-5.6 29,-27.8 50.5,-29.3 5.6,-0.3 3.4,-7.8 6.9,-11.2 12.2,-13.7 33.1,-16.8 42.1,-34.9 2.2,-4.4 14.3,5.9 15,14 -5,11.2 -14,19 -22.1,27.4 -22.8,23.1 -45.2,46.5 -79.2,53.3 -16.2,3.1 -43.7,-8.4 -55.2,-24.6 -8.1,-11.8 -7.5,-39.6 1.6,-51.8 0.2,-1.5 3,-1.5 4.9,-2.2 z" />
		<path
   id="path47"
   class="st3"
   d="m 7024.3,1862.8 c 4.7,0.3 9.4,0.3 13.4,-2.8 3.4,-2.5 7.2,-5.9 10.6,-1.2 2.8,3.7 -0.3,7.2 -2.5,10.9 -15.9,28.4 -36.5,53 -54.6,79.5 -1.6,2.2 -3.1,4.1 -3.7,6.5 -3.1,11.5 -9.7,13.1 -18.7,6.5 -2.2,-16.2 1.9,-31.5 6.2,-47.1 0.3,-0.6 0.3,-1.2 0.6,-1.9 3.7,-0.9 5.6,-3.1 5.6,-7.2 v 0.3 c 6.2,-0.3 6.9,-5.6 9,-9.7 l 3.1,-3.1 c 0.9,-1.2 1.9,-2.2 2.8,-3.4 3.4,-0.6 5.6,-2.5 6.5,-5.9 8.6,-5.2 18.2,-10.2 21.7,-21.4 z" />
		<path
   id="path49"
   class="st1"
   d="m 7117.5,1994.3 c 6.9,15.9 21.2,19 37.4,7.5 8.7,-6.2 16.5,-13.4 24,-20.9 16.5,-16.8 16.5,-16.8 33.1,-2.2 -15.9,20.9 -37.1,36.8 -62.7,38.7 -26.5,2.2 -48,-12.5 -50.2,-46.8 -2.2,-34.9 12.2,-64.9 29.3,-93.5 12.5,-21.2 25.6,-42.7 44.9,-58.6 l 0.6,0.6 c 0,1.9 -0.3,3.4 -0.3,5.3 -20.6,28.1 -45.2,54.3 -56.4,87.6 -9.4,26.5 -18.7,54.9 0.3,82.3 z m -37.1,148.5 c -7.2,0 -10.9,-5.3 -14.3,-10.3 -5.3,-7.8 -5,-13.1 6.2,-14.3 20,-2.2 37.4,-10.3 53.6,-21.5 8.1,-5.6 14,-7.5 20.3,1.9 1.9,2.8 5,5.3 7.5,7.5 15.6,14.3 15.9,14.3 -1.9,27.8 -5.9,-10 -9.7,-18.1 -25.9,-11.2 -10,4.4 -22.1,10.3 -34.9,8.1 -9,-1.4 -11.9,3.5 -10.6,12 z" />
		<path
   id="path51"
   class="st3"
   d="m 7843.7,1308.4 c 23.4,32.4 37.7,68.9 52.1,105.7 2.2,5.3 2.5,11.2 7.5,15.3 l -12.2,21.5 c 0,-14.3 -6.9,-26.8 -11.8,-39.9 -10.3,-25.9 -20.3,-51.8 -34.9,-75.5 -2.5,-4.1 -3.7,-11.8 -11.8,-9 3,-6.3 7.1,-12.2 11.1,-18.1 z m -787.9,304.3 -0.9,-5.6 c 4.1,-2.2 6.5,-10.3 12.5,-3.7 19,20.3 43,33.7 66.7,52.1 -12.8,3.1 -24,0.9 -34.9,1.2 l -18.7,-11.2 c -8.5,-11 -16.6,-21.9 -24.7,-32.8 z m 681.6,-37.1 c -19.3,-25.6 -34.6,-53 -46.1,-82.9 4.1,-4.4 8.4,-8.7 12.5,-13.1 4.4,24.9 18.4,45.5 30.9,66.7 4.7,8.1 10.3,15.6 15.3,23.4 -3,4.9 -7.6,5.3 -12.6,5.9 z" />
		<path
   id="path53"
   class="st1"
   d="m 7332.6,2027.7 c 8.4,5 17.1,-8.7 25.6,0.6 -20.6,22.1 -42.4,42.7 -72.7,51.8 14.4,-19 28.8,-37.4 47.1,-52.4 z" />
		<path
   id="path55"
   class="st2"
   d="m 7080.4,2142.8 c -0.9,-8.1 1.6,-13.4 10.9,-11.8 12.8,2.2 24.9,-3.7 34.9,-8.1 16.2,-6.9 20,1.2 25.9,11.2 -1.2,0.9 -2.2,1.9 -3.4,2.8 -6.9,0 -13.4,0.6 -18.4,5.9 -16.9,5.3 -33.4,5.9 -49.9,0 z" />
		<path
   id="path57"
   class="st3"
   d="m 7009,2092.9 c 4.7,-9 9,-12.8 21.2,-7.8 10.9,4.7 25.3,1.2 38,2.2 5,0.3 13.1,-3.7 14,4.7 0.6,7.8 -7.2,6.9 -12.8,7.2 -3.1,0.3 -6.2,0.3 -8.4,3.1 -15,2.5 -29,-5.3 -44,-3.1 l -0.6,-0.3 c -1.5,-3.2 -3.4,-5.7 -7.4,-6 z" />
		<path
   id="path59"
   class="st2"
   d="m 7230.1,1759.6 c 0.6,5.9 -3.7,9 -7.2,12.8 -13.4,13.1 -26.5,26.5 -36.8,42.4 -1.6,2.5 -3.4,3.4 -6.2,2.8 0,-2.5 0.3,-5.3 0.3,-7.8 14.9,-18.1 31.5,-35 49.9,-50.2 z" />
		<path
   id="path61"
   class="st1"
   d="m 7698.1,1606.8 c -8.7,10.9 -22.1,9 -33.4,12.5 -6.5,1.9 -14,0.3 -21.2,0.6 17.5,-7.5 36.2,-10 54.6,-13.1 z m -724,308.3 c -4.4,15.3 -8.4,30.9 -6.2,47.1 -0.3,1.6 -0.6,2.8 -0.9,4.4 -10.6,-10.6 -5,-22.5 -2.2,-34 1.8,-6.2 4,-12.8 9.3,-17.5 z m 43,184 c 15,-2.2 29,5.6 44,3.1 2.2,0.9 4.4,1.6 6.5,2.5 -17.1,-0.6 -34.9,6.3 -50.5,-5.6 z" />
		<path
   id="path63"
   class="st2"
   d="m 7055.8,1612.7 24.3,32.7 c -12.8,-4.4 -18.7,-15.6 -24.9,-25.9 0.2,-2.4 0.6,-4.6 0.6,-6.8 z m -31.5,250.1 c -3.4,11.2 -13.1,16.2 -22.1,21.5 3.4,-10.9 11.5,-17.8 22.1,-21.5 z m 248.8,-140.7 c 1.2,10 -5.9,9.7 -12.5,10 3.1,-5 6.6,-9.3 12.5,-10 z m 12.5,-9.3 c -0.3,8.1 -6.9,8.4 -12.5,9.4 1.6,-6.6 6.9,-8.5 12.5,-9.4 z" />
		<path
   id="path65"
   class="st1"
   d="m 7130.3,2142.8 c 5,-5.3 11.5,-5.9 18.4,-5.9 -5.3,5.2 -11.6,6.2 -18.4,5.9 z m 587.4,-541.7 c -4.1,5.3 -8.7,8.4 -15.3,3.7 4.7,-3 9.7,-4.3 15.3,-3.7 z" />
		<path
   id="path67"
   class="st2"
   d="m 6989.7,1896.7 c -2.2,4.1 -2.8,9.4 -9,9.7 -0.4,-6.2 3,-9 9,-9.7 z m 265,-159 c 0,5.9 -4.4,6.5 -8.7,6.9 1.2,-4.4 4.3,-6.6 8.7,-6.9 z" />
		<path
   id="path69"
   class="st1"
   d="m 7733.3,1594.9 c -2.8,7.5 -9.4,5.9 -15,6.2 4.1,-4.6 9.7,-4.9 15,-6.2 z m -553.4,214.9 c 0,2.5 -0.3,5.3 -0.3,7.8 l -0.9,0.9 c -1.6,0.3 -3.1,0.3 -4.7,0.6 l -0.6,-0.6 c 0.5,-4.1 2.7,-6.9 6.5,-8.7 z" />
		<path
   id="path71"
   class="st2"
   d="m 7001.8,1884 c -0.6,3.4 -3.1,5.3 -6.5,5.9 0.6,-3.8 2.5,-5.9 6.5,-5.9 z" />
		<path
   id="path73"
   class="st1"
   d="m 6980.3,1906.1 c 0,4.1 -2.2,6.2 -5.6,7.2 0.3,-3.8 2.5,-6 5.6,-7.2 z m 188.6,121.9 c -2.8,3.1 -6.5,4.1 -10.6,3.1 2.5,-4 6.6,-3.4 10.6,-3.1 z" />
		<path
   id="path75"
   class="st2"
   d="m 7244.7,1746.5 c -0.3,2.8 -2.5,3.7 -5,4.1 0.7,-2.6 2.5,-3.5 5,-4.1 z m 13.1,-12.2 -3.4,3.4 c 1.2,-0.9 2.5,-2.2 3.4,-3.4 z m -21.5,19.3 -3.1,3.1 c 0.9,-0.9 2.2,-1.8 3.1,-3.1 z m -240.7,136.6 c -0.9,1.2 -1.9,2.2 -2.8,3.4 0.9,-1.2 1.8,-2.2 2.8,-3.4 z m -2.8,3.4 -3.1,3.1 c 0.9,-0.9 1.8,-2.1 3.1,-3.1 z" />
		<path
   id="path77"
   class="st1"
   d="m 7423.4,1566.5 c -1.2,-0.9 -2.2,-2.2 -3.4,-3.1 1.2,1 2.1,2.2 3.4,3.1 z m -133.5,-18.7 c 0.6,1.2 1.6,2.5 2.2,3.7 -0.6,-1.2 -1.5,-2.4 -2.2,-3.7 z" />
		<path
   id="path79"
   class="st3"
   d="m 7379.7,1124.4 c -4.1,-0.3 -8.4,-0.3 -11.2,-4.1 -2.8,-4.4 -6.9,-7.8 -11.5,-4.1 -4.4,3.4 -3.4,9.7 -1.2,14.3 2.2,4.4 7.2,7.8 2.5,14 -4.1,-0.3 -5,-9.7 -12.8,-4.1 -4.1,2.8 -2.5,-5.6 -4.4,-8.7 -2.8,-5.3 -5,-13.4 -9,-14.7 -7.2,-2.2 -4.7,9 -9.7,11.5 -4.4,-9 -8.4,-17.8 -12.8,-26.8 -7.2,-14.3 -14.3,-29 -24.3,-41.5 -2.8,-3.4 -5.9,-5.6 -10.6,-4.4 -3.1,0.9 -4.1,2.8 -3.7,5.6 1.2,8.1 1.2,16.8 4.4,24 10.9,24.3 15.3,50.2 20,76.1 1.9,10.3 -3.4,13.7 -12.5,11.2 -9.4,-2.5 -19,-5.6 -28.1,-9.4 -28.7,-12.5 -57.4,-25.6 -86.1,-38 -44.9,-19.3 -90.1,-38 -137.8,-49 -30.2,-6.9 -36.8,-3.4 -49.9,24.3 -2.8,-59.6 -4.7,-119.4 6.5,-178 14,-73.9 35.5,-145.9 74.2,-211.1 41.2,-68.9 94.8,-125.7 168.4,-161.2 1.9,-0.9 3.4,-2.2 5.3,-3.4 5.3,0.3 9.7,-0.9 12.5,-6.2 11.5,-0.9 21.8,-4.4 30.6,-12.5 17.5,-5.9 35.5,-8.4 53.3,-12.8 34.6,-8.4 69.5,-7.2 104.5,-5.3 23.7,1.2 48,2.8 71.1,11.8 12.5,6.9 26.5,10 40.5,12.2 1.9,0.3 4.1,0.3 5.9,0.6 15.6,13.4 35.9,18.4 53.6,27.8 11.5,5.9 26.5,6.2 32.4,20.6 21.2,-0.6 28.7,21.8 46.5,27.8 15.3,5 24.6,19 36.2,29.3 21.5,19 41.8,39 59.2,62.7 11.2,15.3 24.3,29.9 34.3,46.1 5.9,9.4 10.6,19.6 15,29.9 6.2,15.6 -5.9,21.8 -15.3,29.6 -0.9,0 -1.9,0 -2.8,0.3 -4.7,-0.6 -8.7,0 -10,5.6 -31.2,18.1 -55.5,42.1 -68.3,76.7 -3.4,9.4 -4.7,18.4 -2.5,27.1 1.9,7.2 -1.6,7.8 -6.5,8.4 v 0.3 c 0,-7.5 -4.1,-10.9 -10.9,-12.2 -23.4,-21.2 -49,-38 -81.4,-41.8 -1.9,-0.6 -3.7,-1.6 -5.6,-1.9 -19,-1.6 -19,-1.2 -11.5,-18.7 11.2,-25.9 16.8,-28.1 44,-20.6 10,2.8 18.7,9 29.6,8.4 l 3.1,3.1 c 4.1,4.1 7.8,8.1 11.8,12.2 3.1,3.4 6.5,5.3 10.9,2.5 3.7,-2.5 3.7,-5.9 2.2,-9.7 -15.9,-37.4 -33.1,-74.2 -67,-99.5 -20.6,-15.3 -40.8,-13.1 -58.6,5.3 -16.8,17.5 -28.4,38.4 -38,60.5 -24.3,56.4 -51.1,111.6 -77,167.4 -9.4,20 -20.6,39 -28.7,59.9 -7.5,20 -17.8,38.7 -26.8,58 -4.1,8.7 -9,9 -15,1.9 -7.8,-9.4 -13.4,-19.6 -18.1,-30.9 -8.4,-19.6 -16.5,-39 -24.6,-58.6 -1.6,-3.7 -2.5,-7.2 -7.2,-6.5 -5.3,0.9 -5.9,5 -5.6,9.4 0.3,3.7 -0.6,7.5 0.3,10.9 12.3,32.3 18.6,65.6 28.2,98.4 z" />
		<path
   id="path81"
   class="st5"
   d="m 6981.5,1100.7 c 13.1,-27.8 19.6,-31.2 49.9,-24.3 48,10.9 92.9,29.6 137.8,49 28.7,12.5 57.4,25.6 86.1,38 9,3.7 18.4,6.9 28.1,9.4 9,2.5 14.3,-0.9 12.5,-11.2 -5,-25.9 -9.4,-51.8 -20,-76.1 -3.1,-7.2 -3.1,-15.9 -4.4,-24 -0.3,-2.8 0.3,-4.7 3.7,-5.6 4.7,-1.2 8.1,0.9 10.6,4.4 10,12.8 17.1,27.1 24.3,41.5 4.4,8.7 8.4,17.8 12.8,26.8 l 20.6,55.2 c 6.2,16.8 5.3,33.4 -5.6,48.3 -24,7.2 -24,7.2 -21.2,31.8 5.3,45.2 -34.3,90.4 -81.7,94.2 -46.5,3.7 -84.2,-14 -114.4,-47.7 -15.6,-17.5 -29.3,-36.2 -37.1,-58.9 -8.7,-25.3 -8.7,-49.9 5.6,-73.3 5.6,-9.7 5.3,-14 -7.5,-16.2 -15.3,-2.5 -29.6,-8.4 -44.6,-12.5 -22.1,-5.9 -23.4,-5 -28.7,16.8 -1.6,5.9 -3.4,11.8 -1.9,18.4 -4.4,9.7 -5.6,20 -6.2,30.6 -12.5,12.8 -14,1.2 -15.6,-7.5 -5.6,-32.7 -4.7,-65.8 -3.1,-98.8 -0.3,-3.3 -0.3,-5.8 0,-8.3 z m 273.5,127.8 c -11.2,1.9 -18.4,5.9 -8.7,18.1 -21.8,15 -37.4,11.2 -52.4,-12.2 1.2,-1.6 2.5,-3.7 4.1,-4.4 8.7,-2.5 12.5,-8.7 12.5,-17.5 0.3,-10 -7.5,-11.5 -14.3,-13.7 -24.9,-8.4 -50.2,-16.5 -74.8,-25.6 -7.5,-2.8 -11.8,-2.2 -16.8,5 -11.8,17.5 -15,36.2 -11.2,56.4 10.3,53.6 68,104.5 122.5,108.5 56.1,4.1 100.1,-42.1 82.9,-96.3 -2.5,-8.1 -5.3,-14.3 -15,-14.3 -10.9,0 -6.2,9 -7.8,13.7 -10.9,27.8 -42.7,42.4 -72,31.8 -28.1,-10 -40.5,-35.5 -29.9,-63.6 3.4,8.1 7.8,14.3 13.4,19.3 -0.3,14.7 8.4,25.3 24.6,29.9 22.1,6.5 48,-8.1 49.9,-28.7 -0.4,-2.9 2.7,-11 -7,-6.4 z M 6996.2,1120 c 2.8,2.8 -2.5,14.7 5,11.2 10.6,-4.7 22.1,-2.5 32.1,-8.4 8.1,-4.7 20.3,-8.7 19.3,-17.1 -0.9,-9.4 -14.3,-9.4 -23.1,-11.5 -23.9,-6.3 -33.3,0.6 -33.3,25.8 z m 325.5,60.5 c -5.3,7.5 -9,13.4 -13.7,18.7 -3.4,4.1 -11.5,5 -8.7,12.5 2.8,7.5 10.3,5.3 16.2,5.6 12.2,0.9 15.9,-5.6 13.7,-16.2 -1.2,-6.2 -4.3,-12.5 -7.5,-20.6 z" />
		<path
   id="path83"
   class="st2"
   d="m 8252.2,1257.8 c -7.2,31.5 -26.5,56.4 -43.7,82.6 -1.9,3.1 -3.7,4.7 -7.2,4.4 -5,-0.6 -4.4,-4.7 -5.3,-8.1 -3.1,-12.8 -2.2,-25.3 -0.3,-38.4 2.8,-18.4 -2.2,-36.8 0,-55.5 5.6,-48 10.3,-96.3 15.3,-144.4 1.6,-15 3.1,-29.9 3.4,-44.9 0.6,-34.9 -1.2,-69.8 0.6,-104.5 1.6,-26.8 -6.5,-52.1 -11.8,-77 -6.2,-30.6 -8.7,-60.5 -7.8,-91.4 0.9,-32.7 0.3,-65.5 0.3,-98.2 0,-7.8 0.3,-15.3 5.9,-22.8 17.2,13.1 22.5,33.4 30.9,51.1 10.6,22.5 15.6,47.4 28.4,69.2 1.6,2.8 5,5.9 1.2,9.7 -10,9.7 3.1,19 0.3,29 -3.4,3.4 -6.2,-5 -9,-1.2 -3.1,3.7 -1.2,7.8 1.6,11.2 4.4,5.6 4.4,11.8 1.2,17.5 -4.7,8.1 -5.3,17.1 -4.1,25.6 5.9,34.9 -1.9,69.8 2.2,105.1 1.6,13.4 5.6,29.3 -6.9,41.2 -1.2,1.2 -1.6,4.4 -0.9,5.9 11.5,24.6 4.7,50.8 5,76.4 0,10 11.2,17.5 6.2,26.2 -11.2,19.3 0.6,42.4 -11.2,61.4 -2.2,3.4 -0.9,9 1.2,13.4 6.5,11.8 5.6,23.1 0,35.2 -2.4,6.7 -6.7,16.4 4.5,21.3 z" />
		<path
   id="path85"
   class="st3"
   d="m 8253.1,1257.8 c -11.5,-5 -7.2,-14.3 -4.1,-20.9 5.6,-12.2 6.5,-23.7 0,-35.2 -2.5,-4.4 -3.4,-10 -1.2,-13.4 11.8,-19 0,-42.1 11.2,-61.4 5,-8.4 -6.2,-16.2 -6.2,-26.2 0,-25.6 6.5,-51.4 -5,-76.4 -0.6,-1.6 -0.3,-4.7 0.9,-5.9 12.8,-11.8 8.7,-27.8 6.9,-41.2 -4.1,-34.9 3.4,-70.2 -2.2,-105.1 -1.6,-8.7 -0.6,-17.5 4.1,-25.6 3.1,-5.6 3.1,-11.8 -1.2,-17.5 -2.8,-3.4 -4.4,-7.8 -1.6,-11.2 2.8,-3.7 5.6,4.7 9,1.2 2.8,-9.7 -10.3,-19 -0.3,-29 4.1,18.7 12.2,35.9 16.2,54.6 7.2,32.7 14.3,65.8 16.2,99.2 5,86.7 -1.2,172.7 -24.3,256.6 -5,19.4 -8.7,39.4 -18.4,57.4 z m -1252.2,-43.3 c 0.6,-10.6 1.9,-20.9 6.2,-30.6 2.2,-1.2 5,-1.9 6.5,-3.7 18.4,-18.1 26.8,-18.7 49,-4.7 4.7,3.1 6.9,5.9 5,11.2 -0.6,1.9 -2.2,4.1 -2.2,5.9 2.8,35.9 -23.7,51.8 -49,68.9 -8.7,-13.3 -8.3,-31.7 -15.5,-47 z" />
		<path
   id="path87"
   class="st2"
   d="m 7807.2,1594.9 c 10.3,-20 28.7,-32.7 43,-49.3 9.7,-11.2 25.3,-16.2 31.2,-31.2 3.1,-8.1 13.4,-4.7 19.3,-13.4 6.5,-9.7 12.5,-22.1 24,-28.4 -6.2,16.2 -6.2,37.4 -21.5,47.4 -18.7,12.2 -33.4,28.1 -49.6,43 -11.5,10.6 -22.5,21.5 -36.5,29 -3,1.7 -6.4,2.6 -9.9,2.9 z M 7279,528.2 c -8.7,8.1 -19,11.5 -30.6,12.5 1.6,-5.3 3.1,-10.6 1.2,-15.9 10.4,1.2 19.8,2.2 29.4,3.4 z m 269.1,5.6 c -14,-2.2 -27.8,-5 -40.5,-12.2 14.3,1.3 30.5,-3.7 40.5,12.2 z m 58,-14 c 6.9,-4.7 13.7,-4.4 22.8,-1.6 -8.4,6.6 -15.9,2.8 -22.8,1.6 z m -357.6,20.9 c -2.5,5.3 -7.2,6.5 -12.5,6.2 1.2,-7.8 7.5,-5.6 12.5,-6.2 z m 549.1,1060.1 c 0.6,-6.2 4.4,-6.5 9.4,-5.9 -0.7,5.9 -5.1,5.9 -9.4,5.9 z M 7550,517.3 c 0.9,0.3 1.9,0.6 2.5,1.2 -0.3,0.9 -0.6,2.2 -1.2,2.5 -0.6,0.3 -1.6,-0.6 -2.5,-0.9 0.6,-1.2 0.9,-2.2 1.2,-2.8 z" />
		<path
   id="path89"
   class="st3"
   d="m 7796,958.2 c 4.4,-40.8 31.8,-63.9 64.5,-82.6 7.2,-4.1 16.8,1.6 23.7,-5 17.1,0.3 34.3,1.6 51.4,0.6 12.2,-0.6 11.5,8.4 13.4,15 1.9,7.8 -4.1,10 -10.3,9.7 -10,-0.3 -13.1,9.7 -20.3,14 -20.3,11.8 -42.7,19.3 -61.1,35.2 -18.7,16.5 -38.4,33.7 -62.7,43 -2.5,0.9 -5,1.6 -7.8,-0.6 -0.3,-5 6.2,-8.1 4.4,-13.4 0,-0.9 0.3,-1.9 0,-2.8 3.6,-3.4 6,-7.5 4.8,-13.1 z" />
		<path
   id="path91"
   class="st5"
   d="m 7379.7,1124.4 c -9.7,-32.4 -15.9,-66.1 -27.8,-97.9 -1.2,-3.1 -0.3,-7.2 -0.3,-10.9 -0.3,-4.7 0.3,-8.7 5.6,-9.4 4.7,-0.6 5.6,2.8 7.2,6.5 8.1,19.6 16.2,39.3 24.6,58.6 4.7,10.9 10.6,21.5 18.1,30.9 5.9,7.2 10.9,6.9 15,-1.9 9,-19.3 19.3,-38 26.8,-58 7.8,-20.9 19.3,-39.6 28.7,-59.9 25.9,-55.8 52.7,-111 77,-167.4 9.4,-21.8 21.2,-43 38,-60.5 17.5,-18.4 38,-20.3 58.6,-5.3 34,25.3 51.1,61.7 67,99.5 1.6,3.7 1.6,7.2 -2.2,9.7 -4.4,2.8 -7.8,0.6 -10.9,-2.5 -3.7,-4.1 -7.8,-8.1 -11.8,-12.2 0.3,-1.6 -0.3,-2.5 -2.2,-2.2 l -0.9,-0.9 c -9.4,-14 -21.5,-24.9 -34.9,-34.3 -14.3,-10 -22.5,-8.7 -32.7,5.9 -12.5,18.4 -19.6,39.3 -27.4,61.4 h 38.7 c 32.4,3.7 58,20.6 81.4,41.8 1.9,5.6 5,10 10.9,12.2 v -0.3 c 9.4,20 23.7,37.4 30.6,58.9 26.8,83.3 22.8,163.1 -30.2,235.7 -59.9,82.3 -163.1,78.6 -219.5,-6.2 -7.2,-10.6 -13.4,-22.1 -20.3,-33.1 l -0.3,-0.3 c -1.2,-6.2 -1.9,-12.8 -8.1,-17.5 -5.6,7.8 -10.9,14.7 -16.2,21.5 -30.6,24 -43,21.2 -61.1,-14.3 -6.5,-12.8 -11.8,-26.2 -17.8,-39.3 l -3.1,-3.1 c -0.5,-1.8 -0.5,-3.7 -0.5,-5.2 z m 257,-18.4 c 1.6,0 2.5,-0.6 2.5,-2.5 22.5,-31.2 23.1,-63.6 6.2,-97.3 -19,-33.7 -52.4,-41.2 -82.6,-18.7 -4.4,3.4 -11.8,5.3 -8.7,13.7 -0.9,1.2 -2.2,2.2 -3.1,3.4 l -0.3,0.3 c -2.5,7.2 -4.4,14.7 -7.2,21.5 -3.7,9 -10.3,16.8 -8.1,27.4 3.7,18.1 8.1,35.9 20.6,50.5 20.6,26.8 54.6,29.3 76.4,5.6 1.5,-1.1 2.7,-2.3 4.3,-3.9 z m -112.9,-29.6 c -11.2,22.8 -21.5,43.7 -31.8,64.5 -2.5,4.7 -0.9,9 0.3,13.7 10.9,34.6 29.3,63.9 57.4,87.3 39.6,32.7 96.7,33.7 136.6,1.2 40.5,-33.1 62.1,-77.3 68.6,-128.8 9.4,-71.7 -3.7,-137.8 -55.5,-192.1 -27.1,-28.7 -60.8,-40.5 -100.4,-33.1 -5.3,0.9 -10.3,1.9 -12.2,7.8 -7.2,22.8 -14.3,45.2 -21.8,68.6 40.2,-10.9 65.5,-4.1 86.1,22.5 28.7,36.8 25.6,92.6 0.3,124.1 -20.9,25.9 -50.8,36.2 -78.6,24 -25.3,-10.8 -40,-31.4 -49,-59.7 z m -106.7,64.8 c -6.5,-1.2 -6.5,3.1 -5.9,6.5 1.6,13.1 6.9,24.6 16.2,34.3 3.7,3.7 7.5,3.4 11.2,0.6 11.5,-8.1 21.2,-18.1 26.5,-31.5 1.9,-4.7 2.2,-6.9 -5,-7.2 -14.6,-0.5 -29.9,6.7 -43,-2.7 z m 172.8,-354.8 c 17.5,-4.7 33.7,-11.5 51.1,-11.8 2.8,0 6.9,1.2 7.8,-2.8 0.9,-3.4 -2.5,-5.3 -4.7,-7.5 -17.4,-17.8 -42,-8.5 -54.2,22.1 z" />
		<path
   id="path93"
   class="st2"
   d="m 7802.9,814.8 c 0.9,-5.9 5,-6.2 10,-5.6 -0.7,6.5 -5.4,6.2 -10,5.6 z m -6.9,143.4 c 1.2,5.3 -1.2,9.4 -4.7,13.1 0,-4.7 -2.5,-10.6 4.7,-13.1 z" />
		<path
   id="path95"
   class="st3"
   d="m 7532.2,1575.9 c 1.9,0 3.7,0.3 5.6,0.3 0.9,5.9 5.3,6.2 10,5.6 33.1,18.1 50.5,48 61.7,82 11.5,35.2 6.5,71.7 5.9,107.6 0,1.2 -1.6,2.8 -2.2,4.1 -3.4,0.9 -9.7,4.7 -8.7,-2.8 1.9,-15.6 -9.4,-24.9 -14.3,-37.1 -9.4,-22.8 -23.1,-43.7 -29.3,-67.4 -6.5,-24.3 -19,-45.5 -30.6,-67 -5.9,-11 -6.2,-17.5 1.9,-25.3 z m -240.1,-59.3 c 0,-0.9 0,-2.2 -0.6,-3.1 v -3.1 c 4.7,-16.2 7.2,-33.1 15.6,-47.7 9.7,-17.1 23.7,-30.2 41.2,-39.9 3.4,0.6 7.2,0.6 9.7,-2.2 l 15,2.8 c -2.8,16.8 -14,29 -23.7,41.8 -4.4,5.9 -9.4,11.2 -10,18.4 -0.6,7.2 -2.2,11.8 -10.6,11.5 -2.8,0 -5.3,2.2 -5,4.7 1.9,13.4 -11.8,16.5 -16.8,25.3 -5.3,9.7 -8.7,5.3 -11.5,-1.9 -0.8,-2.2 -2,-4.4 -3.3,-6.6 z" />
		<path
   id="path97"
   class="st1"
   d="m 7462.1,1186.1 c 5.3,-6.9 10.3,-14 16.2,-21.5 6.2,4.7 6.9,11.2 8.1,17.5 -8.4,1.2 -16.2,2.8 -24.3,4 z" />
		<path
   id="path99"
   class="st3"
   d="m 7380,1129.7 3.1,3.1 c -1.6,1.6 -3.4,4.4 -5.3,1.2 -1.5,-1.8 0.4,-3.4 2.2,-4.3 z" />
		<path
   id="path101"
   class="st2"
   d="m 7173.6,1819.1 c 1.6,-0.3 3.1,-0.3 4.7,-0.6 0.9,4.4 -0.6,6.5 -5,5.6 0.3,-1.6 0.3,-3.4 0.3,-5 z m 184.6,-398.8 c -2.8,2.8 -6.2,2.8 -9.7,2.2 2.5,-3.1 6,-2.5 9.7,-2.2 z m -66.4,90.1 v 3.1 c -0.3,-0.6 -0.9,-1.6 -1.2,-2.2 0,-0.3 0.6,-0.6 1.2,-0.9 z m 256.3,71.4 c -4.7,0.6 -9,0.6 -10,-5.6 4.4,-0.6 9.1,-0.9 10,5.6 z" />
		<path
   id="path103"
   class="st1"
   d="m 7633.5,873.4 h -38.7 c 7.8,-22.1 14.7,-43 27.4,-61.4 10,-14.7 18.1,-15.6 32.7,-5.9 13.7,9.4 25.9,20.3 34.9,34.3 -10.9,0.6 -19.6,-5.6 -29.6,-8.4 -27.1,-7.2 -32.7,-5 -44,20.6 -7.5,17.5 -7.5,17.5 11.5,18.7 2.1,0.5 4,1.5 5.8,2.1 z m 92.3,53.9 c -5.9,-2.2 -8.7,-6.5 -10.9,-12.2 6.9,1.3 10.9,4.7 10.9,12.2 z m -34.9,-85.7 c 1.6,-0.3 2.5,0.6 2.2,2.2 z" />
		<path
   id="path105"
   class="st4"
   d="m 7187,1233.8 c -5.9,-5 -10,-11.5 -13.4,-19.3 -10.6,28.1 2.2,53.6 29.9,63.6 29.3,10.3 61.4,-4.1 72,-31.8 1.9,-4.4 -2.8,-13.7 7.8,-13.7 10,0 12.5,6.2 15,14.3 17.5,54.3 -26.8,100.7 -82.9,96.3 -54.6,-4.1 -112.3,-55.2 -122.5,-108.5 -3.7,-20.3 -0.6,-39 11.2,-56.4 5,-7.2 9,-7.8 16.8,-5 24.9,9 49.9,17.1 74.8,25.6 6.9,2.2 14.3,3.7 14.3,13.7 -0.3,8.7 -3.7,14.7 -12.5,17.5 -1.6,0.6 -2.8,2.8 -4.1,4.4 -1.7,-0.4 -4.2,-0.4 -6.4,-0.7 z" />
		<path
   id="path107"
   class="st0"
   d="m 6996.2,1120 c 0,-25.3 9,-32.1 33.7,-25.9 8.7,2.2 22.1,2.2 23.1,11.5 0.9,8.4 -11.5,12.5 -19.3,17.1 -10,5.9 -21.5,3.7 -32.1,8.4 -7.9,3.6 -2.6,-8.3 -5.4,-11.1 z" />
		<path
   id="path109"
   class="st3"
   d="m 7187,1233.8 c 2.2,0.3 4.4,0.3 6.9,0.6 15,23.4 30.9,27.1 52.4,12.2 12.5,-1.2 13.7,-8.1 8.7,-18.1 9.4,-5 6.5,3.1 6.2,6.5 -1.9,20.6 -27.4,34.9 -49.9,28.7 -15.8,-4.6 -24.3,-15.2 -24.3,-29.9 z" />
		<path
   id="path111"
   class="st0"
   d="m 7321.7,1180.5 c 3.1,8.1 5.9,14.3 7.5,20.6 2.2,10.6 -1.6,17.1 -13.7,16.2 -5.9,-0.3 -13.4,1.6 -16.2,-5.6 -2.8,-7.5 5.3,-8.7 8.7,-12.5 4.7,-5.3 8.4,-11.2 13.7,-18.7 z" />
		<path
   id="path113"
   class="st4"
   d="m 7255,1228.5 c 5,10 3.7,16.8 -8.7,18.1 -9.7,-12.1 -2.2,-15.9 8.7,-18.1 z m 268.8,-152.1 c 8.7,28.4 23.7,49 49.3,59.9 28.1,11.8 58,1.6 78.6,-24 25.3,-31.5 28.4,-87 -0.3,-124.1 -20.6,-26.8 -46.1,-33.7 -86.1,-22.5 7.5,-23.4 14.7,-45.8 21.8,-68.6 1.9,-6.2 6.9,-6.9 12.2,-7.8 39.6,-7.2 73.3,4.7 100.4,33.1 51.8,54.3 64.5,120.4 55.5,192.1 -6.5,51.1 -27.8,95.4 -68.6,128.8 -39.9,32.4 -97,31.5 -136.6,-1.2 -28.1,-23.1 -46.5,-52.7 -57.4,-87.3 -1.2,-4.4 -2.8,-8.7 -0.3,-13.7 10.3,-21.1 20.3,-41.7 31.5,-64.7 z" />
		<path
   id="path115"
   class="st4"
   d="m 7645.4,1006.2 c 16.8,33.7 16.2,66.1 -6.2,97.3 -1.2,-1.9 -2.2,-0.3 -2.8,0.6 -0.3,0.3 0.3,1.2 0.6,1.9 -1.6,1.2 -3.1,2.8 -4.7,4.1 -9.4,-4.4 -15.3,5 -24.3,5.6 -19,1.6 -35.5,-5 -52.4,-11.2 -12.5,-14.7 -17.1,-32.1 -20.6,-50.5 -2.2,-10.6 4.4,-18.4 8.1,-27.4 2.8,-7.2 5,-14.3 7.2,-21.5 l 0.3,-0.3 c 0.9,-1.2 2.2,-2.2 3.1,-3.4 15.9,-6.9 31.2,-12.8 49.3,-13.1 18.1,-0.2 28.1,12.9 42.4,17.9 z m -51.1,98.5 c 16.8,0.9 35.9,-11.5 41.8,-27.1 1.2,-3.7 3.1,-6.9 -3.1,-7.8 -6.5,-0.9 -10.6,-5 -10,-11.5 0.6,-6.9 5.3,-9.7 12.2,-9 4.7,0.6 6.2,-0.9 6.2,-5.9 0.3,-15 -14.7,-35.9 -30.6,-42.1 -16.8,-6.5 -34.3,-2.2 -46.8,11.5 -6.2,7.2 -9.7,12.2 3.4,15.9 9,2.5 14,10.6 14.3,20.3 0.3,9.7 -4.1,16.8 -12.5,21.5 -15,8.1 -15,9.4 -2.8,21.5 7.9,8.1 17.3,12.1 27.9,12.7 z" />
		<path
   id="path117"
   class="st0"
   d="m 7417.1,1141.2 c 13.4,9.7 28.4,2.2 43,2.8 7.2,0.3 6.9,2.5 5,7.2 -5.3,13.4 -15,23.4 -26.5,31.5 -3.7,2.5 -7.5,3.1 -11.2,-0.6 -9.7,-9.4 -15,-20.9 -16.2,-34.3 -0.6,-3.5 -0.6,-7.8 5.9,-6.6 z m 228.3,-135 c -14.3,-5 -24.3,-18.1 -42.1,-18.1 -18.1,0.3 -33.7,6.2 -49.3,13.1 -3.4,-8.4 4.1,-10.3 8.7,-13.7 30.3,-22.4 63.7,-15 82.7,18.7 z m -55.5,-219.8 c 12.5,-30.6 36.8,-39.9 54.6,-22.1 2.2,2.2 5.6,3.7 4.7,7.5 -1.2,4.1 -5,2.8 -7.8,2.8 -17.8,0.6 -34,7.4 -51.5,11.8 z m -34,318.3 c 16.8,6.2 33.4,12.8 52.4,11.2 8.7,-0.6 15,-10 24.3,-5.6 -22.1,23.8 -56.1,21.3 -76.7,-5.6 z m 80.8,1.3 c -0.3,-0.6 -0.6,-1.6 -0.6,-1.9 0.6,-0.9 1.6,-2.5 2.8,-0.6 0.3,1.9 -0.4,2.5 -2.2,2.5 z m -85.8,-101.3 -0.3,0.3 c 0,0.3 0.3,-0.3 0.3,-0.3 z" />
		<path
   id="path119"
   class="st5"
   d="m 7594.3,1104.7 c -10.6,-0.9 -20,-4.7 -27.8,-12.8 -12.2,-12.5 -12.2,-13.4 2.8,-21.5 8.4,-4.7 12.8,-11.8 12.5,-21.5 -0.3,-9.7 -5.3,-17.8 -14.3,-20.3 -13.1,-3.7 -9.7,-8.7 -3.4,-15.9 12.5,-13.7 29.6,-18.1 46.8,-11.5 15.9,6.2 30.9,26.8 30.6,42.1 0,5 -1.9,6.5 -6.2,5.9 -6.9,-0.6 -11.5,2.2 -12.2,9 -0.7,6.8 3.4,10.6 10,11.5 5.9,0.9 4.4,4.1 3.1,7.8 -6.1,16 -25.1,28.5 -41.9,27.2 z" />
	</g>
	
	
	
	
	
	
	
	
	
	
	
	
	
	
</g>
<metadata
   id="metadata1527"><rdf:RDF><cc:Work
       rdf:about=""><dc:title>PIT</dc:title></cc:Work></rdf:RDF></metadata></svg>
