<?xml version="1.0" encoding="UTF-8" standalone="no"?>
<svg
   fill="#000000"
   viewBox="0 0 109.89101 109.86523"
   width="109.89101"
   height="109.86523"
   version="1.1"
   id="svg4"
   xmlns="http://www.w3.org/2000/svg"
   xmlns:svg="http://www.w3.org/2000/svg"
   xmlns:rdf="http://www.w3.org/1999/02/22-rdf-syntax-ns#"
   xmlns:cc="http://creativecommons.org/ns#"
   xmlns:dc="http://purl.org/dc/elements/1.1/">
  <title
     id="title6642">zamkor icon</title>
  <defs
     id="defs8" />
  <path
     id="path975"
     style="display:inline;fill:#000000;fill-opacity:1;stroke:none"
     d="m 37.949609,0 c -9.725,0 -19.44961,3.6996106 -26.84961,11.099609 -14.7999986,14.8 -14.7999986,38.899219 0,53.699219 7.4,7.4 17.100391,11.101563 26.900391,11.101563 8.818414,0 17.549916,-3.007902 24.603516,-9 l 4.292968,4.292968 c 0.831999,0.836042 1.669132,1.671132 2.5039,2.5059 -0.6,1.2 -0.900391,2.50039 -0.900391,3.90039 0,2.4 0.899609,4.700391 2.599609,6.400391 8.396349,8.337324 15.668342,15.582705 23.367188,23.16602 1.8,1.8 4.098445,2.69921 6.39843,2.69921 2.3,0 4.60042,-0.89958 6.40039,-2.59961 3.5,-3.5 3.5,-9.199214 0,-12.699214 C 99.344631,86.645345 90.82113,78.11961 83.900781,71.199219 c -1.7,-1.7 -4.000391,-2.59961 -6.400391,-2.59961 -1.4,0 -2.700391,0.300391 -3.900391,0.900391 C 71.336978,67.236979 69.073958,64.973959 66.810937,62.710938 79.559693,47.813296 78.923949,25.224341 64.799218,11.099609 57.399218,3.6996106 47.674609,0 37.949609,0 Z m -0.04883,5.9003906 c 8.2,0 16.399609,3.0984376 22.599609,9.3984374 12.500002,12.5 12.499609,32.800781 0.09961,45.300781 -12.5,12.5 -32.800781,12.5 -45.300781,0 -12.5,-12.5 -12.5,-32.800781 0,-45.300781 6.2,-6.1999998 14.401563,-9.3984374 22.601562,-9.3984374 z m 0,6.0000004 c -6.899998,0 -13.400782,2.699218 -18.300782,7.699218 C 14.899999,24.299609 12.30039,30.4 12.00039,37 c -0.1,1.7 1.200391,2.999609 2.900391,3.099609 h 0.09961 c 1.6,0 2.9,-1.30039 3,-2.90039 0.2,-5.1 2.298828,-9.800391 5.798828,-13.400391 3.8,-3.8 8.801563,-5.898437 14.101563,-5.898437 1.7,0 3,-1.3 3,-3 0,-1.7 -1.3,-3 -3,-3 z" />
  <metadata
     id="metadata6640">
    <rdf:RDF>
      <cc:Work
         rdf:about="">
        <dc:title>zamkor icon</dc:title>
      </cc:Work>
    </rdf:RDF>
  </metadata>
</svg>
