<?xml version="1.0" encoding="utf-8"?>
<!-- Generator: Adobe Illustrator 26.0.0, SVG Export Plug-In . SVG Version: 6.00 Build 0)  -->
<svg version="1.1" id="Warstwa_1" xmlns="http://www.w3.org/2000/svg" xmlns:xlink="http://www.w3.org/1999/xlink" x="0px" y="0px"
	 viewBox="0 0 2896.3 2896.3" style="enable-background:new 0 0 2896.3 2896.3;" xml:space="preserve">
<style type="text/css">
	.st0{fill:#E59947;}
	.st1{fill:#F2DABA;}
	.st2{fill:#E58D3F;}
	.st3{fill:#DC933C;}
	.st4{fill:#EBD3B3;}
	.st5{fill:#E4CBA9;}
	.st6{fill:#FBFBFB;}
	.st7{fill:#236224;}
	.st8{fill:#F2DDC2;}
	.st9{fill:#EED6B6;}
	.st10{fill:#EFD9BB;}
	.st11{fill:#F2DBBD;}
	.st12{fill:#EED7B9;}
	.st13{fill:#EFBBB1;}
</style>
<path class="st0" d="M0,362V0h362v362H0z"/>
<path class="st1" d="M216.9,2534.3h-362v-362h362h362v362H216.9h-362v-362h362V2534.3z"/>
<path class="st2" d="M362,362V0h362v362H362z"/>
<path class="st0" d="M724.1,362V0h362v362H724.1z"/>
<path class="st2" d="M1448.2,362h-362V0h362h362v362H1448.2h-362V0h362V362z"/>
<path class="st0" d="M2172.2,724.1h-362V362h362h362v362v362h-362V724.1V362h362v362H2172.2h-362V362V0h362v362V724.1z"/>
<path class="st2" d="M2172.2,362V0h362v362H2172.2z"/>
<path class="st0" d="M2534.3,362V0h362v362H2534.3z"/>
<path class="st2" d="M0,724.1V362h362v362H0z"/>
<path class="st0" d="M362,724.1V362h362v362H362z"/>
<path class="st2" d="M724.1,724.1V362h362v362H724.1z"/>
<path class="st0" d="M1086.1,724.1V362h362v362H1086.1z"/>
<path class="st3" d="M1448.2,724.1V362h362v362H1448.2z"/>
<path class="st2" d="M2896.3,1086.1h-362v-362V362h362v362V1086.1z"/>
<path class="st0" d="M0,1086.1v-362h362v362H0z"/>
<path class="st2" d="M362,1086.1v-362h362v362H362z"/>
<path class="st0" d="M724.1,1086.1v-362h362v362H724.1z"/>
<path class="st3" d="M1086.1,1086.1v-362h362v362H1086.1z"/>
<path class="st4" d="M1810.2,1086.1h-362v-362h362h362v362H1810.2h-362v-362h362V1086.1z"/>
<path class="st3" d="M362,1448.2H0v-362h362h724.1v362h-362H0v-362h362V1448.2z"/>
<path class="st4" d="M1086.1,1448.2v-362h362v362H1086.1z"/>
<path class="st1" d="M1448.2,1448.2v-362h362v362H1448.2z"/>
<path class="st5" d="M2172.2,1448.2h-362v-362h362h362v362H2172.2h-362v-362h362V1448.2z"/>
<path class="st0" d="M2534.3,1448.2v-362h362v362H2534.3z"/>
<path class="st5" d="M0,1810.2v-362h362v362H0z"/>
<path class="st6" d="M362,1810.2v-362h362v362H362z"/>
<path class="st7" d="M724.1,1810.2v-362h362v362H724.1z"/>
<path class="st1" d="M1086.1,1810.2v-362h362v362H1086.1z"/>
<path class="st8" d="M1448.2,1810.2v-362h362v362H1448.2z"/>
<path class="st7" d="M1810.2,1810.2v-362h362v362H1810.2z"/>
<path class="st6" d="M2172.2,1810.2v-362h362v362H2172.2z"/>
<path class="st5" d="M2534.3,1810.2v-362h362v362H2534.3z"/>
<path class="st9" d="M0,2172.2v-362h362v362H0z"/>
<path class="st10" d="M362,2172.2v-362h362v362H362z"/>
<path class="st1" d="M1086.1,2534.3h-362v-362v-362h362v362V2534.3z"/>
<path class="st8" d="M1086.1,2172.2v-362h362v362H1086.1z"/>
<path class="st1" d="M1448.2,2172.2v-362h362v362H1448.2z"/>
<path class="st11" d="M1810.2,2172.2v-362h362v362H1810.2z"/>
<path class="st12" d="M2172.2,2172.2v-362h362v362H2172.2z"/>
<path class="st1" d="M2896.3,2172.2h-362v-362h362h362v362H2896.3h-362v-362h362V2172.2z"/>
<path class="st8" d="M362,2534.3v-362h362v362H362z"/>
<path class="st13" d="M1448.2,2534.3h-362v-362h362h362v362H1448.2h-362v-362h362V2534.3z"/>
<path class="st1" d="M2172.2,2534.3h-362v-362h362h362v362H2172.2h-362v-362h362V2534.3z"/>
<path class="st4" d="M2534.3,2534.3v-362h362v362H2534.3z"/>
<path class="st1" d="M362,2896.3H0v-362h362h362v362H362H0v-362h362V2896.3z"/>
<path class="st8" d="M724.1,2896.3v-362h362v362H724.1z"/>
<path class="st1" d="M1448.2,2896.3h-362v-362h362h362v362H1448.2h-362v-362h362V2896.3z"/>
<path class="st8" d="M2172.2,2896.3h-362v-362h362h362v362H2172.2h-362v-362h362V2896.3z"/>
<path class="st1" d="M2534.3,2896.3v-362h362v362H2534.3z"/>
</svg>
