<?xml version="1.0" encoding="utf-8"?>
<!-- Generator: Adobe Illustrator 26.0.0, SVG Export Plug-In . SVG Version: 6.00 Build 0)  -->
<svg version="1.1"
	 id="svg5" inkscape:version="1.2 (dc2aedaf03, 2022-05-15)" sodipodi:docname="logo text.svg" xmlns:inkscape="http://www.inkscape.org/namespaces/inkscape" xmlns:sodipodi="http://sodipodi.sourceforge.net/DTD/sodipodi-0.dtd" xmlns:svg="http://www.w3.org/2000/svg"
	 xmlns="http://www.w3.org/2000/svg" xmlns:xlink="http://www.w3.org/1999/xlink" x="0px" y="0px" viewBox="0 0 2666.3 460.1"
	 style="enable-background:new 0 0 2666.3 460.1;" xml:space="preserve">
<style type="text/css">
	.st0{fill:#AE6D20;}
	.st1{fill:#FBAD0B;}
	.st2{fill:#FAC028;}
	.st3{fill:#FCDD86;}
	.st4{fill:#FEFEFE;}
	.st5{fill:#432407;}
	.st6{enable-background:new    ;}
</style>
<sodipodi:namedview  bordercolor="#000000" borderopacity="0.25" id="namedview71" inkscape:current-layer="layer1" inkscape:cx="2235.5808" inkscape:cy="174.95849" inkscape:deskcolor="#d1d1d1" inkscape:document-units="mm" inkscape:pagecheckerboard="0" inkscape:pageopacity="0.0" inkscape:showpageshadow="2" inkscape:window-height="991" inkscape:window-maximized="1" inkscape:window-width="1920" inkscape:window-x="-9" inkscape:window-y="-9" inkscape:zoom="0.28292425" pagecolor="#ffffff" showgrid="false">
	</sodipodi:namedview>
<g id="layer1" transform="translate(720.79485,-36.366105)">
	<path id="path451" class="st0" d="M1676,297.1l-39.3,53.4l-10.5,11.5l31.4,8.4l0.5,21.5l-39.3,29.8l-14.7,14.1l0.5,40.8l3.7,4.7
		l15.2,4.2l2.6,7.3l2.1,3.1h24l3.2-4.2l29.8-13.1l67.5-53.4l26.7-50.3L1676,297.1z"/>
	<g id="g182" transform="matrix(0.2405303,0,0,0.2405303,-71.526417,-23.333518)">
		<circle id="circle11" class="st0" cx="7632.9" cy="1000.9" r="752.7"/>
		<path id="path13" class="st0" d="M7042.7,618.6c8.7-19.6,22.8-35.5,35.9-52.1c9.4-11.8,18.7-23.7,28.4-35.2
			c0.9-2.2,2.5-3.1,4.7-2.8h-0.3c2.5,0,3.4-0.9,3.1-3.4c2.5,0.3,3.4-0.9,3.1-3.4l-0.3,0.3c2.5,0,3.4-0.9,3.1-3.4l-0.3,0.3
			c2.2,0,3.4-0.9,3.4-3.4l-0.3,0.3c4.1-0.3,6.2-2.5,6.5-6.5l-0.3,0.3c8.4-4.1,15-10.3,19-19l-0.3,0.3c2.2,0,3.4-0.9,3.4-3.4
			l-0.3,0.3c2.5,0.3,3.4-0.9,3.4-3.1h-0.3c2.5,0.3,3.4-0.6,3.4-3.1v0.3c3.1,0,3.4-2.5,3.4-4.7c21.5-17.1,42.7-34.3,64.2-51.4
			c4.7,0.3,7.2-2.2,8.4-6.2h0.3c5,0,9-1.9,11.2-6.5l-0.3,0.3c4.4-0.3,7.8-2.5,9.7-6.5l-0.3,0.3l3.4-3.4l-0.3,0.3
			c2.5-0.6,5.3-0.6,6.5-3.4l-0.3,0.3c4.4-0.3,7.8-2.5,9.7-6.5l-0.3,0.3c2.2-1.2,4.4-2.2,6.5-3.4l-0.3,0.3c3.1,0,5.6-1.2,6.2-4.7
			c10.6-0.6,15-12.8,25.6-13.7c2.2,2.5,4.4,1.2,6.9,0c29.3-14,59.2-26.2,90.1-37.1c3.4-1.2,5.3-2.8,5.9-6.2c0.6-0.9,1.6-0.9,2.5-0.3
			c2.5,3.4,5.3,1.9,8.4,0.9c44.3-13.1,89.2-23.4,135-27.4c33.1-3.1,66.4-6.5,100.1-2.2c-9,0.3-18.4,0.9-27.4,1.2
			c29.3,3.4,58.6-4.1,87.9,1.9c10,2.2,20.3,5.3,30.9,3.4c6.9-3.1,11.8,2.8,17.8,3.4c8.4,5.6,20,2.2,28.4,9c-2.2,0.3-4.1,0.6-7.2,0.9
			c3.7,2.2,5.6,0.9,7.2-0.9c9.7-0.9,18.4,5.6,28.4,3.1h-0.3c0.9,4.7,5.3,4.7,8.4,5.6c30.6,8.1,59.2,20.9,88.6,32.7
			c18.1,7.2,33.7,19.6,53,24h-0.3c0.6,4.1,3.1,4.1,6.2,3.4c7.5,8.7,15.9,15.6,28.1,15.6c-1.6,5.6,2.8,5.3,5.9,6.2
			c32.7,19,62.4,41.8,89.2,68.6c0.9,1.9,2.5,3.4,5,3.1c-0.3,2.5,0.9,3.4,3.4,3.1h-0.3c-0.3,2.5,0.9,3.4,3.4,3.1l-0.3-0.3
			c0,2.5,0.9,3.4,3.4,3.4l-0.3-0.3c0.3,4.1,2.5,6.2,6.5,6.5l-0.3-0.3c2.2,6.5,6.2,10.6,12.8,12.8l-0.3-0.3c0.3,4.1,2.5,6.2,6.5,6.5
			l-0.3-0.3c0,2.2,0.9,3.4,3.4,3.4l-0.3-0.3c-0.3,2.5,0.9,3.4,3.1,3.4l-0.3-0.3c-0.3,2.5,0.6,3.4,3.1,3.4c-0.3,2.5,1.2,3.7,3.1,5
			c22.1,20.6,41.2,43.3,56.1,69.8c-0.3,3.1,1.6,5,4.4,6.2c0.6,0.9,1.2,2.2,1.9,3.1c0,3.4,1.9,5.3,4.7,6.2c0.6,0.9,1.2,1.9,1.6,3.1
			c0.9,3.1,0.6,7.8,6.2,6.2c1.2,14.3,9.4,24.6,19,34.3c0.3,2.5,0.3,5.3,1.2,7.2c18.7,35.2,34.6,71.4,47.4,109.1
			c1.2,3.4,2.8,5.3,6.2,5.9c0.9,0.6,0.9,1.6,0.3,2.5c-5.3,5-0.6,10,0.6,14.3c23.7,81.7,34,164.6,28.1,250.1
			c-5.6,79.8-24,156.2-55.2,229.8c-9,21.8-22.8,41.5-29,64.5c-8.1,5-11.5,12.8-12.5,21.8c-6.5,1.9-7.8,6.5-6.5,12.5
			c-3.4,0-3.1,2.5-3.1,4.7c-20.9,32.4-45.2,62.4-69.8,92c-2.2,0.3-4.7,0.3-4.7,3.4h0.3c-2.5-0.3-3.4,0.9-3.1,3.4v-0.3
			c-2.5-0.3-3.4,0.9-3.1,3.4l0.3-0.3c-2.2,0-3.4,0.9-3.4,3.4l0.3-0.3c-10.6,5.9-19,14.3-25.3,25.3l0.3-0.3c-2.2,0-3.4,0.9-3.4,3.4
			l0.3-0.3c-2.5-0.3-3.4,0.9-3.4,3.1h0.3c-2.5-0.3-3.4,0.6-3.4,3.1v-0.3c-3.1,0-3.4,2.5-3.4,4.7c-7.2,5.6-14.7,11.5-21.8,17.1
			c-5,1.2-10.3,2.2-9.4,9.4c-3.1-0.6-5.6-0.6-6.2,3.4h0.3c-6.2,0.3-10.6,3.4-12.5,9.7h0.3c-6.5,0-10.3,3.7-12.8,9.4l0.3-0.3
			c-4.4,0-7.2,0.9-6.5,6.2c-7.8-1.2-12.5,3.1-15.6,9.7h0.3c-5.9,0.9-11.8,1.6-12.8,9.4c-14.3,0.9-24.3,10-34.3,19h0.3
			c-18.7,7.5-38.4,13.4-53.3,28.1c-6.5-2.2-12.2,1.6-17.8,3.7c-73.6,30.6-150.3,49-230.1,52.7c-10,0.6-20.6-0.3-29.6,5.6
			c0.6,40.8-9,79.8-19.3,119.1c-10.3,39.6-35.9,63.3-70.5,79.5c-21.5,10.3-41.2,24-62.4,34.9c-39,20-68.6,51.8-102.6,78.3
			c-28.7,22.1-52.1,50.5-84.5,68.3c-2.2,1.2-4.1,3.4-6.2,4.4c-49.9,22.8-98.2,49-151.2,63.6c-20.9,5.6-43.3,4.7-65.2,3.4
			c-13.7-0.9-26.5-6.5-33.1-18.1c-11.2-19-29-25.3-47.7-27.8c-41.2-5.3-54.9-32.7-45.5-70.5c1.2-5.3,0.6-10.3-1.2-15.3
			c-12.2-34-9.7-68.3-4.4-103.2c2.8-18.4,15.9-29.6,27.4-42.1c37.7-40.2,84.8-68,130-98.5c34.9-24,63.9-53.9,78.6-95.4
			c4.1-11.8-1.2-13.4-11.2-12.5c-36.5,2.8-71.4-1.2-103.2-21.5c-23.7-15-36.8-50.8-27.4-79.5c8.1-25.9,39.3-47.4,65.8-46.5
			c23.1,0.9,44.6,6.5,65.2,18.4c4.7-15.3-11.2-13.7-14-21.8c-0.3-2.2-0.6-4.7-3.4-4.7l0.3,0.3c0-2.2-1.2-3.4-3.4-3.4l0.3,0.3
			c0-2.2-1.2-3.4-3.4-3.4l0.3,0.3c-4.4-7.5-8.7-15-18.7-15.9c0.6-7.2-4.1-10.3-10-12.5l0.3,0.3c0-2.2-0.9-3.4-3.4-3.4l0.3,0.3
			c0.3-2.5-0.9-3.4-3.1-3.4v0.3c0.3-2.5-0.6-3.4-3.1-3.4h0.3c0-3.1-2.5-3.4-4.7-3.4c-18.4-23.7-41.2-44.3-54.6-71.7
			c-0.3-3.4-1.9-5.6-5.6-5.9c-0.3-1.2-0.6-2.5-0.9-3.4c0-3.4-1.9-5.6-5.3-6.2c-0.3-0.9-0.6-1.9-0.6-2.8c-1.2-3.1-0.3-7.8-6.2-6.2
			c-1.6-14-9.4-24.6-19-34.3v0.3c1.2-4.1-1.2-7.2-2.8-10.3c-59.9-112.3-85.7-232.3-83.9-358.9c0-8.4,5-17.5-1.6-25.6l1.9-20.6
			c5.9-0.9,5-5.3,5.6-9.4c7.5-67.7,25.6-132.8,52.4-195.5c9-21.2,22.5-40.5,28.4-63.3c9.7-8.4,15.6-19,18.7-31.5v0.3
			C7041.4,627.1,7041.7,623,7042.7,618.6L7042.7,618.6z M6992.8,1893.6l-3.1,3.1c-5.9,0.6-9,3.7-9,9.7v-0.3
			c-3.4,1.2-5.3,3.4-5.6,7.2c0,0.6-0.3,1.2-0.6,1.9c-5.3,4.7-7.8,10.9-9.4,17.1c-2.8,11.5-8.4,23.4,2.2,34c-0.3,0.9,0,1.6,0.3,2.2
			c0.3,15.3,9.7,25.3,21.5,31.8c25.3,14.3,50.8,10.6,75.8-1.2c10.6-5.6,22.8-10.3,21.2-25.3c-2.8-34,8.7-64.2,24.6-92.9
			c29.9-54.3,73.3-97.6,117.6-139.7c15.6-15,30.9-30.9,48.6-43.3c23.7-16.2,41.5-38.4,61.1-58.6c4.4-4.7,6.9-11.2-2.5-14.7
			c-13.7-4.7-22.8-15.9-33.7-24.6c-10.3-14-20.9-28.4-24.3-46.1c-1.6-8.4-5.6-10-12.8-5.9c-12.8,7.2-27.4,9-41.2,12.8
			c-5.6,1.6-12.8,0.9-10,10.9c0.6,2.8-1.6,7.2-5.3,8.4c-3.7,1.2-5.3-2.2-7.2-4.4c-15.6-18.4-35.5-30.9-58.3-36.2
			c-37.4-8.4-69.8-1.2-88.9,37.1c-6.5,13.1-9,28.4,1.9,41.8c6.2,10.6,12.2,21.5,24.9,26.2l18.7,11.2c9,6.5,19.3,9.4,30.2,9.7
			c24.6,0.6,48.6-0.9,68.6-18.1c2.8-2.2,7.2-5.3,11.2-0.9c3.1,3.1,2.8,7.8,0,9.7c-11.5,7.5-10,19.3-11.8,30.2
			c-3.4,19.6-11.8,37.1-24.3,53c-27.1,34.3-61.1,59.9-97.9,82.6c-18.4,11.2-37.1,22.1-50.8,39.6c-10.6,3.7-18.4,10.6-22.1,21.5
			c-4.4-0.3-6.2,1.9-6.5,5.9C6994.6,1891.4,6993.7,1892.4,6992.8,1893.6L6992.8,1893.6z M7254.7,1737.7c-4.4,0.3-7.2,2.5-8.7,6.9
			c-0.6,0.6-0.9,1.2-1.2,1.9c-2.5,0.6-4.4,1.6-5,4.1c-0.9,0.9-2.2,1.9-3.1,3.1l-3.1,3.1c-0.9,0.9-2.2,1.9-3.1,2.8
			c-18.4,15-34.6,32.1-49.9,50.2c-3.7,1.6-6.2,4.7-6.9,8.7c-19.6,15.9-32.4,37.4-44.9,58.6c-17.1,28.4-31.5,58.6-29.3,93.5
			c2.2,34,23.7,48.6,50.2,46.8c25.6-1.9,46.8-17.8,62.7-38.7c4.1-3.7,8.7-7.5,12.2-11.8c30.6-35.2,62.7-69.2,99.8-97.9
			c12.8-9.7,26.8-17.5,41.5-23.7c4.7-1.9,10.6-4.1,13.4,2.5c2.5,6.2-1.9,9-7.2,11.5c-45.2,20.6-80.1,54.3-112.6,90.7
			c-26.5,29.9-50.8,62.7-90.4,78c-4.1-0.3-8.1-0.9-10.6,3.1h0.3c-1.9,0.6-4.4,0.6-5.6,2.2c-9,12.2-9.7,39.9-1.6,51.8
			c11.5,16.2,39,27.8,55.2,24.6c34-6.5,56.7-30.2,79.2-53.3c8.1-8.4,17.5-16.2,22.1-27.4c8.4-8.7,18.1-16.5,26.5-25.3
			c28.7-29.9,55.8-61.4,91.4-83.9c18.4-11.5,37.7-21.5,58-29.9c6.2-2.5,14.3-6.5,17.8,1.6c3.4,8.1-6.2,8.7-11.5,10.9
			c-10,4.7-20,8.7-29.6,13.4c-53,25.3-89.8,68.9-128.2,111.3c-18.4,15-32.7,33.4-47.1,52.4c29.9-9.4,51.8-29.9,72.7-51.8
			c59.6-52.1,123.8-97.9,189.9-141.3c33.7-22.1,59.2-52.7,65.8-95.1c7.2-4.4,7.2-12.2,8.4-19c5.3-27.8,5.6-55.8,0-83.3
			c-9-44-24.6-84.8-61.1-113.8c-34.9-27.8-76.4-38-119.7-41.5c-6.9-0.6-5.6,4.4-6.2,8.4c-1.2,9,0.3,19-9.4,24.9
			c-0.9-0.3-1.9-0.3-2.5-0.3c-1.2-0.9-2.2-2.2-3.4-3.1c0.6-6.5,1.6-13.4,1.9-20c0.9-31.5,4.7-63-5.9-93.9
			c-13.7-40.2-54.9-53-89.5-27.8c-31.5,23.1-48.3,90.7-37.4,120c0.3,2.2,0.3,4.1,0.6,6.2c0.6,1.2,1.6,2.5,2.2,3.7
			c13.7,49.3,42.7,68.3,93.9,62.1c4.7-0.6,11.5-2.5,13.1,4.4c1.2,5.6-4.1,7.2-8.7,8.7c-29.3,10.9-30.2,11.8-52.4,35.2
			c-7.2,7.5-14.3,14.7-21.8,21.8c-10,9.7-20.3,19-30.6,28.4v0.3c-5.6,1.2-10.9,2.8-12.5,9.4c-6.2,0.9-9.7,5-12.5,10
			c-0.9,0.9-1.9,1.6-2.8,2.5C7256.9,1735.5,7255.6,1736.8,7254.7,1737.7L7254.7,1737.7z M7017.1,2099.1c15.9,11.8,33.7,5,50.5,5.6
			c9.7-2.2,19.6-2.8,28.4-6.5c20.3-9,42.1-17.8,37.4-47.1c-0.3-2.5,0.3-5.3,1.6-7.5c5.3-9.4,2.5-13.4-7.5-16.5
			c-12.2-3.7-24.3-9-31.2-21.5c-3.4-6.5-8.1-5.6-14-1.6c-13.7,9.7-28.7,15.9-45.5,17.8c-12.5,0.6-25.9-1.6-37.4,2.2
			c-15.3,5-25.6,29.9-22.1,45.5c3.4,15.6,20.6,28.4,39,29.3L7017.1,2099.1z M7130.3,2142.8c6.9,0,13.1-0.9,18.4-5.9
			c1.2-0.9,2.2-1.9,3.4-2.8c17.8-13.7,17.8-13.7,1.9-27.8c-2.8-2.5-5.6-4.7-7.5-7.5c-6.2-9.4-12.5-7.2-20.3-1.9
			c-16.2,11.2-34,19.3-53.6,21.5c-11.2,1.2-11.8,6.5-6.2,14.3c3.4,5,7.2,10.3,14.3,10.3C7096.9,2148.7,7113.4,2148.1,7130.3,2142.8
			L7130.3,2142.8z M7717.7,1601.1c-5.6-0.6-10.6,0.6-15.3,3.7c-1.6,0.6-2.8,1.2-4.4,1.9c-18.4,3.1-37.1,5.6-54.6,12.8
			c-2.2,0.3-4.4,0.3-6.5,0.6c-4.1-0.3-8.4-0.6-12.5-0.6c-7.2,0-9.4,3.1-6.5,9.7c6.9,15.6,11.8,32.1,16.2,48.6
			c0.9,3.7,1.2,8.4,7.2,8.4c28.1-0.9,55.8-2.2,83.6-5.9c10.3-1.2,9.7-6.5,5.3-13.7c-3.7-6.2-7.5-12.5-10.6-19
			c-1.9-3.7-1.2-8.4,3.4-10.6c4.4-1.9,6.5,1.6,8.4,4.7c5,8.1,11.2,15.6,14.3,24c3.7,10,9.4,11.2,18.1,9
			c47.4-10.9,94.2-24.3,138.8-44.3c66.7-29.9,126.9-69.2,181.5-118.2c63.9-57.7,116-123.8,155.9-199.9
			c41.5-79.2,64.9-164,70.5-252.6c5.6-88.2,0-175.5-26.5-261.3c-29.3-95.4-77.6-179.6-144.4-252.9c-66.1-73-142.8-131.9-233.5-172.4
			c-79.2-35.2-162.1-52.7-248.2-56.7c-63.3-3.1-126,3.7-188,17.5c-70.5,15.9-136.3,42.4-197.7,80.4
			c-79.2,49.3-145.3,112.9-201.1,187.4c-48.3,64.5-82.9,135.9-103.8,213.9c-20.6,77-29.3,155.3-22.5,235.4
			c4.7,54.3,12.5,107.9,29,160c18.1,57.7,44.3,111.3,77.3,162.1c40.5,62.1,91.4,115.4,147.2,163.4c16.2,14,32.7,12.2,49.6,1.9
			c10.3-5,25.6-4.4,24.9-22.1c-0.9-23.7,5.6-45.8,14.7-67.4c20.6-49,68.3-67.4,115.4-44.6c16.5,15,24.6,33.7,29.3,54.9
			c3.4,16.2,2.2,32.1,2.5,48c0.3,8.4,2.2,11.5,11.2,12.2c33.4,2.2,65.8,8.7,94.8,25.9c14.3,8.4,24.9,5.9,37.1-0.9l12.2-6.5
			c50.5-24.9,94.5-58.9,134.4-98.8c41.8-42.1,76.7-89.5,106-140.6c19.6-34.6,38.4-69.8,47.7-109.1c26.2-72.7,24-143.7-10.6-216.4
			c-16.2,24.9-21.8,50.2-27.1,75.8c-0.9,5-0.6,11.8-7.5,11.5c-9-0.6-5.6-8.7-5.3-13.4c1.6-21.8,8.4-42.7,17.5-62.7
			c20.6-46.1,67.4-69.5,116.6-58c8.4,1.9,24.6,0,22.8,9c-3.1,13.7-17.8,4.7-26.8,3.1c-24.9-4.4-47.4,0-68.6,13.1
			c-9.4,5.6-11.8,12.2-5.9,23.1c12.5,22.5,17.8,47.1,22.8,72.3c3.1,14.7-1.6,30.2,7.8,44c31.5,47.1,41.8,100.7,44.6,156.2
			c1.6,28.7-1.9,57.1-4.1,85.4c-8.4,26.8-14.3,54.6-26.8,80.1c-41.5,86.1-103.8,149.7-195.2,182.7c-5.3,1.2-11.2,1.2-15,6.2
			L7717.7,1601.1z M7691.5,1492.6c-10.3,0.3-15.3,9.7-22.5,15c-30.2,21.8-62.7,39.6-96,56.1c34.3,44.3,34.3,45.2,85.4,36.5
			c27.1-4.7,54.9-9.7,79.2-24.6c5-0.3,9.7-0.9,12.5-5.6c5.6,1.2,10-2.2,14.3-4.4c52.4-26.8,93.2-66.4,126-114.4l12.2-21.5
			c17.8-33.1,29.3-67.4,35.9-104.8c5.9-34.3,5.9-68,4.7-102c-1.6-37.7-12.2-73.9-33.1-111c-4.7,43.7-13.7,82-29.6,118.5
			c-11.5,26.5-24.6,52.4-37.1,78.3c-4.1,5.9-7.8,11.8-11.8,17.8c-35.5,57.1-77.6,108.5-127.8,153.4
			C7699.7,1483.9,7695.6,1488.3,7691.5,1492.6L7691.5,1492.6z"/>
		<path id="path15" class="st1" d="M7248.8,1538.8c-16.8,10-33.4,12.2-49.6-1.9c-56.1-48.3-106.6-101.3-147.2-163.4
			c-33.1-50.5-59.2-104.5-77.3-162.1c-16.2-52.1-24.3-105.7-29-160c-6.9-79.8,1.6-158.4,22.5-235.4
			c20.9-77.6,55.5-149.4,103.8-213.9c55.8-74.5,121.6-138.4,201.1-187.4c61.1-38,126.9-64.5,197.7-80.4c62.1-14,124.7-20.6,188-17.5
			c85.7,4.1,169,21.5,248.2,56.7c90.7,40.2,167.4,99.5,233.5,172.4c66.7,73.3,115.1,157.8,144.4,252.9
			c26.5,85.4,32.1,173.1,26.5,261.3c-5.6,88.6-28.7,173.4-70.5,252.6c-39.9,76.1-92,142.2-155.9,199.9
			c-54.6,49-114.7,88.2-181.5,118.2c-44.6,20-91.4,33.4-138.8,44.3c-8.4,1.9-14.3,0.6-18.1-9c-3.1-8.7-9.4-16.2-14.3-24
			c-1.9-3.1-4.1-6.5-8.4-4.7c-4.7,2.2-5,6.9-3.4,10.6c2.8,6.5,6.5,12.8,10.6,19c4.7,7.2,5,12.5-5.3,13.7
			c-27.8,3.7-55.8,4.7-83.6,5.9c-5.9,0.3-6.2-4.4-7.2-8.4c-4.7-16.5-9.4-33.1-16.2-48.6c-2.8-6.5-0.6-10,6.5-9.7
			c4.1,0,8.4,0.3,12.5,0.6c-0.9,6.2,3.7,4.4,6.9,5.3c20,5.3,40.2,1.9,60.2,0.3c32.4-2.5,64.2-9,93.2-24.9c4.4,0,8.7,0,9.4-5.9
			l0.3-0.3c3.7,0,6.9-1.2,10.3-3.1c14-7.5,24.9-18.4,36.5-29c15.9-15,30.6-30.9,49.6-43c15.3-10,15-31.2,21.5-47.4l9.4-21.5
			c14,2.8,0.6,18.4,13.4,24.9c-4.7-18.7,5.6-28.4,17.5-38.7c17.8-15,31.8-33.1,25.9-59.6c-2.5-12.2,5.3-23.1,14.3-29
			c21.2-14,28.4-37.7,42.7-56.4c5.3-6.9,14-13.1,13.7-22.1c-0.9-19.3,11.5-29.9,22.8-42.1c3.1-3.4,7.8-6.9,5-11.8
			c-10.9-19.6,5-34.9,10.9-50.2c3.7-9.7,9-18.7,9-29.6v-51.4c0-5.3-0.3-10.3,2.2-15.3c13.1-24.6,7.2-51.4,6.5-77
			c-0.3-17.8-4.4-35.9-9.4-53c-3.7-12.5,5.6-24.9-1.9-36.5c-9.7-14.7-11.5-31.2-13.1-48c-0.3-2.5-1.2-5.6-3.1-6.9
			c-16.5-11.2-21.5-28.1-24.6-46.1c-0.6-3.4-2.8-6.9-5.3-9c-8.7-7.5-13.1-17.1-16.2-27.8c-1.2-4.7-2.8-8.7-6.5-12.2
			c-24.6-21.8-40.8-50.5-63.9-74.2c-20.3-20.6-40.8-40.8-62.7-58.6c-30.9-24.9-65.8-44.3-104.5-55.5c-2.8-0.6-5.6-3.4-6.9-5.9
			c-5.9-11.2-15.6-12.5-26.5-11.8c-8.4,0.6-17.5,0.3-23.1-6.2c-7.5-8.7-16.2-10-26.5-9.4c-10.9,0.6-21.8-0.3-29-10.9
			c-1.6-2.2-5.6-4.7-7.8-4.1c-18.1,3.7-38.4-1.6-54.3,13.4c-10.6,10-27.4,6.5-35.5-5.6c-6.2-9.4-14.3-10.6-27.4-4.4
			c2.5,4.1,6.5,2.2,9.7,2.5c3.4,0.6,7.5-0.6,9.4,3.7c0.9,2.5,0.9,5.3-1.6,7.2c-3.1,2.2-8.1,2.8-10.3,0.3c-8.1-9-14.7-1.9-21.8,1.2
			c-1.9-0.3-4.1-0.3-5.9-0.6c-10-16.2-25.9-11.2-40.5-12.2c-22.8-9-47.1-10.6-71.1-11.8c-34.6-1.9-69.8-3.4-104.5,5.3
			c-17.8,4.4-35.9,6.9-53.3,12.8c-9.7-0.9-19-2.2-29.3-3.4c1.9,5.3,0.3,10.6-1.2,15.9c-5,0.6-10.9-1.6-12.5,6.2
			c-1.9,1.2-3.4,2.5-5.3,3.4c-73.6,35.5-127.5,92.3-168.4,161.2c-38.7,65.2-60.5,137.2-74.2,211.1c-11.2,58.6-9.4,118.5-6.5,178
			c0,2.5-0.3,5-0.3,7.8c-1.6,33.1-2.5,66.1,3.1,98.8c1.6,8.7,3.1,20.3,15.6,7.5c7.5,15.6,7.2,33.7,16.2,47.1
			c25.3-17.1,51.8-33.1,49-68.9c0-1.9,1.6-3.7,2.2-5.9c1.6-5.3-0.3-8.4-5-11.2c-22.1-14-30.6-13.4-49,4.7c-1.9,1.6-4.4,2.5-6.5,3.7
			c-1.9-6.2,0.3-12.2,1.9-18.4c5.3-21.8,6.5-22.8,28.7-16.8c15,4.1,29.6,10,44.6,12.5c12.8,2.2,13.1,6.5,7.5,16.2
			c-14.3,23.4-14,48-5.6,73.3c7.8,22.5,21.2,41.5,37.1,58.9c30.6,34,68,51.4,114.4,47.7c47.7-3.7,87.3-49,81.7-94.2
			c-2.8-24.6-2.8-24.6,21.2-31.8c2.5,9.4-6.2,12.2-10.3,17.5c-3.1,4.1-8.4,6.9-6.2,13.1c4.1,11.2,2.2,22.8,2.2,34
			c-0.6,54.9-38.4,87.3-90.4,85.7c-36.2-1.2-70.5-10.9-100.1-33.1c-5.6-4.1-10.9-5.3-18.4-5.3c-15.6,0-31.8-1.9-46.8-7.5
			c-5.6-2.2-12.8-8.4-16.5-4.4c-5.6,5.6,2.8,11.8,5,17.8c0.6,1.9,2.8,3.1,3.7,5c21.5,34.6,47.7,65.5,77,93.5
			c28.1,27.1,55.8,55.2,91.7,73.6C7235.7,1525.4,7245,1529.7,7248.8,1538.8L7248.8,1538.8z M8252.2,1257.8
			c9.4-18.1,13.1-38,18.4-57.4c22.8-84.2,29-170.2,24.3-256.6c-1.9-33.4-9-66.1-16.2-99.2c-4.1-18.7-12.2-35.9-16.2-54.6
			c3.7-3.7,0.3-6.9-1.2-9.7c-12.8-21.8-17.8-46.8-28.4-69.2c-8.4-17.5-13.4-37.7-30.9-51.1c-5.6,7.5-5.9,15-5.9,22.8
			c0,32.7,0.9,65.5-0.3,98.2c-0.9,30.9,1.2,60.5,7.8,91.4c5.3,24.9,13.4,50.2,11.8,77c-1.9,34.6,0,69.5-0.6,104.5
			c-0.3,15-1.9,29.9-3.4,44.9c-5,48-9.7,96.3-15.3,144.4c-2.2,18.7,2.5,37.1,0,55.5c-1.9,13.1-3.1,25.6,0.3,38.4
			c0.9,3.4,0.3,7.5,5.3,8.1c3.4,0.3,5.3-1.2,7.2-4.4C8225.7,1314,8245,1289,8252.2,1257.8L8252.2,1257.8z M7606.1,519.8
			c6.9,1.2,14.3,5,22.8-1.6C7619.8,515.1,7613,515.1,7606.1,519.8z M7550,517.3c-0.3,0.9-0.6,1.9-1.2,2.5c0.9,0.3,1.9,1.2,2.5,0.9
			s0.9-1.6,1.2-2.5C7551.9,517.9,7550.9,517.6,7550,517.3z"/>
		<path id="path17" class="st2" d="M7554,534.4c7.2-2.8,13.7-10.3,21.8-1.2c2.2,2.5,6.9,1.9,10.3-0.3c2.5-1.6,2.5-4.4,1.6-7.2
			c-1.6-4.7-5.9-3.4-9.4-3.7c-3.4-0.3-7.2,1.2-9.7-2.5c13.1-6.2,21.2-4.7,27.4,4.4c8.1,12.2,25.3,15.6,35.5,5.6
			c15.9-15,36.2-9.7,54.3-13.4c2.2-0.3,6.2,1.9,7.8,4.1c7.2,10.6,17.8,11.5,29,10.9c10.3-0.6,19,0.6,26.5,9.4
			c5.9,6.9,14.7,6.9,23.1,6.2c10.9-0.6,20.6,0.6,26.5,11.8c1.2,2.5,4.4,5,6.9,5.9c38.7,11.2,73.9,30.6,104.5,55.5
			c22.1,17.8,42.7,38.4,62.7,58.6c23.1,23.4,39.3,52.4,63.9,74.2c3.7,3.4,5.3,7.5,6.5,12.2c3.1,10.6,7.2,20.3,16.2,27.8
			c2.5,2.2,5,5.9,5.3,9c3.1,18.1,8.1,35.2,24.6,46.1c1.9,1.2,2.8,4.4,3.1,6.9c1.6,16.8,3.4,33.4,13.1,48c7.5,11.2-1.6,24,1.9,36.5
			c5,17.1,9,35.2,9.4,53c0.6,25.6,6.5,52.4-6.5,77c-2.5,5-2.2,10-2.2,15.3v51.4c0,10.9-5.3,20-9,29.6c-5.9,15.3-21.5,30.6-10.9,50.2
			c2.8,5-1.9,8.4-5,11.8c-11.2,12.2-23.7,22.8-22.8,42.1c0.3,9-8.4,15.3-13.7,22.1c-14.3,18.4-21.5,42.4-42.7,56.4
			c-9,5.9-16.8,16.8-14.3,29c5.9,26.5-8.4,44.3-25.9,59.6c-11.8,10.3-22.1,19.6-17.5,38.7c-12.8-6.2,0.6-22.1-13.4-24.6
			c10.3-28.7,20.9-57.1,23.7-87.6c0.9-10.6,5-21.2-2.5-31.2c2.2-28.4,5.6-56.7,4.1-85.4c-2.8-55.5-13.1-108.8-44.6-156.2
			c-9.4-13.7-4.7-29.3-7.8-44c-5.3-24.9-10.3-49.9-22.8-72.3c-5.9-10.9-3.4-17.1,5.9-23.1c21.2-13.1,43.7-17.8,68.6-13.1
			c9,1.6,23.7,10.6,26.8-3.1c1.9-9-14.3-7.2-22.8-9c-49-11.5-96,11.8-116.6,58c-8.7,20-15.6,40.5-17.5,62.7
			c-0.3,5-3.7,13.1,5.3,13.4c6.9,0.3,6.2-6.5,7.5-11.5c5.3-25.3,10.9-50.5,27.1-75.8c34.6,72.7,36.8,143.7,10.6,216.4
			c-10.3-2.5-7.2-9.4-5-15.9c0.9-2.5,5.3-5,1.6-7.8c-3.7-3.1-6.5,0.6-9.7,2.5c-5.3,2.8-6.9,7.2-6.5,12.8c0.3,6.5-5.3,13.4-9,12.5
			c-21.5-5.9-35.2,21.2-56.8,12.5c-11.5,16.8-8.4-11.2-18.4-6.2c-3.1,1.6-0.6-8.7,0.6-12.8c9.4-27.4,14.7-56.1,14.7-85.1
			c0-40.8-5.9-81.4-24.6-118.8c-2.2-4.7-5-9.7-1.2-14.7c5.3-7.2,8.4,1.9,13.1,2.2s9,2.2,13.4,3.1c1.9,5.6-4.7,8.7-4.4,13.4
			c2.8,2.2,5.3,1.6,7.8,0.6c24.3-9.4,43.7-26.5,62.7-43c18.4-16.2,40.8-23.7,61.1-35.2c7.2-4.1,10.3-14.3,20.3-14
			c6.2,0.3,12.2-2.2,10.3-9.7c-1.6-6.9-1.2-15.6-13.4-15c-17.1,0.9-34.3-0.3-51.4-0.6c6.9-6.2,15.3-6.2,23.4-5.3
			c12.5,1.6,15.3-4.7,14-15.6c-3.1-26.2-21.5-42.1-51.1-47.1c-19-3.1-36.8,4.4-55.2,5.9c9.4-7.8,21.8-14.3,15.3-29.6
			c-4.4-10.3-9-20.6-15-29.9c-10-16.5-23.1-30.9-34.3-46.1c-17.1-23.7-37.7-43.7-59.2-62.7c-11.5-10.3-20.6-24.3-36.2-29.3
			c-17.8-5.9-25.3-28.4-46.5-27.8c-6.2-14.3-21.2-14.7-32.4-20.6C7589.9,553.2,7569.6,547.9,7554,534.4z"/>
		<path id="path19" class="st1" d="M7815.6,808.8c18.4-1.9,36.2-9,55.2-5.9c29.6,4.7,48,20.6,51.1,47.1c1.2,10.9-1.6,16.8-14,15.6
			c-8.1-0.9-16.8-0.9-23.4,5.3c-6.9,6.5-16.5,0.9-23.7,5c-32.7,18.7-60.2,41.8-64.5,82.6c-7.2,2.5-4.7,8.1-4.7,13.1
			c0,0.9,0,1.9-0.3,2.8c-4.4-1.2-9-2.8-13.4-3.1c-4.4-0.3-7.8-9.7-13.1-2.2c-3.7,5-0.9,10,1.2,14.7c18.7,37.4,24.6,77.6,24.6,118.8
			c0,28.7-5.3,57.4-14.7,85.1c-1.6,4.1-3.7,14.7-0.6,12.8c10-5,7.2,23.1,18.4,6.2c21.5,8.7,35.2-18.4,56.7-12.5
			c4.1,0.9,9.4-5.9,9-12.5c-0.3-5.6,1.6-10,6.5-12.8c3.1-1.9,5.9-5.6,9.7-2.5c3.4,2.8-0.6,5.3-1.6,7.8c-2.5,6.5-5.3,13.1,5,15.9
			c-9.4,39.3-28.1,74.5-47.7,109.1c-29.3,51.4-64.2,98.5-106,140.6c-39.6,39.9-83.9,73.6-134.4,98.8c-4.1,2.2-8.4,4.4-12.2,6.5
			c-12.2,6.9-22.8,9.4-37.1,0.9c-28.7-16.8-61.4-23.7-94.8-25.9c-9-0.6-11.2-4.1-11.2-12.2c-0.3-15.9,1.2-31.8-2.5-48
			c-4.7-21.5-13.1-40.2-29.3-54.9c3.7-2.2,4.4-5.6,3.1-9.4c-1.2-3.7-7.8-7.2,0-10.9c5-2.5,8.7-1.6,12.2,2.5c8.7,10,15.3,3.4,19-4.4
			c4.7-9.4,11.2-13.7,20.6-16.8c11.5-4.1,22.5-10.9,34-14.7c34.6-11.2,62.1-41.2,102.3-39c-32.7-12.5-57.4-34.3-77.6-60.5
			c-15.6-20.3-28.1-42.7-30.9-69.2c6.5,10.9,13.1,22.5,20.3,33.1c56.4,84.8,159.6,88.2,219.5,6.2c52.7-72.3,57.1-152.2,30.2-235.7
			c-6.9-21.5-21.2-38.7-30.6-58.9c5-0.6,8.4-1.2,6.5-8.4c-2.2-9-0.9-18.1,2.5-27.1c12.8-34.6,37.1-58.6,68.3-76.7
			c4.7,0.6,9.4,0.9,10-5.6C7813.8,808.8,7814.7,808.8,7815.6,808.8L7815.6,808.8z"/>
		<path id="path21" class="st2" d="M7423.4,1566.5c0.9,0,1.9,0,2.5,0.3c1.6,6.9-3.4,16.8,5,19.6c17.8,6.2,34.3,14.3,49.3,25.3
			c2.5,1.9,6.2,2.2,8.7,0c3.4-2.8,0.6-5.9-0.6-8.1c-5.9-10.9,0-19.3,7.8-23.7c10.9-5.9,23.1-11.2,36.2-4.1
			c-8.4,7.8-7.8,14.3-2.2,24.9c11.8,21.5,24,42.7,30.6,67c6.2,23.7,20,44.9,29.3,67.4c5,12.2,16.2,21.5,14.3,37.1
			c-0.9,7.5,5,3.7,8.7,2.8c-0.6,5.6-4.4,10.9,0.6,16.2c-6.5,42.4-32.1,73-65.8,95.1c-66.1,43.3-130,89.5-189.9,141.3
			c-8.4-9.4-17.1,4.7-25.6-0.6c38-42.4,75.1-85.7,128.2-111.3c9.7-4.7,19.6-9,29.6-13.4c5.3-2.5,14.7-2.8,11.5-10.9
			c-3.4-8.1-11.5-4.1-17.8-1.6c-20,8.4-39.3,18.1-58,29.9c-35.5,22.5-62.7,53.9-91.4,83.9c-8.4,9-18.1,16.5-26.5,25.3
			c-0.6-8.4-12.5-18.7-15-14c-9,18.1-29.9,21.2-42.1,34.9c-3.1,3.7-0.9,10.9-6.9,11.2c-21.2,1.6-30.2,23.7-50.5,29.3
			c-10,2.8-17.8,7.5-25.9,0.9c-8.7-6.9-20.3-14-14.3-29c8.7-1.9,5.6,8.7,10.6,10.6c4.7-6.5,10.3-10.9,23.7-17.8
			c0.9-0.3,2.2-0.9,2.5-1.6c10.6-18.7,32.1-24.6,44.9-41.5c17.1-22.8,47.4-29.6,65.2-53.9c12.5-17.1,39-21.8,49-43.7
			c0.6-1.2,3.7-1.2,5.6-2.2c13.7-7.8,27.8-19.3,28.7-33.4c1.2-21.2,11.8-35.2,23.7-49.9c19-24.3,7.8-78-20-91.4
			c-17.8-8.4-37.4-11.5-57.1-10.6c-8.4,0.3-11.5-1.6-13.4-8.1c-2.2-8.7-7.5-10.6-15.3-7.8c-5.6,1.9-11.2,1.9-16.8,1.2
			c10.3-9.4,20.6-18.7,30.6-28.4c7.5-7.2,15-14.3,21.8-21.8c21.8-23.7,23.1-24.6,52.4-35.2c4.7-1.6,10-3.1,8.7-8.7
			c-1.6-6.9-8.1-5-13.1-4.4c-51.1,6.2-80.1-12.8-93.9-62.1c-0.6-1.2-1.6-2.5-2.2-3.7c-0.3-2.2-0.3-4.1-0.6-6.2
			c6.5-7.8-5-17.5,3.1-25.3c1.2,2.2,2.5,4.4,3.4,6.9c2.8,7.5,6.2,11.5,11.5,1.9c5-8.7,18.7-11.8,16.8-25.3c-0.3-2.8,2.2-5,5-4.7
			c8.4,0.3,10-4.7,10.6-11.5c0.6-7.5,5.6-12.8,10-18.4c9.7-12.8,20.6-25.3,23.7-41.8c5,0,9.4,2.2,12.8,5.3
			c7.2,6.9,16.5,20.3,10.6,24.6c-10.9,7.8-10.9,20.3-18.4,28.4c-20,22.1-32.7,48.6-47.4,73.9c-2.2,3.7-7.2,9.7-2.2,12.2
			c5.6,2.8,10.6,10.6,19.3,6.5c17.1-8.1,33.7-6.2,50.2,2.5c6.9,3.7,15,5,13.7-7.5c-0.6-7.2,4.4-5.3,8.1-5.9
			C7421.2,1564.4,7422.1,1565.6,7423.4,1566.5L7423.4,1566.5z"/>
		<path id="path23" class="st2" d="M7486.7,1182.4c3.1,26.2,15.3,49,30.9,69.2c20.3,26.2,44.9,48,77.6,60.5
			c-40.5-1.9-68,27.8-102.3,39c-11.8,3.7-22.5,10.9-34,14.7c-9.4,3.1-16.2,7.8-20.6,16.8c-3.7,7.8-10.3,14.3-19,4.4
			c-3.7-4.1-7.2-5-12.2-2.5c-7.8,3.7-1.2,7.2,0,10.9c1.2,3.7,0.6,7.2-3.1,9.4c-47.1-23.1-94.8-4.4-115.7,44.6
			c-9,21.8-15.6,43.7-14.7,67.4c0.9,17.8-14.7,17.1-24.9,22.1c-3.7-9.4-13.1-13.4-20.3-17.1c-35.9-18.4-63.3-46.1-91.7-73.6
			c-29.3-28.1-55.5-58.9-77-93.5c-0.9-1.9-3.1-3.1-3.7-5c-1.9-5.9-10.6-12.2-5-17.8c3.7-3.7,10.9,2.5,16.5,4.4
			c15,5.6,31.2,7.5,46.8,7.5c7.5,0,12.8,1.2,18.4,5.3c29.6,22.1,63.9,31.8,100.1,33.1c52.1,1.6,89.8-30.9,90.4-85.7
			c0-11.2,1.9-22.8-2.2-34c-2.2-6.2,3.1-9,6.2-13.1c4.1-5.3,12.8-8.1,10.3-17.5c10.9-15,11.8-31.2,5.6-48.3l-20.6-55.2
			c5.3-2.5,2.8-13.7,9.7-11.5c4.1,1.2,6.2,9.4,9,14.7c1.6,3.1,0.3,11.5,4.4,8.7c7.8-5.6,8.4,3.7,12.8,4.1c4.7-6.2-0.6-9.7-2.5-14
			c-2.2-4.7-3.1-10.6,1.2-14.3c4.7-3.7,8.4-0.3,11.5,4.1c2.8,3.7,6.9,3.7,11.2,4.1c0,1.9,0,3.4,0.3,5.3c-1.9,0.9-3.4,2.5-2.2,4.4
			c2.2,3.1,3.7,0.6,5.3-1.2c5.9,13.1,11.2,26.5,17.8,39.3c18.1,35.5,30.6,38,61.1,14.3c8.1-1.2,16.2-2.8,24.3-4.1V1182.4z"/>
		<path id="path25" class="st3" d="M7285.6,1712.5c5.6,0.6,11.2,0.6,16.8-1.2c7.8-2.8,13.1-0.6,15.3,7.8c1.9,6.5,5,8.4,13.4,8.1
			c19.3-0.9,39.3,2.2,57.1,10.6c27.8,13.4,39,67,20,91.4c-11.5,15-22.1,28.7-23.7,49.9c-0.9,14-15,25.6-28.7,33.4
			c-1.6,0.9-5,0.9-5.6,2.2c-10.3,21.8-36.5,26.5-49,43.7c-17.8,24.3-48,31.2-65.2,53.9c-12.8,16.5-34.3,22.8-44.9,41.5
			c-0.3,0.9-1.6,1.2-2.5,1.6c-13.4,6.9-19.3,11.2-23.7,17.8c-5.3-1.9-2.2-12.5-10.6-10.6c1.6-10.6,0.9-21.2,4.7-31.2h-0.3
			c4.1,0.9,7.8-0.3,10.6-3.1c39.3-15.3,63.6-48,90.4-78c32.4-36.5,67.4-70.2,112.6-90.7c5.3-2.5,9.7-5.3,7.2-11.5
			c-2.8-6.5-8.7-4.4-13.4-2.5c-14.7,6.2-28.7,14-41.5,23.7c-9-3.7-7.8-15.3-15.9-20c-24.3-14.7-24.9-38-21.5-62.4
			c0.6-3.4,4.4-7.2-0.3-9.4c-4.1-1.9-6.2,2.8-8.7,5c-16.5,15.3-26.8,34.9-40.5,52.1c-32.4,39.3-62.1,80.4-92,121.3
			c-2.8,3.7-5.3,8.7-9.4,10.3c-11.2,4.4-14.3,11.2-10.6,22.5c2.2,6.5-4.7,5-8.1,6.2c-19-27.4-9.7-55.8-0.6-82.6
			c11.5-33.4,35.9-59.6,56.4-87.6c4.7,0.6,5.9-1.6,5-5.6l0.9-0.9c2.8,0.6,4.7-0.3,6.2-2.8c10.3-15.9,23.4-29.3,36.8-42.4
			c3.7-3.4,7.8-6.9,7.2-12.8c0.9-0.9,2.2-1.9,3.1-2.8l3.1-3.1c0.9-0.9,2.2-1.9,3.1-3.1c2.5-0.3,4.7-1.2,5-4.1
			c0.3-0.6,0.9-1.2,1.2-1.9c4.4-0.3,8.7-0.9,8.7-6.9l3.4-3.4c0.9-0.9,1.9-1.6,2.8-2.5c6.5-0.3,13.7,0.3,12.5-10
			C7279,1720.9,7285.3,1720.9,7285.6,1712.5L7285.6,1712.5z"/>
		<path id="path27" class="st2" d="M7024.3,1862.8c13.7-17.5,32.4-28.4,50.8-39.6c36.8-22.8,70.8-48.3,97.9-82.6
			c12.5-15.9,20.6-33.4,24.3-53c1.9-10.9,0.3-22.8,11.8-30.2c3.1-1.9,3.1-6.5,0-9.7c-4.1-4.4-8.4-1.6-11.2,0.9
			c-20,17.1-44,18.7-68.6,18.1c-10.9-0.3-21.2-3.1-30.2-9.7c10.9-0.3,22.1,1.9,34.9-1.2c-23.7-18.4-47.7-31.8-66.7-52.1
			c-5.9-6.5-8.4,1.9-12.5,3.7c-0.9-2.2-2.5-4.7-2.8-6.9c0-9,0.3-18.4,9.7-22.8c9-4.1,15.3-1.6,21.5,7.5c3.4,5,9.4,11.5,15,14
			c22.8,10.3,39.3,29.6,60.5,42.1c20.9,12.5,27.8,11.2,37.4-13.4c1.6-3.7,2.8-9,8.1-7.8c18.1,4.4,32.1-10.6,50.2-8.7
			c16.5,1.6,34.6-8.4,49,7.5c0.3,0.3,1.6-0.6,3.1-1.6c0-5.9-11.8-9-4.7-16.8c10.9,8.7,19.6,20,33.7,24.6c9.4,3.1,6.9,10,2.5,14.7
			c-19.6,20.3-37.4,42.1-61.1,58.6c-17.8,12.2-32.7,28.4-48.6,43.3c-44.3,42.1-87.6,85.4-117.6,139.7
			c-15.9,28.7-27.4,58.9-24.6,92.9c1.2,15-10.9,19.6-21.2,25.3c-1.6-8.7,4.7-11.5,14-15c-18.7-6.2-10.3-13.1-0.6-20.9
			c-17.5,0.3-20.9-8.4-19.6-21.2c0.6-7.2,0-14.3-2.8-21.5c-0.9-2.8,0-7.2-4.4-6.9c-2.2,0-5.3,2.5-5.9,4.4
			c-7.2,18.4-24.6,29.9-32.1,48.6c-6.5,16.5-25.3,18.7-38.7,7.2c-2.2-2.2-5-3.7-7.5-5.6c-0.3-0.6-0.6-1.6-0.3-2.2
			c0.3-1.6,0.6-2.8,0.9-4.4c9.4,6.5,15.6,5.3,18.7-6.5c0.6-2.2,2.5-4.4,3.7-6.5c18.1-26.5,39-51.4,54.6-79.5
			c2.2-3.7,5.3-7.2,2.5-10.9c-3.4-4.7-7.2-1.2-10.6,1.2C7033.3,1863.1,7028.9,1863.1,7024.3,1862.8L7024.3,1862.8z"/>
		<path id="path29" class="st4" d="M7704,1479.5c50.2-44.6,92.3-96.3,127.8-153.4c8.1-2.5,9.4,5,11.8,9
			c14.7,23.7,24.9,49.6,34.9,75.5c5,12.8,11.8,25.3,11.8,39.9c-33.1,48-73.6,87.9-126,114.4c-4.7,2.2-8.7,5.6-14.3,4.4
			c-5-7.8-10.6-15.3-15.3-23.4C7722.4,1525.1,7708.1,1504.5,7704,1479.5L7704,1479.5z M7843.7,1308.4c12.5-26.2,25.6-51.8,37.1-78.3
			c15.9-36.5,25.3-74.8,29.6-118.5c20.9,37.1,31.5,73.3,33.1,111c1.2,34,0.9,68-4.7,102c-6.2,37.4-18.1,71.7-35.9,104.8
			c-4.7-4.1-5.3-10-7.5-15.3C7881.1,1377.3,7866.8,1340.8,7843.7,1308.4L7843.7,1308.4z"/>
		<path id="path31" class="st2" d="M7117.5,1994.3c3.4-1.2,10.3,0.3,8.1-6.2c-3.7-11.5-0.9-18.1,10.6-22.5c3.7-1.6,6.5-6.5,9.4-10.3
			c29.9-40.8,59.9-82,92-121.3c14-16.8,24.3-36.8,40.5-52.1c2.5-2.2,4.7-6.9,8.7-5c4.7,2.2,0.9,6.2,0.3,9.4
			c-3.7,24.6-3.1,47.7,21.5,62.4c8.1,5,6.9,16.5,15.9,20c-37.4,28.4-69.2,62.4-99.8,97.9c-3.7,4.4-8.1,7.8-12.2,11.8
			c-16.5-14.7-16.2-14.7-33.1,2.2c-7.5,7.5-15.6,14.7-24,20.9C7138.7,2013.4,7124.4,2010.2,7117.5,1994.3L7117.5,1994.3z"/>
		<path id="path33" class="st1" d="M7301.8,1600.8c-6.9,7.8,5,10.6,4.7,16.8c-1.2,0.6-2.8,1.6-3.1,1.6c-14.3-15.9-32.4-5.6-49-7.5
			c-17.8-1.9-32.1,13.1-50.2,8.7c-5.3-1.2-6.5,4.1-8.1,7.8c-9.7,24.6-16.2,25.9-37.4,13.4c-21.2-12.8-37.4-31.8-60.5-42.1
			c-5.6-2.5-11.5-9-15-14c-6.2-9.4-12.5-11.8-21.5-7.5c-9.4,4.4-10,13.7-9.7,22.8c0,2.2,1.9,4.7,2.8,6.9l0.9,5.6
			c0,2.2-0.3,4.4-0.3,6.5c-11.2-13.4-8.4-28.7-1.9-41.8c19-38.4,51.4-45.5,88.9-37.1c22.8,5,43,17.8,58.3,36.2
			c1.9,2.2,3.1,5.9,7.2,4.4c4.1-1.2,6.2-5.9,5.3-8.4c-2.8-10,4.7-9.4,10-10.9c14-3.7,28.4-5.6,41.2-12.8c7.5-4.1,11.2-2.8,12.8,5.9
			C7280.9,1572.5,7291.5,1586.5,7301.8,1600.8L7301.8,1600.8z"/>
		<path id="path35" class="st4" d="M7737.4,1575.6c-24.3,15-51.8,20-79.2,24.6c-51.1,8.7-51.1,7.8-85.4-36.5
			c33.4-16.5,65.8-34.3,96-56.1c7.2-5.3,12.2-14.3,22.5-15C7703.1,1522.3,7718.4,1550,7737.4,1575.6L7737.4,1575.6z"/>
		<path id="path37" class="st1" d="M7292.1,1516.6c-7.8,7.5,3.4,17.5-3.1,25.3c-10.9-29.3,5.9-97,37.4-120
			c34.6-25.3,75.5-12.5,89.5,27.8c10.6,30.9,6.9,62.4,5.9,93.9c-0.3,6.5-1.2,13.4-1.9,20c-3.7,0.6-8.7-1.2-8.1,5.9
			c0.9,12.2-6.9,11.2-13.7,7.5c-16.5-9-33.1-10.6-50.2-2.5c-8.7,4.1-13.4-3.7-19.3-6.5c-5-2.5,0-8.4,2.2-12.2
			c14.7-25.6,27.1-52.1,47.4-73.9c7.5-8.1,7.5-20.3,18.4-28.4c5.9-4.4-3.4-17.8-10.6-24.6c-3.1-3.1-7.8-5.3-12.8-5.3l-15-2.8
			c-3.4-0.3-7.2-0.9-9.7,2.2c-17.5,9.7-31.2,22.8-41.2,39.9c-8.4,15-10.9,31.8-15.6,47.7c-0.3,0.3-1.2,0.6-0.9,0.9
			c0.3,0.9,0.6,1.6,1.2,2.2C7292.1,1514.5,7292.4,1515.4,7292.1,1516.6L7292.1,1516.6z"/>
		<path id="path39" class="st3" d="M7955.3,1332.1c7.5,10,3.4,20.6,2.5,31.2c-2.8,30.6-13.7,58.9-23.7,87.6l-9.4,21.5
			c-11.5,6.2-17.5,18.7-24,28.4c-5.6,8.4-16.2,5.3-19.3,13.4c-5.9,15-21.5,20.3-31.2,31.2c-14.3,16.5-32.7,29.3-43,49.3l-0.3,0.3
			c-5-0.9-9-0.3-9.4,5.9c-29,15.9-60.5,22.1-93.2,24.9c-20,1.6-40.2,5-60.2-0.3c-3.1-0.9-8.1,0.9-6.9-5.3c2.2-0.3,4.4-0.3,6.5-0.6
			c7.2,0,14.7,1.6,21.2-0.6c11.2-3.4,24.9-1.6,33.4-12.5c1.6-0.6,2.8-1.2,4.4-1.9c6.5,4.7,11.2,1.6,15.3-3.7h0.9
			c5.9-0.3,12.2,1.2,15-6.2c91-33.1,153.4-96.7,195.2-182.7C7941,1386.6,7946.6,1358.9,7955.3,1332.1z"/>
		<path id="path41" class="st1" d="M7532.2,1575.9c-13.1-7.5-25.3-1.9-36.2,4.1c-7.8,4.4-14,12.8-7.8,23.7c1.2,2.5,4.1,5.6,0.6,8.1
			c-2.8,2.2-6.2,1.9-8.7,0c-15-11.2-31.5-19-49.3-25.3c-8.4-2.8-3.4-13.1-5-19.6c9.7-5.9,8.1-15.9,9.4-24.9c0.6-3.7-0.6-9,6.2-8.4
			c43.3,3.7,84.8,13.7,119.7,41.5c36.5,29,52.1,69.8,61.1,113.8c5.6,27.8,5.3,55.5,0,83.3c-1.2,6.9-1.6,14.7-8.4,19.3
			c-4.7-5.3-0.9-10.9-0.6-16.2c0.6-1.2,2.2-2.5,2.2-4.1c0.6-36.2,5.9-72.3-5.9-107.6c-11.2-34-28.7-63.9-61.7-82
			c-0.9-6.5-5.3-5.9-10-5.6C7536,1576.2,7534.1,1575.9,7532.2,1575.9L7532.2,1575.9z M7016.5,2099.1c-18.4-0.9-35.5-13.7-39-29.3
			c-3.4-15.3,6.9-40.5,22.1-45.5c11.5-3.7,24.9-1.6,37.4-2.2c1.2,0.9,2.5,2.5,3.7,2.2c13.1-0.3,26.2-0.9,29.6,16.5
			c0.3,1.9,4.1,4.7,5.9,4.7c14.3-1.9,23.7,10.6,35.5,12.2c-5.9,21.2-23.1,16.8-38,16.8h-54.6c-5.6,0-11.5,0-16.8-0.9
			c-3.7-0.6-6.2-7.8-10.3-3.4c-4.1,4.1,1.2,8.4,3.1,12.5c2.8,5.6,5.9,11.2,13.7,10.6C7013,2093.2,7014.9,2095.7,7016.5,2099.1
			L7016.5,2099.1z"/>
		<path id="path43" class="st2" d="M7009,2092.9c-7.8,0.6-10.9-4.7-13.7-10.6c-1.9-3.7-7.2-8.1-3.1-12.5c4.1-4.4,6.5,3.1,10.3,3.4
			c5.6,0.6,11.2,0.9,16.8,0.9h54.6c15,0,32.1,4.4,38-16.8c-11.8-1.6-21.2-14-35.5-12.2c-1.9,0.3-5.3-2.8-5.9-4.7
			c-3.4-17.5-16.5-16.8-29.6-16.5c-1.2,0-2.5-1.6-3.7-2.2c16.8-1.9,32.1-8.1,45.5-17.8c5.9-4.1,10.3-5,14,1.6
			c6.9,12.5,18.7,17.8,31.2,21.5c10,3.1,12.8,7.2,7.5,16.5c-1.2,2.2-1.9,5-1.6,7.5c4.7,29.3-16.8,38.4-37.4,47.1
			c-8.7,3.7-19,4.4-28.4,6.5c-2.2-0.9-4.4-1.6-6.5-2.5c2.2-2.8,5.3-2.8,8.4-3.1c5.6-0.3,13.4,0.6,12.8-7.2c-0.6-8.1-9-4.4-14-4.7
			c-12.8-0.9-26.8,2.2-38-2.2C7018,2080.1,7013.7,2083.8,7009,2092.9L7009,2092.9z"/>
		<path id="path45" class="st1" d="M6967.5,1968.8c2.5,1.9,5,3.4,7.5,5.6c13.1,11.5,32.1,9.4,38.7-7.2c7.5-18.7,24.9-30.2,32.1-48.6
			c0.6-1.9,3.7-4.4,5.9-4.4c4.4,0,3.1,4.4,4.4,6.9c2.8,6.9,3.1,14,2.8,21.5c-0.9,12.5,2.5,21.5,19.6,21.2c-9.4,7.8-17.8,15,0.6,20.9
			c-9.7,3.4-15.6,6.5-14,15c-24.9,11.8-50.5,15.6-75.8,1.2C6977.2,1994,6967.8,1984.1,6967.5,1968.8L6967.5,1968.8z M7158.7,2031.4
			c-3.7,10-3.1,20.9-4.7,31.2c-5.9,15,5.6,21.8,14.3,29c8.1,6.5,15.9,1.9,25.9-0.9c20.3-5.6,29-27.8,50.5-29.3
			c5.6-0.3,3.4-7.8,6.9-11.2c12.2-13.7,33.1-16.8,42.1-34.9c2.2-4.4,14.3,5.9,15,14c-5,11.2-14,19-22.1,27.4
			c-22.8,23.1-45.2,46.5-79.2,53.3c-16.2,3.1-43.7-8.4-55.2-24.6c-8.1-11.8-7.5-39.6,1.6-51.8
			C7154,2032.1,7156.8,2032.1,7158.7,2031.4L7158.7,2031.4z"/>
		<path id="path47" class="st3" d="M7024.3,1862.8c4.7,0.3,9.4,0.3,13.4-2.8c3.4-2.5,7.2-5.9,10.6-1.2c2.8,3.7-0.3,7.2-2.5,10.9
			c-15.9,28.4-36.5,53-54.6,79.5c-1.6,2.2-3.1,4.1-3.7,6.5c-3.1,11.5-9.7,13.1-18.7,6.5c-2.2-16.2,1.9-31.5,6.2-47.1
			c0.3-0.6,0.3-1.2,0.6-1.9c3.7-0.9,5.6-3.1,5.6-7.2v0.3c6.2-0.3,6.9-5.6,9-9.7l3.1-3.1c0.9-1.2,1.9-2.2,2.8-3.4
			c3.4-0.6,5.6-2.5,6.5-5.9C7011.2,1879,7020.8,1874,7024.3,1862.8L7024.3,1862.8z"/>
		<path id="path49" class="st1" d="M7117.5,1994.3c6.9,15.9,21.2,19,37.4,7.5c8.7-6.2,16.5-13.4,24-20.9
			c16.5-16.8,16.5-16.8,33.1-2.2c-15.9,20.9-37.1,36.8-62.7,38.7c-26.5,2.2-48-12.5-50.2-46.8c-2.2-34.9,12.2-64.9,29.3-93.5
			c12.5-21.2,25.6-42.7,44.9-58.6l0.6,0.6c0,1.9-0.3,3.4-0.3,5.3c-20.6,28.1-45.2,54.3-56.4,87.6
			C7107.8,1938.5,7098.5,1966.9,7117.5,1994.3L7117.5,1994.3z M7080.4,2142.8c-7.2,0-10.9-5.3-14.3-10.3c-5.3-7.8-5-13.1,6.2-14.3
			c20-2.2,37.4-10.3,53.6-21.5c8.1-5.6,14-7.5,20.3,1.9c1.9,2.8,5,5.3,7.5,7.5c15.6,14.3,15.9,14.3-1.9,27.8
			c-5.9-10-9.7-18.1-25.9-11.2c-10,4.4-22.1,10.3-34.9,8.1C7082,2129.4,7079.1,2134.3,7080.4,2142.8L7080.4,2142.8z"/>
		<path id="path51" class="st3" d="M7843.7,1308.4c23.4,32.4,37.7,68.9,52.1,105.7c2.2,5.3,2.5,11.2,7.5,15.3l-12.2,21.5
			c0-14.3-6.9-26.8-11.8-39.9c-10.3-25.9-20.3-51.8-34.9-75.5c-2.5-4.1-3.7-11.8-11.8-9C7835.6,1320.2,7839.7,1314.3,7843.7,1308.4
			L7843.7,1308.4z M7055.8,1612.7l-0.9-5.6c4.1-2.2,6.5-10.3,12.5-3.7c19,20.3,43,33.7,66.7,52.1c-12.8,3.1-24,0.9-34.9,1.2
			l-18.7-11.2C7072,1634.5,7063.9,1623.6,7055.8,1612.7L7055.8,1612.7z M7737.4,1575.6c-19.3-25.6-34.6-53-46.1-82.9
			c4.1-4.4,8.4-8.7,12.5-13.1c4.4,24.9,18.4,45.5,30.9,66.7c4.7,8.1,10.3,15.6,15.3,23.4C7747,1574.6,7742.4,1575,7737.4,1575.6
			L7737.4,1575.6z"/>
		<path id="path53" class="st1" d="M7332.6,2027.7c8.4,5,17.1-8.7,25.6,0.6c-20.6,22.1-42.4,42.7-72.7,51.8
			C7299.9,2061.1,7314.3,2042.7,7332.6,2027.7z"/>
		<path id="path55" class="st2" d="M7080.4,2142.8c-0.9-8.1,1.6-13.4,10.9-11.8c12.8,2.2,24.9-3.7,34.9-8.1
			c16.2-6.9,20,1.2,25.9,11.2c-1.2,0.9-2.2,1.9-3.4,2.8c-6.9,0-13.4,0.6-18.4,5.9C7113.4,2148.1,7096.9,2148.7,7080.4,2142.8
			L7080.4,2142.8z"/>
		<path id="path57" class="st3" d="M7009,2092.9c4.7-9,9-12.8,21.2-7.8c10.9,4.7,25.3,1.2,38,2.2c5,0.3,13.1-3.7,14,4.7
			c0.6,7.8-7.2,6.9-12.8,7.2c-3.1,0.3-6.2,0.3-8.4,3.1c-15,2.5-29-5.3-44-3.1l-0.6-0.3C7014.9,2095.7,7013,2093.2,7009,2092.9
			L7009,2092.9z"/>
		<path id="path59" class="st2" d="M7230.1,1759.6c0.6,5.9-3.7,9-7.2,12.8c-13.4,13.1-26.5,26.5-36.8,42.4c-1.6,2.5-3.4,3.4-6.2,2.8
			c0-2.5,0.3-5.3,0.3-7.8C7195.1,1791.7,7211.7,1774.8,7230.1,1759.6L7230.1,1759.6z"/>
		<path id="path61" class="st1" d="M7698.1,1606.8c-8.7,10.9-22.1,9-33.4,12.5c-6.5,1.9-14,0.3-21.2,0.6
			C7661,1612.4,7679.7,1609.9,7698.1,1606.8z M6974.1,1915.1c-4.4,15.3-8.4,30.9-6.2,47.1c-0.3,1.6-0.6,2.8-0.9,4.4
			c-10.6-10.6-5-22.5-2.2-34C6966.6,1926.4,6968.8,1919.8,6974.1,1915.1z M7017.1,2099.1c15-2.2,29,5.6,44,3.1
			c2.2,0.9,4.4,1.6,6.5,2.5C7050.5,2104.1,7032.7,2111,7017.1,2099.1z"/>
		<path id="path63" class="st2" d="M7055.8,1612.7l24.3,32.7c-12.8-4.4-18.7-15.6-24.9-25.9
			C7055.4,1617.1,7055.8,1614.9,7055.8,1612.7z M7024.3,1862.8c-3.4,11.2-13.1,16.2-22.1,21.5
			C7005.6,1873.4,7013.7,1866.5,7024.3,1862.8z M7273.1,1722.1c1.2,10-5.9,9.7-12.5,10C7263.7,1727.1,7267.2,1722.8,7273.1,1722.1z
			 M7285.6,1712.8c-0.3,8.1-6.9,8.4-12.5,9.4C7274.7,1715.6,7280,1713.7,7285.6,1712.8z"/>
		<path id="path65" class="st1" d="M7130.3,2142.8c5-5.3,11.5-5.9,18.4-5.9C7143.4,2142.1,7137.1,2143.1,7130.3,2142.8z
			 M7717.7,1601.1c-4.1,5.3-8.7,8.4-15.3,3.7C7707.1,1601.8,7712.1,1600.5,7717.7,1601.1z"/>
		<path id="path67" class="st2" d="M6989.7,1896.7c-2.2,4.1-2.8,9.4-9,9.7C6980.3,1900.2,6983.7,1897.4,6989.7,1896.7z
			 M7254.7,1737.7c0,5.9-4.4,6.5-8.7,6.9C7247.2,1740.2,7250.3,1738,7254.7,1737.7z"/>
		<path id="path69" class="st1" d="M7733.3,1594.9c-2.8,7.5-9.4,5.9-15,6.2C7722.4,1596.5,7728,1596.2,7733.3,1594.9z
			 M7179.9,1809.8c0,2.5-0.3,5.3-0.3,7.8l-0.9,0.9c-1.6,0.3-3.1,0.3-4.7,0.6l-0.6-0.6C7173.9,1814.4,7176.1,1811.6,7179.9,1809.8z"
			/>
		<path id="path71" class="st2" d="M7001.8,1884c-0.6,3.4-3.1,5.3-6.5,5.9C6995.9,1886.1,6997.8,1884,7001.8,1884z"/>
		<path id="path73" class="st1" d="M6980.3,1906.1c0,4.1-2.2,6.2-5.6,7.2C6975,1909.5,6977.2,1907.3,6980.3,1906.1z M7168.9,2028
			c-2.8,3.1-6.5,4.1-10.6,3.1C7160.8,2027.1,7164.9,2027.7,7168.9,2028z"/>
		<path id="path75" class="st2" d="M7244.7,1746.5c-0.3,2.8-2.5,3.7-5,4.1C7240.4,1748,7242.2,1747.1,7244.7,1746.5z M7257.8,1734.3
			l-3.4,3.4C7255.6,1736.8,7256.9,1735.5,7257.8,1734.3z M7236.3,1753.6l-3.1,3.1C7234.1,1755.8,7235.4,1754.9,7236.3,1753.6z
			 M6995.6,1890.2c-0.9,1.2-1.9,2.2-2.8,3.4C6993.7,1892.4,6994.6,1891.4,6995.6,1890.2z M6992.8,1893.6l-3.1,3.1
			C6990.6,1895.8,6991.5,1894.6,6992.8,1893.6z"/>
		<path id="path77" class="st1" d="M7423.4,1566.5c-1.2-0.9-2.2-2.2-3.4-3.1C7421.2,1564.4,7422.1,1565.6,7423.4,1566.5z
			 M7289.9,1547.8c0.6,1.2,1.6,2.5,2.2,3.7C7291.5,1550.3,7290.6,1549.1,7289.9,1547.8z"/>
		<path id="path79" class="st3" d="M7379.7,1124.4c-4.1-0.3-8.4-0.3-11.2-4.1c-2.8-4.4-6.9-7.8-11.5-4.1c-4.4,3.4-3.4,9.7-1.2,14.3
			c2.2,4.4,7.2,7.8,2.5,14c-4.1-0.3-5-9.7-12.8-4.1c-4.1,2.8-2.5-5.6-4.4-8.7c-2.8-5.3-5-13.4-9-14.7c-7.2-2.2-4.7,9-9.7,11.5
			c-4.4-9-8.4-17.8-12.8-26.8c-7.2-14.3-14.3-29-24.3-41.5c-2.8-3.4-5.9-5.6-10.6-4.4c-3.1,0.9-4.1,2.8-3.7,5.6
			c1.2,8.1,1.2,16.8,4.4,24c10.9,24.3,15.3,50.2,20,76.1c1.9,10.3-3.4,13.7-12.5,11.2c-9.4-2.5-19-5.6-28.1-9.4
			c-28.7-12.5-57.4-25.6-86.1-38c-44.9-19.3-90.1-38-137.8-49c-30.2-6.9-36.8-3.4-49.9,24.3c-2.8-59.6-4.7-119.4,6.5-178
			c14-73.9,35.5-145.9,74.2-211.1c41.2-68.9,94.8-125.7,168.4-161.2c1.9-0.9,3.4-2.2,5.3-3.4c5.3,0.3,9.7-0.9,12.5-6.2
			c11.5-0.9,21.8-4.4,30.6-12.5c17.5-5.9,35.5-8.4,53.3-12.8c34.6-8.4,69.5-7.2,104.5-5.3c23.7,1.2,48,2.8,71.1,11.8
			c12.5,6.9,26.5,10,40.5,12.2c1.9,0.3,4.1,0.3,5.9,0.6c15.6,13.4,35.9,18.4,53.6,27.8c11.5,5.9,26.5,6.2,32.4,20.6
			c21.2-0.6,28.7,21.8,46.5,27.8c15.3,5,24.6,19,36.2,29.3c21.5,19,41.8,39,59.2,62.7c11.2,15.3,24.3,29.9,34.3,46.1
			c5.9,9.4,10.6,19.6,15,29.9c6.2,15.6-5.9,21.8-15.3,29.6c-0.9,0-1.9,0-2.8,0.3c-4.7-0.6-8.7,0-10,5.6
			c-31.2,18.1-55.5,42.1-68.3,76.7c-3.4,9.4-4.7,18.4-2.5,27.1c1.9,7.2-1.6,7.8-6.5,8.4v0.3c0-7.5-4.1-10.9-10.9-12.2
			c-23.4-21.2-49-38-81.4-41.8c-1.9-0.6-3.7-1.6-5.6-1.9c-19-1.6-19-1.2-11.5-18.7c11.2-25.9,16.8-28.1,44-20.6
			c10,2.8,18.7,9,29.6,8.4l3.1,3.1c4.1,4.1,7.8,8.1,11.8,12.2c3.1,3.4,6.5,5.3,10.9,2.5c3.7-2.5,3.7-5.9,2.2-9.7
			c-15.9-37.4-33.1-74.2-67-99.5c-20.6-15.3-40.8-13.1-58.6,5.3c-16.8,17.5-28.4,38.4-38,60.5c-24.3,56.4-51.1,111.6-77,167.4
			c-9.4,20-20.6,39-28.7,59.9c-7.5,20-17.8,38.7-26.8,58c-4.1,8.7-9,9-15,1.9c-7.8-9.4-13.4-19.6-18.1-30.9
			c-8.4-19.6-16.5-39-24.6-58.6c-1.6-3.7-2.5-7.2-7.2-6.5c-5.3,0.9-5.9,5-5.6,9.4c0.3,3.7-0.6,7.5,0.3,10.9
			C7363.8,1058.3,7370.1,1091.6,7379.7,1124.4L7379.7,1124.4z"/>
		<path id="path81" class="st5" d="M6981.5,1100.7c13.1-27.8,19.6-31.2,49.9-24.3c48,10.9,92.9,29.6,137.8,49
			c28.7,12.5,57.4,25.6,86.1,38c9,3.7,18.4,6.9,28.1,9.4c9,2.5,14.3-0.9,12.5-11.2c-5-25.9-9.4-51.8-20-76.1
			c-3.1-7.2-3.1-15.9-4.4-24c-0.3-2.8,0.3-4.7,3.7-5.6c4.7-1.2,8.1,0.9,10.6,4.4c10,12.8,17.1,27.1,24.3,41.5
			c4.4,8.7,8.4,17.8,12.8,26.8l20.6,55.2c6.2,16.8,5.3,33.4-5.6,48.3c-24,7.2-24,7.2-21.2,31.8c5.3,45.2-34.3,90.4-81.7,94.2
			c-46.5,3.7-84.2-14-114.4-47.7c-15.6-17.5-29.3-36.2-37.1-58.9c-8.7-25.3-8.7-49.9,5.6-73.3c5.6-9.7,5.3-14-7.5-16.2
			c-15.3-2.5-29.6-8.4-44.6-12.5c-22.1-5.9-23.4-5-28.7,16.8c-1.6,5.9-3.4,11.8-1.9,18.4c-4.4,9.7-5.6,20-6.2,30.6
			c-12.5,12.8-14,1.2-15.6-7.5c-5.6-32.7-4.7-65.8-3.1-98.8C6981.2,1105.7,6981.2,1103.2,6981.5,1100.7L6981.5,1100.7z M7255,1228.5
			c-11.2,1.9-18.4,5.9-8.7,18.1c-21.8,15-37.4,11.2-52.4-12.2c1.2-1.6,2.5-3.7,4.1-4.4c8.7-2.5,12.5-8.7,12.5-17.5
			c0.3-10-7.5-11.5-14.3-13.7c-24.9-8.4-50.2-16.5-74.8-25.6c-7.5-2.8-11.8-2.2-16.8,5c-11.8,17.5-15,36.2-11.2,56.4
			c10.3,53.6,68,104.5,122.5,108.5c56.1,4.1,100.1-42.1,82.9-96.3c-2.5-8.1-5.3-14.3-15-14.3c-10.9,0-6.2,9-7.8,13.7
			c-10.9,27.8-42.7,42.4-72,31.8c-28.1-10-40.5-35.5-29.9-63.6c3.4,8.1,7.8,14.3,13.4,19.3c-0.3,14.7,8.4,25.3,24.6,29.9
			c22.1,6.5,48-8.1,49.9-28.7C7261.6,1232,7264.7,1223.9,7255,1228.5L7255,1228.5z M6996.2,1120c2.8,2.8-2.5,14.7,5,11.2
			c10.6-4.7,22.1-2.5,32.1-8.4c8.1-4.7,20.3-8.7,19.3-17.1c-0.9-9.4-14.3-9.4-23.1-11.5C7005.6,1087.9,6996.2,1094.8,6996.2,1120
			L6996.2,1120z M7321.7,1180.5c-5.3,7.5-9,13.4-13.7,18.7c-3.4,4.1-11.5,5-8.7,12.5c2.8,7.5,10.3,5.3,16.2,5.6
			c12.2,0.9,15.9-5.6,13.7-16.2C7328,1194.9,7324.9,1188.6,7321.7,1180.5z"/>
		<path id="path83" class="st2" d="M8252.2,1257.8c-7.2,31.5-26.5,56.4-43.7,82.6c-1.9,3.1-3.7,4.7-7.2,4.4c-5-0.6-4.4-4.7-5.3-8.1
			c-3.1-12.8-2.2-25.3-0.3-38.4c2.8-18.4-2.2-36.8,0-55.5c5.6-48,10.3-96.3,15.3-144.4c1.6-15,3.1-29.9,3.4-44.9
			c0.6-34.9-1.2-69.8,0.6-104.5c1.6-26.8-6.5-52.1-11.8-77c-6.2-30.6-8.7-60.5-7.8-91.4c0.9-32.7,0.3-65.5,0.3-98.2
			c0-7.8,0.3-15.3,5.9-22.8c17.2,13.1,22.5,33.4,30.9,51.1c10.6,22.5,15.6,47.4,28.4,69.2c1.6,2.8,5,5.9,1.2,9.7
			c-10,9.7,3.1,19,0.3,29c-3.4,3.4-6.2-5-9-1.2c-3.1,3.7-1.2,7.8,1.6,11.2c4.4,5.6,4.4,11.8,1.2,17.5c-4.7,8.1-5.3,17.1-4.1,25.6
			c5.9,34.9-1.9,69.8,2.2,105.1c1.6,13.4,5.6,29.3-6.9,41.2c-1.2,1.2-1.6,4.4-0.9,5.9c11.5,24.6,4.7,50.8,5,76.4
			c0,10,11.2,17.5,6.2,26.2c-11.2,19.3,0.6,42.4-11.2,61.4c-2.2,3.4-0.9,9,1.2,13.4c6.5,11.8,5.6,23.1,0,35.2
			C8245.3,1243.2,8241,1252.9,8252.2,1257.8L8252.2,1257.8z"/>
		<path id="path85" class="st3" d="M8253.1,1257.8c-11.5-5-7.2-14.3-4.1-20.9c5.6-12.2,6.5-23.7,0-35.2c-2.5-4.4-3.4-10-1.2-13.4
			c11.8-19,0-42.1,11.2-61.4c5-8.4-6.2-16.2-6.2-26.2c0-25.6,6.5-51.4-5-76.4c-0.6-1.6-0.3-4.7,0.9-5.9c12.8-11.8,8.7-27.8,6.9-41.2
			c-4.1-34.9,3.4-70.2-2.2-105.1c-1.6-8.7-0.6-17.5,4.1-25.6c3.1-5.6,3.1-11.8-1.2-17.5c-2.8-3.4-4.4-7.8-1.6-11.2
			c2.8-3.7,5.6,4.7,9,1.2c2.8-9.7-10.3-19-0.3-29c4.1,18.7,12.2,35.9,16.2,54.6c7.2,32.7,14.3,65.8,16.2,99.2
			c5,86.7-1.2,172.7-24.3,256.6C8266.5,1219.8,8262.8,1239.8,8253.1,1257.8L8253.1,1257.8z M7000.9,1214.5
			c0.6-10.6,1.9-20.9,6.2-30.6c2.2-1.2,5-1.9,6.5-3.7c18.4-18.1,26.8-18.7,49-4.7c4.7,3.1,6.9,5.9,5,11.2c-0.6,1.9-2.2,4.1-2.2,5.9
			c2.8,35.9-23.7,51.8-49,68.9C7007.7,1248.2,7008.1,1229.8,7000.9,1214.5z"/>
		<path id="path87" class="st2" d="M7807.2,1594.9c10.3-20,28.7-32.7,43-49.3c9.7-11.2,25.3-16.2,31.2-31.2
			c3.1-8.1,13.4-4.7,19.3-13.4c6.5-9.7,12.5-22.1,24-28.4c-6.2,16.2-6.2,37.4-21.5,47.4c-18.7,12.2-33.4,28.1-49.6,43
			c-11.5,10.6-22.5,21.5-36.5,29C7814.1,1593.7,7810.7,1594.6,7807.2,1594.9L7807.2,1594.9z M7279,528.2c-8.7,8.1-19,11.5-30.6,12.5
			c1.6-5.3,3.1-10.6,1.2-15.9C7260,526,7269.4,527,7279,528.2z M7548.1,533.8c-14-2.2-27.8-5-40.5-12.2
			C7521.9,522.9,7538.1,517.9,7548.1,533.8z M7606.1,519.8c6.9-4.7,13.7-4.4,22.8-1.6C7620.5,524.8,7613,521,7606.1,519.8z
			 M7248.5,540.7c-2.5,5.3-7.2,6.5-12.5,6.2C7237.2,539.1,7243.5,541.3,7248.5,540.7z M7797.6,1600.8c0.6-6.2,4.4-6.5,9.4-5.9
			C7806.3,1600.8,7801.9,1600.8,7797.6,1600.8z M7550,517.3c0.9,0.3,1.9,0.6,2.5,1.2c-0.3,0.9-0.6,2.2-1.2,2.5
			c-0.6,0.3-1.6-0.6-2.5-0.9C7549.4,518.9,7549.7,517.9,7550,517.3z"/>
		<path id="path89" class="st3" d="M7796,958.2c4.4-40.8,31.8-63.9,64.5-82.6c7.2-4.1,16.8,1.6,23.7-5c17.1,0.3,34.3,1.6,51.4,0.6
			c12.2-0.6,11.5,8.4,13.4,15c1.9,7.8-4.1,10-10.3,9.7c-10-0.3-13.1,9.7-20.3,14c-20.3,11.8-42.7,19.3-61.1,35.2
			c-18.7,16.5-38.4,33.7-62.7,43c-2.5,0.9-5,1.6-7.8-0.6c-0.3-5,6.2-8.1,4.4-13.4c0-0.9,0.3-1.9,0-2.8
			C7794.8,967.9,7797.2,963.8,7796,958.2L7796,958.2z"/>
		<path id="path91" class="st5" d="M7379.7,1124.4c-9.7-32.4-15.9-66.1-27.8-97.9c-1.2-3.1-0.3-7.2-0.3-10.9
			c-0.3-4.7,0.3-8.7,5.6-9.4c4.7-0.6,5.6,2.8,7.2,6.5c8.1,19.6,16.2,39.3,24.6,58.6c4.7,10.9,10.6,21.5,18.1,30.9
			c5.9,7.2,10.9,6.9,15-1.9c9-19.3,19.3-38,26.8-58c7.8-20.9,19.3-39.6,28.7-59.9c25.9-55.8,52.7-111,77-167.4
			c9.4-21.8,21.2-43,38-60.5c17.5-18.4,38-20.3,58.6-5.3c34,25.3,51.1,61.7,67,99.5c1.6,3.7,1.6,7.2-2.2,9.7
			c-4.4,2.8-7.8,0.6-10.9-2.5c-3.7-4.1-7.8-8.1-11.8-12.2c0.3-1.6-0.3-2.5-2.2-2.2l-0.9-0.9c-9.4-14-21.5-24.9-34.9-34.3
			c-14.3-10-22.5-8.7-32.7,5.9c-12.5,18.4-19.6,39.3-27.4,61.4h38.7c32.4,3.7,58,20.6,81.4,41.8c1.9,5.6,5,10,10.9,12.2v-0.3
			c9.4,20,23.7,37.4,30.6,58.9c26.8,83.3,22.8,163.1-30.2,235.7c-59.9,82.3-163.1,78.6-219.5-6.2c-7.2-10.6-13.4-22.1-20.3-33.1
			l-0.3-0.3c-1.2-6.2-1.9-12.8-8.1-17.5c-5.6,7.8-10.9,14.7-16.2,21.5c-30.6,24-43,21.2-61.1-14.3c-6.5-12.8-11.8-26.2-17.8-39.3
			l-3.1-3.1C7379.7,1127.8,7379.7,1125.9,7379.7,1124.4L7379.7,1124.4z M7636.7,1106c1.6,0,2.5-0.6,2.5-2.5
			c22.5-31.2,23.1-63.6,6.2-97.3c-19-33.7-52.4-41.2-82.6-18.7c-4.4,3.4-11.8,5.3-8.7,13.7c-0.9,1.2-2.2,2.2-3.1,3.4l-0.3,0.3
			c-2.5,7.2-4.4,14.7-7.2,21.5c-3.7,9-10.3,16.8-8.1,27.4c3.7,18.1,8.1,35.9,20.6,50.5c20.6,26.8,54.6,29.3,76.4,5.6
			C7633.9,1108.8,7635.1,1107.6,7636.7,1106L7636.7,1106z M7523.8,1076.4c-11.2,22.8-21.5,43.7-31.8,64.5c-2.5,4.7-0.9,9,0.3,13.7
			c10.9,34.6,29.3,63.9,57.4,87.3c39.6,32.7,96.7,33.7,136.6,1.2c40.5-33.1,62.1-77.3,68.6-128.8c9.4-71.7-3.7-137.8-55.5-192.1
			c-27.1-28.7-60.8-40.5-100.4-33.1c-5.3,0.9-10.3,1.9-12.2,7.8c-7.2,22.8-14.3,45.2-21.8,68.6c40.2-10.9,65.5-4.1,86.1,22.5
			c28.7,36.8,25.6,92.6,0.3,124.1c-20.9,25.9-50.8,36.2-78.6,24C7547.5,1125.3,7532.8,1104.7,7523.8,1076.4L7523.8,1076.4z
			 M7417.1,1141.2c-6.5-1.2-6.5,3.1-5.9,6.5c1.6,13.1,6.9,24.6,16.2,34.3c3.7,3.7,7.5,3.4,11.2,0.6c11.5-8.1,21.2-18.1,26.5-31.5
			c1.9-4.7,2.2-6.9-5-7.2C7445.5,1143.4,7430.2,1150.6,7417.1,1141.2z M7589.9,786.4c17.5-4.7,33.7-11.5,51.1-11.8
			c2.8,0,6.9,1.2,7.8-2.8c0.9-3.4-2.5-5.3-4.7-7.5C7626.7,746.5,7602.1,755.8,7589.9,786.4L7589.9,786.4z"/>
		<path id="path93" class="st2" d="M7802.9,814.8c0.9-5.9,5-6.2,10-5.6C7812.2,815.7,7807.5,815.4,7802.9,814.8z M7796,958.2
			c1.2,5.3-1.2,9.4-4.7,13.1C7791.3,966.6,7788.8,960.7,7796,958.2z"/>
		<path id="path95" class="st3" d="M7532.2,1575.9c1.9,0,3.7,0.3,5.6,0.3c0.9,5.9,5.3,6.2,10,5.6c33.1,18.1,50.5,48,61.7,82
			c11.5,35.2,6.5,71.7,5.9,107.6c0,1.2-1.6,2.8-2.2,4.1c-3.4,0.9-9.7,4.7-8.7-2.8c1.9-15.6-9.4-24.9-14.3-37.1
			c-9.4-22.8-23.1-43.7-29.3-67.4c-6.5-24.3-19-45.5-30.6-67C7524.4,1590.2,7524.1,1583.7,7532.2,1575.9L7532.2,1575.9z
			 M7292.1,1516.6c0-0.9,0-2.2-0.6-3.1v-3.1c4.7-16.2,7.2-33.1,15.6-47.7c9.7-17.1,23.7-30.2,41.2-39.9c3.4,0.6,7.2,0.6,9.7-2.2
			l15,2.8c-2.8,16.8-14,29-23.7,41.8c-4.4,5.9-9.4,11.2-10,18.4c-0.6,7.2-2.2,11.8-10.6,11.5c-2.8,0-5.3,2.2-5,4.7
			c1.9,13.4-11.8,16.5-16.8,25.3c-5.3,9.7-8.7,5.3-11.5-1.9C7294.6,1521,7293.4,1518.8,7292.1,1516.6L7292.1,1516.6z"/>
		<path id="path97" class="st1" d="M7462.1,1186.1c5.3-6.9,10.3-14,16.2-21.5c6.2,4.7,6.9,11.2,8.1,17.5
			C7478,1183.3,7470.2,1184.9,7462.1,1186.1L7462.1,1186.1z"/>
		<path id="path99" class="st3" d="M7380,1129.7l3.1,3.1c-1.6,1.6-3.4,4.4-5.3,1.2C7376.3,1132.2,7378.2,1130.6,7380,1129.7z"/>
		<path id="path101" class="st2" d="M7173.6,1819.1c1.6-0.3,3.1-0.3,4.7-0.6c0.9,4.4-0.6,6.5-5,5.6
			C7173.6,1822.5,7173.6,1820.7,7173.6,1819.1z M7358.2,1420.3c-2.8,2.8-6.2,2.8-9.7,2.2C7351,1419.4,7354.5,1420,7358.2,1420.3z
			 M7291.8,1510.4v3.1c-0.3-0.6-0.9-1.6-1.2-2.2C7290.6,1511,7291.2,1510.7,7291.8,1510.4z M7548.1,1581.8c-4.7,0.6-9,0.6-10-5.6
			C7542.5,1575.6,7547.2,1575.3,7548.1,1581.8z"/>
		<path id="path103" class="st1" d="M7633.5,873.4h-38.7c7.8-22.1,14.7-43,27.4-61.4c10-14.7,18.1-15.6,32.7-5.9
			c13.7,9.4,25.9,20.3,34.9,34.3c-10.9,0.6-19.6-5.6-29.6-8.4c-27.1-7.2-32.7-5-44,20.6c-7.5,17.5-7.5,17.5,11.5,18.7
			C7629.8,871.8,7631.7,872.8,7633.5,873.4z M7725.8,927.3c-5.9-2.2-8.7-6.5-10.9-12.2C7721.8,916.4,7725.8,919.8,7725.8,927.3z
			 M7690.9,841.6c1.6-0.3,2.5,0.6,2.2,2.2L7690.9,841.6z"/>
		<path id="path105" class="st4" d="M7187,1233.8c-5.9-5-10-11.5-13.4-19.3c-10.6,28.1,2.2,53.6,29.9,63.6
			c29.3,10.3,61.4-4.1,72-31.8c1.9-4.4-2.8-13.7,7.8-13.7c10,0,12.5,6.2,15,14.3c17.5,54.3-26.8,100.7-82.9,96.3
			c-54.6-4.1-112.3-55.2-122.5-108.5c-3.7-20.3-0.6-39,11.2-56.4c5-7.2,9-7.8,16.8-5c24.9,9,49.9,17.1,74.8,25.6
			c6.9,2.2,14.3,3.7,14.3,13.7c-0.3,8.7-3.7,14.7-12.5,17.5c-1.6,0.6-2.8,2.8-4.1,4.4C7191.7,1234.1,7189.2,1234.1,7187,1233.8
			L7187,1233.8z"/>
		<path id="path107" class="st0" d="M6996.2,1120c0-25.3,9-32.1,33.7-25.9c8.7,2.2,22.1,2.2,23.1,11.5c0.9,8.4-11.5,12.5-19.3,17.1
			c-10,5.9-21.5,3.7-32.1,8.4C6993.7,1134.7,6999,1122.8,6996.2,1120L6996.2,1120z"/>
		<path id="path109" class="st3" d="M7187,1233.8c2.2,0.3,4.4,0.3,6.9,0.6c15,23.4,30.9,27.1,52.4,12.2c12.5-1.2,13.7-8.1,8.7-18.1
			c9.4-5,6.5,3.1,6.2,6.5c-1.9,20.6-27.4,34.9-49.9,28.7C7195.5,1259.1,7187,1248.5,7187,1233.8L7187,1233.8z"/>
		<path id="path111" class="st0" d="M7321.7,1180.5c3.1,8.1,5.9,14.3,7.5,20.6c2.2,10.6-1.6,17.1-13.7,16.2
			c-5.9-0.3-13.4,1.6-16.2-5.6c-2.8-7.5,5.3-8.7,8.7-12.5C7312.7,1193.9,7316.4,1188,7321.7,1180.5z"/>
		<path id="path113" class="st4" d="M7255,1228.5c5,10,3.7,16.8-8.7,18.1C7236.6,1234.5,7244.1,1230.7,7255,1228.5z M7523.8,1076.4
			c8.7,28.4,23.7,49,49.3,59.9c28.1,11.8,58,1.6,78.6-24c25.3-31.5,28.4-87-0.3-124.1c-20.6-26.8-46.1-33.7-86.1-22.5
			c7.5-23.4,14.7-45.8,21.8-68.6c1.9-6.2,6.9-6.9,12.2-7.8c39.6-7.2,73.3,4.7,100.4,33.1c51.8,54.3,64.5,120.4,55.5,192.1
			c-6.5,51.1-27.8,95.4-68.6,128.8c-39.9,32.4-97,31.5-136.6-1.2c-28.1-23.1-46.5-52.7-57.4-87.3c-1.2-4.4-2.8-8.7-0.3-13.7
			C7502.6,1120,7512.6,1099.4,7523.8,1076.4L7523.8,1076.4z"/>
		<path id="path115" class="st4" d="M7645.4,1006.2c16.8,33.7,16.2,66.1-6.2,97.3c-1.2-1.9-2.2-0.3-2.8,0.6
			c-0.3,0.3,0.3,1.2,0.6,1.9c-1.6,1.2-3.1,2.8-4.7,4.1c-9.4-4.4-15.3,5-24.3,5.6c-19,1.6-35.5-5-52.4-11.2
			c-12.5-14.7-17.1-32.1-20.6-50.5c-2.2-10.6,4.4-18.4,8.1-27.4c2.8-7.2,5-14.3,7.2-21.5l0.3-0.3c0.9-1.2,2.2-2.2,3.1-3.4
			c15.9-6.9,31.2-12.8,49.3-13.1C7621.1,988.1,7631.1,1001.2,7645.4,1006.2L7645.4,1006.2z M7594.3,1104.7
			c16.8,0.9,35.9-11.5,41.8-27.1c1.2-3.7,3.1-6.9-3.1-7.8c-6.5-0.9-10.6-5-10-11.5c0.6-6.9,5.3-9.7,12.2-9c4.7,0.6,6.2-0.9,6.2-5.9
			c0.3-15-14.7-35.9-30.6-42.1c-16.8-6.5-34.3-2.2-46.8,11.5c-6.2,7.2-9.7,12.2,3.4,15.9c9,2.5,14,10.6,14.3,20.3
			c0.3,9.7-4.1,16.8-12.5,21.5c-15,8.1-15,9.4-2.8,21.5C7574.3,1100.1,7583.7,1104.1,7594.3,1104.7z"/>
		<path id="path117" class="st0" d="M7417.1,1141.2c13.4,9.7,28.4,2.2,43,2.8c7.2,0.3,6.9,2.5,5,7.2c-5.3,13.4-15,23.4-26.5,31.5
			c-3.7,2.5-7.5,3.1-11.2-0.6c-9.7-9.4-15-20.9-16.2-34.3C7410.6,1144.3,7410.6,1140,7417.1,1141.2z M7645.4,1006.2
			c-14.3-5-24.3-18.1-42.1-18.1c-18.1,0.3-33.7,6.2-49.3,13.1c-3.4-8.4,4.1-10.3,8.7-13.7C7593,965.1,7626.4,972.5,7645.4,1006.2
			L7645.4,1006.2z M7589.9,786.4c12.5-30.6,36.8-39.9,54.6-22.1c2.2,2.2,5.6,3.7,4.7,7.5c-1.2,4.1-5,2.8-7.8,2.8
			C7623.6,775.2,7607.4,782,7589.9,786.4L7589.9,786.4z M7555.9,1104.7c16.8,6.2,33.4,12.8,52.4,11.2c8.7-0.6,15-10,24.3-5.6
			C7610.5,1134.1,7576.5,1131.6,7555.9,1104.7z M7636.7,1106c-0.3-0.6-0.6-1.6-0.6-1.9c0.6-0.9,1.6-2.5,2.8-0.6
			C7639.2,1105.4,7638.5,1106,7636.7,1106z M7550.9,1004.7l-0.3,0.3C7550.6,1005.3,7550.9,1004.7,7550.9,1004.7z"/>
		<path id="path119" class="st5" d="M7594.3,1104.7c-10.6-0.9-20-4.7-27.8-12.8c-12.2-12.5-12.2-13.4,2.8-21.5
			c8.4-4.7,12.8-11.8,12.5-21.5s-5.3-17.8-14.3-20.3c-13.1-3.7-9.7-8.7-3.4-15.9c12.5-13.7,29.6-18.1,46.8-11.5
			c15.9,6.2,30.9,26.8,30.6,42.1c0,5-1.9,6.5-6.2,5.9c-6.9-0.6-11.5,2.2-12.2,9s3.4,10.6,10,11.5c5.9,0.9,4.4,4.1,3.1,7.8
			C7630.1,1093.5,7611.1,1106,7594.3,1104.7L7594.3,1104.7z"/>
	</g>
	<g class="st6">
		<path d="M-652.8,381.2c-20.8,0-37.3-4.9-49.6-14.6c-12.3-9.7-18.4-23.8-18.4-42.2c0-13.3,2.9-25.9,8.6-37.8
			c5.7-11.9,13.5-22.5,23.4-31.8c9.9-9.3,21.1-16.7,33.8-22c12.7-5.3,25.9-8,39.8-8c14.1,0,25.3,3.2,33.4,9.6
			c8.1,6.4,12.2,15.1,12.2,26c0,8-5.2,18.4-15.6,31.2c-10.4,12.8-15.6,17.1-15.6,12.8c0-1.1,0.4-2.1,1.2-3.2
			c8.5-12.5,12.8-24.3,12.8-35.2c0-9.9-3.1-17.7-9.4-23.6c-6.3-5.9-14.5-8.8-24.6-8.8c-11.2,0-21.9,2.7-32.2,8.2
			c-10.3,5.5-19.4,12.7-27.4,21.8c-8,9.1-14.3,19.1-18.8,30c-4.5,10.9-6.8,21.7-6.8,32.4c0,14.7,4.7,25.8,14.2,33.4
			c9.5,7.6,21.9,11.4,37.4,11.4c15.7,0,30.9-2.9,45.4-8.6c14.5-5.7,27.5-13.9,39-24.6c13.6-12.8,27.3-31.5,41.2-56l34.8-62.8
			c9.1-14.4,18.5-31.8,28.4-52.2c9.9-20.4,20.3-43.8,31.2-70.2c-38.4-0.5-75.7,3.2-112,11.2c-38.7,8.3-67.3,19.7-86,34.4
			c-8,5.9-12,12-12,18.4c0,5.6,3.1,10.2,9.4,13.8c6.3,3.6,14.2,5.4,23.8,5.4c5.6,0,12.3-0.8,20-2.4c7.7-1.6,15.2-3.8,22.4-6.6
			c7.2-2.8,12.7-5.9,16.4-9.4c2.7-2.1,4.5-3.2,5.6-3.2c2.1,0,2.5,1.1,1.2,3.2c-5.6,6.7-12.9,12.3-21.8,16.8
			c-8.9,4.5-18.3,7.9-28.2,10.2c-9.9,2.3-19.1,3.4-27.6,3.4c-13.1,0-23.3-2.6-30.6-7.8c-7.3-5.2-11-11.9-11-20.2
			c0-9.6,4.8-18.9,14.4-28c18.1-17.6,50.5-30.7,97.2-39.2c18.1-3.2,37.6-5.5,58.4-7c20.8-1.5,42.9-2.1,66.4-1.8
			c5.9-5.1,11.5-7.6,16.8-7.6c5.3,0,7.3,2.8,6,8.4c16.8,1.1,33.8,3.2,51,6.4c17.2,3.2,32.9,7.7,47.2,13.4
			c14.3,5.7,25.8,12.8,34.6,21.2c8.8,8.4,13.2,18.3,13.2,29.8c0,12.3-4.1,23.9-12.2,35c-8.1,11.1-18.5,20.9-31.2,29.4
			c-12.7,8.5-25.9,15.3-39.8,20.4c-12.8,4.5-26.5,8.1-41,10.8c-14.5,2.7-28.9,4-43,4c-10.7,0-20.9-0.8-30.6-2.4
			c-9.7-1.6-18.6-4.1-26.6-7.6c-16.3,23.7-29.8,43.1-40.6,58c-10.8,14.9-19.1,25.3-25,31.2C-578.4,366.8-612.8,381.2-652.8,381.2z
			 M-436.8,249.2c9.9,0,19.7-1,29.4-3c9.7-2,20.2-4.7,31.4-8.2c11.2-3.7,22.5-8.5,34-14.2c11.5-5.7,22-12.3,31.6-19.6
			c9.6-7.3,17.3-15.2,23.2-23.6c5.9-8.4,8.8-16.9,8.8-25.4c0-9.6-4-17.9-12-25c-8-7.1-18.5-12.9-31.6-17.4
			c-13.1-4.5-27.2-8.1-42.4-10.6c-15.2-2.5-29.9-4.2-44-5l-12.8,40c-4.5,11.5-10.9,24.8-19.2,40c-8.3,15.2-18.4,32.3-30.4,51.2
			l-8.8,13.6c1.9,1.1,3.9,1.9,6.2,2.6c2.3,0.7,4.7,1.3,7.4,1.8c5.1,1.1,10,1.8,14.8,2.2S-441.6,249.2-436.8,249.2z"/>
	</g>
	<g class="st6">
		<path d="M-284.8,338.8c-7.7,0-14.9-1.9-21.6-5.8c-6.7-3.9-10-10.3-10-19.4c0-12.5,4.5-27.5,13.4-44.8c8.9-17.3,19.1-35.3,30.6-54
			c31.2-50.7,53.3-76,66.4-76c2.7,0,5.4,1,8.2,3s4.3,4.2,4.6,6.6l-28,37.6c-10.9,14.7-20.8,28.2-29.6,40.6
			c-8.8,12.4-16.4,23.5-22.8,33.4c-3.2,5.1-6.8,10.8-10.8,17.2s-7.5,13-10.6,19.8c-3.1,6.8-4.6,13.7-4.6,20.6c0,3.2,0.9,6.1,2.8,8.6
			c1.9,2.5,5.2,3.8,10,3.8c8.5,0,19.7-4.6,33.6-13.8c13.9-9.2,27.6-21.9,41.2-38.2c1.3-1.6,2.8-3.1,4.4-4.4c1.6-1.3,2.9-2,4-2
			c1.3,0,2,0.8,2,2.4c0,0.8-0.9,2.3-2.6,4.6c-1.7,2.3-3.1,4.1-4.2,5.4l-9.6,10.8c-5.3,5.9-11.7,12.3-19,19.2
			c-7.3,6.9-15.1,12.8-23.2,17.6C-268.3,336.4-276.5,338.8-284.8,338.8z"/>
	</g>
	<g class="st6">
		<path d="M-191.2,340c-6.4,0-12.8-2.3-19.2-6.8c-6.4-4.5-10-9.9-10.8-16c-2.7-20.5,10.3-44.9,38.8-73.2
			c28.3-28.3,53.7-42.4,76.4-42.4c6.1,0,10.9,1.5,14.4,4.4c1.9,1.9,3.3,4.4,4.2,7.6c0.9,3.2,1.7,4.8,2.2,4.8c1.1,0,2-0.2,2.8-0.6
			c0.8-0.4,1.7-0.6,2.8-0.6c3.2,0,6,1.2,8.4,3.6c2.4,2.4,3.7,4.5,4,6.4c0.3,0.5-8.3,13.7-25.6,39.6c-17.3,25.3-25.2,42.5-23.6,51.6
			c1.3,6.1,4.3,9.2,8.8,9.2c13.9,0,39.2-22.9,76-68.8c0.8-1.1,1.6-1.6,2.4-1.6c1.3,0,2,0.9,2,2.8c0,2.1-1.2,4.8-3.6,8
			c-33.9,45.6-59.9,68.4-78,68.4c-2.4,0-4.7-0.4-6.8-1.2c-11.7-4.5-17.6-13.3-17.6-26.4c0-4.5,0.5-9.1,1.6-13.6l-24.8,24
			c-7.5,7.5-14.2,12.8-20.2,16C-182.6,338.4-187.5,340-191.2,340z M-194.8,331.2c15.5,0,36.5-16.9,63.2-50.8l42.4-58.4
			c-2.1-3.7-5.6-5.6-10.4-5.6c-16.3,0-38.3,13.1-66,39.2c-28.8,26.7-41.7,48.7-38.8,66C-203.1,328-199.9,331.2-194.8,331.2z"/>
	</g>
	<g class="st6">
		<path d="M-44,420c-8.5,0-16-3.6-22.4-10.8c-6.4-7.5-9.5-15.7-9.2-24.8c3.2,4,7.5,8.7,12.8,14c6.9,6.7,13.7,10,20.4,10
			c15.2,0,31.6-12.1,49.2-36.4c6.1-8.5,12.5-18.5,19-29.8c6.5-11.3,12.7-23.9,18.6-37.8l15.2-36.8l-58.8,46
			c-18.1,14.1-32.7,21.2-43.6,21.2c-5.9,0-10.5-2.1-14-6.4c-3.5-4.3-5.2-8.7-5.2-13.2c0-11.5,9.9-30.3,29.6-56.4
			c19.7-26.4,34.5-39.6,44.4-39.6c8.3,0,12.4,3.1,12.4,9.2c0,2.4-11.9,16.3-35.6,41.6c-23.5,25.1-35.2,42-35.2,50.8
			c0,3.5,2.3,5.2,6.8,5.2c8.5,0,27.1-11.1,55.6-33.2c11.7-9.3,22.1-17.9,31.2-25.6c9.1-7.7,16.7-14.7,22.8-20.8
			c2.1-2.7,4.3-5.3,6.4-7.8c2.1-2.5,4.1-5.1,6-7.8c5.1-5.9,10.1-8.8,15.2-8.8c7.2,0,10.8,2.9,10.8,8.8c0,1.1-5.6,9.9-16.8,26.4
			c-5.9,9.1-10.5,16.1-14,21c-3.5,4.9-5.5,8.1-6,9.4c-8.3,16-20.9,39.3-38,70C7.7,399.2-18.1,420-44,420z"/>
	</g>
	<g class="st6">
		<path d="M115.2,343.2c-8.5,0-16.3-2.7-23.2-8.2c-6.9-5.5-10.4-12.7-10.4-21.8c0-18.9,11.6-40.5,34.8-64.8
			c23.7-24.5,44.9-36.8,63.6-36.8c6.1,0,11.1,1.7,15,5c3.9,3.3,5.8,7.4,5.8,12.2c0,14.9-11.9,29.6-35.6,44
			C144.1,285.6,126.4,292,112,292c-2.1,0-4-0.3-5.6-0.8c-4,7.2-6,14.8-6,22.8c0,13.9,6.5,20.8,19.6,20.8c13.3,0,30.5-8.9,51.6-26.8
			c16.3-13.1,30.1-26.9,41.6-41.6c2.4-3.2,4.5-4.8,6.4-4.8c1.6,0,2.4,0.8,2.4,2.4s-1.1,3.9-3.2,6.8c-7.5,9.9-15.5,18.9-24,27.2
			c-8.5,8.3-17.7,15.9-27.6,22.8C146.7,335.7,129.3,343.2,115.2,343.2z M117.6,283.2c10.1,0,23.3-5.1,39.6-15.2
			c5.3-3.7,10.6-7.9,15.8-12.6c5.2-4.7,9.5-9.4,12.8-14.2c3.3-4.8,5-9.1,5-12.8c0-3.5-2.8-5.2-8.4-5.2c-8,0-19.2,6-33.6,18
			c-6.9,5.9-13.6,12.3-20,19.2c-6.4,6.9-11.9,14.3-16.4,22C114,282.9,115.7,283.2,117.6,283.2z"/>
	</g>
	<g class="st6">
		<path d="M279.2,340c-11.5,0-19.3-3-23.6-9c-4.3-6-6.4-14.1-6.4-24.2c0-11.2,3.5-24.5,10.4-40c2.7-6.1,5.5-11.7,8.4-16.6
			c2.9-4.9,6-9.5,9.2-13.8c-1.1,0.3-2,0.4-2.8,0.4s-1.6,0-2.4,0c-6.4,0-11.7-4.5-16-13.6l-29.6,38.4c-15.7,20.5-25.3,30.8-28.8,30.8
			c-1.3,0-2-0.5-2-1.6c0-1.3,0.7-3.1,2-5.2c0.8-1.6,2.4-3.7,4.8-6.4c10.1-11.7,19.5-23.3,28-34.8c8.5-11.5,15.6-22.7,21.2-33.6
			c6.1-23.2,13.9-34.8,23.2-34.8c6.1,0,9.2,2.8,9.2,8.4c0,5.1-3.3,11.7-10,20c-6.4,8.3-9.6,12.5-9.6,12.8c0,5.6,4.1,8.4,12.4,8.4
			c4.8,0,10.1-1.7,16-5.2l10.4-6.4c0.5-0.3,1.3-0.4,2.4-0.4c3.2,0,6,1.3,8.4,4c2.4,2.7,3.2,5.1,2.4,7.2l-27.6,34.8
			c-17.1,21.9-25.6,39.5-25.6,52.8c0,12,5.9,18,17.6,18c8,0,16.6-2.4,25.8-7.2c9.2-4.8,18.1-10.7,26.8-17.8
			c8.7-7.1,15.9-13.9,21.8-20.6l9.6-11.2c0.5-0.5,1.2-1.2,2-2c0.8-0.8,1.5-1.2,2-1.2c1.9,0,2.8,0.9,2.8,2.8c0,0.5-0.3,1.5-0.8,2.8
			c-0.5,1.3-1.5,2.8-2.8,4.4l-12.8,14.4c-6.1,6.9-13.7,13.9-22.6,21c-8.9,7.1-18.1,12.9-27.6,17.4C295.5,337.7,286.9,340,279.2,340z
			"/>
	</g>
	<g class="st6">
	</g>
	<g class="st6">
		<path d="M546,376c-10.9,0-24.5-6.5-40.8-19.6c-11.5-1.9-21.3-4.3-29.4-7.4c-8.1-3.1-14.9-6.7-20.2-11c-7.5-6.4-14-14.9-19.6-25.6
			c-5.6-10.7-8.4-20.9-8.4-30.8c0-7.5,1.7-14.1,5.2-20c8-14.1,18.1-21.2,30.4-21.2c9.3,0,14.8,7.9,16.4,23.6
			c1.9,14.7,3.4,26.3,4.6,35c1.2,8.7,2.2,14.3,3,17c4,13.1,10.8,24.1,20.4,33.2c11.2,2.4,23.3,3.6,36.4,3.6
			c28.8,0,56.4-5.5,82.8-16.4c11.2-4.8,22.1-11.1,32.8-18.8c10.7-7.7,19.5-16.3,26.4-25.6c6.9-9.3,10.4-18.4,10.4-27.2
			c0-12.5-11.1-22.3-33.2-29.2l-70.4-16c-14.4-3.2-25.9-8.9-34.6-17c-8.7-8.1-13-17.4-13-27.8c0-16,10-32,30-48
			c10.1-8.3,22-15.3,35.6-21c13.6-5.7,27.9-10.1,43-13.2c15.1-3.1,29.5-4.6,43.4-4.6c19.7,0,36.6,3.1,50.6,9.2
			c14,6.1,22.7,15.1,26.2,26.8c0.8,2.7,1.2,5.6,1.2,8.8c0,16.3-8.1,27.6-24.4,34c-9.9,4-18.3,6-25.2,6c-4.3,0-7.6-0.8-10-2.4
			c-0.5-0.5-0.8-1.2-0.8-2c0-1.9,3.7-2.9,11.2-3.2c4.5-0.3,8.3-0.7,11.2-1.2c2.9-0.5,5.1-1.1,6.4-1.6c10.1-5.3,15.2-13.2,15.2-23.6
			c0-5.3-1.5-10.9-4.4-16.8c-8.3-15.2-28.9-22.8-62-22.8c-12,0-24.4,1.3-37.2,3.8c-12.8,2.5-24.9,6.3-36.4,11.2
			c-11.5,4.9-21.2,11.1-29.2,18.6c-13.9,12.8-20.8,24.3-20.8,34.4c0,7.7,3.8,14.6,11.4,20.6c7.6,6,19.1,10.5,34.6,13.4L662,210
			c18.1,3.5,32.8,8.6,44,15.4c11.2,6.8,16.8,17.1,16.8,31c0,12.3-3.1,23.7-9.2,34.4c-6.1,10.7-14.3,20.2-24.6,28.6
			c-10.3,8.4-21.9,15.4-35,21c-29.6,13.1-64.5,19.6-104.8,19.6c-5.1,0-10.1-0.1-15.2-0.4c-5.1-0.3-10-0.7-14.8-1.2
			c3.7,2.1,8.5,4.3,14.2,6.4c5.7,2.1,12.3,4.1,19.8,6c0.8,0.3,1.2,0.8,1.2,1.6C554.4,374.8,551.6,376,546,376z M493.2,345.2
			c-7.2-8-12.8-16.3-16.8-24.8c-5.9-13.3-10.3-29.7-13.2-49.2c-2.1-14.1-4.4-21.2-6.8-21.2c-2.1,0-5,1.6-8.6,4.8
			c-3.6,3.2-5.4,10-5.4,20.4c0,20.3,7.2,37.9,21.6,52.8C471.2,335.5,480.9,341.2,493.2,345.2z"/>
	</g>
	<g class="st6">
		<path d="M758.4,340.4c-8.5,0-15.3-2.1-20.2-6.2c-4.9-4.1-7.4-11.5-7.4-22.2c0-6.1,1.9-13.9,5.6-23.4c3.7-9.5,8.4-19.7,14-30.6
			c5.6-10.9,11.2-21.7,16.8-32.4c-3.5,0.8-6.5,1.2-9.2,1.2c-8,0-12-3.1-12-9.2c0-2.9,1.1-5.2,3.4-6.8c2.3-1.6,4.3-2.5,6.2-2.8
			c1.3,0,2.5-0.1,3.6-0.4h23.2c4.8-6.1,9.7-12.7,14.8-19.6c7.2-9.1,12.9-14.4,17.2-16h1.2c1.9,0,4.5,0.9,8,2.8
			c4.3,2.4,6.4,4.8,6.4,7.2c0,3.5-6.4,12.4-19.2,26.8c2.4,0.3,5.9,0.4,10.4,0.4c4.5,0,10.1,0,16.8,0c3.2,0,7.8,0,13.8,0
			s12.3-0.1,18.8-0.2c6.5-0.1,12.2-0.3,17-0.4c4.8-0.1,7.5-0.2,8-0.2c0.8,0.3,1.2,0.7,1.2,1.2c0,2.4-15.7,5.6-47.2,9.6
			c-17.9,2.4-31.5,4.3-41,5.6c-9.5,1.3-14.6,2.1-15.4,2.4c-3.7,3.2-8.3,8.7-13.6,16.4c-5.3,7.7-10.7,16.4-16,26
			c-5.3,9.6-9.8,18.7-13.4,27.4c-3.6,8.7-5.4,15.4-5.4,20.2c0,4.3,1.6,7.8,4.8,10.6c3.2,2.8,8.4,4.2,15.6,4.2
			c4.8,0,10.5-1.1,17.2-3.2c6.7-2.1,13-4.6,19-7.4s10.3-5,13-6.6c6.9-4.3,14.6-9.9,23-17c8.4-7.1,16.7-15.1,25-24.2
			c3.7-3.7,6.3-5.6,7.6-5.6c0.8,0,1.2,0.5,1.2,1.6c0,2.1-2,5.6-6,10.4c-6.4,7.7-13.5,15.1-21.4,22.2c-7.9,7.1-16.6,13.5-26.2,19.4
			c-10.9,6.7-21.4,11.5-31.4,14.4C776.2,338.9,766.9,340.4,758.4,340.4z"/>
	</g>
	<g class="st6">
		<path d="M879.2,340c-6.4,0-12.8-2.3-19.2-6.8c-6.4-4.5-10-9.9-10.8-16c-2.7-20.5,10.3-44.9,38.8-73.2
			c28.3-28.3,53.7-42.4,76.4-42.4c6.1,0,10.9,1.5,14.4,4.4c1.9,1.9,3.3,4.4,4.2,7.6c0.9,3.2,1.7,4.8,2.2,4.8c1.1,0,2-0.2,2.8-0.6
			c0.8-0.4,1.7-0.6,2.8-0.6c3.2,0,6,1.2,8.4,3.6c2.4,2.4,3.7,4.5,4,6.4c0.3,0.5-8.3,13.7-25.6,39.6c-17.3,25.3-25.2,42.5-23.6,51.6
			c1.3,6.1,4.3,9.2,8.8,9.2c13.9,0,39.2-22.9,76-68.8c0.8-1.1,1.6-1.6,2.4-1.6c1.3,0,2,0.9,2,2.8c0,2.1-1.2,4.8-3.6,8
			c-33.9,45.6-59.9,68.4-78,68.4c-2.4,0-4.7-0.4-6.8-1.2c-11.7-4.5-17.6-13.3-17.6-26.4c0-4.5,0.5-9.1,1.6-13.6l-24.8,24
			c-7.5,7.5-14.2,12.8-20.2,16C887.8,338.4,882.9,340,879.2,340z M875.6,331.2c15.5,0,36.5-16.9,63.2-50.8l42.4-58.4
			c-2.1-3.7-5.6-5.6-10.4-5.6c-16.3,0-38.3,13.1-66,39.2c-28.8,26.7-41.7,48.7-38.8,66C867.3,328,870.5,331.2,875.6,331.2z"/>
	</g>
	<g class="st6">
		<path d="M1047.6,338.8c-7.7,0-14.9-1.9-21.6-5.8c-6.7-3.9-10-10.3-10-19.4c0-12.5,4.5-27.5,13.4-44.8c8.9-17.3,19.1-35.3,30.6-54
			c31.2-50.7,53.3-76,66.4-76c2.7,0,5.4,1,8.2,3c2.8,2,4.3,4.2,4.6,6.6l-28,37.6c-10.9,14.7-20.8,28.2-29.6,40.6
			c-8.8,12.4-16.4,23.5-22.8,33.4c-3.2,5.1-6.8,10.8-10.8,17.2s-7.5,13-10.6,19.8c-3.1,6.8-4.6,13.7-4.6,20.6c0,3.2,0.9,6.1,2.8,8.6
			c1.9,2.5,5.2,3.8,10,3.8c8.5,0,19.7-4.6,33.6-13.8c13.9-9.2,27.6-21.9,41.2-38.2c1.3-1.6,2.8-3.1,4.4-4.4c1.6-1.3,2.9-2,4-2
			c1.3,0,2,0.8,2,2.4c0,0.8-0.9,2.3-2.6,4.6c-1.7,2.3-3.1,4.1-4.2,5.4l-9.6,10.8c-5.3,5.9-11.7,12.3-19,19.2
			c-7.3,6.9-15.1,12.8-23.2,17.6C1064,336.4,1055.8,338.8,1047.6,338.8z"/>
	</g>
	<g class="st6">
		<path d="M1196.4,342.8c-8.8,0-16.6-2.5-23.4-7.6c-6.8-5.1-12.7-11.5-17.6-19.2c-4.9-7.7-9.1-15.5-12.6-23.2
			c-1.9,2.4-3.8,5.5-5.8,9.2c-2,3.7-4.3,8.1-7,13.2l-12.4,24.8c-9.6-3.7-14.4-8.8-14.4-15.2c0-11.5,17.5-43.3,52.4-95.6
			c33.9-50.7,57.2-80.5,70-89.6c1.3-0.8,3.5-1.2,6.4-1.2c8.3,0,12.4,2.1,12.4,6.4c0,0.8-1.9,3.7-5.6,8.6c-3.7,4.9-8.4,10.9-14,17.8
			c-5.6,6.9-11.3,13.9-17,21c-5.7,7.1-10.7,13.2-15,18.4c-4.3,5.2-6.7,8.5-7.2,9.8c24.3-12.5,43.6-18.8,58-18.8
			c5.6,0,10.7,1.6,15.4,4.8c4.7,3.2,8.3,7.1,11,11.6c2.7,4.5,3.7,8.9,3.2,13.2c-2.1,15.2-12.8,27.7-32,37.6
			c-15.5,8.3-29.6,12.4-42.4,12.4c-13.9,0-23.5-1.7-28.8-5.2c-1.6-0.3-2.9,0.1-3.8,1c-0.9,0.9-1.1,2.3-0.6,4.2
			c7.5,33.1,19.9,49.6,37.2,49.6c8.5,0,19.9-4.9,34.2-14.8c14.3-9.9,29.4-24.3,45.4-43.2c1.9-1.9,3.6-2.8,5.2-2.8c1.3,0,2,0.8,2,2.4
			c0,1.3-0.9,3.3-2.8,6c-7.7,9.3-16.7,19-27,29c-10.3,10-20.9,18.4-31.8,25.2C1217,339.4,1206.5,342.8,1196.4,342.8z M1173.2,270.8
			c12,0,27.7-4.9,47.2-14.8c22.4-11.2,33.6-23.1,33.6-35.6c0-2.1-1.2-4.3-3.6-6.4c-2.4-2.1-4.9-3.2-7.6-3.2
			c-14.4,0-31.2,5.6-50.4,16.8c-21.1,12.8-33.9,26.8-38.4,42c2.9,0,6.7,0.2,11.4,0.6C1170,270.6,1172.6,270.8,1173.2,270.8z"/>
	</g>
	<g class="st6">
		<path d="M1292.4,343.2c-8.5,0-16.3-2.7-23.2-8.2c-6.9-5.5-10.4-12.7-10.4-21.8c0-18.9,11.6-40.5,34.8-64.8
			c23.7-24.5,44.9-36.8,63.6-36.8c6.1,0,11.1,1.7,15,5c3.9,3.3,5.8,7.4,5.8,12.2c0,14.9-11.9,29.6-35.6,44
			c-21.1,12.8-38.8,19.2-53.2,19.2c-2.1,0-4-0.3-5.6-0.8c-4,7.2-6,14.8-6,22.8c0,13.9,6.5,20.8,19.6,20.8c13.3,0,30.5-8.9,51.6-26.8
			c16.3-13.1,30.1-26.9,41.6-41.6c2.4-3.2,4.5-4.8,6.4-4.8c1.6,0,2.4,0.8,2.4,2.4s-1.1,3.9-3.2,6.8c-7.5,9.9-15.5,18.9-24,27.2
			c-8.5,8.3-17.7,15.9-27.6,22.8C1323.8,335.7,1306.5,343.2,1292.4,343.2z M1294.8,283.2c10.1,0,23.3-5.1,39.6-15.2
			c5.3-3.7,10.6-7.9,15.8-12.6c5.2-4.7,9.5-9.4,12.8-14.2c3.3-4.8,5-9.1,5-12.8c0-3.5-2.8-5.2-8.4-5.2c-8,0-19.2,6-33.6,18
			c-6.9,5.9-13.6,12.3-20,19.2c-6.4,6.9-11.9,14.3-16.4,22C1291.2,282.9,1292.9,283.2,1294.8,283.2z"/>
	</g>
	<g class="st6">
		<path d="M1456.4,340c-11.5,0-19.3-3-23.6-9c-4.3-6-6.4-14.1-6.4-24.2c0-11.2,3.5-24.5,10.4-40c2.7-6.1,5.5-11.7,8.4-16.6
			c2.9-4.9,6-9.5,9.2-13.8c-1.1,0.3-2,0.4-2.8,0.4s-1.6,0-2.4,0c-6.4,0-11.7-4.5-16-13.6l-29.6,38.4c-15.7,20.5-25.3,30.8-28.8,30.8
			c-1.3,0-2-0.5-2-1.6c0-1.3,0.7-3.1,2-5.2c0.8-1.6,2.4-3.7,4.8-6.4c10.1-11.7,19.5-23.3,28-34.8c8.5-11.5,15.6-22.7,21.2-33.6
			c6.1-23.2,13.9-34.8,23.2-34.8c6.1,0,9.2,2.8,9.2,8.4c0,5.1-3.3,11.7-10,20c-6.4,8.3-9.6,12.5-9.6,12.8c0,5.6,4.1,8.4,12.4,8.4
			c4.8,0,10.1-1.7,16-5.2l10.4-6.4c0.5-0.3,1.3-0.4,2.4-0.4c3.2,0,6,1.3,8.4,4c2.4,2.7,3.2,5.1,2.4,7.2l-27.6,34.8
			c-17.1,21.9-25.6,39.5-25.6,52.8c0,12,5.9,18,17.6,18c8,0,16.6-2.4,25.8-7.2c9.2-4.8,18.1-10.7,26.8-17.8
			c8.7-7.1,15.9-13.9,21.8-20.6l9.6-11.2c0.5-0.5,1.2-1.2,2-2c0.8-0.8,1.5-1.2,2-1.2c1.9,0,2.8,0.9,2.8,2.8c0,0.5-0.3,1.5-0.8,2.8
			c-0.5,1.3-1.5,2.8-2.8,4.4l-12.8,14.4c-6.1,6.9-13.7,13.9-22.6,21c-8.9,7.1-18.1,12.9-27.6,17.4
			C1472.7,337.7,1464.1,340,1456.4,340z"/>
	</g>
</g>
</svg>
