<?xml version="1.0" encoding="UTF-8" standalone="no"?>
<!-- Created with Inkscape (http://www.inkscape.org/) -->

<svg
   width="940.59924mm"
   height="162.32292mm"
   viewBox="0 0 855.0902 147.5663"
   version="1.1"
   id="svg5"
   xml:space="preserve"
   sodipodi:docname="logo text.svg"
   inkscape:version="1.2 (dc2aedaf03, 2022-05-15)"
   xmlns:inkscape="http://www.inkscape.org/namespaces/inkscape"
   xmlns:sodipodi="http://sodipodi.sourceforge.net/DTD/sodipodi-0.dtd"
   xmlns="http://www.w3.org/2000/svg"
   xmlns:svg="http://www.w3.org/2000/svg"><sodipodi:namedview
     id="namedview71"
     pagecolor="#ffffff"
     bordercolor="#000000"
     borderopacity="0.25"
     inkscape:showpageshadow="2"
     inkscape:pageopacity="0.0"
     inkscape:pagecheckerboard="0"
     inkscape:deskcolor="#d1d1d1"
     inkscape:document-units="mm"
     showgrid="false"
     inkscape:zoom="0.28292425"
     inkscape:cx="2235.5808"
     inkscape:cy="174.95849"
     inkscape:window-width="1920"
     inkscape:window-height="991"
     inkscape:window-x="-9"
     inkscape:window-y="-9"
     inkscape:window-maximized="1"
     inkscape:current-layer="layer1" /><defs
     id="defs2"><rect
       x="642.93573"
       y="183.59619"
       width="113.08967"
       height="32.809967"
       id="rect8275" /><rect
       x="570.33496"
       y="148.69197"
       width="3953.2915"
       height="972.19666"
       id="rect8219" /></defs><g
     id="layer1"
     transform="translate(720.79485,-36.366105)"><path
       id="path451"
       style="fill:#ae6d20;fill-opacity:1;stroke-width:0.24053"
       d="m 47.887385,119.98562 -12.593076,17.12698 -3.358498,3.69392 10.075025,2.68624 0.167713,6.88471 -12.593077,9.57094 -4.701615,4.53343 0.167713,13.09716 1.175404,1.51083 4.869329,1.34359 0.839508,2.35081 0.662867,1.00722 h 7.699319 l 1.041045,-1.34312 9.570945,-4.198 21.660411,-17.12698 8.563255,-16.11929 z" /><g
       id="g182"
       transform="matrix(0.2405303,0,0,0.2405303,-71.526417,-23.333518)"><circle
         class="st0"
         cx="614.29999"
         cy="489.60001"
         r="241.39999"
         id="circle11" /><path
         class="st0"
         d="m 425,367 c 2.8,-6.3 7.3,-11.4 11.5,-16.7 3,-3.8 6,-7.6 9.1,-11.3 0.3,-0.7 0.8,-1 1.5,-0.9 H 447 c 0.8,0 1.1,-0.3 1,-1.1 0.8,0.1 1.1,-0.3 1,-1.1 l -0.1,0.1 c 0.8,0 1.1,-0.3 1,-1.1 l -0.1,0.1 c 0.7,0 1.1,-0.3 1.1,-1.1 l -0.1,0.1 c 1.3,-0.1 2,-0.8 2.1,-2.1 l -0.1,0.1 c 2.7,-1.3 4.8,-3.3 6.1,-6.1 l -0.1,0.1 c 0.7,0 1.1,-0.3 1.1,-1.1 l -0.1,0.1 c 0.8,0.1 1.1,-0.3 1.1,-1 h -0.1 c 0.8,0.1 1.1,-0.2 1.1,-1 v 0.1 c 1,0 1.1,-0.8 1.1,-1.5 6.9,-5.5 13.7,-11 20.6,-16.5 1.5,0.1 2.3,-0.7 2.7,-2 h 0.1 c 1.6,0 2.9,-0.6 3.6,-2.1 l -0.1,0.1 c 1.4,-0.1 2.5,-0.8 3.1,-2.1 l -0.1,0.1 1.1,-1.1 -0.1,0.1 c 0.8,-0.2 1.7,-0.2 2.1,-1.1 l -0.1,0.1 c 1.4,-0.1 2.5,-0.8 3.1,-2.1 l -0.1,0.1 c 0.7,-0.4 1.4,-0.7 2.1,-1.1 l -0.1,0.1 c 1,0 1.8,-0.4 2,-1.5 3.4,-0.2 4.8,-4.1 8.2,-4.4 0.7,0.8 1.4,0.4 2.2,0 9.4,-4.5 19,-8.4 28.9,-11.9 1.1,-0.4 1.7,-0.9 1.9,-2 0.2,-0.3 0.5,-0.3 0.8,-0.1 0.8,1.1 1.7,0.6 2.7,0.3 14.2,-4.2 28.6,-7.5 43.3,-8.8 10.6,-1 21.3,-2.1 32.1,-0.7 -2.9,0.1 -5.9,0.3 -8.8,0.4 9.4,1.1 18.8,-1.3 28.2,0.6 3.2,0.7 6.5,1.7 9.9,1.1 2.2,-1 3.8,0.9 5.7,1.1 2.7,1.8 6.4,0.7 9.1,2.9 -0.7,0.1 -1.3,0.2 -2.3,0.3 1.2,0.7 1.8,0.3 2.3,-0.3 3.1,-0.3 5.9,1.8 9.1,1 h -0.1 c 0.3,1.5 1.7,1.5 2.7,1.8 9.8,2.6 19,6.7 28.4,10.5 5.8,2.3 10.8,6.3 17,7.7 h -0.1 c 0.2,1.3 1,1.3 2,1.1 2.4,2.8 5.1,5 9,5 -0.5,1.8 0.9,1.7 1.9,2 10.5,6.1 20,13.4 28.6,22 0.3,0.6 0.8,1.1 1.6,1 -0.1,0.8 0.3,1.1 1.1,1 h -0.1 c -0.1,0.8 0.3,1.1 1.1,1 l -0.1,-0.1 c 0,0.8 0.3,1.1 1.1,1.1 l -0.1,-0.1 c 0.1,1.3 0.8,2 2.1,2.1 l -0.1,-0.1 c 0.7,2.1 2,3.4 4.1,4.1 l -0.1,-0.1 c 0.1,1.3 0.8,2 2.1,2.1 l -0.1,-0.1 c 0,0.7 0.3,1.1 1.1,1.1 l -0.1,-0.1 c -0.1,0.8 0.3,1.1 1,1.1 l -0.1,-0.1 c -0.1,0.8 0.2,1.1 1,1.1 -0.1,0.8 0.4,1.2 1,1.6 7.1,6.6 13.2,13.9 18,22.4 -0.1,1 0.5,1.6 1.4,2 0.2,0.3 0.4,0.7 0.6,1 0,1.1 0.6,1.7 1.5,2 0.2,0.3 0.4,0.6 0.5,1 0.3,1 0.2,2.5 2,2 0.4,4.6 3,7.9 6.1,11 0.1,0.8 0.1,1.7 0.4,2.3 6,11.3 11.1,22.9 15.2,35 0.4,1.1 0.9,1.7 2,1.9 0.3,0.2 0.3,0.5 0.1,0.8 -1.7,1.6 -0.2,3.2 0.2,4.6 7.6,26.2 10.9,52.8 9,80.2 -1.8,25.6 -7.7,50.1 -17.7,73.7 -2.9,7 -7.3,13.3 -9.3,20.7 -2.6,1.6 -3.7,4.1 -4,7 -2.1,0.6 -2.5,2.1 -2.1,4 -1.1,0 -1,0.8 -1,1.5 -6.7,10.4 -14.5,20 -22.4,29.5 -0.7,0.1 -1.5,0.1 -1.5,1.1 h 0.1 c -0.8,-0.1 -1.1,0.3 -1,1.1 v -0.1 c -0.8,-0.1 -1.1,0.3 -1,1.1 l 0.1,-0.1 c -0.7,0 -1.1,0.3 -1.1,1.1 l 0.1,-0.1 c -3.4,1.9 -6.1,4.6 -8.1,8.1 l 0.1,-0.1 c -0.7,0 -1.1,0.3 -1.1,1.1 l 0.1,-0.1 c -0.8,-0.1 -1.1,0.3 -1.1,1 h 0.1 c -0.8,-0.1 -1.1,0.2 -1.1,1 v -0.1 c -1,0 -1.1,0.8 -1.1,1.5 -2.3,1.8 -4.7,3.7 -7,5.5 -1.6,0.4 -3.3,0.7 -3,3 -1,-0.2 -1.8,-0.2 -2,1.1 h 0.1 c -2,0.1 -3.4,1.1 -4,3.1 h 0.1 c -2.1,0 -3.3,1.2 -4.1,3 l 0.1,-0.1 c -1.4,0 -2.3,0.3 -2.1,2 -2.5,-0.4 -4,1 -5,3.1 h 0.1 c -1.9,0.3 -3.8,0.5 -4.1,3 -4.6,0.3 -7.8,3.2 -11,6.1 h 0.1 c -6,2.4 -12.3,4.3 -17.1,9 -2.1,-0.7 -3.9,0.5 -5.7,1.2 -23.6,9.8 -48.2,15.7 -73.8,16.9 -3.2,0.2 -6.6,-0.1 -9.5,1.8 0.2,13.1 -2.9,25.6 -6.2,38.2 -3.3,12.7 -11.5,20.3 -22.6,25.5 -6.9,3.3 -13.2,7.7 -20,11.2 -12.5,6.4 -22,16.6 -32.9,25.1 -9.2,7.1 -16.7,16.2 -27.1,21.9 -0.7,0.4 -1.3,1.1 -2,1.4 -16,7.3 -31.5,15.7 -48.5,20.4 -6.7,1.8 -13.9,1.5 -20.9,1.1 -4.4,-0.3 -8.5,-2.1 -10.6,-5.8 -3.6,-6.1 -9.3,-8.1 -15.3,-8.9 -13.2,-1.7 -17.6,-10.5 -14.6,-22.6 0.4,-1.7 0.2,-3.3 -0.4,-4.9 -3.9,-10.9 -3.1,-21.9 -1.4,-33.1 0.9,-5.9 5.1,-9.5 8.8,-13.5 12.1,-12.9 27.2,-21.8 41.7,-31.6 11.2,-7.7 20.5,-17.3 25.2,-30.6 1.3,-3.8 -0.4,-4.3 -3.6,-4 -11.7,0.9 -22.9,-0.4 -33.1,-6.9 -7.6,-4.8 -11.8,-16.3 -8.8,-25.5 2.6,-8.3 12.6,-15.2 21.1,-14.9 7.4,0.3 14.3,2.1 20.9,5.9 1.5,-4.9 -3.6,-4.4 -4.5,-7 -0.1,-0.7 -0.2,-1.5 -1.1,-1.5 l 0.1,0.1 c 0,-0.7 -0.4,-1.1 -1.1,-1.1 l 0.1,0.1 c 0,-0.7 -0.4,-1.1 -1.1,-1.1 l 0.1,0.1 c -1.4,-2.4 -2.8,-4.8 -6,-5.1 0.2,-2.3 -1.3,-3.3 -3.2,-4 l 0.1,0.1 c 0,-0.7 -0.3,-1.1 -1.1,-1.1 l 0.1,0.1 c 0.1,-0.8 -0.3,-1.1 -1,-1.1 v 0.1 c 0.1,-0.8 -0.2,-1.1 -1,-1.1 h 0.1 c 0,-1 -0.8,-1.1 -1.5,-1.1 -5.9,-7.6 -13.2,-14.2 -17.5,-23 -0.1,-1.1 -0.6,-1.8 -1.8,-1.9 -0.1,-0.4 -0.2,-0.8 -0.3,-1.1 0,-1.1 -0.6,-1.8 -1.7,-2 -0.1,-0.3 -0.2,-0.6 -0.2,-0.9 -0.4,-1 -0.1,-2.5 -2,-2 -0.5,-4.5 -3,-7.9 -6.1,-11 v 0.1 c 0.4,-1.3 -0.4,-2.3 -0.9,-3.3 -19.2,-36 -27.5,-74.5 -26.9,-115.1 0,-2.7 1.6,-5.6 -0.5,-8.2 l 0.6,-6.6 c 1.9,-0.3 1.6,-1.7 1.8,-3 2.4,-21.7 8.2,-42.6 16.8,-62.7 2.9,-6.8 7.2,-13 9.1,-20.3 3.1,-2.7 5,-6.1 6,-10.1 v 0.1 c 1.3,-0.7 1.4,-2 1.7,-3.4 z m -16,408.9 -1,1 c -1.9,0.2 -2.9,1.2 -2.9,3.1 v -0.1 c -1.1,0.4 -1.7,1.1 -1.8,2.3 0,0.2 -0.1,0.4 -0.2,0.6 -1.7,1.5 -2.5,3.5 -3,5.5 -0.9,3.7 -2.7,7.5 0.7,10.9 -0.1,0.3 0,0.5 0.1,0.7 0.1,4.9 3.1,8.1 6.9,10.2 8.1,4.6 16.3,3.4 24.3,-0.4 3.4,-1.8 7.3,-3.3 6.8,-8.1 -0.9,-10.9 2.8,-20.6 7.9,-29.8 9.6,-17.4 23.5,-31.3 37.7,-44.8 5,-4.8 9.9,-9.9 15.6,-13.9 7.6,-5.2 13.3,-12.3 19.6,-18.8 1.4,-1.5 2.2,-3.6 -0.8,-4.7 -4.4,-1.5 -7.3,-5.1 -10.8,-7.9 -3.3,-4.5 -6.7,-9.1 -7.8,-14.8 -0.5,-2.7 -1.8,-3.2 -4.1,-1.9 -4.1,2.3 -8.8,2.9 -13.2,4.1 -1.8,0.5 -4.1,0.3 -3.2,3.5 0.2,0.9 -0.5,2.3 -1.7,2.7 -1.2,0.4 -1.7,-0.7 -2.3,-1.4 -5,-5.9 -11.4,-9.9 -18.7,-11.6 -12,-2.7 -22.4,-0.4 -28.5,11.9 -2.1,4.2 -2.9,9.1 0.6,13.4 2,3.4 3.9,6.9 8,8.4 l 6,3.6 c 2.9,2.1 6.2,3 9.7,3.1 7.9,0.2 15.6,-0.3 22,-5.8 0.9,-0.7 2.3,-1.7 3.6,-0.3 1,1 0.9,2.5 0,3.1 -3.7,2.4 -3.2,6.2 -3.8,9.7 -1.1,6.3 -3.8,11.9 -7.8,17 -8.7,11 -19.6,19.2 -31.4,26.5 -5.9,3.6 -11.9,7.1 -16.3,12.7 -3.4,1.2 -5.9,3.4 -7.1,6.9 -1.4,-0.1 -2,0.6 -2.1,1.9 -0.4,0.8 -0.7,1.1 -1,1.5 z m 84,-50 c -1.4,0.1 -2.3,0.8 -2.8,2.2 -0.2,0.2 -0.3,0.4 -0.4,0.6 -0.8,0.2 -1.4,0.5 -1.6,1.3 -0.3,0.3 -0.7,0.6 -1,1 l -1,1 c -0.3,0.3 -0.7,0.6 -1,0.9 -5.9,4.8 -11.1,10.3 -16,16.1 -1.2,0.5 -2,1.5 -2.2,2.8 -6.3,5.1 -10.4,12 -14.4,18.8 -5.5,9.1 -10.1,18.8 -9.4,30 0.7,10.9 7.6,15.6 16.1,15 8.2,-0.6 15,-5.7 20.1,-12.4 1.3,-1.2 2.8,-2.4 3.9,-3.8 9.8,-11.3 20.1,-22.2 32,-31.4 4.1,-3.1 8.6,-5.6 13.3,-7.6 1.5,-0.6 3.4,-1.3 4.3,0.8 0.8,2 -0.6,2.9 -2.3,3.7 -14.5,6.6 -25.7,17.4 -36.1,29.1 -8.5,9.6 -16.3,20.1 -29,25 -1.3,-0.1 -2.6,-0.3 -3.4,1 h 0.1 c -0.6,0.2 -1.4,0.2 -1.8,0.7 -2.9,3.9 -3.1,12.8 -0.5,16.6 3.7,5.2 12.5,8.9 17.7,7.9 10.9,-2.1 18.2,-9.7 25.4,-17.1 2.6,-2.7 5.6,-5.2 7.1,-8.8 2.7,-2.8 5.8,-5.3 8.5,-8.1 9.2,-9.6 17.9,-19.7 29.3,-26.9 5.9,-3.7 12.1,-6.9 18.6,-9.6 2,-0.8 4.6,-2.1 5.7,0.5 1.1,2.6 -2,2.8 -3.7,3.5 -3.2,1.5 -6.4,2.8 -9.5,4.3 -17,8.1 -28.8,22.1 -41.1,35.7 -5.9,4.8 -10.5,10.7 -15.1,16.8 9.6,-3 16.6,-9.6 23.3,-16.6 19.1,-16.7 39.7,-31.4 60.9,-45.3 10.8,-7.1 19,-16.9 21.1,-30.5 2.3,-1.4 2.3,-3.9 2.7,-6.1 1.7,-8.9 1.8,-17.9 0,-26.7 -2.9,-14.1 -7.9,-27.2 -19.6,-36.5 -11.2,-8.9 -24.5,-12.2 -38.4,-13.3 -2.2,-0.2 -1.8,1.4 -2,2.7 -0.4,2.9 0.1,6.1 -3,8 -0.3,-0.1 -0.6,-0.1 -0.8,-0.1 -0.4,-0.3 -0.7,-0.7 -1.1,-1 0.2,-2.1 0.5,-4.3 0.6,-6.4 0.3,-10.1 1.5,-20.2 -1.9,-30.1 -4.4,-12.9 -17.6,-17 -28.7,-8.9 -10.1,7.4 -15.5,29.1 -12,38.5 0.1,0.7 0.1,1.3 0.2,2 0.2,0.4 0.5,0.8 0.7,1.2 4.4,15.8 13.7,21.9 30.1,19.9 1.5,-0.2 3.7,-0.8 4.2,1.4 0.4,1.8 -1.3,2.3 -2.8,2.8 -9.4,3.5 -9.7,3.8 -16.8,11.3 -2.3,2.4 -4.6,4.7 -7,7 -3.2,3.1 -6.5,6.1 -9.8,9.1 v 0.1 c -1.8,0.4 -3.5,0.9 -4,3 -2,0.3 -3.1,1.6 -4,3.2 -0.3,0.3 -0.6,0.5 -0.9,0.8 -0.1,0.2 -0.5,0.6 -0.8,0.9 z m -76.2,115.9 c 5.1,3.8 10.8,1.6 16.2,1.8 3.1,-0.7 6.3,-0.9 9.1,-2.1 6.5,-2.9 13.5,-5.7 12,-15.1 -0.1,-0.8 0.1,-1.7 0.5,-2.4 1.7,-3 0.8,-4.3 -2.4,-5.3 -3.9,-1.2 -7.8,-2.9 -10,-6.9 -1.1,-2.1 -2.6,-1.8 -4.5,-0.5 -4.4,3.1 -9.2,5.1 -14.6,5.7 -4,0.2 -8.3,-0.5 -12,0.7 -4.9,1.6 -8.2,9.6 -7.1,14.6 1.1,5 6.6,9.1 12.5,9.4 z m 36.3,14 c 2.2,0 4.2,-0.3 5.9,-1.9 0.4,-0.3 0.7,-0.6 1.1,-0.9 5.7,-4.4 5.7,-4.4 0.6,-8.9 -0.9,-0.8 -1.8,-1.5 -2.4,-2.4 -2,-3 -4,-2.3 -6.5,-0.6 -5.2,3.6 -10.9,6.2 -17.2,6.9 -3.6,0.4 -3.8,2.1 -2,4.6 1.1,1.6 2.3,3.3 4.6,3.3 5.2,1.8 10.5,1.6 15.9,-0.1 z M 641.5,682.1 c -1.8,-0.2 -3.4,0.2 -4.9,1.2 -0.5,0.2 -0.9,0.4 -1.4,0.6 -5.9,1 -11.9,1.8 -17.5,4.1 -0.7,0.1 -1.4,0.1 -2.1,0.2 -1.3,-0.1 -2.7,-0.2 -4,-0.2 -2.3,0 -3,1 -2.1,3.1 2.2,5 3.8,10.3 5.2,15.6 0.3,1.2 0.4,2.7 2.3,2.7 9,-0.3 17.9,-0.7 26.8,-1.9 3.3,-0.4 3.1,-2.1 1.7,-4.4 -1.2,-2 -2.4,-4 -3.4,-6.1 -0.6,-1.2 -0.4,-2.7 1.1,-3.4 1.4,-0.6 2.1,0.5 2.7,1.5 1.6,2.6 3.6,5 4.6,7.7 1.2,3.2 3,3.6 5.8,2.9 15.2,-3.5 30.2,-7.8 44.5,-14.2 21.4,-9.6 40.7,-22.2 58.2,-37.9 20.5,-18.5 37.2,-39.7 50,-64.1 13.3,-25.4 20.8,-52.6 22.6,-81 1.8,-28.3 0,-56.3 -8.5,-83.8 -9.4,-30.6 -24.9,-57.6 -46.3,-81.1 -21.2,-23.4 -45.8,-42.3 -74.9,-55.3 -25.4,-11.3 -52,-16.9 -79.6,-18.2 -20.3,-1 -40.4,1.2 -60.3,5.6 -22.6,5.1 -43.7,13.6 -63.4,25.8 -25.4,15.8 -46.6,36.2 -64.5,60.1 -15.5,20.7 -26.6,43.6 -33.3,68.6 -6.6,24.7 -9.4,49.8 -7.2,75.5 1.5,17.4 4,34.6 9.3,51.3 5.8,18.5 14.2,35.7 24.8,52 13,19.9 29.3,37 47.2,52.4 5.2,4.5 10.5,3.9 15.9,0.6 3.3,-1.6 8.2,-1.4 8,-7.1 -0.3,-7.6 1.8,-14.7 4.7,-21.6 6.6,-15.7 21.9,-21.6 37,-14.3 5.3,4.8 7.9,10.8 9.4,17.6 1.1,5.2 0.7,10.3 0.8,15.4 0.1,2.7 0.7,3.7 3.6,3.9 10.7,0.7 21.1,2.8 30.4,8.3 4.6,2.7 8,1.9 11.9,-0.3 l 3.9,-2.1 c 16.2,-8 30.3,-18.9 43.1,-31.7 13.4,-13.5 24.6,-28.7 34,-45.1 6.3,-11.1 12.3,-22.4 15.3,-35 8.4,-23.3 7.7,-46.1 -3.4,-69.4 -5.2,8 -7,16.1 -8.7,24.3 -0.3,1.6 -0.2,3.8 -2.4,3.7 -2.9,-0.2 -1.8,-2.8 -1.7,-4.3 0.5,-7 2.7,-13.7 5.6,-20.1 6.6,-14.8 21.6,-22.3 37.4,-18.6 2.7,0.6 7.9,0 7.3,2.9 -1,4.4 -5.7,1.5 -8.6,1 -8,-1.4 -15.2,0 -22,4.2 -3,1.8 -3.8,3.9 -1.9,7.4 4,7.2 5.7,15.1 7.3,23.2 1,4.7 -0.5,9.7 2.5,14.1 10.1,15.1 13.4,32.3 14.3,50.1 0.5,9.2 -0.6,18.3 -1.3,27.4 -2.7,8.6 -4.6,17.5 -8.6,25.7 -13.3,27.6 -33.3,48 -62.6,58.6 -1.7,0.4 -3.6,0.4 -4.8,2 z m -8.4,-34.8 c -3.3,0.1 -4.9,3.1 -7.2,4.8 -9.7,7 -20.1,12.7 -30.8,18 11,14.2 11,14.5 27.4,11.7 8.7,-1.5 17.6,-3.1 25.4,-7.9 1.6,-0.1 3.1,-0.3 4,-1.8 1.8,0.4 3.2,-0.7 4.6,-1.4 16.8,-8.6 29.9,-21.3 40.4,-36.7 l 3.9,-6.9 c 5.7,-10.6 9.4,-21.6 11.5,-33.6 1.9,-11 1.9,-21.8 1.5,-32.7 -0.5,-12.1 -3.9,-23.7 -10.6,-35.6 -1.5,14 -4.4,26.3 -9.5,38 -3.7,8.5 -7.9,16.8 -11.9,25.1 -1.3,1.9 -2.5,3.8 -3.8,5.7 -11.4,18.3 -24.9,34.8 -41,49.2 -1.3,1.3 -2.6,2.7 -3.9,4.1 z"
         id="path13" /><path
         class="st1"
         d="m 491.1,662.1 c -5.4,3.2 -10.7,3.9 -15.9,-0.6 C 457.2,646 441,629 428,609.1 c -10.6,-16.2 -19,-33.5 -24.8,-52 -5.2,-16.7 -7.8,-33.9 -9.3,-51.3 -2.2,-25.6 0.5,-50.8 7.2,-75.5 6.7,-24.9 17.8,-47.9 33.3,-68.6 17.9,-23.9 39,-44.4 64.5,-60.1 19.6,-12.2 40.7,-20.7 63.4,-25.8 19.9,-4.5 40,-6.6 60.3,-5.6 27.5,1.3 54.2,6.9 79.6,18.2 29.1,12.9 53.7,31.9 74.9,55.3 21.4,23.5 36.9,50.6 46.3,81.1 8.5,27.4 10.3,55.5 8.5,83.8 -1.8,28.4 -9.2,55.6 -22.6,81 -12.8,24.4 -29.5,45.6 -50,64.1 -17.5,15.7 -36.8,28.3 -58.2,37.9 -14.3,6.4 -29.3,10.7 -44.5,14.2 -2.7,0.6 -4.6,0.2 -5.8,-2.9 -1,-2.8 -3,-5.2 -4.6,-7.7 -0.6,-1 -1.3,-2.1 -2.7,-1.5 -1.5,0.7 -1.6,2.2 -1.1,3.4 0.9,2.1 2.1,4.1 3.4,6.1 1.5,2.3 1.6,4 -1.7,4.4 -8.9,1.2 -17.9,1.5 -26.8,1.9 -1.9,0.1 -2,-1.4 -2.3,-2.7 -1.5,-5.3 -3,-10.6 -5.2,-15.6 -0.9,-2.1 -0.2,-3.2 2.1,-3.1 1.3,0 2.7,0.1 4,0.2 -0.3,2 1.2,1.4 2.2,1.7 6.4,1.7 12.9,0.6 19.3,0.1 10.4,-0.8 20.6,-2.9 29.9,-8 1.4,0 2.8,0 3,-1.9 l 0.1,-0.1 c 1.2,0 2.2,-0.4 3.3,-1 4.5,-2.4 8,-5.9 11.7,-9.3 5.1,-4.8 9.8,-9.9 15.9,-13.8 4.9,-3.2 4.8,-10 6.9,-15.2 l 3,-6.9 c 4.5,0.9 0.2,5.9 4.3,8 -1.5,-6 1.8,-9.1 5.6,-12.4 5.7,-4.8 10.2,-10.6 8.3,-19.1 -0.8,-3.9 1.7,-7.4 4.6,-9.3 6.8,-4.5 9.1,-12.1 13.7,-18.1 1.7,-2.2 4.5,-4.2 4.4,-7.1 -0.3,-6.2 3.7,-9.6 7.3,-13.5 1,-1.1 2.5,-2.2 1.6,-3.8 -3.5,-6.3 1.6,-11.2 3.5,-16.1 1.2,-3.1 2.9,-6 2.9,-9.5 v -16.5 c 0,-1.7 -0.1,-3.3 0.7,-4.9 4.2,-7.9 2.3,-16.5 2.1,-24.7 -0.1,-5.7 -1.4,-11.5 -3,-17 -1.2,-4 1.8,-8 -0.6,-11.7 -3.1,-4.7 -3.7,-10 -4.2,-15.4 -0.1,-0.8 -0.4,-1.8 -1,-2.2 -5.3,-3.6 -6.9,-9 -7.9,-14.8 -0.2,-1.1 -0.9,-2.2 -1.7,-2.9 -2.8,-2.4 -4.2,-5.5 -5.2,-8.9 -0.4,-1.5 -0.9,-2.8 -2.1,-3.9 -7.9,-7 -13.1,-16.2 -20.5,-23.8 -6.5,-6.6 -13.1,-13.1 -20.1,-18.8 -9.9,-8 -21.1,-14.2 -33.5,-17.8 -0.9,-0.2 -1.8,-1.1 -2.2,-1.9 -1.9,-3.6 -5,-4 -8.5,-3.8 -2.7,0.2 -5.6,0.1 -7.4,-2 -2.4,-2.8 -5.2,-3.2 -8.5,-3 -3.5,0.2 -7,-0.1 -9.3,-3.5 -0.5,-0.7 -1.8,-1.5 -2.5,-1.3 -5.8,1.2 -12.3,-0.5 -17.4,4.3 -3.4,3.2 -8.8,2.1 -11.4,-1.8 -2,-3 -4.6,-3.4 -8.8,-1.4 0.8,1.3 2.1,0.7 3.1,0.8 1.1,0.2 2.4,-0.2 3,1.2 0.3,0.8 0.3,1.7 -0.5,2.3 -1,0.7 -2.6,0.9 -3.3,0.1 -2.6,-2.9 -4.7,-0.6 -7,0.4 -0.6,-0.1 -1.3,-0.1 -1.9,-0.2 -3.2,-5.2 -8.3,-3.6 -13,-3.9 -7.3,-2.9 -15.1,-3.4 -22.8,-3.8 -11.1,-0.6 -22.4,-1.1 -33.5,1.7 -5.7,1.4 -11.5,2.2 -17.1,4.1 -3.1,-0.3 -6.1,-0.7 -9.4,-1.1 0.6,1.7 0.1,3.4 -0.4,5.1 -1.6,0.2 -3.5,-0.5 -4,2 -0.6,0.4 -1.1,0.8 -1.7,1.1 -23.6,11.4 -40.9,29.6 -54,51.7 -12.4,20.9 -19.4,44 -23.8,67.7 -3.6,18.8 -3,38 -2.1,57.1 0,0.8 -0.1,1.6 -0.1,2.5 -0.5,10.6 -0.8,21.2 1,31.7 0.5,2.8 1,6.5 5,2.4 2.4,5 2.3,10.8 5.2,15.1 8.1,-5.5 16.6,-10.6 15.7,-22.1 0,-0.6 0.5,-1.2 0.7,-1.9 0.5,-1.7 -0.1,-2.7 -1.6,-3.6 -7.1,-4.5 -9.8,-4.3 -15.7,1.5 -0.6,0.5 -1.4,0.8 -2.1,1.2 -0.6,-2 0.1,-3.9 0.6,-5.9 1.7,-7 2.1,-7.3 9.2,-5.4 4.8,1.3 9.5,3.2 14.3,4 4.1,0.7 4.2,2.1 2.4,5.2 -4.6,7.5 -4.5,15.4 -1.8,23.5 2.5,7.2 6.8,13.3 11.9,18.9 9.8,10.9 21.8,16.5 36.7,15.3 15.3,-1.2 28,-15.7 26.2,-30.2 -0.9,-7.9 -0.9,-7.9 6.8,-10.2 0.8,3 -2,3.9 -3.3,5.6 -1,1.3 -2.7,2.2 -2,4.2 1.3,3.6 0.7,7.3 0.7,10.9 -0.2,17.6 -12.3,28 -29,27.5 -11.6,-0.4 -22.6,-3.5 -32.1,-10.6 -1.8,-1.3 -3.5,-1.7 -5.9,-1.7 -5,0 -10.2,-0.6 -15,-2.4 -1.8,-0.7 -4.1,-2.7 -5.3,-1.4 -1.8,1.8 0.9,3.8 1.6,5.7 0.2,0.6 0.9,1 1.2,1.6 6.9,11.1 15.3,21 24.7,30 9,8.7 17.9,17.7 29.4,23.6 1.5,1.2 4.5,2.6 5.7,5.5 z M 812.9,572 c 3,-5.8 4.2,-12.2 5.9,-18.4 7.3,-27 9.3,-54.6 7.8,-82.3 -0.6,-10.7 -2.9,-21.2 -5.2,-31.8 -1.3,-6 -3.9,-11.5 -5.2,-17.5 1.2,-1.2 0.1,-2.2 -0.4,-3.1 -4.1,-7 -5.7,-15 -9.1,-22.2 -2.7,-5.6 -4.3,-12.1 -9.9,-16.4 -1.8,2.4 -1.9,4.8 -1.9,7.3 0,10.5 0.3,21 -0.1,31.5 -0.3,9.9 0.4,19.4 2.5,29.3 1.7,8 4.3,16.1 3.8,24.7 -0.6,11.1 0,22.3 -0.2,33.5 -0.1,4.8 -0.6,9.6 -1.1,14.4 -1.6,15.4 -3.1,30.9 -4.9,46.3 -0.7,6 0.8,11.9 0,17.8 -0.6,4.2 -1,8.2 0.1,12.3 0.3,1.1 0.1,2.4 1.7,2.6 1.1,0.1 1.7,-0.4 2.3,-1.4 5.4,-8.6 11.6,-16.6 13.9,-26.6 z M 605.7,335.3 c 2.2,0.4 4.6,1.6 7.3,-0.5 -2.9,-1 -5.1,-1 -7.3,0.5 z m -18,-0.8 c -0.1,0.3 -0.2,0.6 -0.4,0.8 0.3,0.1 0.6,0.4 0.8,0.3 0.2,-0.1 0.3,-0.5 0.4,-0.8 -0.2,-0.1 -0.5,-0.2 -0.8,-0.3 z"
         id="path15" /><path
         class="st2"
         d="m 589,340 c 2.3,-0.9 4.4,-3.3 7,-0.4 0.7,0.8 2.2,0.6 3.3,-0.1 0.8,-0.5 0.8,-1.4 0.5,-2.3 -0.5,-1.5 -1.9,-1.1 -3,-1.2 -1.1,-0.1 -2.3,0.4 -3.1,-0.8 4.2,-2 6.8,-1.5 8.8,1.4 2.6,3.9 8.1,5 11.4,1.8 5.1,-4.8 11.6,-3.1 17.4,-4.3 0.7,-0.1 2,0.6 2.5,1.3 2.3,3.4 5.7,3.7 9.3,3.5 3.3,-0.2 6.1,0.2 8.5,3 1.9,2.2 4.7,2.2 7.4,2 3.5,-0.2 6.6,0.2 8.5,3.8 0.4,0.8 1.4,1.6 2.2,1.9 12.4,3.6 23.7,9.8 33.5,17.8 7.1,5.7 13.7,12.3 20.1,18.8 7.4,7.5 12.6,16.8 20.5,23.8 1.2,1.1 1.7,2.4 2.1,3.9 1,3.4 2.3,6.5 5.2,8.9 0.8,0.7 1.6,1.9 1.7,2.9 1,5.8 2.6,11.3 7.9,14.8 0.6,0.4 0.9,1.4 1,2.2 0.5,5.4 1.1,10.7 4.2,15.4 2.4,3.6 -0.5,7.7 0.6,11.7 1.6,5.5 2.9,11.3 3,17 0.2,8.2 2.1,16.8 -2.1,24.7 -0.8,1.6 -0.7,3.2 -0.7,4.9 v 16.5 c 0,3.5 -1.7,6.4 -2.9,9.5 -1.9,4.9 -6.9,9.8 -3.5,16.1 0.9,1.6 -0.6,2.7 -1.6,3.8 -3.6,3.9 -7.6,7.3 -7.3,13.5 0.1,2.9 -2.7,4.9 -4.4,7.1 -4.6,5.9 -6.9,13.6 -13.7,18.1 -2.9,1.9 -5.4,5.4 -4.6,9.3 1.9,8.5 -2.7,14.2 -8.3,19.1 -3.8,3.3 -7.1,6.3 -5.6,12.4 -4.1,-2 0.2,-7.1 -4.3,-7.9 3.3,-9.2 6.7,-18.3 7.6,-28.1 0.3,-3.4 1.6,-6.8 -0.8,-10 0.7,-9.1 1.8,-18.2 1.3,-27.4 -0.9,-17.8 -4.2,-34.9 -14.3,-50.1 -3,-4.4 -1.5,-9.4 -2.5,-14.1 -1.7,-8 -3.3,-16 -7.3,-23.2 -1.9,-3.5 -1.1,-5.5 1.9,-7.4 6.8,-4.2 14,-5.7 22,-4.2 2.9,0.5 7.6,3.4 8.6,-1 0.6,-2.9 -4.6,-2.3 -7.3,-2.9 -15.7,-3.7 -30.8,3.8 -37.4,18.6 -2.8,6.4 -5,13 -5.6,20.1 -0.1,1.6 -1.2,4.2 1.7,4.3 2.2,0.1 2,-2.1 2.4,-3.7 1.7,-8.1 3.5,-16.2 8.7,-24.3 11.1,23.3 11.8,46.1 3.4,69.4 -3.3,-0.8 -2.3,-3 -1.6,-5.1 0.3,-0.8 1.7,-1.6 0.5,-2.5 -1.2,-1 -2.1,0.2 -3.1,0.8 -1.7,0.9 -2.2,2.3 -2.1,4.1 0.1,2.1 -1.7,4.3 -2.9,4 -6.9,-1.9 -11.3,6.8 -18.2,4 -3.7,5.4 -2.7,-3.6 -5.9,-2 -1,0.5 -0.2,-2.8 0.2,-4.1 3,-8.8 4.7,-18 4.7,-27.3 0,-13.1 -1.9,-26.1 -7.9,-38.1 -0.7,-1.5 -1.6,-3.1 -0.4,-4.7 1.7,-2.3 2.7,0.6 4.2,0.7 1.5,0.1 2.9,0.7 4.3,1 0.6,1.8 -1.5,2.8 -1.4,4.3 0.9,0.7 1.7,0.5 2.5,0.2 7.8,-3 14,-8.5 20.1,-13.8 5.9,-5.2 13.1,-7.6 19.6,-11.3 2.3,-1.3 3.3,-4.6 6.5,-4.5 2,0.1 3.9,-0.7 3.3,-3.1 -0.5,-2.2 -0.4,-5 -4.3,-4.8 -5.5,0.3 -11,-0.1 -16.5,-0.2 2.2,-2 4.9,-2 7.5,-1.7 4,0.5 4.9,-1.5 4.5,-5 -1,-8.4 -6.9,-13.5 -16.4,-15.1 -6.1,-1 -11.8,1.4 -17.7,1.9 3,-2.5 7,-4.6 4.9,-9.5 -1.4,-3.3 -2.9,-6.6 -4.8,-9.6 -3.2,-5.3 -7.4,-9.9 -11,-14.8 -5.5,-7.6 -12.1,-14 -19,-20.1 -3.7,-3.3 -6.6,-7.8 -11.6,-9.4 -5.7,-1.9 -8.1,-9.1 -14.9,-8.9 -2,-4.6 -6.8,-4.7 -10.4,-6.6 C 600.5,346 594,344.3 589,340 Z"
         id="path17" /><path
         class="st1"
         d="m 672.9,428 c 5.9,-0.6 11.6,-2.9 17.7,-1.9 9.5,1.5 15.4,6.6 16.4,15.1 0.4,3.5 -0.5,5.4 -4.5,5 -2.6,-0.3 -5.4,-0.3 -7.5,1.7 -2.2,2.1 -5.3,0.3 -7.6,1.6 -10.5,6 -19.3,13.4 -20.7,26.5 -2.3,0.8 -1.5,2.6 -1.5,4.2 0,0.3 0,0.6 -0.1,0.9 -1.4,-0.4 -2.9,-0.9 -4.3,-1 -1.4,-0.1 -2.5,-3.1 -4.2,-0.7 -1.2,1.6 -0.3,3.2 0.4,4.7 6,12 7.9,24.9 7.9,38.1 0,9.2 -1.7,18.4 -4.7,27.3 -0.5,1.3 -1.2,4.7 -0.2,4.1 3.2,-1.6 2.3,7.4 5.9,2 6.9,2.8 11.3,-5.9 18.2,-4 1.3,0.3 3,-1.9 2.9,-4 -0.1,-1.8 0.5,-3.2 2.1,-4.1 1,-0.6 1.9,-1.8 3.1,-0.8 1.1,0.9 -0.2,1.7 -0.5,2.5 -0.8,2.1 -1.7,4.2 1.6,5.1 -3,12.6 -9,23.9 -15.3,35 -9.4,16.5 -20.6,31.6 -34,45.1 -12.7,12.8 -26.9,23.6 -43.1,31.7 -1.3,0.7 -2.7,1.4 -3.9,2.1 -3.9,2.2 -7.3,3 -11.9,0.3 -9.2,-5.4 -19.7,-7.6 -30.4,-8.3 -2.9,-0.2 -3.6,-1.3 -3.6,-3.9 -0.1,-5.1 0.4,-10.2 -0.8,-15.4 -1.5,-6.9 -4.2,-12.9 -9.4,-17.6 1.2,-0.7 1.4,-1.8 1,-3 -0.4,-1.2 -2.5,-2.3 0,-3.5 1.6,-0.8 2.8,-0.5 3.9,0.8 2.8,3.2 4.9,1.1 6.1,-1.4 1.5,-3 3.6,-4.4 6.6,-5.4 3.7,-1.3 7.2,-3.5 10.9,-4.7 11.1,-3.6 19.9,-13.2 32.8,-12.5 -10.5,-4 -18.4,-11 -24.9,-19.4 -5,-6.5 -9,-13.7 -9.9,-22.2 2.1,3.5 4.2,7.2 6.5,10.6 18.1,27.2 51.2,28.3 70.4,2 16.9,-23.2 18.3,-48.8 9.7,-75.6 -2.2,-6.9 -6.8,-12.4 -9.8,-18.9 1.6,-0.2 2.7,-0.4 2.1,-2.7 -0.7,-2.9 -0.3,-5.8 0.8,-8.7 4.1,-11.1 11.9,-18.8 21.9,-24.6 1.5,0.2 3,0.3 3.2,-1.8 0.1,-0.3 0.4,-0.3 0.7,-0.3 z"
         id="path19" /><path
         class="st2"
         d="m 547.1,671 c 0.3,0 0.6,0 0.8,0.1 0.5,2.2 -1.1,5.4 1.6,6.3 5.7,2 11,4.6 15.8,8.1 0.8,0.6 2,0.7 2.8,0 1.1,-0.9 0.2,-1.9 -0.2,-2.6 -1.9,-3.5 0,-6.2 2.5,-7.6 3.5,-1.9 7.4,-3.6 11.6,-1.3 -2.7,2.5 -2.5,4.6 -0.7,8 3.8,6.9 7.7,13.7 9.8,21.5 2,7.6 6.4,14.4 9.4,21.6 1.6,3.9 5.2,6.9 4.6,11.9 -0.3,2.4 1.6,1.2 2.8,0.9 -0.2,1.8 -1.4,3.5 0.2,5.2 -2.1,13.6 -10.3,23.4 -21.1,30.5 -21.2,13.9 -41.7,28.7 -60.9,45.3 -2.7,-3 -5.5,1.5 -8.2,-0.2 12.2,-13.6 24.1,-27.5 41.1,-35.7 3.1,-1.5 6.3,-2.9 9.5,-4.3 1.7,-0.8 4.7,-0.9 3.7,-3.5 -1.1,-2.6 -3.7,-1.3 -5.7,-0.5 -6.4,2.7 -12.6,5.8 -18.6,9.6 -11.4,7.2 -20.1,17.3 -29.3,26.9 -2.7,2.9 -5.8,5.3 -8.5,8.1 -0.2,-2.7 -4,-6 -4.8,-4.5 -2.9,5.8 -9.6,6.8 -13.5,11.2 -1,1.2 -0.3,3.5 -2.2,3.6 -6.8,0.5 -9.7,7.6 -16.2,9.4 -3.2,0.9 -5.7,2.4 -8.3,0.3 -2.8,-2.2 -6.5,-4.5 -4.6,-9.3 2.8,-0.6 1.8,2.8 3.4,3.4 1.5,-2.1 3.3,-3.5 7.6,-5.7 0.3,-0.1 0.7,-0.3 0.8,-0.5 3.4,-6 10.3,-7.9 14.4,-13.3 5.5,-7.3 15.2,-9.5 20.9,-17.3 4,-5.5 12.5,-7 15.7,-14 0.2,-0.4 1.2,-0.4 1.8,-0.7 4.4,-2.5 8.9,-6.2 9.2,-10.7 0.4,-6.8 3.8,-11.3 7.6,-16 6.1,-7.8 2.5,-25 -6.4,-29.3 -5.7,-2.7 -12,-3.7 -18.3,-3.4 -2.7,0.1 -3.7,-0.5 -4.3,-2.6 -0.7,-2.8 -2.4,-3.4 -4.9,-2.5 -1.8,0.6 -3.6,0.6 -5.4,0.4 3.3,-3 6.6,-6 9.8,-9.1 2.4,-2.3 4.8,-4.6 7,-7 7,-7.6 7.4,-7.9 16.8,-11.3 1.5,-0.5 3.2,-1 2.8,-2.8 -0.5,-2.2 -2.6,-1.6 -4.2,-1.4 -16.4,2 -25.7,-4.1 -30.1,-19.9 -0.2,-0.4 -0.5,-0.8 -0.7,-1.2 -0.1,-0.7 -0.1,-1.3 -0.2,-2 2.1,-2.5 -1.6,-5.6 1,-8.1 0.4,0.7 0.8,1.4 1.1,2.2 0.9,2.4 2,3.7 3.7,0.6 1.6,-2.8 6,-3.8 5.4,-8.1 -0.1,-0.9 0.7,-1.6 1.6,-1.5 2.7,0.1 3.2,-1.5 3.4,-3.7 0.2,-2.4 1.8,-4.1 3.2,-5.9 3.1,-4.1 6.6,-8.1 7.6,-13.4 1.6,0 3,0.7 4.1,1.7 2.3,2.2 5.3,6.5 3.4,7.9 -3.5,2.5 -3.5,6.5 -5.9,9.1 -6.4,7.1 -10.5,15.6 -15.2,23.7 -0.7,1.2 -2.3,3.1 -0.7,3.9 1.8,0.9 3.4,3.4 6.2,2.1 5.5,-2.6 10.8,-2 16.1,0.8 2.2,1.2 4.8,1.6 4.4,-2.4 -0.2,-2.3 1.4,-1.7 2.6,-1.9 0.6,0.2 0.9,0.6 1.3,0.9 z"
         id="path21" /><path
         class="st2"
         d="m 567.4,547.8 c 1,8.4 4.9,15.7 9.9,22.2 6.5,8.4 14.4,15.4 24.9,19.4 -13,-0.6 -21.8,8.9 -32.8,12.5 -3.8,1.2 -7.2,3.5 -10.9,4.7 -3,1 -5.2,2.5 -6.6,5.4 -1.2,2.5 -3.3,4.6 -6.1,1.4 -1.2,-1.3 -2.3,-1.6 -3.9,-0.8 -2.5,1.2 -0.4,2.3 0,3.5 0.4,1.2 0.2,2.3 -1,3 -15.1,-7.4 -30.4,-1.4 -37.1,14.3 -2.9,7 -5,14 -4.7,21.6 0.3,5.7 -4.7,5.5 -8,7.1 -1.2,-3 -4.2,-4.3 -6.5,-5.5 -11.5,-5.9 -20.3,-14.8 -29.4,-23.6 -9.4,-9 -17.8,-18.9 -24.7,-30 -0.3,-0.6 -1,-1 -1.2,-1.6 -0.6,-1.9 -3.4,-3.9 -1.6,-5.7 1.2,-1.2 3.5,0.8 5.3,1.4 4.8,1.8 10,2.4 15,2.4 2.4,0 4.1,0.4 5.9,1.7 9.5,7.1 20.5,10.2 32.1,10.6 16.7,0.5 28.8,-9.9 29,-27.5 0,-3.6 0.6,-7.3 -0.7,-10.9 -0.7,-2 1,-2.9 2,-4.2 1.3,-1.7 4.1,-2.6 3.3,-5.6 3.5,-4.8 3.8,-10 1.8,-15.5 l -6.6,-17.7 c 1.7,-0.8 0.9,-4.4 3.1,-3.7 1.3,0.4 2,3 2.9,4.7 0.5,1 0.1,3.7 1.4,2.8 2.5,-1.8 2.7,1.2 4.1,1.3 1.5,-2 -0.2,-3.1 -0.8,-4.5 -0.7,-1.5 -1,-3.4 0.4,-4.6 1.5,-1.2 2.7,-0.1 3.7,1.3 0.9,1.2 2.2,1.2 3.6,1.3 0,0.6 0,1.1 0.1,1.7 -0.6,0.3 -1.1,0.8 -0.7,1.4 0.7,1 1.2,0.2 1.7,-0.4 1.9,4.2 3.6,8.5 5.7,12.6 5.8,11.4 9.8,12.2 19.6,4.6 2.6,-0.4 5.2,-0.9 7.8,-1.3 z"
         id="path23" /><path
         class="st3"
         d="m 502.9,717.8 c 1.8,0.2 3.6,0.2 5.4,-0.4 2.5,-0.9 4.2,-0.2 4.9,2.5 0.6,2.1 1.6,2.7 4.3,2.6 6.2,-0.3 12.6,0.7 18.3,3.4 8.9,4.3 12.5,21.5 6.4,29.3 -3.7,4.8 -7.1,9.2 -7.6,16 -0.3,4.5 -4.8,8.2 -9.2,10.7 -0.5,0.3 -1.6,0.3 -1.8,0.7 -3.3,7 -11.7,8.5 -15.7,14 -5.7,7.8 -15.4,10 -20.9,17.3 -4.1,5.3 -11,7.3 -14.4,13.3 -0.1,0.3 -0.5,0.4 -0.8,0.5 -4.3,2.2 -6.2,3.6 -7.6,5.7 -1.7,-0.6 -0.7,-4 -3.4,-3.4 0.5,-3.4 0.3,-6.8 1.5,-10 h -0.1 c 1.3,0.3 2.5,-0.1 3.4,-1 12.6,-4.9 20.4,-15.4 29,-25 10.4,-11.7 21.6,-22.5 36.1,-29.1 1.7,-0.8 3.1,-1.7 2.3,-3.7 -0.9,-2.1 -2.8,-1.4 -4.3,-0.8 -4.7,2 -9.2,4.5 -13.3,7.6 -2.9,-1.2 -2.5,-4.9 -5.1,-6.4 -7.8,-4.7 -8,-12.2 -6.9,-20 0.2,-1.1 1.4,-2.3 -0.1,-3 -1.3,-0.6 -2,0.9 -2.8,1.6 -5.3,4.9 -8.6,11.2 -13,16.7 -10.4,12.6 -19.9,25.8 -29.5,38.9 -0.9,1.2 -1.7,2.8 -3,3.3 -3.6,1.4 -4.6,3.6 -3.4,7.2 0.7,2.1 -1.5,1.6 -2.6,2 -6.1,-8.8 -3.1,-17.9 -0.2,-26.5 3.7,-10.7 11.5,-19.1 18.1,-28.1 1.5,0.2 1.9,-0.5 1.6,-1.8 l 0.3,-0.3 c 0.9,0.2 1.5,-0.1 2,-0.9 3.3,-5.1 7.5,-9.4 11.8,-13.6 1.2,-1.1 2.5,-2.2 2.3,-4.1 0.3,-0.3 0.7,-0.6 1,-0.9 l 1,-1 c 0.3,-0.3 0.7,-0.6 1,-1 0.8,-0.1 1.5,-0.4 1.6,-1.3 0.1,-0.2 0.3,-0.4 0.4,-0.6 1.4,-0.1 2.8,-0.3 2.8,-2.2 l 1.1,-1.1 c 0.3,-0.3 0.6,-0.5 0.9,-0.8 2.1,-0.1 4.4,0.1 4,-3.2 2.1,-0.4 4.1,-0.4 4.2,-3.1 z"
         id="path25" /><path
         class="st2"
         d="m 419.1,766 c 4.4,-5.6 10.4,-9.1 16.3,-12.7 11.8,-7.3 22.7,-15.5 31.4,-26.5 4,-5.1 6.6,-10.7 7.8,-17 0.6,-3.5 0.1,-7.3 3.8,-9.7 1,-0.6 1,-2.1 0,-3.1 -1.3,-1.4 -2.7,-0.5 -3.6,0.3 -6.4,5.5 -14.1,6 -22,5.8 -3.5,-0.1 -6.8,-1 -9.7,-3.1 3.5,-0.1 7.1,0.6 11.2,-0.4 -7.6,-5.9 -15.3,-10.2 -21.4,-16.7 -1.9,-2.1 -2.7,0.6 -4,1.2 -0.3,-0.7 -0.8,-1.5 -0.9,-2.2 0,-2.9 0.1,-5.9 3.1,-7.3 2.9,-1.3 4.9,-0.5 6.9,2.4 1.1,1.6 3,3.7 4.8,4.5 7.3,3.3 12.6,9.5 19.4,13.5 6.7,4 8.9,3.6 12,-4.3 0.5,-1.2 0.9,-2.9 2.6,-2.5 5.8,1.4 10.3,-3.4 16.1,-2.8 5.3,0.5 11.1,-2.7 15.7,2.4 0.1,0.1 0.5,-0.2 1,-0.5 0,-1.9 -3.8,-2.9 -1.5,-5.4 3.5,2.8 6.3,6.4 10.8,7.9 3,1 2.2,3.2 0.8,4.7 -6.3,6.5 -12,13.5 -19.6,18.8 -5.7,3.9 -10.5,9.1 -15.6,13.9 -14.2,13.5 -28.1,27.4 -37.7,44.8 -5.1,9.2 -8.8,18.9 -7.9,29.8 0.4,4.8 -3.5,6.3 -6.8,8.1 -0.5,-2.8 1.5,-3.7 4.5,-4.8 -6,-2 -3.3,-4.2 -0.2,-6.7 -5.6,0.1 -6.7,-2.7 -6.3,-6.8 0.2,-2.3 0,-4.6 -0.9,-6.9 -0.3,-0.9 0,-2.3 -1.4,-2.2 -0.7,0 -1.7,0.8 -1.9,1.4 -2.3,5.9 -7.9,9.6 -10.3,15.6 -2.1,5.3 -8.1,6 -12.4,2.3 -0.7,-0.7 -1.6,-1.2 -2.4,-1.8 -0.1,-0.2 -0.2,-0.5 -0.1,-0.7 0.1,-0.5 0.2,-0.9 0.3,-1.4 3,2.1 5,1.7 6,-2.1 0.2,-0.7 0.8,-1.4 1.2,-2.1 5.8,-8.5 12.5,-16.5 17.5,-25.5 0.7,-1.2 1.7,-2.3 0.8,-3.5 -1.1,-1.5 -2.3,-0.4 -3.4,0.4 -1.1,1 -2.5,1 -4,0.9 z"
         id="path27" /><path
         class="st4"
         d="m 637.1,643.1 c 16.1,-14.3 29.6,-30.9 41,-49.2 2.6,-0.8 3,1.6 3.8,2.9 4.7,7.6 8,15.9 11.2,24.2 1.6,4.1 3.8,8.1 3.8,12.8 -10.6,15.4 -23.6,28.2 -40.4,36.7 -1.5,0.7 -2.8,1.8 -4.6,1.4 -1.6,-2.5 -3.4,-4.9 -4.9,-7.5 -4,-6.7 -8.6,-13.3 -9.9,-21.3 z m 44.8,-54.9 c 4,-8.4 8.2,-16.6 11.9,-25.1 5.1,-11.7 8.1,-24 9.5,-38 6.7,11.9 10.1,23.5 10.6,35.6 0.4,10.9 0.3,21.8 -1.5,32.7 -2,12 -5.8,23 -11.5,33.6 -1.5,-1.3 -1.7,-3.2 -2.4,-4.9 -4.6,-11.8 -9.2,-23.5 -16.6,-33.9 z"
         id="path29" /><path
         class="st2"
         d="m 449,808.2 c 1.1,-0.4 3.3,0.1 2.6,-2 -1.2,-3.7 -0.3,-5.8 3.4,-7.2 1.2,-0.5 2.1,-2.1 3,-3.3 9.6,-13.1 19.2,-26.3 29.5,-38.9 4.5,-5.4 7.8,-11.8 13,-16.7 0.8,-0.7 1.5,-2.2 2.8,-1.6 1.5,0.7 0.3,2 0.1,3 -1.2,7.9 -1,15.3 6.9,20 2.6,1.6 2.2,5.3 5.1,6.4 -12,9.1 -22.2,20 -32,31.4 -1.2,1.4 -2.6,2.5 -3.9,3.8 -5.3,-4.7 -5.2,-4.7 -10.6,0.7 -2.4,2.4 -5,4.7 -7.7,6.7 -5.4,3.8 -10,2.8 -12.2,-2.3 z"
         id="path31" /><path
         class="st1"
         d="m 508.1,682 c -2.2,2.5 1.6,3.4 1.5,5.4 -0.4,0.2 -0.9,0.5 -1,0.5 -4.6,-5.1 -10.4,-1.8 -15.7,-2.4 -5.7,-0.6 -10.3,4.2 -16.1,2.8 -1.7,-0.4 -2.1,1.3 -2.6,2.5 -3.1,7.9 -5.2,8.3 -12,4.3 -6.8,-4.1 -12,-10.2 -19.4,-13.5 -1.8,-0.8 -3.7,-2.9 -4.8,-4.5 -2,-3 -4,-3.8 -6.9,-2.4 -3,1.4 -3.2,4.4 -3.1,7.3 0,0.7 0.6,1.5 0.9,2.2 l 0.3,1.8 c 0,0.7 -0.1,1.4 -0.1,2.1 -3.6,-4.3 -2.7,-9.2 -0.6,-13.4 6.1,-12.3 16.5,-14.6 28.5,-11.9 7.3,1.6 13.8,5.7 18.7,11.6 0.6,0.7 1,1.9 2.3,1.4 1.3,-0.4 2,-1.9 1.7,-2.7 -0.9,-3.2 1.5,-3 3.2,-3.5 4.5,-1.2 9.1,-1.8 13.2,-4.1 2.4,-1.3 3.6,-0.9 4.1,1.9 1.2,5.5 4.6,10 7.9,14.6 z"
         id="path33" /><path
         class="st4"
         d="m 647.8,673.9 c -7.8,4.8 -16.6,6.4 -25.4,7.9 -16.4,2.8 -16.4,2.5 -27.4,-11.7 10.7,-5.3 21.1,-11 30.8,-18 2.3,-1.7 3.9,-4.6 7.2,-4.8 3.8,9.5 8.7,18.4 14.8,26.6 z"
         id="path35" /><path
         class="st1"
         d="m 505,655 c -2.5,2.4 1.1,5.6 -1,8.1 -3.5,-9.4 1.9,-31.1 12,-38.5 11.1,-8.1 24.2,-4 28.7,8.9 3.4,9.9 2.2,20 1.9,30.1 -0.1,2.1 -0.4,4.3 -0.6,6.4 -1.2,0.2 -2.8,-0.4 -2.6,1.9 0.3,3.9 -2.2,3.6 -4.4,2.4 -5.3,-2.9 -10.6,-3.4 -16.1,-0.8 -2.8,1.3 -4.3,-1.2 -6.2,-2.1 -1.6,-0.8 0,-2.7 0.7,-3.9 4.7,-8.2 8.7,-16.7 15.2,-23.7 2.4,-2.6 2.4,-6.5 5.9,-9.1 1.9,-1.4 -1.1,-5.7 -3.4,-7.9 -1,-1 -2.5,-1.7 -4.1,-1.7 l -4.8,-0.9 c -1.1,-0.1 -2.3,-0.3 -3.1,0.7 -5.6,3.1 -10,7.3 -13.2,12.8 -2.7,4.8 -3.5,10.2 -5,15.3 -0.1,0.1 -0.4,0.2 -0.3,0.3 0.1,0.3 0.2,0.5 0.4,0.7 0,0.3 0.1,0.6 0,1 z"
         id="path37" /><path
         class="st3"
         d="m 717.7,595.8 c 2.4,3.2 1.1,6.6 0.8,10 -0.9,9.8 -4.4,18.9 -7.6,28.1 l -3,6.9 c -3.7,2 -5.6,6 -7.7,9.1 -1.8,2.7 -5.2,1.7 -6.2,4.3 -1.9,4.8 -6.9,6.5 -10,10 -4.6,5.3 -10.5,9.4 -13.8,15.8 l -0.1,0.1 c -1.6,-0.3 -2.9,-0.1 -3,1.9 -9.3,5.1 -19.4,7.1 -29.9,8 -6.4,0.5 -12.9,1.6 -19.3,-0.1 -1,-0.3 -2.6,0.3 -2.2,-1.7 0.7,-0.1 1.4,-0.1 2.1,-0.2 2.3,0 4.7,0.5 6.8,-0.2 3.6,-1.1 8,-0.5 10.7,-4 0.5,-0.2 0.9,-0.4 1.4,-0.6 2.1,1.5 3.6,0.5 4.9,-1.2 h 0.3 c 1.9,-0.1 3.9,0.4 4.8,-2 29.2,-10.6 49.2,-31 62.6,-58.6 3.8,-8.1 5.6,-17 8.4,-25.6 z"
         id="path39" /><path
         class="st1"
         d="m 582,674 c -4.2,-2.4 -8.1,-0.6 -11.6,1.3 -2.5,1.4 -4.5,4.1 -2.5,7.6 0.4,0.8 1.3,1.8 0.2,2.6 -0.9,0.7 -2,0.6 -2.8,0 -4.8,-3.6 -10.1,-6.1 -15.8,-8.1 -2.7,-0.9 -1.1,-4.2 -1.6,-6.3 3.1,-1.9 2.6,-5.1 3,-8 0.2,-1.2 -0.2,-2.9 2,-2.7 13.9,1.2 27.2,4.4 38.4,13.3 11.7,9.3 16.7,22.4 19.6,36.5 1.8,8.9 1.7,17.8 0,26.7 -0.4,2.2 -0.5,4.7 -2.7,6.2 -1.5,-1.7 -0.3,-3.5 -0.2,-5.2 0.2,-0.4 0.7,-0.8 0.7,-1.3 0.2,-11.6 1.9,-23.2 -1.9,-34.5 -3.6,-10.9 -9.2,-20.5 -19.8,-26.3 -0.3,-2.1 -1.7,-1.9 -3.2,-1.8 -0.6,0.1 -1.2,0 -1.8,0 z M 416.6,841.8 c -5.9,-0.3 -11.4,-4.4 -12.5,-9.4 -1.1,-4.9 2.2,-13 7.1,-14.6 3.7,-1.2 8,-0.5 12,-0.7 0.4,0.3 0.8,0.8 1.2,0.7 4.2,-0.1 8.4,-0.3 9.5,5.3 0.1,0.6 1.3,1.5 1.9,1.5 4.6,-0.6 7.6,3.4 11.4,3.9 -1.9,6.8 -7.4,5.4 -12.2,5.4 h -17.5 c -1.8,0 -3.7,0 -5.4,-0.3 -1.2,-0.2 -2,-2.5 -3.3,-1.1 -1.3,1.3 0.4,2.7 1,4 0.9,1.8 1.9,3.6 4.4,3.4 1.3,0 1.9,0.8 2.4,1.9 z"
         id="path41" /><path
         class="st2"
         d="m 414.2,839.8 c -2.5,0.2 -3.5,-1.5 -4.4,-3.4 -0.6,-1.2 -2.3,-2.6 -1,-4 1.3,-1.4 2.1,1 3.3,1.1 1.8,0.2 3.6,0.3 5.4,0.3 H 435 c 4.8,0 10.3,1.4 12.2,-5.4 -3.8,-0.5 -6.8,-4.5 -11.4,-3.9 -0.6,0.1 -1.7,-0.9 -1.9,-1.5 -1.1,-5.6 -5.3,-5.4 -9.5,-5.3 -0.4,0 -0.8,-0.5 -1.2,-0.7 5.4,-0.6 10.3,-2.6 14.6,-5.7 1.9,-1.3 3.3,-1.6 4.5,0.5 2.2,4 6,5.7 10,6.9 3.2,1 4.1,2.3 2.4,5.3 -0.4,0.7 -0.6,1.6 -0.5,2.4 1.5,9.4 -5.4,12.3 -12,15.1 -2.8,1.2 -6.1,1.4 -9.1,2.1 -0.7,-0.3 -1.4,-0.5 -2.1,-0.8 0.7,-0.9 1.7,-0.9 2.7,-1 1.8,-0.1 4.3,0.2 4.1,-2.3 -0.2,-2.6 -2.9,-1.4 -4.5,-1.5 -4.1,-0.3 -8.6,0.7 -12.2,-0.7 -4,-1.6 -5.4,-0.4 -6.9,2.5 z"
         id="path43" /><path
         class="st1"
         d="m 400.9,800 c 0.8,0.6 1.6,1.1 2.4,1.8 4.2,3.7 10.3,3 12.4,-2.3 2.4,-6 8,-9.7 10.3,-15.6 0.2,-0.6 1.2,-1.4 1.9,-1.4 1.4,0 1,1.4 1.4,2.2 0.9,2.2 1,4.5 0.9,6.9 -0.3,4 0.8,6.9 6.3,6.8 -3,2.5 -5.7,4.8 0.2,6.7 -3.1,1.1 -5,2.1 -4.5,4.8 -8,3.8 -16.2,5 -24.3,0.4 -3.9,-2.2 -6.9,-5.4 -7,-10.3 z m 61.3,20.1 c -1.2,3.2 -1,6.7 -1.5,10 -1.9,4.8 1.8,7 4.6,9.3 2.6,2.1 5.1,0.6 8.3,-0.3 6.5,-1.8 9.3,-8.9 16.2,-9.4 1.8,-0.1 1.1,-2.5 2.2,-3.6 3.9,-4.4 10.6,-5.4 13.5,-11.2 0.7,-1.4 4.6,1.9 4.8,4.5 -1.6,3.6 -4.5,6.1 -7.1,8.8 -7.3,7.4 -14.5,14.9 -25.4,17.1 -5.2,1 -14,-2.7 -17.7,-7.9 -2.6,-3.8 -2.4,-12.7 0.5,-16.6 0.1,-0.5 1,-0.5 1.6,-0.7 z"
         id="path45" /><path
         class="st3"
         d="m 419.1,766 c 1.5,0.1 3,0.1 4.3,-0.9 1.1,-0.8 2.3,-1.9 3.4,-0.4 0.9,1.2 -0.1,2.3 -0.8,3.5 -5.1,9.1 -11.7,17 -17.5,25.5 -0.5,0.7 -1,1.3 -1.2,2.1 -1,3.7 -3.1,4.2 -6,2.1 -0.7,-5.2 0.6,-10.1 2,-15.1 0.1,-0.2 0.1,-0.4 0.2,-0.6 1.2,-0.3 1.8,-1 1.8,-2.3 v 0.1 c 2,-0.1 2.2,-1.8 2.9,-3.1 l 1,-1 c 0.3,-0.4 0.6,-0.7 0.9,-1.1 1.1,-0.2 1.8,-0.8 2.1,-1.9 2.7,-1.7 5.8,-3.3 6.9,-6.9 z"
         id="path47" /><path
         class="st1"
         d="m 449,808.2 c 2.2,5.1 6.8,6.1 12,2.4 2.8,-2 5.3,-4.3 7.7,-6.7 5.3,-5.4 5.3,-5.4 10.6,-0.7 -5.1,6.7 -11.9,11.8 -20.1,12.4 -8.5,0.7 -15.4,-4 -16.1,-15 -0.7,-11.2 3.9,-20.8 9.4,-30 4,-6.8 8.2,-13.7 14.4,-18.8 l 0.2,0.2 c 0,0.6 -0.1,1.1 -0.1,1.7 -6.6,9 -14.5,17.4 -18.1,28.1 -3,8.5 -6,17.6 0.1,26.4 z m -11.9,47.6 c -2.3,0 -3.5,-1.7 -4.6,-3.3 -1.7,-2.5 -1.6,-4.2 2,-4.6 6.4,-0.7 12,-3.3 17.2,-6.9 2.6,-1.8 4.5,-2.4 6.5,0.6 0.6,0.9 1.6,1.7 2.4,2.4 5,4.6 5.1,4.6 -0.6,8.9 -1.9,-3.2 -3.1,-5.8 -8.3,-3.6 -3.2,1.4 -7.1,3.3 -11.2,2.6 -2.9,-0.4 -3.8,1.2 -3.4,3.9 z"
         id="path49" /><path
         class="st3"
         d="m 681.9,588.2 c 7.5,10.4 12.1,22.1 16.7,33.9 0.7,1.7 0.8,3.6 2.4,4.9 l -3.9,6.9 c 0,-4.6 -2.2,-8.6 -3.8,-12.8 -3.3,-8.3 -6.5,-16.6 -11.2,-24.2 -0.8,-1.3 -1.2,-3.8 -3.8,-2.9 1,-2 2.3,-3.9 3.6,-5.8 z m -252.7,97.6 -0.3,-1.8 c 1.3,-0.7 2.1,-3.3 4,-1.2 6.1,6.5 13.8,10.8 21.4,16.7 -4.1,1 -7.7,0.3 -11.2,0.4 l -6,-3.6 c -2.7,-3.5 -5.3,-7 -7.9,-10.5 z m 218.6,-11.9 c -6.2,-8.2 -11.1,-17 -14.8,-26.6 1.3,-1.4 2.7,-2.8 4,-4.2 1.4,8 5.9,14.6 9.9,21.4 1.5,2.6 3.3,5 4.9,7.5 -0.9,1.6 -2.4,1.7 -4,1.9 z"
         id="path51" /><path
         class="st1"
         d="m 518,818.9 c 2.7,1.6 5.5,-2.8 8.2,0.2 -6.6,7.1 -13.6,13.7 -23.3,16.6 4.6,-6.1 9.2,-12 15.1,-16.8 z"
         id="path53" /><path
         class="st2"
         d="m 437.1,855.8 c -0.3,-2.6 0.5,-4.3 3.5,-3.8 4.1,0.7 8,-1.2 11.2,-2.6 5.2,-2.2 6.4,0.4 8.3,3.6 -0.4,0.3 -0.7,0.6 -1.1,0.9 -2.2,0 -4.3,0.2 -5.9,1.9 -5.4,1.7 -10.7,1.9 -16,0 z"
         id="path55" /><path
         class="st3"
         d="m 414.2,839.8 c 1.5,-2.9 2.9,-4.1 6.8,-2.5 3.5,1.5 8.1,0.4 12.2,0.7 1.6,0.1 4.2,-1.2 4.5,1.5 0.2,2.5 -2.3,2.2 -4.1,2.3 -1,0.1 -2,0.1 -2.7,1 -4.8,0.8 -9.3,-1.7 -14.1,-1 l -0.2,-0.1 c -0.5,-1 -1.1,-1.8 -2.4,-1.9 z"
         id="path57" /><path
         class="st2"
         d="m 485.1,732.9 c 0.2,1.9 -1.2,2.9 -2.3,4.1 -4.3,4.2 -8.5,8.5 -11.8,13.6 -0.5,0.8 -1.1,1.1 -2,0.9 0,-0.8 0.1,-1.7 0.1,-2.5 4.8,-5.8 10.1,-11.2 16,-16.1 z"
         id="path59" /><path
         class="st1"
         d="m 635.2,683.9 c -2.8,3.5 -7.1,2.9 -10.7,4 -2.1,0.6 -4.5,0.1 -6.8,0.2 5.6,-2.4 11.6,-3.2 17.5,-4.2 z M 403,782.8 c -1.4,4.9 -2.7,9.9 -2,15.1 -0.1,0.5 -0.2,0.9 -0.3,1.4 -3.4,-3.4 -1.6,-7.2 -0.7,-10.9 0.6,-2 1.3,-4.1 3,-5.6 z m 13.8,59 c 4.8,-0.7 9.3,1.8 14.1,1 0.7,0.3 1.4,0.5 2.1,0.8 -5.5,-0.2 -11.2,2 -16.2,-1.8 z"
         id="path61" /><path
         class="st2"
         d="m 429.2,685.8 7.8,10.5 c -4.1,-1.4 -6,-5 -8,-8.3 0.1,-0.8 0.2,-1.5 0.2,-2.2 z M 419.1,766 c -1.1,3.6 -4.2,5.2 -7.1,6.9 1.1,-3.5 3.7,-5.7 7.1,-6.9 z m 79.8,-45.1 c 0.4,3.2 -1.9,3.1 -4,3.2 1,-1.6 2.1,-3 4,-3.2 z m 4,-3 c -0.1,2.6 -2.2,2.7 -4,3 0.5,-2.1 2.2,-2.7 4,-3 z"
         id="path63" /><path
         class="st1"
         d="m 453.1,855.8 c 1.6,-1.7 3.7,-1.9 5.9,-1.9 -1.7,1.7 -3.7,2 -5.9,1.9 z M 641.5,682.1 c -1.3,1.7 -2.8,2.7 -4.9,1.2 1.5,-1 3.1,-1.4 4.9,-1.2 z"
         id="path65" /><path
         class="st2"
         d="m 408,776.9 c -0.7,1.3 -0.9,3 -2.9,3.1 -0.1,-2 1,-2.9 2.9,-3.1 z m 85,-51 c 0,1.9 -1.4,2.1 -2.8,2.2 0.4,-1.4 1.4,-2.1 2.8,-2.2 z"
         id="path67" /><path
         class="st1"
         d="m 646.5,680.1 c -0.9,2.4 -3,1.9 -4.8,2 1.3,-1.5 3.1,-1.6 4.8,-2 z M 469,749 c 0,0.8 -0.1,1.7 -0.1,2.5 l -0.3,0.3 c -0.5,0.1 -1,0.1 -1.5,0.2 l -0.2,-0.2 c 0.2,-1.3 0.9,-2.2 2.1,-2.8 z"
         id="path69" /><path
         class="st2"
         d="m 411.9,772.8 c -0.2,1.1 -1,1.7 -2.1,1.9 0.2,-1.2 0.8,-1.9 2.1,-1.9 z"
         id="path71" /><path
         class="st1"
         d="m 405,779.9 c 0,1.3 -0.7,2 -1.8,2.3 0.1,-1.2 0.8,-1.9 1.8,-2.3 z m 60.5,39.1 c -0.9,1 -2.1,1.3 -3.4,1 0.8,-1.3 2.1,-1.1 3.4,-1 z"
         id="path73" /><path
         class="st2"
         d="m 489.8,728.7 c -0.1,0.9 -0.8,1.2 -1.6,1.3 0.2,-0.8 0.8,-1.1 1.6,-1.3 z m 4.2,-3.9 -1.1,1.1 c 0.4,-0.3 0.8,-0.7 1.1,-1.1 z m -6.9,6.2 -1,1 c 0.3,-0.3 0.7,-0.6 1,-1 z m -77.2,43.8 c -0.3,0.4 -0.6,0.7 -0.9,1.1 0.3,-0.4 0.6,-0.7 0.9,-1.1 z m -0.9,1.1 -1,1 c 0.3,-0.3 0.6,-0.7 1,-1 z"
         id="path75" /><path
         class="st1"
         d="m 547.1,671 c -0.4,-0.3 -0.7,-0.7 -1.1,-1 0.4,0.3 0.7,0.7 1.1,1 z m -42.8,-6 c 0.2,0.4 0.5,0.8 0.7,1.2 -0.2,-0.4 -0.5,-0.8 -0.7,-1.2 z"
         id="path77" /><path
         class="st3"
         d="m 533.1,529.2 c -1.3,-0.1 -2.7,-0.1 -3.6,-1.3 -0.9,-1.4 -2.2,-2.5 -3.7,-1.3 -1.4,1.1 -1.1,3.1 -0.4,4.6 0.7,1.4 2.3,2.5 0.8,4.5 -1.3,-0.1 -1.6,-3.1 -4.1,-1.3 -1.3,0.9 -0.8,-1.8 -1.4,-2.8 -0.9,-1.7 -1.6,-4.3 -2.9,-4.7 -2.3,-0.7 -1.5,2.9 -3.1,3.7 -1.4,-2.9 -2.7,-5.7 -4.1,-8.6 -2.3,-4.6 -4.6,-9.3 -7.8,-13.3 -0.9,-1.1 -1.9,-1.8 -3.4,-1.4 -1,0.3 -1.3,0.9 -1.2,1.8 0.4,2.6 0.4,5.4 1.4,7.7 3.5,7.8 4.9,16.1 6.4,24.4 0.6,3.3 -1.1,4.4 -4,3.6 -3,-0.8 -6.1,-1.8 -9,-3 -9.2,-4 -18.4,-8.2 -27.6,-12.2 -14.4,-6.2 -28.9,-12.2 -44.2,-15.7 -9.7,-2.2 -11.8,-1.1 -16,7.8 -0.9,-19.1 -1.5,-38.3 2.1,-57.1 4.5,-23.7 11.4,-46.8 23.8,-67.7 13.2,-22.1 30.4,-40.3 54,-51.7 0.6,-0.3 1.1,-0.7 1.7,-1.1 1.7,0.1 3.1,-0.3 4,-2 3.7,-0.3 7,-1.4 9.8,-4 5.6,-1.9 11.4,-2.7 17.1,-4.1 11.1,-2.7 22.3,-2.3 33.5,-1.7 7.6,0.4 15.4,0.9 22.8,3.8 4,2.2 8.5,3.2 13,3.9 0.6,0.1 1.3,0.1 1.9,0.2 5,4.3 11.5,5.9 17.2,8.9 3.7,1.9 8.5,2 10.4,6.6 6.8,-0.2 9.2,7 14.9,8.9 4.9,1.6 7.9,6.1 11.6,9.4 6.9,6.1 13.4,12.5 19,20.1 3.6,4.9 7.8,9.6 11,14.8 1.9,3 3.4,6.3 4.8,9.6 2,5 -1.9,7 -4.9,9.5 -0.3,0 -0.6,0 -0.9,0.1 -1.5,-0.2 -2.8,0 -3.2,1.8 -10,5.8 -17.8,13.5 -21.9,24.6 -1.1,3 -1.5,5.9 -0.8,8.7 0.6,2.3 -0.5,2.5 -2.1,2.7 v 0.1 c 0,-2.4 -1.3,-3.5 -3.5,-3.9 -7.5,-6.8 -15.7,-12.2 -26.1,-13.4 -0.6,-0.2 -1.2,-0.5 -1.8,-0.6 -6.1,-0.5 -6.1,-0.4 -3.7,-6 3.6,-8.3 5.4,-9 14.1,-6.6 3.2,0.9 6,2.9 9.5,2.7 l 1,1 c 1.3,1.3 2.5,2.6 3.8,3.9 1,1.1 2.1,1.7 3.5,0.8 1.2,-0.8 1.2,-1.9 0.7,-3.1 -5.1,-12 -10.6,-23.8 -21.5,-31.9 -6.6,-4.9 -13.1,-4.2 -18.8,1.7 -5.4,5.6 -9.1,12.3 -12.2,19.4 -7.8,18.1 -16.4,35.8 -24.7,53.7 -3,6.4 -6.6,12.5 -9.2,19.2 -2.4,6.4 -5.7,12.4 -8.6,18.6 -1.3,2.8 -2.9,2.9 -4.8,0.6 -2.5,-3 -4.3,-6.3 -5.8,-9.9 -2.7,-6.3 -5.3,-12.5 -7.9,-18.8 -0.5,-1.2 -0.8,-2.3 -2.3,-2.1 -1.7,0.3 -1.9,1.6 -1.8,3 0.1,1.2 -0.2,2.4 0.1,3.5 4,10.2 6,20.9 9.1,31.4 z"
         id="path79" /><path
         class="st5"
         d="m 405.4,521.6 c 4.2,-8.9 6.3,-10 16,-7.8 15.4,3.5 29.8,9.5 44.2,15.7 9.2,4 18.4,8.2 27.6,12.2 2.9,1.2 5.9,2.2 9,3 2.9,0.8 4.6,-0.3 4,-3.6 -1.6,-8.3 -3,-16.6 -6.4,-24.4 -1,-2.3 -1,-5.1 -1.4,-7.7 -0.1,-0.9 0.1,-1.5 1.2,-1.8 1.5,-0.4 2.6,0.3 3.4,1.4 3.2,4.1 5.5,8.7 7.8,13.3 1.4,2.8 2.7,5.7 4.1,8.6 l 6.6,17.7 c 2,5.4 1.7,10.7 -1.8,15.5 -7.7,2.3 -7.7,2.3 -6.8,10.2 1.7,14.5 -11,29 -26.2,30.2 -14.9,1.2 -27,-4.5 -36.7,-15.3 -5,-5.6 -9.4,-11.6 -11.9,-18.9 -2.8,-8.1 -2.8,-16 1.8,-23.5 1.8,-3.1 1.7,-4.5 -2.4,-5.2 -4.9,-0.8 -9.5,-2.7 -14.3,-4 -7.1,-1.9 -7.5,-1.6 -9.2,5.4 -0.5,1.9 -1.1,3.8 -0.6,5.9 -1.4,3.1 -1.8,6.4 -2,9.8 -4,4.1 -4.5,0.4 -5,-2.4 -1.8,-10.5 -1.5,-21.1 -1,-31.7 -0.1,-1 -0.1,-1.8 0,-2.6 z m 87.7,41 c -3.6,0.6 -5.9,1.9 -2.8,5.8 -7,4.8 -12,3.6 -16.8,-3.9 0.4,-0.5 0.8,-1.2 1.3,-1.4 2.8,-0.8 4,-2.8 4,-5.6 0.1,-3.2 -2.4,-3.7 -4.6,-4.4 -8,-2.7 -16.1,-5.3 -24,-8.2 -2.4,-0.9 -3.8,-0.7 -5.4,1.6 -3.8,5.6 -4.8,11.6 -3.6,18.1 3.3,17.2 21.8,33.5 39.3,34.8 18,1.3 32.1,-13.5 26.6,-30.9 -0.8,-2.6 -1.7,-4.6 -4.8,-4.6 -3.5,0 -2,2.9 -2.5,4.4 -3.5,8.9 -13.7,13.6 -23.1,10.2 -9,-3.2 -13,-11.4 -9.6,-20.4 1.1,2.6 2.5,4.6 4.3,6.2 -0.1,4.7 2.7,8.1 7.9,9.6 7.1,2.1 15.4,-2.6 16,-9.2 -0.1,-1 0.9,-3.6 -2.2,-2.1 z m -83,-34.8 c 0.9,0.9 -0.8,4.7 1.6,3.6 3.4,-1.5 7.1,-0.8 10.3,-2.7 2.6,-1.5 6.5,-2.8 6.2,-5.5 -0.3,-3 -4.6,-3 -7.4,-3.7 -7.7,-2 -10.7,0.2 -10.7,8.3 z m 104.4,19.4 c -1.7,2.4 -2.9,4.3 -4.4,6 -1.1,1.3 -3.7,1.6 -2.8,4 0.9,2.4 3.3,1.7 5.2,1.8 3.9,0.3 5.1,-1.8 4.4,-5.2 -0.4,-2 -1.4,-4 -2.4,-6.6 z"
         id="path81" /><path
         class="st2"
         d="m 812.9,572 c -2.3,10.1 -8.5,18.1 -14,26.5 -0.6,1 -1.2,1.5 -2.3,1.4 -1.6,-0.2 -1.4,-1.5 -1.7,-2.6 -1,-4.1 -0.7,-8.1 -0.1,-12.3 0.9,-5.9 -0.7,-11.8 0,-17.8 1.8,-15.4 3.3,-30.9 4.9,-46.3 0.5,-4.8 1,-9.6 1.1,-14.4 0.2,-11.2 -0.4,-22.4 0.2,-33.5 0.5,-8.6 -2.1,-16.7 -3.8,-24.7 -2,-9.8 -2.8,-19.4 -2.5,-29.3 0.3,-10.5 0.1,-21 0.1,-31.5 0,-2.5 0.1,-4.9 1.9,-7.3 5.5,4.2 7.2,10.7 9.9,16.4 3.4,7.2 5,15.2 9.1,22.2 0.5,0.9 1.6,1.9 0.4,3.1 -3.2,3.1 1,6.1 0.1,9.3 -1.1,1.1 -2,-1.6 -2.9,-0.4 -1,1.2 -0.4,2.5 0.5,3.6 1.4,1.8 1.4,3.8 0.4,5.6 -1.5,2.6 -1.7,5.5 -1.3,8.2 1.9,11.2 -0.6,22.4 0.7,33.7 0.5,4.3 1.8,9.4 -2.2,13.2 -0.4,0.4 -0.5,1.4 -0.3,1.9 3.7,7.9 1.5,16.3 1.6,24.5 0,3.2 3.6,5.6 2,8.4 -3.6,6.2 0.2,13.6 -3.6,19.7 -0.7,1.1 -0.3,2.9 0.4,4.3 2.1,3.8 1.8,7.4 0,11.3 -0.8,2.1 -2.2,5.2 1.4,6.8 z"
         id="path83" /><path
         class="st3"
         d="m 813.2,572 c -3.7,-1.6 -2.3,-4.6 -1.3,-6.7 1.8,-3.9 2.1,-7.6 0,-11.3 -0.8,-1.4 -1.1,-3.2 -0.4,-4.3 3.8,-6.1 0,-13.5 3.6,-19.7 1.6,-2.7 -2,-5.2 -2,-8.4 0,-8.2 2.1,-16.5 -1.6,-24.5 -0.2,-0.5 -0.1,-1.5 0.3,-1.9 4.1,-3.8 2.8,-8.9 2.2,-13.2 -1.3,-11.2 1.1,-22.5 -0.7,-33.7 -0.5,-2.8 -0.2,-5.6 1.3,-8.2 1,-1.8 1,-3.8 -0.4,-5.6 -0.9,-1.1 -1.4,-2.5 -0.5,-3.6 0.9,-1.2 1.8,1.5 2.9,0.4 0.9,-3.1 -3.3,-6.1 -0.1,-9.3 1.3,6 3.9,11.5 5.2,17.5 2.3,10.5 4.6,21.1 5.2,31.8 1.6,27.8 -0.4,55.4 -7.8,82.3 -1.6,6.2 -2.8,12.6 -5.9,18.4 z M 411.6,558.1 c 0.2,-3.4 0.6,-6.7 2,-9.8 0.7,-0.4 1.6,-0.6 2.1,-1.2 5.9,-5.8 8.6,-6 15.7,-1.5 1.5,1 2.2,1.9 1.6,3.6 -0.2,0.6 -0.7,1.3 -0.7,1.9 0.9,11.5 -7.6,16.6 -15.7,22.1 -2.8,-4.3 -2.7,-10.2 -5,-15.1 z"
         id="path85" /><path
         class="st2"
         d="m 670.2,680.1 c 3.3,-6.4 9.2,-10.5 13.8,-15.8 3.1,-3.6 8.1,-5.2 10,-10 1,-2.6 4.3,-1.5 6.2,-4.3 2.1,-3.1 4,-7.1 7.7,-9.1 -2,5.2 -2,12 -6.9,15.2 -6,3.9 -10.7,9 -15.9,13.8 -3.7,3.4 -7.2,6.9 -11.7,9.3 -1,0.5 -2.1,0.8 -3.2,0.9 z M 500.8,338 c -2.8,2.6 -6.1,3.7 -9.8,4 0.5,-1.7 1,-3.4 0.4,-5.1 3.3,0.4 6.3,0.7 9.4,1.1 z m 86.3,1.8 c -4.5,-0.7 -8.9,-1.6 -13,-3.9 4.6,0.4 9.8,-1.2 13,3.9 z m 18.6,-4.5 c 2.2,-1.5 4.4,-1.4 7.3,-0.5 -2.7,2.1 -5.1,0.9 -7.3,0.5 z M 491,342 c -0.8,1.7 -2.3,2.1 -4,2 0.4,-2.5 2.4,-1.8 4,-2 z m 176.1,340 c 0.2,-2 1.4,-2.1 3,-1.9 -0.2,1.9 -1.6,1.9 -3,1.9 z M 587.7,334.5 c 0.3,0.1 0.6,0.2 0.8,0.4 -0.1,0.3 -0.2,0.7 -0.4,0.8 -0.2,0.1 -0.5,-0.2 -0.8,-0.3 0.2,-0.4 0.3,-0.7 0.4,-0.9 z"
         id="path87" /><path
         class="st3"
         d="m 666.6,475.9 c 1.4,-13.1 10.2,-20.5 20.7,-26.5 2.3,-1.3 5.4,0.5 7.6,-1.6 5.5,0.1 11,0.5 16.5,0.2 3.9,-0.2 3.7,2.7 4.3,4.8 0.6,2.5 -1.3,3.2 -3.3,3.1 -3.2,-0.1 -4.2,3.1 -6.5,4.5 -6.5,3.8 -13.7,6.2 -19.6,11.3 -6,5.3 -12.3,10.8 -20.1,13.8 -0.8,0.3 -1.6,0.5 -2.5,-0.2 -0.1,-1.6 2,-2.6 1.4,-4.3 0,-0.3 0.1,-0.6 0,-0.9 1.1,-1.1 1.9,-2.4 1.5,-4.2 z"
         id="path89" /><path
         class="st5"
         d="M 533.1,529.2 C 530,518.8 528,508 524.2,497.8 c -0.4,-1 -0.1,-2.3 -0.1,-3.5 -0.1,-1.5 0.1,-2.8 1.8,-3 1.5,-0.2 1.8,0.9 2.3,2.1 2.6,6.3 5.2,12.6 7.9,18.8 1.5,3.5 3.4,6.9 5.8,9.9 1.9,2.3 3.5,2.2 4.8,-0.6 2.9,-6.2 6.2,-12.2 8.6,-18.6 2.5,-6.7 6.2,-12.7 9.2,-19.2 8.3,-17.9 16.9,-35.6 24.7,-53.7 3,-7 6.8,-13.8 12.2,-19.4 5.6,-5.9 12.2,-6.5 18.8,-1.7 10.9,8.1 16.4,19.8 21.5,31.9 0.5,1.2 0.5,2.3 -0.7,3.1 -1.4,0.9 -2.5,0.2 -3.5,-0.8 -1.2,-1.3 -2.5,-2.6 -3.8,-3.9 0.1,-0.5 -0.1,-0.8 -0.7,-0.7 l -0.3,-0.3 c -3,-4.5 -6.9,-8 -11.2,-11 -4.6,-3.2 -7.2,-2.8 -10.5,1.9 -4,5.9 -6.3,12.6 -8.8,19.7 h 12.4 c 10.4,1.2 18.6,6.6 26.1,13.4 0.6,1.8 1.6,3.2 3.5,3.9 V 466 c 3,6.4 7.6,12 9.8,18.9 8.6,26.7 7.3,52.3 -9.7,75.6 -19.2,26.4 -52.3,25.2 -70.4,-2 -2.3,-3.4 -4.3,-7.1 -6.5,-10.6 l -0.1,-0.1 c -0.4,-2 -0.6,-4.1 -2.6,-5.6 -1.8,2.5 -3.5,4.7 -5.2,6.9 -9.8,7.7 -13.8,6.8 -19.6,-4.6 -2.1,-4.1 -3.8,-8.4 -5.7,-12.6 l -1,-1 c -0.1,-0.6 -0.1,-1.2 -0.1,-1.7 z m 82.4,-5.9 c 0.5,0 0.8,-0.2 0.8,-0.8 7.2,-10 7.4,-20.4 2,-31.2 -6.1,-10.8 -16.8,-13.2 -26.5,-6 -1.4,1.1 -3.8,1.7 -2.8,4.4 -0.3,0.4 -0.7,0.7 -1,1.1 l -0.1,0.1 c -0.8,2.3 -1.4,4.7 -2.3,6.9 -1.2,2.9 -3.3,5.4 -2.6,8.8 1.2,5.8 2.6,11.5 6.6,16.2 6.6,8.6 17.5,9.4 24.5,1.8 0.5,-0.4 0.9,-0.8 1.4,-1.3 z m -36.2,-9.5 c -3.6,7.3 -6.9,14 -10.2,20.7 -0.8,1.5 -0.3,2.9 0.1,4.4 3.5,11.1 9.4,20.5 18.4,28 12.7,10.5 31,10.8 43.8,0.4 13,-10.6 19.9,-24.8 22,-41.3 3,-23 -1.2,-44.2 -17.8,-61.6 -8.7,-9.2 -19.5,-13 -32.2,-10.6 -1.7,0.3 -3.3,0.6 -3.9,2.5 -2.3,7.3 -4.6,14.5 -7,22 12.9,-3.5 21,-1.3 27.6,7.2 9.2,11.8 8.2,29.7 0.1,39.8 -6.7,8.3 -16.3,11.6 -25.2,7.7 -8.1,-3.5 -12.8,-10.1 -15.7,-19.2 z m -34.2,20.8 c -2.1,-0.4 -2.1,1 -1.9,2.1 0.5,4.2 2.2,7.9 5.2,11 1.2,1.2 2.4,1.1 3.6,0.2 3.7,-2.6 6.8,-5.8 8.5,-10.1 0.6,-1.5 0.7,-2.2 -1.6,-2.3 -4.7,-0.2 -9.6,2.1 -13.8,-0.9 z m 55.4,-113.8 c 5.6,-1.5 10.8,-3.7 16.4,-3.8 0.9,0 2.2,0.4 2.5,-0.9 0.3,-1.1 -0.8,-1.7 -1.5,-2.4 -5.6,-5.7 -13.5,-2.7 -17.4,7.1 z"
         id="path91" /><path
         class="st2"
         d="m 668.8,429.9 c 0.3,-1.9 1.6,-2 3.2,-1.8 -0.2,2.1 -1.7,2 -3.2,1.8 z m -2.2,46 c 0.4,1.7 -0.4,3 -1.5,4.2 0,-1.5 -0.8,-3.4 1.5,-4.2 z"
         id="path93" /><path
         class="st3"
         d="m 582,674 c 0.6,0 1.2,0.1 1.8,0.1 0.3,1.9 1.7,2 3.2,1.8 10.6,5.8 16.2,15.4 19.8,26.3 3.7,11.3 2.1,23 1.9,34.5 0,0.4 -0.5,0.9 -0.7,1.3 -1.1,0.3 -3.1,1.5 -2.8,-0.9 0.6,-5 -3,-8 -4.6,-11.9 -3,-7.3 -7.4,-14 -9.4,-21.6 -2.1,-7.8 -6.1,-14.6 -9.8,-21.5 -1.9,-3.5 -2,-5.6 0.6,-8.1 z m -77,-19 c 0,-0.3 0,-0.7 -0.2,-1 v -1 c 1.5,-5.2 2.3,-10.6 5,-15.3 3.1,-5.5 7.6,-9.7 13.2,-12.8 1.1,0.2 2.3,0.2 3.1,-0.7 l 4.8,0.9 c -0.9,5.4 -4.5,9.3 -7.6,13.4 -1.4,1.9 -3,3.6 -3.2,5.9 -0.2,2.3 -0.7,3.8 -3.4,3.7 -0.9,0 -1.7,0.7 -1.6,1.5 0.6,4.3 -3.8,5.3 -5.4,8.1 -1.7,3.1 -2.8,1.7 -3.7,-0.6 -0.2,-0.7 -0.6,-1.4 -1,-2.1 z"
         id="path95" /><path
         class="st1"
         d="m 559.5,549 c 1.7,-2.2 3.3,-4.5 5.2,-6.9 2,1.5 2.2,3.6 2.6,5.6 -2.7,0.4 -5.2,0.9 -7.8,1.3 z"
         id="path97" /><path
         class="st3"
         d="m 533.2,530.9 1,1 c -0.5,0.5 -1.1,1.4 -1.7,0.4 -0.5,-0.6 0.1,-1.1 0.7,-1.4 z"
         id="path99" /><path
         class="st2"
         d="m 467,752 c 0.5,-0.1 1,-0.1 1.5,-0.2 0.3,1.4 -0.2,2.1 -1.6,1.8 0.1,-0.5 0.1,-1.1 0.1,-1.6 z m 59.2,-127.9 c -0.9,0.9 -2,0.9 -3.1,0.7 0.8,-1 1.9,-0.8 3.1,-0.7 z M 504.9,653 v 1 c -0.1,-0.2 -0.3,-0.5 -0.4,-0.7 0,-0.1 0.2,-0.2 0.4,-0.3 z m 82.2,22.9 c -1.5,0.2 -2.9,0.2 -3.2,-1.8 1.4,-0.2 2.9,-0.3 3.2,1.8 z"
         id="path101" /><path
         class="st1"
         d="m 614.5,448.7 h -12.4 c 2.5,-7.1 4.7,-13.8 8.8,-19.7 3.2,-4.7 5.8,-5 10.5,-1.9 4.4,3 8.3,6.5 11.2,11 -3.5,0.2 -6.3,-1.8 -9.5,-2.7 -8.7,-2.3 -10.5,-1.6 -14.1,6.6 -2.4,5.6 -2.4,5.6 3.7,6 0.6,0.2 1.2,0.5 1.8,0.7 z m 29.6,17.3 c -1.9,-0.7 -2.8,-2.1 -3.5,-3.9 2.2,0.4 3.5,1.5 3.5,3.9 z m -11.2,-27.5 c 0.5,-0.1 0.8,0.2 0.7,0.7 z"
         id="path103" /><path
         class="st4"
         d="m 471.3,564.3 c -1.9,-1.6 -3.2,-3.7 -4.3,-6.2 -3.4,9 0.7,17.2 9.6,20.4 9.4,3.3 19.7,-1.3 23.1,-10.2 0.6,-1.4 -0.9,-4.4 2.5,-4.4 3.2,0 4,2 4.8,4.6 5.6,17.4 -8.6,32.3 -26.6,30.9 -17.5,-1.3 -36,-17.7 -39.3,-34.8 -1.2,-6.5 -0.2,-12.5 3.6,-18.1 1.6,-2.3 2.9,-2.5 5.4,-1.6 8,2.9 16,5.5 24,8.2 2.2,0.7 4.6,1.2 4.6,4.4 -0.1,2.8 -1.2,4.7 -4,5.6 -0.5,0.2 -0.9,0.9 -1.3,1.4 -0.6,-0.1 -1.4,-0.1 -2.1,-0.2 z"
         id="path105" /><path
         class="st0"
         d="m 410.1,527.8 c 0,-8.1 2.9,-10.3 10.8,-8.3 2.8,0.7 7.1,0.7 7.4,3.7 0.3,2.7 -3.7,4 -6.2,5.5 -3.2,1.9 -6.9,1.2 -10.3,2.7 -2.5,1.1 -0.8,-2.7 -1.7,-3.6 z"
         id="path107" /><path
         class="st3"
         d="m 471.3,564.3 c 0.7,0.1 1.4,0.1 2.2,0.2 4.8,7.5 9.9,8.7 16.8,3.9 4,-0.4 4.4,-2.6 2.8,-5.8 3,-1.6 2.1,1 2,2.1 -0.6,6.6 -8.8,11.2 -16,9.2 -5.1,-1.5 -7.8,-4.9 -7.8,-9.6 z"
         id="path109" /><path
         class="st0"
         d="m 514.5,547.2 c 1,2.6 1.9,4.6 2.4,6.6 0.7,3.4 -0.5,5.5 -4.4,5.2 -1.9,-0.1 -4.3,0.5 -5.2,-1.8 -0.9,-2.4 1.7,-2.8 2.8,-4 1.5,-1.7 2.7,-3.6 4.4,-6 z"
         id="path111" /><path
         class="st4"
         d="m 493.1,562.6 c 1.6,3.2 1.2,5.4 -2.8,5.8 -3.1,-3.9 -0.7,-5.1 2.8,-5.8 z m 86.2,-48.8 c 2.8,9.1 7.6,15.7 15.8,19.2 9,3.8 18.6,0.5 25.2,-7.7 8.1,-10.1 9.1,-27.9 -0.1,-39.8 -6.6,-8.6 -14.8,-10.8 -27.6,-7.2 2.4,-7.5 4.7,-14.7 7,-22 0.6,-2 2.2,-2.2 3.9,-2.5 12.7,-2.3 23.5,1.5 32.2,10.6 16.6,17.4 20.7,38.6 17.8,61.6 -2.1,16.4 -8.9,30.6 -22,41.3 -12.8,10.4 -31.1,10.1 -43.8,-0.4 -9,-7.4 -14.9,-16.9 -18.4,-28 -0.4,-1.4 -0.9,-2.8 -0.1,-4.4 3.3,-6.7 6.5,-13.3 10.1,-20.7 z"
         id="path113" /><path
         class="st4"
         d="m 618.3,491.3 c 5.4,10.8 5.2,21.2 -2,31.2 -0.4,-0.6 -0.7,-0.1 -0.9,0.2 -0.1,0.1 0.1,0.4 0.2,0.6 -0.5,0.4 -1,0.9 -1.5,1.3 -3,-1.4 -4.9,1.6 -7.8,1.8 -6.1,0.5 -11.4,-1.6 -16.8,-3.6 -4,-4.7 -5.5,-10.3 -6.6,-16.2 -0.7,-3.4 1.4,-5.9 2.6,-8.8 0.9,-2.3 1.6,-4.6 2.3,-6.9 l 0.1,-0.1 c 0.3,-0.4 0.7,-0.7 1,-1.1 5.1,-2.2 10,-4.1 15.8,-4.2 5.8,0 9,4.2 13.6,5.8 z m -16.4,31.6 c 5.4,0.3 11.5,-3.7 13.4,-8.7 0.4,-1.2 1,-2.2 -1,-2.5 -2.1,-0.3 -3.4,-1.6 -3.2,-3.7 0.2,-2.2 1.7,-3.1 3.9,-2.9 1.5,0.2 2,-0.3 2,-1.9 0.1,-4.8 -4.7,-11.5 -9.8,-13.5 -5.4,-2.1 -11,-0.7 -15,3.7 -2,2.3 -3.1,3.9 1.1,5.1 2.9,0.8 4.5,3.4 4.6,6.5 0.1,3.1 -1.3,5.4 -4,6.9 -4.8,2.6 -4.8,3 -0.9,6.9 2.5,2.6 5.5,3.9 8.9,4.1 z"
         id="path115" /><path
         class="st0"
         d="m 545.1,534.6 c 4.3,3.1 9.1,0.7 13.8,0.9 2.3,0.1 2.2,0.8 1.6,2.3 -1.7,4.3 -4.8,7.5 -8.5,10.1 -1.2,0.8 -2.4,1 -3.6,-0.2 -3.1,-3 -4.8,-6.7 -5.2,-11 -0.2,-1.1 -0.2,-2.5 1.9,-2.1 z m 73.2,-43.3 c -4.6,-1.6 -7.8,-5.8 -13.5,-5.8 -5.8,0.1 -10.8,2 -15.8,4.2 -1.1,-2.7 1.3,-3.3 2.8,-4.4 9.7,-7.2 20.4,-4.8 26.5,6 z m -17.8,-70.5 c 4,-9.8 11.8,-12.8 17.5,-7.1 0.7,0.7 1.8,1.2 1.5,2.4 -0.4,1.3 -1.6,0.9 -2.5,0.9 -5.7,0.2 -10.9,2.4 -16.5,3.8 z m -10.9,102.1 c 5.4,2 10.7,4.1 16.8,3.6 2.8,-0.2 4.8,-3.2 7.8,-1.8 -7.1,7.6 -18,6.8 -24.6,-1.8 z m 25.9,0.4 c -0.1,-0.2 -0.2,-0.5 -0.2,-0.6 0.2,-0.3 0.5,-0.8 0.9,-0.2 0.1,0.6 -0.1,0.8 -0.7,0.8 z m -27.5,-32.5 -0.1,0.1 c 0,0.1 0.1,-0.1 0.1,-0.1 z"
         id="path117" /><path
         class="st5"
         d="m 601.9,522.9 c -3.4,-0.3 -6.4,-1.5 -8.9,-4.1 -3.9,-4 -3.9,-4.3 0.9,-6.9 2.7,-1.5 4.1,-3.8 4,-6.9 -0.1,-3.1 -1.7,-5.7 -4.6,-6.5 -4.2,-1.2 -3.1,-2.8 -1.1,-5.1 4,-4.4 9.5,-5.8 15,-3.7 5.1,2 9.9,8.6 9.8,13.5 0,1.6 -0.6,2.1 -2,1.9 -2.2,-0.2 -3.7,0.7 -3.9,2.9 -0.2,2.2 1.1,3.4 3.2,3.7 1.9,0.3 1.4,1.3 1,2.5 -1.9,5.1 -8,9.1 -13.4,8.7 z"
         id="path119" /></g><text
       xml:space="preserve"
       transform="matrix(0.2405303,0,0,0.2405303,-863.49408,-19.389408)"
       id="text8217"
       style="font-size:533.333px;white-space:pre;shape-inside:url(#rect8219);fill:#ae6d20;fill-opacity:1"
       inkscape:label="text8217"><tspan
         x="570.33594"
         y="633.95787"
         id="tspan1081"><tspan
           dx="0 0 0 0 0 0 0 0 0 0 -0.00015258789 0.00016784668 -0.00015258789"
           style="font-family:'Alex Brush';-inkscape-font-specification:'Alex Brush';fill:#000000"
           id="tspan1079">Player Stalker</tspan></tspan></text></g><style
     type="text/css"
     id="style9">
	.st0{fill:#AE6D20;}
	.st1{fill:#FBAD0B;}
	.st2{fill:#FAC028;}
	.st3{fill:#FCDD86;}
	.st4{fill:#FEFEFE;}
	.st5{fill:#432407;}
</style></svg>
