<?xml version="1.0" encoding="utf-8"?>
<!-- Generator: Adobe Illustrator 26.0.0, SVG Export Plug-In . SVG Version: 6.00 Build 0)  -->
<svg version="1.1" id="Warstwa_1" xmlns="http://www.w3.org/2000/svg" xmlns:xlink="http://www.w3.org/1999/xlink" x="0px" y="0px"
	 viewBox="0 0 2896.3 2896.3" style="enable-background:new 0 0 2896.3 2896.3;" xml:space="preserve">
<style type="text/css">
	.st0{fill:#74B44A;}
	.st1{fill:#76B64C;}
	.st2{fill:#73B349;}
	.st3{fill:#66A63C;}
	.st4{fill:#6FAF45;}
	.st5{fill:#5F9F35;}
	.st6{fill:#6CAC42;}
	.st7{fill:#7EBE54;}
	.st8{fill:#6AAA40;}
	.st9{fill:#67A73D;}
	.st10{fill:#69A93F;}
	.st11{fill:#61A137;}
	.st12{fill:#509026;}
	.st13{fill:#6DAD43;}
	.st14{fill:#75B54B;}
	.st15{fill:#8AB95A;}
	.st16{fill:#81B051;}
	.st17{fill:#83B253;}
	.st18{fill:#593D29;}
	.st19{fill:#68A83E;}
	.st20{fill:#62A238;}
	.st21{fill:#93C263;}
	.st22{fill:#90BF60;}
	.st23{fill:#6BAB41;}
	.st24{fill:#8DBC5D;}
	.st25{fill:#9CCB6C;}
	.st26{fill:#64A43A;}
	.st27{fill:#70B046;}
	.st28{fill:#7FBF55;}
	.st29{fill:#92C162;}
	.st30{fill:#97C667;}
	.st31{fill:#57972D;}
	.st32{fill:#60A036;}
	.st33{fill:#6C6C6C;}
	.st34{fill:#71B147;}
	.st35{fill:#79553A;}
	.st36{fill:#966C4A;}
	.st37{fill:#B9855C;}
	.st38{fill:#878787;}
	.st39{fill:#745844;}
</style>
<path class="st0" d="M0,181V0h181v181H0z"/>
<path class="st1" d="M181,181V0h181v181H181z"/>
<path class="st2" d="M362,181V0h181v181H362z"/>
<path class="st3" d="M724.1,181h-181V0h181h181v181H724.1h-181V0h181V181z"/>
<path class="st4" d="M905.1,181V0h181v181H905.1z"/>
<path class="st5" d="M1086.1,181V0h181v181H1086.1z"/>
<path class="st6" d="M1267.1,181V0h181v181H1267.1z"/>
<path class="st7" d="M1448.2,181V0h181v181H1448.2z"/>
<path class="st1" d="M1629.2,181V0h181v181H1629.2z"/>
<path class="st8" d="M1810.2,181V0h181v181H1810.2z"/>
<path class="st9" d="M1991.2,181V0h181v181H1991.2z"/>
<path class="st10" d="M2172.2,181V0h181v181H2172.2z"/>
<path class="st11" d="M2353.3,181V0h181v181H2353.3z"/>
<path class="st12" d="M2534.3,181V0h181v181H2534.3z"/>
<path class="st13" d="M2715.3,181V0h181v181H2715.3z"/>
<path class="st14" d="M0,362V181h181v181H0z"/>
<path class="st6" d="M181,362V181h181v181H181z"/>
<path class="st15" d="M362,362V181h181v181H362z"/>
<path class="st16" d="M543.1,362V181h181v181H543.1z"/>
<path class="st17" d="M724.1,362V181h181v181H724.1z"/>
<path class="st18" d="M1086.1,724.1h-181v-181h181h362v181h-181v-181V362h181v181v181h-181h-362v-181V181h181v181V724.1z"/>
<path class="st19" d="M1086.1,362V181h181v181H1086.1z"/>
<path class="st20" d="M1267.1,362V181h181v181H1267.1z"/>
<path class="st5" d="M1448.2,362V181h181v181H1448.2z"/>
<path class="st21" d="M1629.2,362V181h181v181H1629.2z"/>
<path class="st22" d="M1810.2,362V181h181v181H1810.2z"/>
<path class="st2" d="M1991.2,362V181h181v181H1991.2z"/>
<path class="st11" d="M2172.2,362V181h181v181H2172.2z"/>
<path class="st6" d="M2353.3,362V181h181v181H2353.3z"/>
<path class="st9" d="M2534.3,362V181h181v181H2534.3z"/>
<path class="st23" d="M2715.3,362V181h181v181H2715.3z"/>
<path class="st24" d="M0,543.1V362h181v181H0z"/>
<path class="st18" d="M181,543.1V362h181v181H181z"/>
<path class="st25" d="M362,543.1V362h181v181H362z"/>
<path class="st18" d="M57.7,724.1h-181v-181h181h181v181H57.7h-181v-181h181V724.1z"/>
<path class="st26" d="M543.1,543.1V362h181v181H543.1z"/>
<path class="st10" d="M724.1,543.1V362h181v181H724.1z"/>
<path class="st27" d="M1086.1,543.1V362h181v181H1086.1z"/>
<path class="st0" d="M1448.2,543.1V362h181v181H1448.2z"/>
<path class="st28" d="M1629.2,543.1V362h181v181H1629.2z"/>
<path class="st29" d="M1810.2,543.1V362h181v181H1810.2z"/>
<path class="st30" d="M1991.2,543.1V362h181v181H1991.2z"/>
<path class="st18" d="M2172.2,543.1V362h181v181H2172.2z"/>
<path class="st31" d="M2353.3,543.1V362h181v181H2353.3z"/>
<path class="st32" d="M2534.3,543.1V362h181v181H2534.3z"/>
<path class="st18" d="M2896.3,543.1h-181V362h181h181v181H2896.3h-181V362h181V543.1z"/>
<path class="st33" d="M181,724.1v-181h181v181H181z"/>
<path class="st18" d="M543.1,724.1H362v-181h181h181v181H543.1H362v-181h181V724.1z"/>
<path class="st34" d="M724.1,724.1v-181h181v181H724.1z"/>
<path class="st5" d="M1448.2,724.1v-181h181v181H1448.2z"/>
<path class="st18" d="M1810.2,905.1h-181v-181h181h181v181H1810.2h-362v-181h181v181v181h-181h-362v-181h181h362v181h-181v-181v-181
	h181h181V905.1h-181v-181v-181h181v181V905.1z"/>
<path class="st13" d="M1810.2,724.1v-181h181v181H1810.2z"/>
<path class="st18" d="M1991.2,724.1v-181h181v181H1991.2z"/>
<path class="st35" d="M2353.3,1086.1h-181v-181h181h362v181v181h-181v-181v-181h181v181h-181h-362v-181h181V1086.1v362h-181v-181
	h181h181v181v181h-181h-362v-181h181v181v181h-181h-724.1v-181h181h181v181h-181v-181v-181h181v181v181h-181v-181h181h543.1v181
	h-181v-181v-181h181h181v181h-181v-181V543.1h181v181V1086.1z"/>
<path class="st18" d="M2534.3,724.1h-181v-181h181h181v181v181h-181V724.1v-181h181v181H2534.3h-181v-181h181V724.1z"/>
<path class="st35" d="M2896.3,905.1h-181v-181v-181h181v181V905.1z"/>
<path class="st36" d="M0,905.1v-181h181v181H0z"/>
<path class="st35" d="M181,905.1v-181h181v181H181z"/>
<path class="st36" d="M543.1,1086.1H362v-181h181h181v181H543.1H362v-181v-181h181v181V1086.1z"/>
<path class="st37" d="M543.1,905.1v-181h181v181H543.1z"/>
<path class="st18" d="M724.1,905.1v-181h181v181H724.1z"/>
<path class="st36" d="M1086.1,1086.1h-181v-181v-181h181v181V1086.1z"/>
<path class="st35" d="M1267.1,905.1h-181v-181h181h181v181H1267.1h-181v-181h181V905.1z"/>
<path class="st33" d="M1991.2,905.1v-181h181v181H1991.2z"/>
<path class="st36" d="M2353.3,905.1v-181h181v181H2353.3z"/>
<path class="st35" d="M0,1086.1v-181h181v181H0z"/>
<path class="st18" d="M181,1086.1v-181h181v181H181z"/>
<path class="st35" d="M724.1,1086.1v-181h181v181H724.1z"/>
<path class="st35" d="M1810.2,1267.1h-181v-181v-181h181v181V1267.1z"/>
<path class="st35" d="M1810.2,1086.1v-181h181v181H1810.2z"/>
<path class="st18" d="M1991.2,1086.1v-181h181v181H1991.2z"/>
<path class="st37" d="M2896.3,1086.1h-181v-181h181h181v181H2896.3h-181v-181h181V1086.1z"/>
<path class="st35" d="M362,1629.2H181v-181h181h181v181H362H181v-181v-181h181v181H181H0v-181h181h181v181H181v-181v-181h181v181
	V1629.2z"/>
<path class="st35" d="M543.1,1267.1H362v-181h181h181v181H543.1H362v-181h181V1267.1z"/>
<path class="st38" d="M724.1,1267.1v-181h181v181H724.1z"/>
<path class="st35" d="M1086.1,1267.1h-181v-181h181h181v181v181h-181V1267.1h181h181v181h-181h-181V1267.1h181v181v181h-181v-181
	v-362h181v181H1086.1h-181v-181h181V1267.1z"/>
<path class="st37" d="M1448.2,1267.1h-181v-181h181h181v181H1448.2h-181v-181h181V1267.1z"/>
<path class="st37" d="M1991.2,1267.1h-181v-181h181h181v181H1991.2h-181v-181h181V1267.1z"/>
<path class="st36" d="M2353.3,1267.1v-181h181v181H2353.3z"/>
<path class="st36" d="M2896.3,1448.2h-181h-181v-181h181h181V1448.2h-181v-181v-181h181v181V1448.2z"/>
<path class="st37" d="M543.1,1448.2H362v-181h181h181v181H543.1H362v-181h181V1448.2z"/>
<path class="st36" d="M905.1,1448.2h-181v-181h181h181v181v181h-181V1448.2v-181h181v181H905.1h-181v-181h181V1448.2z"/>
<path class="st36" d="M1448.2,1448.2v-181h181v181H1448.2z"/>
<path class="st18" d="M1629.2,1448.2v-181h181v181H1629.2z"/>
<path class="st36" d="M1991.2,1629.2h-181h-181v-181h181h181V1629.2h-181v-181v-181h181v181V1629.2z"/>
<path class="st36" d="M1991.2,1448.2v-181h181v181H1991.2z"/>
<path class="st36" d="M0,1629.2v-181h181v181H0z"/>
<path class="st36" d="M543.1,1629.2v-181h181v181H543.1z"/>
<path class="st35" d="M905.1,1810.2h-181h-181v-181h181h181V1810.2h-181v-181v-181h181v181V1810.2z"/>
<path class="st18" d="M1267.1,1629.2v-181h181v181H1267.1z"/>
<path class="st18" d="M2534.3,1629.2v-181h181v181H2534.3z"/>
<path class="st35" d="M2896.3,1629.2h-181v-181h181h181v181H2896.3h-181v-181h181V1629.2z"/>
<path class="st36" d="M362,1991.2H181v-181v-181h181v181V1991.2z"/>
<path class="st18" d="M362,1810.2v-181h181v181H362z"/>
<path class="st18" d="M1086.1,1810.2h-181v-181h181h181v181H1086.1h-181v-181h181V1810.2z"/>
<path class="st37" d="M2353.3,1810.2h-181v-181h181h181v181H2353.3h-181v-181h181V1810.2z"/>
<path class="st35" d="M2534.3,1810.2v-181h181v181H2534.3z"/>
<path class="st36" d="M2715.3,1810.2v-181h181v181H2715.3z"/>
<path class="st35" d="M0,1991.2v-181h181v181H0z"/>
<path class="st35" d="M543.1,2172.2H362H181v-181h181h181V2172.2H362v-181v-181h181v181V2172.2z"/>
<path class="st37" d="M724.1,1991.2h-181v-181h181h181v181H724.1h-181v-181h181V1991.2z"/>
<path class="st35" d="M905.1,1991.2v-181h181v181H905.1z"/>
<path class="st37" d="M1086.1,1991.2v-181h181v181H1086.1z"/>
<path class="st36" d="M1448.2,2172.2h-181v-181v-181h181v181V2172.2z"/>
<path class="st18" d="M1448.2,1991.2v-181h181v181H1448.2z"/>
<path class="st37" d="M1810.2,1991.2h-181v-181h181h181v181H1810.2h-181v-181h181V1991.2z"/>
<path class="st18" d="M1991.2,1991.2v-181h181v181H1991.2z"/>
<path class="st36" d="M2353.3,1991.2h-181v-181h181h181v181v181h-181V1991.2v-181h181v181H2353.3h-181v-181h181V1991.2z"/>
<path class="st38" d="M2534.3,1991.2v-181h181v181H2534.3z"/>
<path class="st35" d="M2715.3,1991.2v-181h181v181H2715.3z"/>
<path class="st36" d="M0,2172.2v-181h181v181H0z"/>
<path class="st36" d="M724.1,2172.2h-181v-181h181h181v181v181h-181V2172.2h181h181v181h-181h-181V2172.2v-181h181v181H724.1h-181
	v-181h181V2172.2z"/>
<path class="st37" d="M905.1,2172.2v-181h181v181H905.1z"/>
<path class="st35" d="M1086.1,2172.2v-181h181v181H1086.1z"/>
<path class="st33" d="M1448.2,2172.2v-181h181v181H1448.2z"/>
<path class="st36" d="M1810.2,2172.2h-181v-181h181h181v181H1810.2h-181v-181h181V2172.2z"/>
<path class="st35" d="M2172.2,2353.3h-181v-181h181h362v181h-181H2172.2v-181h181v181v362h-181v-181h181h181v181h-181h-181v-181
	v-362h181v181H2172.2h-724.1v-181h181v181v181h-181v-181v-181h181v181h-181h-181v-181h181h724.1V2353.3h-181v-181v-181h181v181
	V2353.3z"/>
<path class="st18" d="M2172.2,2172.2v-181h181v181H2172.2z"/>
<path class="st35" d="M2534.3,2172.2v-181h181v181H2534.3z"/>
<path class="st18" d="M2715.3,2172.2v-181h181v181H2715.3z"/>
<path class="st35" d="M181,2534.3H0v-181v-181h181v181V2534.3z"/>
<path class="st18" d="M181,2353.3v-181h181v181H181z"/>
<path class="st36" d="M362,2353.3v-181h181v181H362z"/>
<path class="st35" d="M724.1,2534.3h-181H362v-181h181h181V2534.3h-181v-181v-181h181v181V2534.3z"/>
<path class="st37" d="M1086.1,2353.3v-181h181v181H1086.1z"/>
<path class="st37" d="M2715.3,2353.3h-181v-181h181h181v181H2715.3h-181v-181h181V2353.3z"/>
<path class="st36" d="M181,2534.3v-181h181v181H181z"/>
<path class="st39" d="M724.1,2534.3v-181h181v181H724.1z"/>
<path class="st35" d="M905.1,2534.3v-181h181v181H905.1z"/>
<path class="st36" d="M1267.1,2534.3h-181v-181h181h181v181H1267.1h-181v-181h181V2534.3z"/>
<path class="st18" d="M1629.2,2534.3v-181h181v181H1629.2z"/>
<path class="st37" d="M1810.2,2534.3v-181h181v181H1810.2z"/>
<path class="st18" d="M1991.2,2534.3v-181h181v181H1991.2z"/>
<path class="st37" d="M2353.3,2534.3v-181h181v181H2353.3z"/>
<path class="st36" d="M2715.3,2715.3h-181v-181h181h181v181H2715.3v-181v-181h181v181h-181h-181v-181h181v181V2715.3z"/>
<path class="st36" d="M181,2896.3H0v-181v-181h181v181V2896.3z"/>
<path class="st35" d="M362,2896.3H181v-181v-181h181v181V2896.3z"/>
<path class="st18" d="M362,2715.3v-181h181v181H362z"/>
<path class="st37" d="M543.1,2715.3v-181h181v181H543.1z"/>
<path class="st35" d="M724.1,2715.3v-181h181v181H724.1z"/>
<path class="st18" d="M905.1,2715.3v-181h181v181H905.1z"/>
<path class="st35" d="M1086.1,2715.3v-181h181v181H1086.1z"/>
<path class="st18" d="M1267.1,2715.3v-181h181v181H1267.1z"/>
<path class="st37" d="M1629.2,2715.3h-181v-181h181h181v181H1629.2h-181v-181h181V2715.3z"/>
<path class="st35" d="M1991.2,2896.3h-181v-181h181h181v181H1991.2h-181v-181v-181h181v181V2896.3z"/>
<path class="st36" d="M1991.2,2715.3v-181h181v181H1991.2z"/>
<path class="st37" d="M362,2896.3v-181h181v181H362z"/>
<path class="st36" d="M724.1,2896.3h-181v-181h181h181v181H724.1h-181v-181h181V2896.3z"/>
<path class="st35" d="M905.1,2896.3v-181h181v181H905.1z"/>
<path class="st38" d="M1086.1,2896.3v-181h181v181H1086.1z"/>
<path class="st35" d="M1267.1,2896.3v-181h181v181H1267.1z"/>
<path class="st36" d="M1629.2,2896.3h-181v-181h181h181v181H1629.2h-181v-181h181V2896.3z"/>
<path class="st36" d="M2353.3,2896.3h-181v-181h181h181v181H2353.3h-181v-181h181V2896.3z"/>
<path class="st35" d="M2534.3,2896.3v-181h181v181H2534.3z"/>
<path class="st18" d="M2715.3,2896.3v-181h181v181H2715.3z"/>
<path class="st37" d="M0,1267.1h-181v-181H0h181v181H0h-181v-181H0V1267.1z"/>
<path class="st35" d="M0,1810.2h-181v-181H0h181v181H0h-181v-181H0V1810.2z"/>
</svg>
