<?xml version="1.0" encoding="UTF-8" standalone="no"?>
<svg
   fill="#000000"
   viewBox="0 0 99.324608 99.298828"
   width="99.324608"
   height="99.298828"
   version="1.1"
   id="svg4"
   sodipodi:docname="search.svg"
   inkscape:version="1.1 (c68e22c387, 2021-05-23)"
   xmlns:inkscape="http://www.inkscape.org/namespaces/inkscape"
   xmlns:sodipodi="http://sodipodi.sourceforge.net/DTD/sodipodi-0.dtd"
   xmlns="http://www.w3.org/2000/svg"
   xmlns:svg="http://www.w3.org/2000/svg">
  <defs
     id="defs8" />
  <sodipodi:namedview
     id="namedview6"
     pagecolor="#ffffff"
     bordercolor="#666666"
     borderopacity="1.0"
     inkscape:pageshadow="2"
     inkscape:pageopacity="0.0"
     inkscape:pagecheckerboard="0"
     showgrid="false"
     fit-margin-top="0"
     fit-margin-left="0"
     fit-margin-right="0"
     fit-margin-bottom="0"
     inkscape:zoom="2"
     inkscape:cx="21"
     inkscape:cy="12.75"
     inkscape:window-width="5120"
     inkscape:window-height="1369"
     inkscape:window-x="-8"
     inkscape:window-y="40"
     inkscape:window-maximized="1"
     inkscape:current-layer="svg4" />
  <path
     id="path2"
     style="fill:#000000;fill-opacity:1;stroke:none"
     d="M 37.949609,0 C 28.224609,0 18.5,3.699609 11.1,11.099609 c -14.8,14.8 -14.8,38.899219 0,53.699219 7.4,7.4 17.100391,11.101562 26.900391,11.101562 8.818414,0 17.549915,-3.007902 24.603515,-9 l 4.292969,4.292969 c 0.0018,0.0016 0.0022,0.0043 0.0039,0.0059 l 2.5,2.5 c -0.6,1.2 -0.90039,2.500391 -0.90039,3.900391 0,2.4 0.899609,4.700391 2.599609,6.400391 l 12.800787,12.599568 c 1.799999,1.8 4.098439,2.69922 6.398439,2.69922 2.3,0 4.60039,-0.89961 6.40039,-2.59961 3.5,-3.5 3.5,-9.19922 0,-12.699219 L 83.900781,71.199218 c -1.7,-1.7 -4.00039,-2.599609 -6.40039,-2.599609 C 76.100391,68.599609 74.8,68.9 73.6,69.5 L 71.1,67 66.810938,62.710937 C 79.559694,47.813297 78.92395,25.224341 64.799219,11.099609 57.399219,3.699609 47.674609,0 37.949609,0 Z m -0.04883,5.90039 c 8.2,0 16.39961,3.098438 22.59961,9.398438 C 73.000391,27.798828 73,48.099609 60.6,60.599609 c -12.5,12.5 -32.800781,12.5 -45.300781,0 -12.5,-12.5 -12.5,-32.800781 0,-45.300781 6.2,-6.2 14.401562,-9.398438 22.601562,-9.398438 z m 0,6 C 31.000781,11.90039 24.5,14.599609 19.6,19.599609 14.9,24.299609 12.300391,30.4 12.000391,37 c -0.1,1.7 1.20039,2.999609 2.90039,3.099609 h 0.09961 c 1.6,0 2.9,-1.300391 3,-2.900391 0.2,-5.1 2.298828,-9.80039 5.798828,-13.40039 3.8,-3.8 8.801562,-5.898438 14.101562,-5.898438 1.7,0 3,-1.3 3,-3 0,-1.7 -1.3,-3 -3,-3 z" />
</svg>
