<?xml version="1.0" encoding="utf-8"?>
<!-- Generator: Adobe Illustrator 26.0.0, SVG Export Plug-In . SVG Version: 6.00 Build 0)  -->
<svg version="1.1" id="Warstwa_1" xmlns="http://www.w3.org/2000/svg" xmlns:xlink="http://www.w3.org/1999/xlink" x="0px" y="0px"
	 viewBox="0 0 2896.3 2896.3" style="enable-background:new 0 0 2896.3 2896.3;" xml:space="preserve">
<style type="text/css">
	.st0{fill:#2F200D;}
	.st1{fill:#2B1E0D;}
	.st2{fill:#2F1F0F;}
	.st3{fill:#281C0B;}
	.st4{fill:#241808;}
	.st5{fill:#261A0A;}
	.st6{fill:#2A1D0D;}
	.st7{fill:#332411;}
	.st8{fill:#422A12;}
	.st9{fill:#3F2A15;}
	.st10{fill:#2C1E0E;}
	.st11{fill:#B6896C;}
	.st12{fill:#BD8E72;}
	.st13{fill:#C69680;}
	.st14{fill:#BD8B72;}
	.st15{fill:#BD8E74;}
	.st16{fill:#AC765A;}
	.st17{fill:#342512;}
	.st18{fill:#AA7D66;}
	.st19{fill:#B4846D;}
	.st20{fill:#AD806D;}
	.st21{fill:#9C725C;}
	.st22{fill:#BB8972;}
	.st23{fill:#9C694C;}
	.st24{fill:#FFFFFF;}
	.st25{fill:#523D89;}
	.st26{fill:#B57B67;}
	.st27{fill:#9C6346;}
	.st28{fill:#B37B62;}
	.st29{fill:#B78272;}
	.st30{fill:#6A4030;}
	.st31{fill:#BE886C;}
	.st32{fill:#A26A47;}
	.st33{fill:#805334;}
	.st34{fill:#905E43;}
	.st35{fill:#965F40;}
	.st36{fill:#774235;}
	.st37{fill:#8F5E3E;}
	.st38{fill:#815339;}
	.st39{fill:#6F452C;}
	.st40{fill:#6D432A;}
	.st41{fill:#7A4E33;}
	.st42{fill:#83553B;}
</style>
<path class="st0" d="M0,362V0h362v362H0z"/>
<path class="st1" d="M724.1,724.1H362V362h362h362v362H724.1H0V362h362v362v362H0v-362V362h362h362V724.1H362V362V0h362v362V724.1z"
	/>
<path class="st2" d="M724.1,362V0h362v362H724.1z"/>
<path class="st3" d="M1086.1,362V0h362v362H1086.1z"/>
<path class="st4" d="M1448.2,362V0h362v362H1448.2z"/>
<path class="st5" d="M1810.2,362V0h362v362H1810.2z"/>
<path class="st1" d="M2172.2,362V0h362v362H2172.2z"/>
<path class="st6" d="M2534.3,362V0h362v362H2534.3z"/>
<path class="st7" d="M1086.1,724.1V362h362v362H1086.1z"/>
<path class="st8" d="M1448.2,724.1V362h362v362H1448.2z"/>
<path class="st9" d="M1810.2,724.1V362h362v362H1810.2z"/>
<path class="st10" d="M2172.2,724.1V362h362v362H2172.2z"/>
<path class="st3" d="M2534.3,724.1V362h362v362H2534.3z"/>
<path class="st11" d="M362,1086.1v-362h362v362H362z"/>
<path class="st12" d="M724.1,1086.1v-362h362v362H724.1z"/>
<path class="st13" d="M1086.1,1086.1v-362h362v362H1086.1z"/>
<path class="st14" d="M1448.2,1086.1v-362h362v362H1448.2z"/>
<path class="st15" d="M1810.2,1086.1v-362h362v362H1810.2z"/>
<path class="st16" d="M2172.2,1086.1v-362h362v362H2172.2z"/>
<path class="st17" d="M2534.3,1086.1v-362h362v362H2534.3z"/>
<path class="st18" d="M0,1448.2v-362h362v362H0z"/>
<path class="st19" d="M362,1448.2v-362h362v362H362z"/>
<path class="st18" d="M724.1,1448.2v-362h362v362H724.1z"/>
<path class="st20" d="M1086.1,1448.2v-362h362v362H1086.1z"/>
<path class="st21" d="M1448.2,1448.2v-362h362v362H1448.2z"/>
<path class="st22" d="M1810.2,1448.2v-362h362v362H1810.2z"/>
<path class="st23" d="M2534.3,1448.2h-362v-362h362h362v362H2534.3h-362v-362h362V1448.2z"/>
<path class="st19" d="M0,1810.2v-362h362v362H0z"/>
<path class="st24" d="M362,1810.2v-362h362v362H362z"/>
<path class="st25" d="M724.1,1810.2v-362h362v362H724.1z"/>
<path class="st26" d="M1086.1,1810.2v-362h362v362H1086.1z"/>
<path class="st22" d="M1448.2,1810.2v-362h362v362H1448.2z"/>
<path class="st25" d="M1810.2,1810.2v-362h362v362H1810.2z"/>
<path class="st24" d="M2172.2,1810.2v-362h362v362H2172.2z"/>
<path class="st18" d="M2534.3,1810.2v-362h362v362H2534.3z"/>
<path class="st27" d="M0,2172.2v-362h362v362H0z"/>
<path class="st28" d="M362,2172.2v-362h362v362H362z"/>
<path class="st29" d="M724.1,2172.2v-362h362v362H724.1z"/>
<path class="st30" d="M1448.2,2172.2h-362v-362h362h362v362H1448.2h-362v-362h362V2172.2z"/>
<path class="st31" d="M1810.2,2172.2v-362h362v362H1810.2z"/>
<path class="st32" d="M2172.2,2172.2v-362h362v362H2172.2z"/>
<path class="st33" d="M2534.3,2172.2v-362h362v362H2534.3z"/>
<path class="st34" d="M0,2534.3v-362h362v362H0z"/>
<path class="st35" d="M362,2534.3v-362h362v362H362z"/>
<path class="st36" d="M1086.1,2534.3h-362v-362h362h1086.1v362h-362H724.1v-362h362V2534.3z"/>
<path class="st37" d="M2172.2,2534.3v-362h362v362H2172.2z"/>
<path class="st38" d="M2534.3,2534.3v-362h362v362H2534.3z"/>
<path class="st39" d="M0,2896.3v-362h362v362H0z"/>
<path class="st40" d="M362,2896.3v-362h362v362H362z"/>
<path class="st38" d="M1086.1,2896.3h-362v-362h362h362v362H1086.1h-362v-362h362V2896.3z"/>
<path class="st41" d="M1448.2,2896.3v-362h362v362H1448.2z"/>
<path class="st42" d="M2172.2,2896.3h-362v-362h362h362v362H2172.2h-362v-362h362V2896.3z"/>
<path class="st41" d="M2534.3,2896.3v-362h362v362H2534.3z"/>
</svg>
