<?xml version="1.0" encoding="utf-8"?>
<!-- Generator: Adobe Illustrator 26.0.0, SVG Export Plug-In . SVG Version: 6.00 Build 0)  -->
<svg version="1.1"
	 id="svg8" xmlns:cc="http://creativecommons.org/ns#" xmlns:dc="http://purl.org/dc/elements/1.1/" xmlns:rdf="http://www.w3.org/1999/02/22-rdf-syntax-ns#" xmlns:svg="http://www.w3.org/2000/svg"
	 xmlns="http://www.w3.org/2000/svg" xmlns:xlink="http://www.w3.org/1999/xlink" x="0px" y="0px" viewBox="0 0 400 400"
	 style="enable-background:new 0 0 400 400;" xml:space="preserve">
<style type="text/css">
	.st0{fill:url(#rect3411_00000101807556948320561570000017556928500924495266_);}
	.st1{fill:#FFFFFF;}
</style>
<g id="layer1" transform="translate(-47.598923,-17.964314)">
	
		<linearGradient id="rect3411_00000096037091508858742250000003126253180658429072_" gradientUnits="userSpaceOnUse" x1="-357.1501" y1="651.3062" x2="-251.3167" y2="545.4729" gradientTransform="matrix(3.7795 0 0 -3.7795 1397.4572 2479.594)">
		<stop  offset="0" style="stop-color:#158FD8"/>
		<stop  offset="0.4874" style="stop-color:#72CEF1"/>
		<stop  offset="1" style="stop-color:#6AE2FE"/>
	</linearGradient>
	
		<rect id="rect3411" x="47.6" y="18" style="fill:url(#rect3411_00000096037091508858742250000003126253180658429072_);" width="400" height="400"/>
	<path id="_x31_" class="st1" d="M250.6,163.3l0.3-12.7c7.5-0.2,36.5-0.3,39.3-0.1c0,0,4.5-48.2,4.7-52c-14.9,0.4-28.2-0.1-40,0.1
		c-11.9,0.2-22.1-0.6-30.8-0.6c-10.1,0.2-19,0.2-27,0c0.6,30.2,1,59.5,1.4,84.7c0.3,25.1,0.6,46.8,0.7,65.1c0.2,21.2,0.3,89,0.3,89
		l53.4-11.3c-0.4-11.1-0.6-41.9-0.7-51.9c-0.1-10-0.2-25.5-0.5-34.4c6.9-0.2,10.4-0.3,15.3-0.3c0,0,14.2-0.6,16.8-0.3
		c-0.2-7.5,0.9-49.5,0.9-49.5c-11.5,0.4-14.2,0.1-20.9,0.1h-12.9c-0.2-6.6-0.2-7.8-0.2-13L250.6,163.3L250.6,163.3z"/>
</g>
</svg>
