<?xml version="1.0" encoding="utf-8"?>
<svg version="1.1" id="snapLogo" xmlns:svg="http://www.w3.org/2000/svg"
	 xmlns="http://www.w3.org/2000/svg" xmlns:xlink="http://www.w3.org/1999/xlink" x="0px" y="0px" viewBox="0 0 1024 1024"
	 style="enable-background:new 0 0 1024 1024;" xml:space="preserve">
<style type="text/css">
	.st0{fill:#FFFC00;}
	.st1{fill:#FFFFFF;}
</style>
<path id="outline" d="M163.8,0C73.4,0,0,73.4,0,163.8v696.3C0,950.6,73.4,1024,163.8,1024h696.3c90.5,0,163.8-73.4,163.8-163.8
	V163.8C1024,73.4,950.6,0,860.2,0H163.8z"/>
<path id="infill" class="st0" d="M163.8,32C91,32,32,91,32,163.8v696.3C32,933,91,992,163.8,992h696.3C933,992,992,933,992,860.2
	V163.8C992,91,933,32,860.2,32H163.8z"/>
<path id="ghost_x5F_infill" class="st1" d="M772.2,642.3c-2.3-7.5-13.1-12.8-13.1-12.8l0,0c-1-0.5-1.9-1-2.7-1.4
	c-18.1-8.7-34.1-19.3-47.6-31.2c-10.9-9.6-20.1-20.2-27.6-31.4c-9.1-13.7-13.4-25.2-15.2-31.4c-1-4.1-0.9-5.7,0-7.8
	c0.7-1.8,2.8-3.5,3.8-4.3c6.1-4.3,15.9-10.7,22-14.6c5.2-3.4,9.7-6.3,12.4-8.2c8.5-5.9,14.3-12,17.7-18.5c4.4-8.4,5-17.7,1.5-26.8
	c-4.6-12.3-16.1-19.7-30.8-19.7c-3.2,0-6.6,0.4-9.9,1.1c-8.4,1.8-16.3,4.8-23,7.4c-0.5,0.2-1-0.2-1-0.7c0.7-16.5,1.5-38.6-0.3-59.6
	c-1.6-19-5.6-35-11.9-49c-6.4-14-14.8-24.4-21.3-31.9c-6.2-7.1-17.2-17.7-33.7-27.1c-23.2-13.3-49.7-20-78.6-20
	c-28.9,0-55.3,6.8-78.6,20c-17.5,10-28.7,21.3-33.8,27.1c-6.5,7.5-14.9,17.9-21.3,31.9c-6.4,14-10.3,30-11.9,49
	c-1.8,21.1-1.1,41.5-0.3,59.6c0,0.5-0.5,0.9-1,0.7c-6.6-2.6-14.6-5.6-23-7.4c-3.3-0.7-6.6-1.1-9.9-1.1c-14.6,0-26.1,7.3-30.8,19.7
	c-3.5,9.1-2.9,18.4,1.5,26.8c3.5,6.5,9.2,12.6,17.7,18.5c2.6,1.8,7.1,4.8,12.4,8.2c5.9,3.8,15.4,10,21.6,14.3
	c0.8,0.5,3.3,2.5,4.2,4.5c0.9,2.2,1,3.8-0.1,8.1c-1.9,6.3-6.2,17.6-15.1,31.1c-7.5,11.3-16.7,21.8-27.6,31.4
	c-13.5,11.9-29.5,22.5-47.6,31.2c-0.9,0.4-1.9,0.9-3,1.6l0,0c0,0-10.8,5.5-12.9,12.6c-3,10.5,5,20.4,13.2,25.7
	c13.4,8.6,29.7,13.3,39.2,15.8c2.6,0.7,5,1.4,7.2,2c1.4,0.4,4.8,1.7,6.2,3.6c1.8,2.4,2.1,5.3,2.7,8.6l0,0c1,5.6,3.3,12.4,10.2,17.2
	c7.6,5.2,17.1,5.6,29.3,6c12.7,0.5,28.5,1.1,46.5,7.1c8.4,2.8,16,7.5,24.7,12.9c18.4,11.3,41.2,25.3,80.2,25.3
	c39,0,62-14.1,80.5-25.4c8.7-5.3,16.3-10,24.5-12.7c18.1-6,33.9-6.6,46.6-7.1c12.2-0.5,21.7-0.8,29.3-6c7.3-5.1,9.5-12.6,10.4-18.3
	c0.5-2.8,0.9-5.3,2.5-7.4c1.4-1.8,4.5-3,6-3.5c2.2-0.7,4.7-1.4,7.5-2.1c9.5-2.5,21.3-5.5,35.7-13.7
	C772.8,660.3,774,648.2,772.2,642.3L772.2,642.3z"/>
<path id="ghost_x5F_outline" d="M787.2,636.4c-3.8-10.5-11.2-16-19.5-20.7c-1.6-0.9-3-1.7-4.2-2.2c-2.5-1.3-5-2.5-7.6-3.8
	c-26-13.8-46.3-31.2-60.3-51.7c-4.8-7-8-13.2-10.4-18.4c-1.2-3.5-1.1-5.4-0.3-7.2c0.6-1.4,2.4-2.8,3.3-3.5c4.5-3,9.1-5.9,12.2-7.9
	c5.6-3.6,10-6.5,12.8-8.4c10.7-7.5,18.1-15.4,22.8-24.2c6.6-12.5,7.4-26.7,2.3-40.1c-7-18.6-24.6-30.1-45.9-30.1
	c-4.4,0-8.9,0.5-13.3,1.5c-1.2,0.3-2.3,0.5-3.5,0.8c0.2-12.6-0.1-26.1-1.2-39.3c-4-46.4-20.3-70.8-37.2-90.2
	c-7.1-8.1-19.4-19.9-37.9-30.5c-25.8-14.8-54.9-22.2-86.7-22.2c-31.7,0-60.9,7.5-86.6,22.2c-18.6,10.6-30.9,22.5-37.9,30.5
	c-17,19.4-33.2,43.7-37.2,90.2c-1.1,13.2-1.4,26.7-1.2,39.3c-1.1-0.3-2.3-0.5-3.5-0.8c-4.4-1-9-1.5-13.3-1.5
	c-21.3,0-38.9,11.6-45.9,30.1c-5.1,13.4-4.3,27.6,2.3,40.1c4.6,8.9,12.2,16.8,22.8,24.2c2.9,2,7.2,4.9,12.8,8.4
	c3,1.9,7.4,4.8,11.7,7.7c0.6,0.4,3,2.2,3.8,3.8c0.9,1.8,0.9,3.8-0.4,7.5c-2.3,5-5.6,11.2-10.2,18c-13.8,20.1-33.5,37.2-58.6,50.8
	c-13.3,7.1-27.2,11.8-33,27.6c-4.4,12-1.5,25.7,9.7,37.2l0,0c3.7,3.9,8.3,7.5,14.1,10.7c13.7,7.6,25.4,11.3,34.6,13.8
	c1.6,0.5,5.3,1.7,7,3.1c4.1,3.6,3.5,9,9,16.8c3.3,4.9,7.1,8.3,10.2,10.4c11.4,7.9,24.2,8.4,37.9,8.9c12.3,0.5,26.2,1,42.1,6.3
	c6.6,2.2,13.4,6.4,21.3,11.2c19,11.7,45.1,27.7,88.7,27.7c43.6,0,69.8-16.1,89-27.8c7.9-4.8,14.7-9,21.1-11.1
	c15.9-5.2,29.8-5.8,42.1-6.3c13.6-0.5,26.4-1,37.9-8.9c3.6-2.5,8.1-6.5,11.7-12.7c3.9-6.6,3.8-11.3,7.5-14.5c1.5-1.3,4.8-2.4,6.6-3
	c9.2-2.5,21.1-6.3,35-14c6.2-3.4,11-7.1,14.9-11.4c0.1-0.1,0.1-0.1,0.2-0.2C788.9,661.4,791.5,648.1,787.2,636.4L787.2,636.4z
	 M748.5,657.2c-23.7,13.1-39.4,11.7-51.6,19.5c-10.4,6.7-4.3,21.1-11.8,26.3c-9.3,6.4-36.7-0.4-72,11.2
	c-29.2,9.7-47.8,37.4-100.3,37.4c-52.7,0-70.7-27.6-100.3-37.4c-35.4-11.7-62.8-4.8-72-11.2c-7.5-5.2-1.4-19.6-11.8-26.3
	c-12.2-7.9-27.9-6.5-51.6-19.5c-15.1-8.3-6.5-13.4-1.5-15.9c85.6-41.4,99.3-105.5,99.9-110.3c0.8-5.7,1.6-10.3-4.8-16.1
	c-6.1-5.7-33.3-22.5-40.8-27.7c-12.5-8.7-17.9-17.4-13.9-28.1c2.8-7.4,9.7-10.2,17-10.2c2.3,0,4.6,0.3,6.8,0.8
	c13.7,3,26.9,9.8,34.6,11.7c1.1,0.3,2,0.4,2.8,0.4c4.1,0,5.5-2.1,5.2-6.8c-0.9-15-3-44.1-0.6-71.4c3.2-37.5,15.3-56.1,29.7-72.5
	c6.9-7.9,39.3-42.1,101.3-42.1c62.1,0,94.3,34.2,101.3,42.1c14.4,16.4,26.5,35,29.7,72.5c2.4,27.3,0.3,56.4-0.6,71.4
	c-0.3,4.9,1.2,6.8,5.2,6.8c0.8,0,1.8-0.1,2.8-0.4c7.7-1.8,21-8.7,34.6-11.7c2.2-0.5,4.5-0.8,6.8-0.8c7.3,0,14.2,2.8,17,10.2
	c4.1,10.7-1.5,19.4-13.9,28.1c-7.5,5.2-34.7,22-40.8,27.7c-6.3,5.8-5.5,10.4-4.8,16.1c0.6,4.8,14.3,68.9,99.9,110.3
	C754.9,643.8,763.5,648.9,748.5,657.2z"/>
</svg>
